# Blender 5.1.2
# www.blender.org
mtllib Barrier.mtl
o Playground_Fence_Straight
v -1.105963 0.271290 0.298401
v -0.857152 0.271290 0.258389
v -1.145975 0.271290 0.049591
v -0.897164 0.271290 0.009578
v -1.145975 2.071014 0.258389
v -0.897164 2.071014 0.298401
v -1.105963 2.071014 0.009578
v -0.857152 2.071014 0.049591
v -1.145975 0.271290 0.258389
v -0.897164 0.271290 0.298401
v -1.105963 0.271290 0.009578
v -0.857152 0.271290 0.049591
v -1.105963 2.071014 0.298401
v -0.857152 2.071014 0.258389
v -1.145975 2.071014 0.049591
v -0.897164 2.071014 0.009578
v -1.001183 2.247404 0.153990
v -1.049113 2.223944 0.070972
v -1.084201 2.223944 0.106059
v -1.084201 2.223944 0.201920
v -1.049113 2.223944 0.237008
v -0.953252 2.223944 0.237008
v -0.918164 2.223944 0.201920
v -0.918164 2.223944 0.106059
v -0.953252 2.223944 0.070972
v -1.084201 2.159849 0.010198
v -1.144974 2.159849 0.070972
v -1.144974 2.159849 0.237008
v -1.084201 2.159849 0.297781
v -0.918164 2.159849 0.297781
v -0.857391 2.159849 0.237008
v -0.857391 2.159849 0.070972
v -0.918164 2.159849 0.010198
v -1.071757 2.072295 0.031751
v -1.123421 2.072295 0.083415
v -1.123421 2.072295 0.224564
v -1.071757 2.072295 0.276228
v -0.930608 2.072295 0.276228
v -0.878944 2.072295 0.224564
v -0.878944 2.072295 0.083415
v -0.930608 2.072295 0.031751
v -1.091644 2.072295 -0.002695
v -1.157867 2.072295 0.063528
v -1.157867 2.072295 0.244451
v -1.091644 2.072295 0.310674
v -0.910721 2.072295 0.310674
v -0.844498 2.072295 0.244452
v -0.844498 2.072295 0.063528
v -0.910721 2.072295 -0.002695
v -1.095542 2.082530 -0.009446
v -0.906823 2.082530 -0.009446
v -0.837747 2.082530 0.059630
v -0.837747 2.082530 0.248350
v -0.906823 2.082530 0.317426
v -1.095542 2.082530 0.317426
v -1.164618 2.082530 0.248349
v -1.164618 2.082530 0.059630
v -1.243906 0.004929 0.357319
v -0.766875 -0.005010 0.348903
v -1.243906 0.004929 -0.049339
v -0.766875 -0.005010 -0.040923
v -1.235490 -0.005010 0.348903
v -0.797854 0.004929 0.396713
v -1.196096 -0.005010 -0.080318
v -0.797854 0.004929 -0.088734
v -1.168849 0.278549 0.361050
v -0.794122 0.278549 0.321656
v -0.833516 0.278549 -0.053071
v -1.208243 0.278549 -0.013676
v -1.122300 0.316622 0.314502
v -0.880065 0.316622 0.314502
v -0.840670 0.316622 0.032872
v -1.161695 0.316622 0.032872
v -1.204511 0.004929 0.396713
v -0.806269 -0.005010 0.388297
v -1.204511 0.004929 -0.088734
v -0.806269 -0.005010 -0.080318
v -1.196096 -0.005010 0.388297
v -0.758459 0.004929 0.357319
v -1.235490 -0.005010 -0.040923
v -0.758459 0.004929 -0.049339
v -1.208243 0.278549 0.321656
v -0.833516 0.278549 0.361050
v -0.794122 0.278549 -0.013676
v -1.168849 0.278549 -0.053071
v -1.161695 0.316622 0.275107
v -0.840670 0.316622 0.275107
v -0.880065 0.316622 -0.006522
v -1.122300 0.316622 -0.006522
v -1.680447 0.382190 0.222088
v -1.406629 0.356008 0.195907
v -1.680447 0.382190 0.085891
v -1.406629 0.356008 0.112073
v -1.654266 1.871773 0.248270
v -1.406629 1.871773 0.248270
v -1.680447 1.871773 0.085891
v -1.380447 1.871773 0.085891
v -1.654266 0.356008 0.195907
v -1.406629 0.382190 0.248270
v -1.628084 0.356008 0.085891
v -1.406629 0.382190 0.059710
v -1.628084 1.897955 0.222088
v -1.406629 1.897955 0.195907
v -1.654266 1.897955 0.112073
v -1.432810 1.897955 0.085891
v -1.654266 0.382190 0.248270
v -1.432810 0.356008 0.222747
v -1.654266 0.382190 0.059710
v -1.432810 0.356008 0.085232
v -1.680447 1.871773 0.222088
v -1.380447 1.871773 0.222088
v -1.654266 1.871773 0.059710
v -1.406629 1.871773 0.059710
v -1.628084 0.356008 0.222088
v -1.380447 0.382190 0.222088
v -1.654266 0.356008 0.112073
v -1.380447 0.382190 0.085891
v -1.654266 1.897955 0.195907
v -1.432810 1.897955 0.222088
v -1.628084 1.897955 0.085891
v -1.406629 1.897955 0.112073
v -2.540680 1.604872 0.154852
v -2.540680 1.623360 0.110217
v -2.540680 1.667995 0.091729
v -2.540680 1.712630 0.110217
v -2.540680 1.731118 0.154852
v -2.540680 1.712630 0.199487
v -2.540680 1.667995 0.217975
v -2.540680 1.623360 0.199487
v -1.097901 1.604872 0.154852
v -1.097901 1.623360 0.110217
v -1.097901 1.667995 0.091729
v -1.097901 1.712630 0.110217
v -1.097901 1.731118 0.154852
v -1.097901 1.712630 0.199486
v -1.097901 1.667995 0.217975
v -1.097901 1.623360 0.199486
v -2.540231 0.514364 0.154852
v -2.540231 0.532852 0.110217
v -2.540231 0.577487 0.091729
v -2.540231 0.622121 0.110217
v -2.540231 0.640610 0.154852
v -2.540231 0.622121 0.199487
v -2.540231 0.577487 0.217975
v -2.540231 0.532852 0.199487
v -1.097451 0.514364 0.154852
v -1.097451 0.532852 0.110217
v -1.097451 0.577487 0.091729
v -1.097451 0.622121 0.110217
v -1.097451 0.640610 0.154852
v -1.097451 0.622121 0.199486
v -1.097451 0.577487 0.217975
v -1.097451 0.532852 0.199486
v -2.276193 0.382190 0.222088
v -2.002375 0.356008 0.195907
v -2.276193 0.382190 0.085891
v -2.002375 0.356008 0.112073
v -2.250012 1.871773 0.248270
v -2.002375 1.871773 0.248270
v -2.276193 1.871773 0.085891
v -1.976193 1.871773 0.085891
v -2.250012 0.356008 0.195907
v -2.002375 0.382190 0.248270
v -2.223830 0.356008 0.085891
v -2.002375 0.382190 0.059710
v -2.223830 1.897955 0.222088
v -2.002375 1.897955 0.195907
v -2.250012 1.897955 0.112073
v -2.028556 1.897955 0.085891
v -2.250012 0.382190 0.248270
v -2.028556 0.356008 0.222747
v -2.250012 0.382190 0.059710
v -2.028556 0.356008 0.085232
v -2.276193 1.871773 0.222088
v -1.976193 1.871773 0.222088
v -2.250012 1.871773 0.059710
v -2.002375 1.871773 0.059710
v -2.223830 0.356008 0.222088
v -1.976193 0.382190 0.222088
v -2.250012 0.356008 0.112073
v -1.976193 0.382190 0.085891
v -2.250012 1.897955 0.195907
v -2.028556 1.897955 0.222088
v -2.223830 1.897955 0.085891
v -2.002375 1.897955 0.112073
v -0.634116 0.382190 0.222088
v -0.360298 0.356008 0.195907
v -0.634116 0.382190 0.085891
v -0.360298 0.356008 0.112073
v -0.607935 1.871773 0.248270
v -0.360298 1.871773 0.248270
v -0.634116 1.871773 0.085891
v -0.334116 1.871773 0.085891
v -0.607935 0.356008 0.195907
v -0.360298 0.382190 0.248270
v -0.581753 0.356008 0.085891
v -0.360298 0.382190 0.059710
v -0.581753 1.897955 0.222088
v -0.360298 1.897955 0.195907
v -0.607935 1.897955 0.112073
v -0.386479 1.897955 0.085891
v -0.607935 0.382190 0.248270
v -0.386479 0.356008 0.222747
v -0.607935 0.382190 0.059710
v -0.386479 0.356008 0.085232
v -0.634116 1.871773 0.222088
v -0.334116 1.871773 0.222088
v -0.607935 1.871773 0.059710
v -0.360298 1.871773 0.059710
v -0.581753 0.356008 0.222088
v -0.334116 0.382190 0.222088
v -0.607935 0.356008 0.112073
v -0.334116 0.382190 0.085891
v -0.607935 1.897955 0.195907
v -0.386479 1.897955 0.222088
v -0.581753 1.897955 0.085891
v -0.360298 1.897955 0.112073
v -0.903586 1.604872 0.154852
v -0.903586 1.623360 0.110217
v -0.903586 1.667995 0.091729
v -0.903586 1.712630 0.110217
v -0.903586 1.731118 0.154852
v -0.903586 1.712630 0.199487
v -0.903586 1.667995 0.217975
v -0.903586 1.623360 0.199487
v 0.539193 1.604872 0.154852
v 0.539193 1.623360 0.110217
v 0.539193 1.667995 0.091729
v 0.539193 1.712630 0.110217
v 0.539193 1.731118 0.154852
v 0.539193 1.712630 0.199486
v 0.539193 1.667995 0.217975
v 0.539193 1.623360 0.199486
v -0.043353 0.382190 0.222088
v 0.230465 0.356008 0.195907
v -0.043353 0.382190 0.085891
v 0.230465 0.356008 0.112073
v -0.017172 1.871773 0.248270
v 0.230465 1.871773 0.248270
v -0.043353 1.871773 0.085891
v 0.256647 1.871773 0.085891
v -0.017172 0.356008 0.195907
v 0.230465 0.382190 0.248270
v 0.009010 0.356008 0.085891
v 0.230465 0.382190 0.059710
v 0.009010 1.897955 0.222088
v 0.230465 1.897955 0.195907
v -0.017172 1.897955 0.112073
v 0.204284 1.897955 0.085891
v -0.017172 0.382190 0.248270
v 0.204284 0.356008 0.222747
v -0.017172 0.382190 0.059710
v 0.204284 0.356008 0.085232
v -0.043353 1.871773 0.222088
v 0.256647 1.871773 0.222088
v -0.017172 1.871773 0.059710
v 0.230465 1.871773 0.059710
v 0.009010 0.356008 0.222088
v 0.256647 0.382190 0.222088
v -0.017172 0.356008 0.112073
v 0.256647 0.382190 0.085891
v -0.017172 1.897955 0.195907
v 0.204284 1.897955 0.222088
v 0.009010 1.897955 0.085891
v 0.230465 1.897955 0.112073
v -0.903137 0.514364 0.154852
v -0.903137 0.532852 0.110217
v -0.903137 0.577487 0.091729
v -0.903137 0.622121 0.110217
v -0.903137 0.640610 0.154852
v -0.903137 0.622121 0.199487
v -0.903137 0.577487 0.217975
v -0.903137 0.532852 0.199487
v 0.539642 0.514364 0.154852
v 0.539642 0.532852 0.110217
v 0.539642 0.577487 0.091729
v 0.539642 0.622121 0.110217
v 0.539642 0.640610 0.154852
v 0.539642 0.622121 0.199486
v 0.539642 0.577487 0.217975
v 0.539642 0.532852 0.199486
v 0.530351 0.271290 0.298401
v 0.779161 0.271290 0.258389
v 0.490339 0.271290 0.049591
v 0.739149 0.271290 0.009578
v 0.490339 2.071014 0.258389
v 0.739149 2.071014 0.298401
v 0.530351 2.071014 0.009578
v 0.779161 2.071014 0.049591
v 0.490339 0.271290 0.258389
v 0.739149 0.271290 0.298401
v 0.530351 0.271290 0.009578
v 0.779161 0.271290 0.049591
v 0.530351 2.071014 0.298401
v 0.779161 2.071014 0.258389
v 0.490339 2.071014 0.049591
v 0.739149 2.071014 0.009578
v 0.634750 2.247404 0.153990
v 0.586820 2.223944 0.070972
v 0.551732 2.223944 0.106059
v 0.551732 2.223944 0.201920
v 0.586820 2.223944 0.237008
v 0.682681 2.223944 0.237008
v 0.717768 2.223944 0.201920
v 0.717768 2.223944 0.106059
v 0.682681 2.223944 0.070972
v 0.551732 2.159849 0.010198
v 0.490958 2.159849 0.070972
v 0.490958 2.159849 0.237008
v 0.551732 2.159849 0.297781
v 0.717768 2.159849 0.297781
v 0.778542 2.159849 0.237008
v 0.778542 2.159849 0.070972
v 0.717768 2.159849 0.010198
v 0.564176 2.072295 0.031751
v 0.512512 2.072295 0.083415
v 0.512512 2.072295 0.224564
v 0.564176 2.072295 0.276228
v 0.705324 2.072295 0.276228
v 0.756989 2.072295 0.224564
v 0.756989 2.072295 0.083415
v 0.705325 2.072295 0.031751
v 0.544288 2.072295 -0.002695
v 0.478066 2.072295 0.063528
v 0.478066 2.072295 0.244451
v 0.544288 2.072295 0.310674
v 0.725212 2.072295 0.310674
v 0.791434 2.072295 0.244452
v 0.791435 2.072295 0.063528
v 0.725212 2.072295 -0.002695
v 0.540390 2.082530 -0.009446
v 0.729110 2.082530 -0.009446
v 0.798186 2.082530 0.059630
v 0.798186 2.082530 0.248350
v 0.729110 2.082530 0.317426
v 0.540390 2.082530 0.317426
v 0.471314 2.082530 0.248349
v 0.471314 2.082530 0.059630
v 0.392027 0.004929 0.357319
v 0.869058 -0.005010 0.348903
v 0.392027 0.004929 -0.049339
v 0.869058 -0.005010 -0.040923
v 0.400442 -0.005010 0.348903
v 0.838079 0.004929 0.396713
v 0.439837 -0.005010 -0.080318
v 0.838079 0.004929 -0.088734
v 0.467084 0.278549 0.361050
v 0.841811 0.278549 0.321656
v 0.802416 0.278549 -0.053071
v 0.427690 0.278549 -0.013676
v 0.513633 0.316622 0.314502
v 0.755868 0.316622 0.314502
v 0.795262 0.316622 0.032872
v 0.474238 0.316622 0.032872
v 0.431421 0.004929 0.396713
v 0.829663 -0.005010 0.388297
v 0.431421 0.004929 -0.088734
v 0.829663 -0.005010 -0.080318
v 0.439837 -0.005010 0.388297
v 0.877473 0.004929 0.357319
v 0.400442 -0.005010 -0.040923
v 0.877473 0.004929 -0.049339
v 0.427690 0.278549 0.321656
v 0.802416 0.278549 0.361050
v 0.841811 0.278549 -0.013676
v 0.467084 0.278549 -0.053071
v 0.474238 0.316622 0.275107
v 0.795262 0.316622 0.275107
v 0.755868 0.316622 -0.006522
v 0.513633 0.316622 -0.006522
v 1.588752 0.382190 0.222088
v 1.862571 0.356008 0.195907
v 1.588752 0.382190 0.085891
v 1.862571 0.356008 0.112073
v 1.614934 1.871773 0.248270
v 1.862571 1.871773 0.248270
v 1.588752 1.871773 0.085891
v 1.888752 1.871773 0.085891
v 1.614934 0.356008 0.195907
v 1.862571 0.382190 0.248270
v 1.641115 0.356008 0.085891
v 1.862571 0.382190 0.059710
v 1.641115 1.897955 0.222088
v 1.862571 1.897955 0.195907
v 1.614934 1.897955 0.112073
v 1.836389 1.897955 0.085891
v 1.614934 0.382190 0.248270
v 1.836389 0.356008 0.222747
v 1.614934 0.382190 0.059710
v 1.836389 0.356008 0.085232
v 1.588752 1.871773 0.222088
v 1.888752 1.871773 0.222088
v 1.614934 1.871773 0.059710
v 1.862571 1.871773 0.059710
v 1.641115 0.356008 0.222088
v 1.888752 0.382190 0.222088
v 1.614934 0.356008 0.112073
v 1.888752 0.382190 0.085891
v 1.614934 1.897955 0.195907
v 1.836389 1.897955 0.222088
v 1.641115 1.897955 0.085891
v 1.862571 1.897955 0.112073
v 1.011741 0.382190 0.222088
v 1.285560 0.356008 0.195907
v 1.011741 0.382190 0.085891
v 1.285560 0.356008 0.112073
v 1.037923 1.871773 0.248270
v 1.285560 1.871773 0.248270
v 1.011741 1.871773 0.085891
v 1.311741 1.871773 0.085891
v 1.037923 0.356008 0.195907
v 1.285560 0.382190 0.248270
v 1.064104 0.356008 0.085891
v 1.285560 0.382190 0.059710
v 1.064104 1.897955 0.222088
v 1.285560 1.897955 0.195907
v 1.037923 1.897955 0.112073
v 1.259378 1.897955 0.085891
v 1.037923 0.382190 0.248270
v 1.259378 0.356008 0.222747
v 1.037923 0.382190 0.059710
v 1.259378 0.356008 0.085232
v 1.011741 1.871773 0.222088
v 1.311741 1.871773 0.222088
v 1.037923 1.871773 0.059710
v 1.285560 1.871773 0.059710
v 1.064104 0.356008 0.222088
v 1.311741 0.382190 0.222088
v 1.037923 0.356008 0.112073
v 1.311741 0.382190 0.085891
v 1.037923 1.897955 0.195907
v 1.259378 1.897955 0.222088
v 1.064104 1.897955 0.085891
v 1.285560 1.897955 0.112073
v 0.720670 1.604872 0.154852
v 0.720670 1.623360 0.110217
v 0.720670 1.667995 0.091729
v 0.720670 1.712630 0.110217
v 0.720670 1.731118 0.154852
v 0.720670 1.712630 0.199487
v 0.720670 1.667995 0.217975
v 0.720670 1.623360 0.199487
v 2.163449 1.604872 0.154852
v 2.163449 1.623360 0.110217
v 2.163449 1.667995 0.091729
v 2.163449 1.712630 0.110217
v 2.163449 1.731118 0.154852
v 2.163449 1.712630 0.199486
v 2.163449 1.667995 0.217975
v 2.163449 1.623360 0.199486
v 0.720670 0.513814 0.154852
v 0.720670 0.532302 0.110217
v 0.720670 0.576937 0.091729
v 0.720670 0.621571 0.110217
v 0.720670 0.640060 0.154852
v 0.720670 0.621571 0.199487
v 0.720670 0.576937 0.217975
v 0.720670 0.532302 0.199487
v 2.163449 0.513814 0.154852
v 2.163449 0.532302 0.110217
v 2.163449 0.576937 0.091729
v 2.163449 0.621572 0.110217
v 2.163449 0.640060 0.154852
v 2.163449 0.621572 0.199486
v 2.163449 0.576937 0.217975
v 2.163449 0.532302 0.199486
v 2.159075 0.271290 0.298401
v 2.407885 0.271290 0.258389
v 2.119062 0.271290 0.049591
v 2.367873 0.271290 0.009578
v 2.119062 2.071014 0.258389
v 2.367873 2.071014 0.298401
v 2.159075 2.071014 0.009578
v 2.407885 2.071014 0.049591
v 2.119062 0.271290 0.258389
v 2.367873 0.271290 0.298401
v 2.159075 0.271290 0.009578
v 2.407885 0.271290 0.049591
v 2.159075 2.071014 0.298401
v 2.407885 2.071014 0.258389
v 2.119062 2.071014 0.049591
v 2.367873 2.071014 0.009578
v 2.260916 2.247404 0.153990
v 2.212986 2.223944 0.070972
v 2.177898 2.223944 0.106059
v 2.177898 2.223944 0.201920
v 2.212986 2.223944 0.237008
v 2.308847 2.223944 0.237008
v 2.343934 2.223944 0.201920
v 2.343934 2.223944 0.106059
v 2.308847 2.223944 0.070972
v 2.177898 2.159849 0.010198
v 2.117125 2.159849 0.070972
v 2.117125 2.159849 0.237008
v 2.177898 2.159849 0.297781
v 2.343934 2.159849 0.297781
v 2.404708 2.159849 0.237008
v 2.404708 2.159849 0.070972
v 2.343935 2.159849 0.010198
v 2.190342 2.072295 0.031751
v 2.138678 2.072295 0.083415
v 2.138678 2.072295 0.224564
v 2.190342 2.072295 0.276228
v 2.331491 2.072295 0.276228
v 2.383155 2.072295 0.224564
v 2.383155 2.072295 0.083415
v 2.331491 2.072295 0.031751
v 2.170455 2.072295 -0.002695
v 2.104232 2.072295 0.063528
v 2.104232 2.072295 0.244451
v 2.170454 2.072295 0.310674
v 2.351378 2.072295 0.310674
v 2.417601 2.072295 0.244452
v 2.417601 2.072295 0.063528
v 2.351378 2.072295 -0.002695
v 2.166556 2.082530 -0.009446
v 2.355276 2.082530 -0.009446
v 2.424352 2.082530 0.059630
v 2.424352 2.082530 0.248350
v 2.355276 2.082530 0.317426
v 2.166556 2.082530 0.317426
v 2.097481 2.082530 0.248349
v 2.097481 2.082530 0.059630
v 2.018193 0.004929 0.357319
v 2.495224 -0.005010 0.348903
v 2.018193 0.004929 -0.049339
v 2.495224 -0.005010 -0.040923
v 2.026609 -0.005010 0.348903
v 2.464245 0.004929 0.396713
v 2.066003 -0.005010 -0.080318
v 2.464245 0.004929 -0.088734
v 2.093250 0.278549 0.361050
v 2.467977 0.278549 0.321656
v 2.428582 0.278549 -0.053071
v 2.053856 0.278549 -0.013676
v 2.139799 0.316622 0.314502
v 2.382034 0.316622 0.314502
v 2.421428 0.316622 0.032872
v 2.100404 0.316622 0.032872
v 2.057587 0.004929 0.396713
v 2.455829 -0.005010 0.388297
v 2.057587 0.004929 -0.088734
v 2.455829 -0.005010 -0.080318
v 2.066003 -0.005010 0.388297
v 2.503640 0.004929 0.357319
v 2.026609 -0.005010 -0.040923
v 2.503640 0.004929 -0.049339
v 2.053856 0.278549 0.321656
v 2.428582 0.278549 0.361050
v 2.467977 0.278549 -0.013676
v 2.093250 0.278549 -0.053071
v 2.100404 0.316622 0.275107
v 2.421428 0.316622 0.275107
v 2.382034 0.316622 -0.006522
v 2.139799 0.316622 -0.006522
v -2.743058 0.271290 0.298401
v -2.494248 0.271290 0.258389
v -2.783071 0.271290 0.049591
v -2.534260 0.271290 0.009578
v -2.783071 2.071014 0.258389
v -2.534260 2.071014 0.298401
v -2.743058 2.071014 0.009578
v -2.494248 2.071014 0.049591
v -2.783071 0.271290 0.258389
v -2.534260 0.271290 0.298401
v -2.743058 0.271290 0.009578
v -2.494248 0.271290 0.049591
v -2.743058 2.071014 0.298401
v -2.494248 2.071014 0.258389
v -2.783071 2.071014 0.049591
v -2.534260 2.071014 0.009578
v -2.641217 2.247404 0.153990
v -2.689147 2.223944 0.070972
v -2.724235 2.223944 0.106059
v -2.724235 2.223944 0.201920
v -2.689147 2.223944 0.237008
v -2.593286 2.223944 0.237008
v -2.558199 2.223944 0.201920
v -2.558199 2.223944 0.106059
v -2.593286 2.223944 0.070972
v -2.724235 2.159849 0.010198
v -2.785008 2.159849 0.070972
v -2.785008 2.159849 0.237008
v -2.724235 2.159849 0.297781
v -2.558199 2.159849 0.297781
v -2.497425 2.159849 0.237008
v -2.497425 2.159849 0.070972
v -2.558198 2.159849 0.010198
v -2.711791 2.072295 0.031751
v -2.763455 2.072295 0.083415
v -2.763455 2.072295 0.224564
v -2.711791 2.072295 0.276228
v -2.570642 2.072295 0.276228
v -2.518978 2.072295 0.224564
v -2.518978 2.072295 0.083415
v -2.570642 2.072295 0.031751
v -2.731678 2.072295 -0.002695
v -2.797901 2.072295 0.063528
v -2.797901 2.072295 0.244451
v -2.731679 2.072295 0.310674
v -2.550755 2.072295 0.310674
v -2.484532 2.072295 0.244452
v -2.484532 2.072295 0.063528
v -2.550755 2.072295 -0.002695
v -2.735577 2.082530 -0.009446
v -2.546857 2.082530 -0.009446
v -2.477781 2.082530 0.059630
v -2.477781 2.082530 0.248350
v -2.546857 2.082530 0.317426
v -2.735577 2.082530 0.317426
v -2.804653 2.082530 0.248349
v -2.804653 2.082530 0.059630
v -2.883940 0.004929 0.357319
v -2.406909 -0.005010 0.348903
v -2.883940 0.004929 -0.049339
v -2.406909 -0.005010 -0.040923
v -2.875525 -0.005010 0.348903
v -2.437888 0.004929 0.396713
v -2.836130 -0.005010 -0.080318
v -2.437888 0.004929 -0.088734
v -2.808883 0.278549 0.361050
v -2.434156 0.278549 0.321656
v -2.473551 0.278549 -0.053071
v -2.848277 0.278549 -0.013676
v -2.762334 0.316622 0.314502
v -2.520099 0.316622 0.314502
v -2.480705 0.316622 0.032872
v -2.801729 0.316622 0.032872
v -2.844546 0.004929 0.396713
v -2.446304 -0.005010 0.388297
v -2.844546 0.004929 -0.088734
v -2.446304 -0.005010 -0.080318
v -2.836130 -0.005010 0.388297
v -2.398493 0.004929 0.357319
v -2.875525 -0.005010 -0.040923
v -2.398493 0.004929 -0.049339
v -2.848277 0.278549 0.321656
v -2.473551 0.278549 0.361050
v -2.434156 0.278549 -0.013676
v -2.808883 0.278549 -0.053071
v -2.801729 0.316622 0.275107
v -2.480705 0.316622 0.275107
v -2.520099 0.316622 -0.006522
v -2.762334 0.316622 -0.006522
vn -0.0000 -0.0000 1.0000
vn 1.0000 -0.0000 -0.0000
vn -0.0000 -0.0000 -1.0000
vn -1.0000 -0.0000 -0.0000
vn 0.7071 -0.0000 0.7071
vn -0.7071 -0.0000 0.7071
vn 0.7071 -0.0000 -0.7071
vn -0.7071 -0.0000 -0.7071
vn -0.0000 1.0000 -0.0000
vn 0.1884 0.8545 -0.4841
vn -0.1884 0.8545 -0.4841
vn -0.4841 0.8545 -0.1884
vn -0.4841 0.8545 0.1884
vn -0.1884 0.8545 0.4841
vn 0.1884 0.8545 0.4841
vn 0.4841 0.8545 0.1884
vn 0.4841 0.8545 -0.1884
vn 0.3318 0.4995 -0.8003
vn -0.3318 0.4995 -0.8003
vn -0.8003 0.4995 -0.3318
vn -0.8003 0.4995 0.3318
vn -0.3318 0.4995 0.8003
vn 0.3318 0.4995 0.8003
vn 0.8003 0.4995 0.3318
vn 0.8003 0.4995 -0.3318
vn 0.3880 -0.1643 -0.9069
vn -0.3880 -0.1643 -0.9069
vn -0.9069 -0.1643 -0.3880
vn -0.9069 -0.1643 0.3880
vn -0.3880 -0.1643 0.9069
vn 0.3880 -0.1643 0.9069
vn 0.9069 -0.1643 0.3880
vn 0.9069 -0.1643 -0.3880
vn -0.0000 -1.0000 -0.0000
vn 0.2875 -0.6013 -0.7455
vn -0.2875 -0.6013 -0.7455
vn -0.7455 -0.6013 -0.2875
vn -0.7455 -0.6013 0.2875
vn -0.2875 -0.6013 0.7455
vn 0.2875 -0.6013 0.7455
vn 0.7455 -0.6013 0.2875
vn 0.7455 -0.6013 -0.2875
vn 0.3385 0.9361 0.0957
vn 0.3385 0.9361 -0.0957
vn -0.3385 0.9361 -0.0957
vn -0.3385 0.9361 0.0957
vn 0.3917 0.1689 0.9045
vn 0.3322 0.5180 0.7882
vn -0.3322 0.5180 0.7882
vn -0.3917 0.1689 0.9045
vn 0.9045 0.1689 -0.3917
vn 0.7882 0.5180 -0.3322
vn 0.7882 0.5180 0.3322
vn 0.9045 0.1689 0.3917
vn -0.3917 0.1689 -0.9045
vn -0.3322 0.5180 -0.7882
vn 0.3322 0.5180 -0.7882
vn 0.3917 0.1689 -0.9045
vn -0.9045 0.1689 0.3917
vn -0.7882 0.5180 0.3322
vn -0.7882 0.5180 -0.3322
vn -0.9045 0.1689 -0.3917
vn -0.7631 -0.6462 -0.0000
vn -0.0000 -0.6462 -0.7631
vn 0.7631 -0.6462 -0.0000
vn -0.0000 -0.6462 0.7631
vn 0.0957 0.9361 0.3385
vn -0.0957 0.9361 0.3385
vn -0.0957 0.9361 -0.3385
vn 0.0957 0.9361 -0.3385
vn -0.4532 -0.7676 0.4532
vn -0.4532 -0.7676 -0.4532
vn 0.4532 -0.7676 -0.4532
vn 0.4532 -0.7676 0.4532
vn -0.6021 -0.7786 0.1765
vn -0.5385 -0.8008 0.2623
vn -0.5385 -0.8008 -0.2623
vn -0.6021 -0.7786 -0.1765
vn -0.1774 -0.7763 -0.6049
vn -0.2628 -0.7993 -0.5404
vn 0.2661 -0.7990 -0.5393
vn 0.1775 -0.7759 -0.6054
vn 0.6041 -0.7773 -0.1754
vn 0.5410 -0.7993 -0.2616
vn 0.5410 -0.7993 0.2616
vn 0.6041 -0.7773 0.1754
vn 0.1775 -0.7759 0.6054
vn 0.2661 -0.7990 0.5393
vn -0.2628 -0.7993 0.5404
vn -0.1774 -0.7763 0.6049
vn -0.1765 0.7786 0.6021
vn -0.2623 0.8008 0.5385
vn 0.2623 0.8008 0.5385
vn 0.1765 0.7787 0.6021
vn 0.6021 0.7787 0.1765
vn 0.5385 0.8008 0.2623
vn 0.5385 0.8008 -0.2623
vn 0.6021 0.7787 -0.1765
vn 0.1765 0.7787 -0.6021
vn 0.2623 0.8008 -0.5385
vn -0.2623 0.8008 -0.5385
vn -0.1765 0.7787 -0.6021
vn -0.6021 0.7787 -0.1765
vn -0.5385 0.8008 -0.2623
vn -0.5385 0.8008 0.2623
vn -0.6021 0.7787 0.1765
vn -0.0000 -0.7071 -0.7071
vn -0.0000 0.7071 -0.7071
vn -0.0000 0.7071 0.7071
vn -0.0000 -0.7071 0.7071
vn -0.6021 -0.7787 0.1765
vn -0.6021 -0.7787 -0.1765
vn 0.1765 0.7786 0.6021
vn 0.1765 0.7786 -0.6021
vn -0.1765 0.7787 0.6021
vt 0.485366 0.328274
vt 0.455535 0.328274
vt 0.455535 0.084023
vt 0.485366 0.084023
vt 0.447396 0.328274
vt 0.417606 0.328274
vt 0.417606 0.084023
vt 0.447396 0.084023
vt 0.561203 0.328274
vt 0.531447 0.328274
vt 0.531447 0.084023
vt 0.561203 0.084023
vt 0.523335 0.328274
vt 0.493519 0.328274
vt 0.493519 0.084023
vt 0.523335 0.084023
vt 0.409529 0.328274
vt 0.409529 0.084023
vt 0.777995 0.973261
vt 0.781829 0.980273
vt 0.773914 0.980001
vt 0.770986 0.977133
vt 0.771238 0.969126
vt 0.774162 0.966274
vt 0.782136 0.966503
vt 0.784987 0.969418
vt 0.784756 0.977404
vt 0.786108 0.986748
vt 0.770083 0.987143
vt 0.764467 0.981352
vt 0.764191 0.965336
vt 0.769992 0.959718
vt 0.785876 0.959412
vt 0.791496 0.965152
vt 0.791862 0.981071
vt 0.789490 0.992944
vt 0.766362 0.992692
vt 0.758187 0.984523
vt 0.758758 0.961463
vt 0.766828 0.953400
vt 0.789641 0.953883
vt 0.797747 0.961825
vt 0.797442 0.984702
vt 0.790017 0.996166
vt 0.766573 0.996271
vt 0.766091 0.993573
vt 0.789777 0.993828
vt 0.754885 0.984841
vt 0.757293 0.984788
vt 0.755186 0.961532
vt 0.757878 0.961184
vt 0.766462 0.950076
vt 0.766568 0.952497
vt 0.789490 0.950258
vt 0.789903 0.952988
vt 0.801021 0.961337
vt 0.798638 0.961537
vt 0.801083 0.984419
vt 0.798343 0.984940
vt 0.772385 0.721424
vt 0.772332 0.740342
vt 0.747394 0.740813
vt 0.747582 0.721720
vt 0.787906 0.697306
vt 0.772858 0.714227
vt 0.745898 0.714157
vt 0.732188 0.697601
vt 0.793499 0.759048
vt 0.776687 0.743893
vt 0.776811 0.716820
vt 0.793641 0.703546
vt 0.732156 0.764818
vt 0.747064 0.747876
vt 0.774067 0.747867
vt 0.787417 0.764764
vt 0.726254 0.703434
vt 0.743237 0.718140
vt 0.743041 0.745215
vt 0.726359 0.758809
vt 0.724975 0.704163
vt 0.725187 0.758284
vt 0.732860 0.766093
vt 0.786871 0.765944
vt 0.794768 0.758371
vt 0.794827 0.704121
vt 0.787200 0.696037
vt 0.732698 0.696435
vt 0.769210 0.718655
vt 0.750556 0.718612
vt 0.750636 0.743491
vt 0.769386 0.743451
vt 0.534852 0.657507
vt 0.514214 0.657352
vt 0.514905 0.643311
vt 0.535295 0.643898
vt 0.534613 0.830873
vt 0.534697 0.817242
vt 0.538970 0.818859
vt 0.537590 0.828150
vt 0.554173 0.660665
vt 0.578730 0.660767
vt 0.578696 0.814214
vt 0.554133 0.814218
vt 0.581654 0.660846
vt 0.595266 0.660477
vt 0.595253 0.814564
vt 0.581634 0.814171
vt 0.511433 0.660751
vt 0.536188 0.660936
vt 0.536069 0.813776
vt 0.511265 0.813685
vt 0.538635 0.660560
vt 0.551375 0.660599
vt 0.551334 0.814240
vt 0.538567 0.814249
vt 0.549991 0.656305
vt 0.539116 0.655980
vt 0.592198 0.656524
vt 0.582802 0.656649
vt 0.577345 0.656613
vt 0.555543 0.656416
vt 0.555474 0.818463
vt 0.577306 0.818416
vt 0.582749 0.818372
vt 0.592161 0.818520
vt 0.513997 0.817086
vt 0.549907 0.818532
vt 0.508126 0.659778
vt 0.507937 0.814602
vt 0.511192 0.654925
vt 0.510934 0.819414
vt 0.511491 0.828283
vt 0.514313 0.830964
vt 0.512006 0.646026
vt 0.538226 0.646722
vt 0.545446 0.630300
vt 0.545446 0.625748
vt 0.697218 0.625748
vt 0.697218 0.630300
vt 0.545446 0.621197
vt 0.697218 0.621197
vt 0.545446 0.616645
vt 0.697218 0.616645
vt 0.545446 0.612094
vt 0.697218 0.612094
vt 0.545446 0.648505
vt 0.545446 0.643954
vt 0.697218 0.643954
vt 0.697218 0.648505
vt 0.545446 0.639402
vt 0.697218 0.639402
vt 0.545446 0.634851
vt 0.697218 0.634851
vt 0.163829 0.685319
vt 0.133118 0.685089
vt 0.134147 0.664195
vt 0.164489 0.665068
vt 0.163474 0.943308
vt 0.163599 0.923025
vt 0.169957 0.925431
vt 0.167904 0.939256
vt 0.192582 0.690019
vt 0.229125 0.690172
vt 0.229075 0.918518
vt 0.192522 0.918524
vt 0.233476 0.690288
vt 0.253733 0.689740
vt 0.253713 0.919039
vt 0.233446 0.918455
vt 0.128979 0.690147
vt 0.165818 0.690422
vt 0.165640 0.917867
vt 0.128730 0.917731
vt 0.169460 0.689862
vt 0.188418 0.689921
vt 0.188357 0.918556
vt 0.169358 0.918570
vt 0.186358 0.683530
vt 0.170174 0.683047
vt 0.249167 0.683857
vt 0.235184 0.684044
vt 0.227064 0.683989
vt 0.194620 0.683696
vt 0.194518 0.924840
vt 0.227006 0.924771
vt 0.235105 0.924705
vt 0.249112 0.924925
vt 0.132795 0.922791
vt 0.186234 0.924943
vt 0.124059 0.688699
vt 0.123776 0.919095
vt 0.128621 0.681477
vt 0.128236 0.926256
vt 0.129065 0.939454
vt 0.133265 0.943445
vt 0.129831 0.668234
vt 0.168850 0.669271
vt 0.186324 0.964437
vt 0.186324 0.957664
vt 0.412179 0.957664
vt 0.412179 0.964437
vt 0.186324 0.950891
vt 0.412179 0.950891
vt 0.186324 0.944118
vt 0.412179 0.944118
vt 0.186324 0.937345
vt 0.412179 0.937345
vt 0.186324 0.991529
vt 0.186324 0.984756
vt 0.412179 0.984756
vt 0.412179 0.991529
vt 0.186324 0.977983
vt 0.412179 0.977983
vt 0.186324 0.971210
vt 0.412179 0.971210
vt 0.656161 0.827329
vt 0.634835 0.827329
vt 0.634835 0.652718
vt 0.656161 0.652718
vt 0.629017 0.827329
vt 0.607721 0.827329
vt 0.607721 0.652718
vt 0.629017 0.652718
vt 0.710375 0.827329
vt 0.689103 0.827329
vt 0.689103 0.652718
vt 0.710375 0.652718
vt 0.683304 0.827329
vt 0.661989 0.827329
vt 0.661989 0.652718
vt 0.683305 0.652718
vt 0.601946 0.827329
vt 0.601946 0.652718
vt 0.603416 0.098064
vt 0.574548 0.097848
vt 0.575514 0.078207
vt 0.604036 0.079028
vt 0.603083 0.340574
vt 0.603200 0.321507
vt 0.609176 0.323769
vt 0.607247 0.336764
vt 0.630443 0.102481
vt 0.664794 0.102625
vt 0.664747 0.317271
vt 0.630388 0.317277
vt 0.668884 0.102735
vt 0.687926 0.102219
vt 0.687907 0.317761
vt 0.668856 0.317211
vt 0.570657 0.102602
vt 0.605286 0.102860
vt 0.605118 0.316659
vt 0.570423 0.316531
vt 0.608709 0.102335
vt 0.626530 0.102390
vt 0.626472 0.317307
vt 0.608614 0.317319
vt 0.624593 0.096382
vt 0.609381 0.095928
vt 0.683634 0.096690
vt 0.670490 0.096865
vt 0.662857 0.096814
vt 0.632359 0.096539
vt 0.632263 0.323214
vt 0.662802 0.323149
vt 0.670416 0.323087
vt 0.683582 0.323294
vt 0.574244 0.321288
vt 0.624476 0.323310
vt 0.566032 0.101241
vt 0.565766 0.317813
vt 0.570320 0.094452
vt 0.569959 0.324544
vt 0.570738 0.336951
vt 0.574686 0.340702
vt 0.571458 0.082004
vt 0.608136 0.082978
vt 0.407187 0.045411
vt 0.407187 0.039044
vt 0.619491 0.039044
vt 0.619491 0.045411
vt 0.407187 0.032678
vt 0.619491 0.032678
vt 0.407187 0.026311
vt 0.619491 0.026311
vt 0.407187 0.019945
vt 0.619491 0.019945
vt 0.407187 0.070877
vt 0.407187 0.064511
vt 0.619491 0.064511
vt 0.619491 0.070877
vt 0.407187 0.058144
vt 0.619491 0.058144
vt 0.407187 0.051777
vt 0.619491 0.051777
vt 0.338945 0.932431
vt 0.307210 0.932431
vt 0.307210 0.672589
vt 0.338946 0.672589
vt 0.298553 0.932431
vt 0.266861 0.932431
vt 0.266861 0.672589
vt 0.298553 0.672589
vt 0.419623 0.932431
vt 0.387968 0.932431
vt 0.387968 0.672589
vt 0.419623 0.672589
vt 0.379339 0.932431
vt 0.347619 0.932431
vt 0.347619 0.672589
vt 0.379339 0.672589
vt 0.258268 0.932431
vt 0.258268 0.672589
s 1
f 1/1/1 10/2/1 6/3/1 13/4/1
f 2/5/2 12/6/2 8/7/2 14/8/2
f 4/9/3 11/10/3 7/11/3 16/12/3
f 3/13/4 9/14/4 5/15/4 15/16/4
f 10/2/5 2/5/5 14/8/5 6/3/5
f 13/4/6 5/15/6 9/14/6 1/1/6
f 12/6/7 4/17/7 16/18/7 8/7/7
f 11/10/8 3/13/8 15/16/8 7/11/8
f 17/19/9 25/20/10 18/21/11
f 17/19/9 18/21/11 19/22/12
f 17/19/9 19/22/12 20/23/13
f 17/19/9 20/23/13 21/24/14
f 17/19/9 21/24/14 22/25/15
f 17/19/9 22/25/15 23/26/16
f 17/19/9 23/26/16 24/27/17
f 17/19/9 24/27/17 25/20/10
f 25/20/10 33/28/18 26/29/19 18/21/11
f 18/21/11 26/29/19 27/30/20 19/22/12
f 19/22/12 27/30/20 28/31/21 20/23/13
f 20/23/13 28/31/21 29/32/22 21/24/14
f 21/24/14 29/32/22 30/33/23 22/25/15
f 22/25/15 30/33/23 31/34/24 23/26/16
f 23/26/16 31/34/24 32/35/25 24/27/17
f 24/27/17 32/35/25 33/28/18 25/20/10
f 51/36/26 50/37/27 26/29/19 33/28/18
f 50/37/27 57/38/28 27/30/20 26/29/19
f 57/38/28 56/39/29 28/31/21 27/30/20
f 56/39/29 55/40/30 29/32/22 28/31/21
f 55/40/30 54/41/31 30/33/23 29/32/22
f 54/41/31 53/42/32 31/34/24 30/33/23
f 53/42/32 52/43/33 32/35/25 31/34/24
f 52/43/33 51/36/26 33/28/18 32/35/25
s 0
f 41/44/34 34/45/34 42/46/34 49/47/34
f 34/45/34 35/48/34 43/49/34 42/46/34
f 35/48/34 36/50/34 44/51/34 43/49/34
f 36/50/34 37/52/34 45/53/34 44/51/34
f 37/52/34 38/54/34 46/55/34 45/53/34
f 38/54/34 39/56/34 47/57/34 46/55/34
f 39/56/34 40/58/34 48/59/34 47/57/34
f 40/58/34 41/44/34 49/47/34 48/59/34
s 1
f 49/47/35 42/46/36 50/37/27 51/36/26
f 42/46/36 43/49/37 57/38/28 50/37/27
f 43/49/37 44/51/38 56/39/29 57/38/28
f 44/51/38 45/53/39 55/40/30 56/39/29
f 45/53/39 46/55/40 54/41/31 55/40/30
f 46/55/40 47/57/41 53/42/32 54/41/31
f 47/57/41 48/59/42 52/43/33 53/42/32
f 48/59/42 49/47/35 51/36/26 52/43/33
f 87/60/43 72/61/44 73/62/45 86/63/46
f 63/64/47 83/65/48 66/66/49 74/67/50
f 81/68/51 84/69/52 67/70/53 79/71/54
f 76/72/55 85/73/56 68/74/57 65/75/58
f 58/76/59 82/77/60 69/78/61 60/79/62
f 62/80/63 58/76/63 60/79/63 80/81/63
f 64/82/64 76/72/64 65/75/64 77/83/64
f 61/84/65 81/68/65 79/71/65 59/85/65
f 75/86/66 63/64/66 74/67/66 78/87/66
f 71/88/67 70/89/68 66/66/49 83/65/48
f 72/61/44 87/60/43 67/70/53 84/69/52
f 89/90/69 88/91/70 68/74/57 85/73/56
f 86/63/46 73/62/45 69/78/61 82/77/60
f 63/64/47 79/71/54 67/70/53 83/65/48
f 66/66/49 82/77/60 58/76/59 74/67/50
f 81/68/51 65/75/58 68/74/57 84/69/52
f 76/72/55 60/79/62 69/78/61 85/73/56
f 62/80/71 78/87/71 74/67/71 58/76/71
f 60/79/72 76/72/72 64/82/72 80/81/72
f 65/75/73 81/68/73 61/84/73 77/83/73
f 79/71/74 63/64/74 75/86/74 59/85/74
f 70/89/68 86/63/46 82/77/60 66/66/49
f 83/65/48 67/70/53 87/60/43 71/88/67
f 84/69/52 68/74/57 88/91/70 72/61/44
f 85/73/56 69/78/61 73/62/45 89/90/69
f 88/91/70 89/90/69 73/62/45 72/61/44
f 70/89/68 71/88/67 87/60/43 86/63/46
f 100/92/34 109/93/34 107/94/34 114/95/34
f 102/96/9 120/97/9 104/98/9 118/99/9
f 106/100/1 99/101/1 95/102/1 94/103/1
f 115/104/2 117/105/2 97/106/2 111/107/2
f 101/108/3 108/109/3 112/110/3 113/111/3
f 92/112/4 90/113/4 110/114/4 96/115/4
f 98/116/75 90/113/76 92/112/77 116/117/78
f 100/92/79 108/109/80 101/108/81 109/93/82
f 93/118/83 117/105/84 115/104/85 91/119/86
f 107/120/87 99/101/88 106/100/89 114/121/90
f 102/122/91 94/103/92 95/102/93 119/123/94
f 103/124/95 111/107/96 97/106/97 121/125/98
f 105/126/99 113/111/100 112/110/101 120/97/102
f 104/98/103 96/115/104 110/114/105 118/127/106
f 99/101/5 115/104/5 111/107/5 95/102/5
f 94/103/6 110/114/6 90/113/6 106/100/6
f 117/128/7 101/108/7 113/111/7 97/129/7
f 108/109/8 92/112/8 96/115/8 112/110/8
f 98/116/75 114/121/90 106/100/89 90/113/76
f 115/104/85 99/101/88 107/120/87 91/119/86
f 100/92/79 116/117/78 92/112/77 108/109/80
f 101/108/81 117/128/84 93/130/83 109/93/82
f 102/122/91 118/127/106 110/114/105 94/103/92
f 103/124/95 119/123/94 95/102/93 111/107/96
f 104/98/103 120/97/102 112/110/101 96/115/104
f 105/126/99 121/131/98 97/129/97 113/111/100
f 103/132/9 121/131/9 105/126/9 119/133/9
f 102/96/9 119/133/9 105/126/9 120/97/9
f 93/130/34 91/134/34 107/94/34 109/93/34
f 98/135/34 116/117/34 100/92/34 114/95/34
f 122/136/34 123/137/107 131/138/107 130/139/34
f 123/137/107 124/140/3 132/141/3 131/138/107
f 124/140/3 125/142/108 133/143/108 132/141/3
f 125/142/108 126/144/9 134/145/9 133/143/108
f 126/146/9 127/147/109 135/148/109 134/149/9
f 127/147/109 128/150/1 136/151/1 135/148/109
f 128/150/1 129/152/110 137/153/110 136/151/1
f 129/152/110 122/136/34 130/139/34 137/153/110
f 138/136/34 139/137/107 147/138/107 146/139/34
f 139/137/107 140/140/3 148/141/3 147/138/107
f 140/140/3 141/142/108 149/143/108 148/141/3
f 141/142/108 142/144/9 150/145/9 149/143/108
f 142/146/9 143/147/109 151/148/109 150/149/9
f 143/147/109 144/150/1 152/151/1 151/148/109
f 144/150/1 145/152/110 153/153/110 152/151/1
f 145/152/110 138/136/34 146/139/34 153/153/110
f 164/92/34 173/93/34 171/94/34 178/95/34
f 166/96/9 184/97/9 168/98/9 182/99/9
f 170/100/1 163/101/1 159/102/1 158/103/1
f 179/104/2 181/105/2 161/106/2 175/107/2
f 165/108/3 172/109/3 176/110/3 177/111/3
f 156/112/4 154/113/4 174/114/4 160/115/4
f 162/116/111 154/113/76 156/112/77 180/117/112
f 164/92/79 172/109/80 165/108/81 173/93/82
f 157/118/83 181/105/84 179/104/85 155/119/86
f 171/120/87 163/101/88 170/100/89 178/121/90
f 166/122/91 158/103/92 159/102/93 183/123/113
f 167/124/95 175/107/96 161/106/97 185/125/98
f 169/126/114 177/111/100 176/110/101 184/97/102
f 168/98/103 160/115/104 174/114/105 182/127/106
f 163/101/5 179/104/5 175/107/5 159/102/5
f 158/103/6 174/114/6 154/113/6 170/100/6
f 181/128/7 165/108/7 177/111/7 161/129/7
f 172/109/8 156/112/8 160/115/8 176/110/8
f 162/116/111 178/121/90 170/100/89 154/113/76
f 179/104/85 163/101/88 171/120/87 155/119/86
f 164/92/79 180/117/112 156/112/77 172/109/80
f 165/108/81 181/128/84 157/130/83 173/93/82
f 166/122/91 182/127/106 174/114/105 158/103/92
f 167/124/95 183/123/113 159/102/93 175/107/96
f 168/98/103 184/97/102 176/110/101 160/115/104
f 169/126/114 185/131/98 161/129/97 177/111/100
f 167/132/9 185/131/9 169/126/9 183/133/9
f 166/96/9 183/133/9 169/126/9 184/97/9
f 157/130/34 155/134/34 171/94/34 173/93/34
f 162/135/34 180/117/34 164/92/34 178/95/34
f 196/154/34 205/155/34 203/156/34 210/157/34
f 198/158/9 216/159/9 200/160/9 214/161/9
f 202/162/1 195/163/1 191/164/1 190/165/1
f 211/166/2 213/167/2 193/168/2 207/169/2
f 197/170/3 204/171/3 208/172/3 209/173/3
f 188/174/4 186/175/4 206/176/4 192/177/4
f 194/178/75 186/175/76 188/174/77 212/179/78
f 196/154/79 204/171/80 197/170/81 205/155/82
f 189/180/83 213/167/84 211/166/85 187/181/86
f 203/182/87 195/163/88 202/162/89 210/183/90
f 198/184/115 190/165/92 191/164/93 215/185/94
f 199/186/95 207/169/96 193/168/97 217/187/98
f 201/188/99 209/173/100 208/172/101 216/159/102
f 200/160/103 192/177/104 206/176/105 214/189/106
f 195/163/5 211/166/5 207/169/5 191/164/5
f 190/165/6 206/176/6 186/175/6 202/162/6
f 213/190/7 197/170/7 209/173/7 193/191/7
f 204/171/8 188/174/8 192/177/8 208/172/8
f 194/178/75 210/183/90 202/162/89 186/175/76
f 211/166/85 195/163/88 203/182/87 187/181/86
f 196/154/79 212/179/78 188/174/77 204/171/80
f 197/170/81 213/190/84 189/192/83 205/155/82
f 198/184/115 214/189/106 206/176/105 190/165/92
f 199/186/95 215/185/94 191/164/93 207/169/96
f 200/160/103 216/159/102 208/172/101 192/177/104
f 201/188/99 217/193/98 193/191/97 209/173/100
f 199/194/9 217/193/9 201/188/9 215/195/9
f 198/158/9 215/195/9 201/188/9 216/159/9
f 189/192/34 187/196/34 203/156/34 205/155/34
f 194/197/34 212/179/34 196/154/34 210/157/34
f 218/198/34 219/199/107 227/200/107 226/201/34
f 219/199/107 220/202/3 228/203/3 227/200/107
f 220/202/3 221/204/108 229/205/108 228/203/3
f 221/204/108 222/206/9 230/207/9 229/205/108
f 222/208/9 223/209/109 231/210/109 230/211/9
f 223/209/109 224/212/1 232/213/1 231/210/109
f 224/212/1 225/214/110 233/215/110 232/213/1
f 225/214/110 218/198/34 226/201/34 233/215/110
f 244/154/34 253/155/34 251/156/34 258/157/34
f 246/158/9 264/159/9 248/160/9 262/161/9
f 250/162/1 243/163/1 239/164/1 238/165/1
f 259/166/2 261/167/2 241/168/2 255/169/2
f 245/170/3 252/171/3 256/172/3 257/173/3
f 236/174/4 234/175/4 254/176/4 240/177/4
f 242/178/75 234/175/76 236/174/77 260/179/78
f 244/154/79 252/171/80 245/170/81 253/155/82
f 237/180/83 261/167/84 259/166/85 235/181/86
f 251/182/87 243/163/88 250/162/89 258/183/90
f 246/184/115 238/165/92 239/164/93 263/185/94
f 247/186/95 255/169/96 241/168/97 265/187/98
f 249/188/99 257/173/100 256/172/101 264/159/102
f 248/160/103 240/177/104 254/176/105 262/189/106
f 243/163/5 259/166/5 255/169/5 239/164/5
f 238/165/6 254/176/6 234/175/6 250/162/6
f 261/190/7 245/170/7 257/173/7 241/191/7
f 252/171/8 236/174/8 240/177/8 256/172/8
f 242/178/75 258/183/90 250/162/89 234/175/76
f 259/166/85 243/163/88 251/182/87 235/181/86
f 244/154/79 260/179/78 236/174/77 252/171/80
f 245/170/81 261/190/84 237/192/83 253/155/82
f 246/184/115 262/189/106 254/176/105 238/165/92
f 247/186/95 263/185/94 239/164/93 255/169/96
f 248/160/103 264/159/102 256/172/101 240/177/104
f 249/188/99 265/193/98 241/191/97 257/173/100
f 247/194/9 265/193/9 249/188/9 263/195/9
f 246/158/9 263/195/9 249/188/9 264/159/9
f 237/192/34 235/196/34 251/156/34 253/155/34
f 242/197/34 260/179/34 244/154/34 258/157/34
f 266/198/34 267/199/107 275/200/107 274/201/34
f 267/199/107 268/202/3 276/203/3 275/200/107
f 268/202/3 269/204/108 277/205/108 276/203/3
f 269/204/108 270/206/9 278/207/9 277/205/108
f 270/208/9 271/209/109 279/210/109 278/211/9
f 271/209/109 272/212/1 280/213/1 279/210/109
f 272/212/1 273/214/110 281/215/110 280/213/1
f 273/214/110 266/198/34 274/201/34 281/215/110
f 282/216/1 291/217/1 287/218/1 294/219/1
f 283/220/2 293/221/2 289/222/2 295/223/2
f 285/224/3 292/225/3 288/226/3 297/227/3
f 284/228/4 290/229/4 286/230/4 296/231/4
f 291/217/5 283/220/5 295/223/5 287/218/5
f 294/219/6 286/230/6 290/229/6 282/216/6
f 293/221/7 285/232/7 297/233/7 289/222/7
f 292/225/8 284/228/8 296/231/8 288/226/8
f 298/19/9 306/20/10 299/21/11
f 298/19/9 299/21/11 300/22/12
f 298/19/9 300/22/12 301/23/13
f 298/19/9 301/23/13 302/24/14
f 298/19/9 302/24/14 303/25/15
f 298/19/9 303/25/15 304/26/16
f 298/19/9 304/26/16 305/27/17
f 298/19/9 305/27/17 306/20/10
f 306/20/10 314/28/18 307/29/19 299/21/11
f 299/21/11 307/29/19 308/30/20 300/22/12
f 300/22/12 308/30/20 309/31/21 301/23/13
f 301/23/13 309/31/21 310/32/22 302/24/14
f 302/24/14 310/32/22 311/33/23 303/25/15
f 303/25/15 311/33/23 312/34/24 304/26/16
f 304/26/16 312/34/24 313/35/25 305/27/17
f 305/27/17 313/35/25 314/28/18 306/20/10
f 332/36/26 331/37/27 307/29/19 314/28/18
f 331/37/27 338/38/28 308/30/20 307/29/19
f 338/38/28 337/39/29 309/31/21 308/30/20
f 337/39/29 336/40/30 310/32/22 309/31/21
f 336/40/30 335/41/31 311/33/23 310/32/22
f 335/41/31 334/42/32 312/34/24 311/33/23
f 334/42/32 333/43/33 313/35/25 312/34/24
f 333/43/33 332/36/26 314/28/18 313/35/25
s 0
f 322/44/34 315/45/34 323/46/34 330/47/34
f 315/45/34 316/48/34 324/49/34 323/46/34
f 316/48/34 317/50/34 325/51/34 324/49/34
f 317/50/34 318/52/34 326/53/34 325/51/34
f 318/52/34 319/54/34 327/55/34 326/53/34
f 319/54/34 320/56/34 328/57/34 327/55/34
f 320/56/34 321/58/34 329/59/34 328/57/34
f 321/58/34 322/44/34 330/47/34 329/59/34
s 1
f 330/47/35 323/46/36 331/37/27 332/36/26
f 323/46/36 324/49/37 338/38/28 331/37/27
f 324/49/37 325/51/38 337/39/29 338/38/28
f 325/51/38 326/53/39 336/40/30 337/39/29
f 326/53/39 327/55/40 335/41/31 336/40/30
f 327/55/40 328/57/41 334/42/32 335/41/31
f 328/57/41 329/59/42 333/43/33 334/42/32
f 329/59/42 330/47/35 332/36/26 333/43/33
f 368/60/43 353/61/44 354/62/45 367/63/46
f 344/64/47 364/65/48 347/66/49 355/67/50
f 362/68/51 365/69/52 348/70/53 360/71/54
f 357/72/55 366/73/56 349/74/57 346/75/58
f 339/76/59 363/77/60 350/78/61 341/79/62
f 343/80/63 339/76/63 341/79/63 361/81/63
f 345/82/64 357/72/64 346/75/64 358/83/64
f 342/84/65 362/68/65 360/71/65 340/85/65
f 356/86/66 344/64/66 355/67/66 359/87/66
f 352/88/67 351/89/68 347/66/49 364/65/48
f 353/61/44 368/60/43 348/70/53 365/69/52
f 370/90/69 369/91/70 349/74/57 366/73/56
f 367/63/46 354/62/45 350/78/61 363/77/60
f 344/64/47 360/71/54 348/70/53 364/65/48
f 347/66/49 363/77/60 339/76/59 355/67/50
f 362/68/51 346/75/58 349/74/57 365/69/52
f 357/72/55 341/79/62 350/78/61 366/73/56
f 343/80/71 359/87/71 355/67/71 339/76/71
f 341/79/72 357/72/72 345/82/72 361/81/72
f 346/75/73 362/68/73 342/84/73 358/83/73
f 360/71/74 344/64/74 356/86/74 340/85/74
f 351/89/68 367/63/46 363/77/60 347/66/49
f 364/65/48 348/70/53 368/60/43 352/88/67
f 365/69/52 349/74/57 369/91/70 353/61/44
f 366/73/56 350/78/61 354/62/45 370/90/69
f 369/91/70 370/90/69 354/62/45 353/61/44
f 351/89/68 352/88/67 368/60/43 367/63/46
f 381/234/34 390/235/34 388/236/34 395/237/34
f 383/238/9 401/239/9 385/240/9 399/241/9
f 387/242/1 380/243/1 376/244/1 375/245/1
f 396/246/2 398/247/2 378/248/2 392/249/2
f 382/250/3 389/251/3 393/252/3 394/253/3
f 373/254/4 371/255/4 391/256/4 377/257/4
f 379/258/111 371/255/76 373/254/77 397/259/112
f 381/234/79 389/251/80 382/250/81 390/235/82
f 374/260/83 398/247/84 396/246/85 372/261/86
f 388/262/87 380/243/88 387/242/89 395/263/90
f 383/264/91 375/245/92 376/244/93 400/265/94
f 384/266/95 392/249/96 378/248/97 402/267/98
f 386/268/99 394/253/100 393/252/101 401/239/102
f 385/240/103 377/257/104 391/256/105 399/269/106
f 380/243/5 396/246/5 392/249/5 376/244/5
f 375/245/6 391/256/6 371/255/6 387/242/6
f 398/270/7 382/250/7 394/253/7 378/271/7
f 389/251/8 373/254/8 377/257/8 393/252/8
f 379/258/111 395/263/90 387/242/89 371/255/76
f 396/246/85 380/243/88 388/262/87 372/261/86
f 381/234/79 397/259/112 373/254/77 389/251/80
f 382/250/81 398/270/84 374/272/83 390/235/82
f 383/264/91 399/269/106 391/256/105 375/245/92
f 384/266/95 400/265/94 376/244/93 392/249/96
f 385/240/103 401/239/102 393/252/101 377/257/104
f 386/268/99 402/273/98 378/271/97 394/253/100
f 384/274/9 402/273/9 386/268/9 400/275/9
f 383/238/9 400/275/9 386/268/9 401/239/9
f 374/272/34 372/276/34 388/236/34 390/235/34
f 379/277/34 397/259/34 381/234/34 395/237/34
f 413/234/34 422/235/34 420/236/34 427/237/34
f 415/238/9 433/239/9 417/240/9 431/241/9
f 419/242/1 412/243/1 408/244/1 407/245/1
f 428/246/2 430/247/2 410/248/2 424/249/2
f 414/250/3 421/251/3 425/252/3 426/253/3
f 405/254/4 403/255/4 423/256/4 409/257/4
f 411/258/75 403/255/76 405/254/77 429/259/78
f 413/234/79 421/251/80 414/250/81 422/235/82
f 406/260/83 430/247/84 428/246/85 404/261/86
f 420/262/87 412/243/88 419/242/89 427/263/90
f 415/264/115 407/245/92 408/244/93 432/265/94
f 416/266/95 424/249/96 410/248/97 434/267/98
f 418/268/99 426/253/100 425/252/101 433/239/102
f 417/240/103 409/257/104 423/256/105 431/269/106
f 412/243/5 428/246/5 424/249/5 408/244/5
f 407/245/6 423/256/6 403/255/6 419/242/6
f 430/270/7 414/250/7 426/253/7 410/271/7
f 421/251/8 405/254/8 409/257/8 425/252/8
f 411/258/75 427/263/90 419/242/89 403/255/76
f 428/246/85 412/243/88 420/262/87 404/261/86
f 413/234/79 429/259/78 405/254/77 421/251/80
f 414/250/81 430/270/84 406/272/83 422/235/82
f 415/264/115 431/269/106 423/256/105 407/245/92
f 416/266/95 432/265/94 408/244/93 424/249/96
f 417/240/103 433/239/102 425/252/101 409/257/104
f 418/268/99 434/273/98 410/271/97 426/253/100
f 416/274/9 434/273/9 418/268/9 432/275/9
f 415/238/9 432/275/9 418/268/9 433/239/9
f 406/272/34 404/276/34 420/236/34 422/235/34
f 411/277/34 429/259/34 413/234/34 427/237/34
f 435/278/34 436/279/107 444/280/107 443/281/34
f 436/279/107 437/282/3 445/283/3 444/280/107
f 437/282/3 438/284/108 446/285/108 445/283/3
f 438/284/108 439/286/9 447/287/9 446/285/108
f 439/288/9 440/289/109 448/290/109 447/291/9
f 440/289/109 441/292/1 449/293/1 448/290/109
f 441/292/1 442/294/110 450/295/110 449/293/1
f 442/294/110 435/278/34 443/281/34 450/295/110
f 451/278/34 452/279/107 460/280/107 459/281/34
f 452/279/107 453/282/3 461/283/3 460/280/107
f 453/282/3 454/284/108 462/285/108 461/283/3
f 454/284/108 455/286/9 463/287/9 462/285/108
f 455/288/9 456/289/109 464/290/109 463/291/9
f 456/289/109 457/292/1 465/293/1 464/290/109
f 457/292/1 458/294/110 466/295/110 465/293/1
f 458/294/110 451/278/34 459/281/34 466/295/110
f 467/296/1 476/297/1 472/298/1 479/299/1
f 468/300/2 478/301/2 474/302/2 480/303/2
f 470/304/3 477/305/3 473/306/3 482/307/3
f 469/308/4 475/309/4 471/310/4 481/311/4
f 476/297/5 468/300/5 480/303/5 472/298/5
f 479/299/6 471/310/6 475/309/6 467/296/6
f 478/301/7 470/312/7 482/313/7 474/302/7
f 477/305/8 469/308/8 481/311/8 473/306/8
f 483/19/9 491/20/10 484/21/11
f 483/19/9 484/21/11 485/22/12
f 483/19/9 485/22/12 486/23/13
f 483/19/9 486/23/13 487/24/14
f 483/19/9 487/24/14 488/25/15
f 483/19/9 488/25/15 489/26/16
f 483/19/9 489/26/16 490/27/17
f 483/19/9 490/27/17 491/20/10
f 491/20/10 499/28/18 492/29/19 484/21/11
f 484/21/11 492/29/19 493/30/20 485/22/12
f 485/22/12 493/30/20 494/31/21 486/23/13
f 486/23/13 494/31/21 495/32/22 487/24/14
f 487/24/14 495/32/22 496/33/23 488/25/15
f 488/25/15 496/33/23 497/34/24 489/26/16
f 489/26/16 497/34/24 498/35/25 490/27/17
f 490/27/17 498/35/25 499/28/18 491/20/10
f 517/36/26 516/37/27 492/29/19 499/28/18
f 516/37/27 523/38/28 493/30/20 492/29/19
f 523/38/28 522/39/29 494/31/21 493/30/20
f 522/39/29 521/40/30 495/32/22 494/31/21
f 521/40/30 520/41/31 496/33/23 495/32/22
f 520/41/31 519/42/32 497/34/24 496/33/23
f 519/42/32 518/43/33 498/35/25 497/34/24
f 518/43/33 517/36/26 499/28/18 498/35/25
s 0
f 507/44/34 500/45/34 508/46/34 515/47/34
f 500/45/34 501/48/34 509/49/34 508/46/34
f 501/48/34 502/50/34 510/51/34 509/49/34
f 502/50/34 503/52/34 511/53/34 510/51/34
f 503/52/34 504/54/34 512/55/34 511/53/34
f 504/54/34 505/56/34 513/57/34 512/55/34
f 505/56/34 506/58/34 514/59/34 513/57/34
f 506/58/34 507/44/34 515/47/34 514/59/34
s 1
f 515/47/35 508/46/36 516/37/27 517/36/26
f 508/46/36 509/49/37 523/38/28 516/37/27
f 509/49/37 510/51/38 522/39/29 523/38/28
f 510/51/38 511/53/39 521/40/30 522/39/29
f 511/53/39 512/55/40 520/41/31 521/40/30
f 512/55/40 513/57/41 519/42/32 520/41/31
f 513/57/41 514/59/42 518/43/33 519/42/32
f 514/59/42 515/47/35 517/36/26 518/43/33
f 553/60/43 538/61/44 539/62/45 552/63/46
f 529/64/47 549/65/48 532/66/49 540/67/50
f 547/68/51 550/69/52 533/70/53 545/71/54
f 542/72/55 551/73/56 534/74/57 531/75/58
f 524/76/59 548/77/60 535/78/61 526/79/62
f 528/80/63 524/76/63 526/79/63 546/81/63
f 530/82/64 542/72/64 531/75/64 543/83/64
f 527/84/65 547/68/65 545/71/65 525/85/65
f 541/86/66 529/64/66 540/67/66 544/87/66
f 537/88/67 536/89/68 532/66/49 549/65/48
f 538/61/44 553/60/43 533/70/53 550/69/52
f 555/90/69 554/91/70 534/74/57 551/73/56
f 552/63/46 539/62/45 535/78/61 548/77/60
f 529/64/47 545/71/54 533/70/53 549/65/48
f 532/66/49 548/77/60 524/76/59 540/67/50
f 547/68/51 531/75/58 534/74/57 550/69/52
f 542/72/55 526/79/62 535/78/61 551/73/56
f 528/80/71 544/87/71 540/67/71 524/76/71
f 526/79/72 542/72/72 530/82/72 546/81/72
f 531/75/73 547/68/73 527/84/73 543/83/73
f 545/71/74 529/64/74 541/86/74 525/85/74
f 536/89/68 552/63/46 548/77/60 532/66/49
f 549/65/48 533/70/53 553/60/43 537/88/67
f 550/69/52 534/74/57 554/91/70 538/61/44
f 551/73/56 535/78/61 539/62/45 555/90/69
f 554/91/70 555/90/69 539/62/45 538/61/44
f 536/89/68 537/88/67 553/60/43 552/63/46
f 556/296/1 565/297/1 561/298/1 568/299/1
f 557/300/2 567/301/2 563/302/2 569/303/2
f 559/304/3 566/305/3 562/306/3 571/307/3
f 558/308/4 564/309/4 560/310/4 570/311/4
f 565/297/5 557/300/5 569/303/5 561/298/5
f 568/299/6 560/310/6 564/309/6 556/296/6
f 567/301/7 559/312/7 571/313/7 563/302/7
f 566/305/8 558/308/8 570/311/8 562/306/8
f 572/19/9 580/20/10 573/21/11
f 572/19/9 573/21/11 574/22/12
f 572/19/9 574/22/12 575/23/13
f 572/19/9 575/23/13 576/24/14
f 572/19/9 576/24/14 577/25/15
f 572/19/9 577/25/15 578/26/16
f 572/19/9 578/26/16 579/27/17
f 572/19/9 579/27/17 580/20/10
f 580/20/10 588/28/18 581/29/19 573/21/11
f 573/21/11 581/29/19 582/30/20 574/22/12
f 574/22/12 582/30/20 583/31/21 575/23/13
f 575/23/13 583/31/21 584/32/22 576/24/14
f 576/24/14 584/32/22 585/33/23 577/25/15
f 577/25/15 585/33/23 586/34/24 578/26/16
f 578/26/16 586/34/24 587/35/25 579/27/17
f 579/27/17 587/35/25 588/28/18 580/20/10
f 606/36/26 605/37/27 581/29/19 588/28/18
f 605/37/27 612/38/28 582/30/20 581/29/19
f 612/38/28 611/39/29 583/31/21 582/30/20
f 611/39/29 610/40/30 584/32/22 583/31/21
f 610/40/30 609/41/31 585/33/23 584/32/22
f 609/41/31 608/42/32 586/34/24 585/33/23
f 608/42/32 607/43/33 587/35/25 586/34/24
f 607/43/33 606/36/26 588/28/18 587/35/25
s 0
f 596/44/34 589/45/34 597/46/34 604/47/34
f 589/45/34 590/48/34 598/49/34 597/46/34
f 590/48/34 591/50/34 599/51/34 598/49/34
f 591/50/34 592/52/34 600/53/34 599/51/34
f 592/52/34 593/54/34 601/55/34 600/53/34
f 593/54/34 594/56/34 602/57/34 601/55/34
f 594/56/34 595/58/34 603/59/34 602/57/34
f 595/58/34 596/44/34 604/47/34 603/59/34
s 1
f 604/47/35 597/46/36 605/37/27 606/36/26
f 597/46/36 598/49/37 612/38/28 605/37/27
f 598/49/37 599/51/38 611/39/29 612/38/28
f 599/51/38 600/53/39 610/40/30 611/39/29
f 600/53/39 601/55/40 609/41/31 610/40/30
f 601/55/40 602/57/41 608/42/32 609/41/31
f 602/57/41 603/59/42 607/43/33 608/42/32
f 603/59/42 604/47/35 606/36/26 607/43/33
f 642/60/43 627/61/44 628/62/45 641/63/46
f 618/64/47 638/65/48 621/66/49 629/67/50
f 636/68/51 639/69/52 622/70/53 634/71/54
f 631/72/55 640/73/56 623/74/57 620/75/58
f 613/76/59 637/77/60 624/78/61 615/79/62
f 617/80/63 613/76/63 615/79/63 635/81/63
f 619/82/64 631/72/64 620/75/64 632/83/64
f 616/84/65 636/68/65 634/71/65 614/85/65
f 630/86/66 618/64/66 629/67/66 633/87/66
f 626/88/67 625/89/68 621/66/49 638/65/48
f 627/61/44 642/60/43 622/70/53 639/69/52
f 644/90/69 643/91/70 623/74/57 640/73/56
f 641/63/46 628/62/45 624/78/61 637/77/60
f 618/64/47 634/71/54 622/70/53 638/65/48
f 621/66/49 637/77/60 613/76/59 629/67/50
f 636/68/51 620/75/58 623/74/57 639/69/52
f 631/72/55 615/79/62 624/78/61 640/73/56
f 617/80/71 633/87/71 629/67/71 613/76/71
f 615/79/72 631/72/72 619/82/72 635/81/72
f 620/75/73 636/68/73 616/84/73 632/83/73
f 634/71/74 618/64/74 630/86/74 614/85/74
f 625/89/68 641/63/46 637/77/60 621/66/49
f 638/65/48 622/70/53 642/60/43 626/88/67
f 639/69/52 623/74/57 643/91/70 627/61/44
f 640/73/56 624/78/61 628/62/45 644/90/69
f 643/91/70 644/90/69 628/62/45 627/61/44
f 625/89/68 626/88/67 642/60/43 641/63/46
