# Blender 5.1.2
# www.blender.org
mtllib lamp_body.mtl
o SM_Lamp_01.001
v 0.113458 2.786457 -0.113460
v 0.160454 2.786457 0.000000
v 0.000000 2.786457 -0.160454
v -0.113458 2.786457 -0.113460
v -0.160454 2.786457 0.000000
v -0.113458 2.786457 0.113459
v 0.000000 2.786457 0.160454
v 0.113458 2.786457 0.113459
v 0.011381 2.938432 -0.011380
v 0.016094 2.938432 0.000000
v 0.000000 2.938432 -0.016094
v -0.011381 2.938432 -0.011380
v -0.016094 2.938432 0.000000
v -0.011381 2.938432 0.011379
v 0.000000 2.938432 0.016094
v 0.011381 2.938432 0.011379
v 0.045708 0.030700 -0.170587
v 0.152944 0.030700 -0.088303
v 0.152944 -0.000005 -0.088303
v 0.045708 -0.000005 -0.170587
v -0.088302 0.030700 -0.152944
v -0.088302 -0.000005 -0.152944
v -0.170587 0.030700 -0.045708
v -0.170587 -0.000005 -0.045708
v -0.152944 0.030700 0.088303
v -0.152944 -0.000005 0.088303
v -0.045708 0.030700 0.170587
v -0.045708 -0.000005 0.170587
v 0.088302 0.030700 0.152944
v 0.088302 -0.000005 0.152944
v 0.170587 0.030700 0.045708
v 0.170587 -0.000005 0.045708
v 0.040211 0.030700 -0.150069
v 0.134548 0.030700 -0.077682
v -0.077682 0.030700 -0.134549
v -0.150069 0.030700 -0.040211
v -0.134549 0.030700 0.077682
v -0.040211 0.030700 0.150069
v 0.077682 0.030700 0.134549
v 0.150069 0.030700 0.040211
v 0.021608 0.300239 -0.080641
v 0.072300 0.300239 -0.041743
v -0.041742 0.300239 -0.072299
v -0.080641 0.300239 -0.021608
v -0.072300 0.300239 0.041742
v -0.021608 0.300239 0.080641
v 0.041742 0.300239 0.072299
v 0.080641 0.300239 0.021608
v 0.015042 0.300239 -0.056141
v 0.050334 0.300239 -0.029061
v -0.029060 0.300239 -0.050333
v -0.056141 0.300239 -0.015044
v -0.050334 0.300239 0.029060
v -0.015042 0.300239 0.056141
v 0.029060 0.300239 0.050333
v 0.056141 0.300239 0.015044
v 0.015041 1.523646 -0.056141
v 0.050334 1.523646 -0.029061
v -0.029060 1.523646 -0.050333
v -0.056141 1.523646 -0.015044
v -0.050334 1.523646 0.029060
v -0.015042 1.523646 0.056141
v 0.029060 1.523646 0.050333
v 0.056140 1.523646 0.015044
v 0.018544 1.583620 -0.069212
v 0.062053 1.583620 -0.035827
v -0.035827 1.583620 -0.062053
v -0.069211 1.583620 -0.018547
v -0.062053 1.583620 0.035826
v -0.018544 1.583620 0.069210
v 0.035826 1.583620 0.062053
v 0.069210 1.583620 0.018545
v 0.010454 1.583620 -0.039014
v 0.034978 1.583620 -0.020195
v -0.020194 1.583620 -0.034977
v -0.039014 1.583620 -0.010454
v -0.034978 1.583620 0.020194
v -0.010454 1.583620 0.039013
v 0.020194 1.583620 0.034977
v 0.039013 1.583620 0.010453
v 0.010454 2.500245 -0.039014
v 0.034978 2.500245 -0.020195
v -0.020194 2.500245 -0.034977
v -0.034978 2.500245 0.020194
v -0.010454 2.500245 0.039013
v 0.020194 2.500245 0.034977
v 0.039013 2.500245 0.010453
v -0.039014 1.583620 -0.010454
v -0.034978 1.583620 0.020194
v -0.020194 2.500245 -0.034977
v -0.039014 2.500245 -0.010454
v -0.034978 2.500245 0.020194
vn 0.6944 0.6596 -0.2876
vn 0.2876 0.6596 -0.6944
vn -0.2876 0.6596 -0.6944
vn -0.6944 0.6596 -0.2876
vn -0.6944 0.6596 0.2876
vn -0.2876 0.6596 0.6944
vn -0.2877 0.6596 0.6944
vn 0.2876 0.6596 0.6944
vn 0.2877 0.6596 0.6944
vn 0.6944 0.6596 0.2876
vn -0.0000 1.0000 -0.0000
vn 0.6088 -0.0000 -0.7934
vn -0.1305 -0.0000 -0.9914
vn -0.7934 -0.0000 -0.6088
vn -0.6088 -0.0000 0.7934
vn 0.1305 -0.0000 0.9914
vn 0.7934 -0.0000 0.6088
vn 0.9914 -0.0000 -0.1305
vn 0.5911 0.2392 -0.7703
vn -0.1267 0.2392 -0.9627
vn -0.1268 0.2392 -0.9627
vn -0.7703 0.2392 -0.5911
vn -0.5911 0.2392 0.7703
vn 0.1267 0.2392 0.9627
vn 0.1268 0.2392 0.9627
vn 0.7703 0.2392 0.5911
vn 0.9627 0.2392 -0.1267
vn -0.1306 -0.0000 -0.9914
vn -0.7933 -0.0000 -0.6088
vn 0.1306 -0.0000 0.9914
vn 0.7933 -0.0000 0.6088
vn 0.5959 -0.2041 -0.7767
vn -0.1278 -0.2041 -0.9706
vn -0.7766 -0.2041 -0.5960
vn -0.7767 -0.2041 -0.5960
vn -0.9706 -0.2041 0.1278
vn -0.5959 -0.2041 0.7767
vn 0.1278 -0.2041 0.9706
vn 0.1278 -0.2040 0.9706
vn 0.7767 -0.2041 0.5960
vn 0.7767 -0.2040 0.5959
vn 0.7766 -0.2041 0.5960
vn 0.9706 -0.2041 -0.1278
vn 0.6088 -0.0000 -0.7933
vn -0.6088 -0.0000 0.7933
vn -0.9914 -0.0000 0.1306
vt 0.457667 0.663758
vt 0.457667 0.677098
vt 0.453367 0.677098
vt 0.453367 0.663758
vt 0.461967 0.663758
vt 0.461967 0.677098
vt 0.466267 0.663758
vt 0.466267 0.677098
vt 0.436166 0.663758
vt 0.436166 0.677098
vt 0.431866 0.677098
vt 0.431866 0.663758
vt 0.440466 0.663758
vt 0.440466 0.677098
vt 0.444766 0.663758
vt 0.444766 0.677098
vt 0.449067 0.663758
vt 0.449067 0.677098
vt 0.385881 0.725332
vt 0.385581 0.724608
vt 0.385881 0.723883
vt 0.386605 0.723584
vt 0.387330 0.723884
vt 0.387630 0.724608
vt 0.387329 0.725332
vt 0.386605 0.725632
vt 0.470519 0.679043
vt 0.472473 0.679043
vt 0.472473 0.687301
vt 0.470519 0.687301
vt 0.470519 0.670785
vt 0.472473 0.670785
vt 0.470519 0.662526
vt 0.472473 0.662526
vt 0.470519 0.712075
vt 0.472473 0.712075
vt 0.472473 0.720333
vt 0.470519 0.720333
vt 0.470519 0.703817
vt 0.472473 0.703817
vt 0.470519 0.695559
vt 0.472473 0.695559
vt 0.473825 0.679043
vt 0.473825 0.687301
vt 0.473825 0.670785
vt 0.473825 0.662526
vt 0.473825 0.712075
vt 0.473825 0.720333
vt 0.473825 0.703817
vt 0.473825 0.695559
vt 0.385581 0.675393
vt 0.403336 0.675393
vt 0.403336 0.681210
vt 0.385581 0.681210
vt 0.385581 0.669575
vt 0.403336 0.669575
vt 0.385581 0.663758
vt 0.403336 0.663758
vt 0.385581 0.698663
vt 0.403336 0.698663
vt 0.403336 0.704480
vt 0.385581 0.704480
vt 0.385581 0.692845
vt 0.403336 0.692845
vt 0.385581 0.687028
vt 0.403336 0.687028
vt 0.421772 0.670655
vt 0.423386 0.670655
vt 0.423386 0.674105
vt 0.421772 0.674105
vt 0.421772 0.667206
vt 0.423386 0.667206
vt 0.421772 0.663758
vt 0.423386 0.663758
vt 0.421772 0.684452
vt 0.423386 0.684452
vt 0.423386 0.687901
vt 0.421772 0.687901
vt 0.421772 0.681002
vt 0.423386 0.681002
vt 0.421772 0.677554
vt 0.423386 0.677554
vt 0.385581 0.645929
vt 0.463447 0.645929
vt 0.463447 0.648709
vt 0.385581 0.648709
vt 0.385581 0.643149
vt 0.463447 0.643149
vt 0.385581 0.640369
vt 0.463447 0.640369
vt 0.385581 0.657049
vt 0.463447 0.657049
vt 0.463447 0.659829
vt 0.385581 0.659829
vt 0.385581 0.654269
vt 0.463447 0.654269
vt 0.385581 0.651489
vt 0.463447 0.651489
vt 0.467360 0.645929
vt 0.467360 0.648709
vt 0.467360 0.643149
vt 0.467360 0.640369
vt 0.467360 0.659829
vt 0.467360 0.662609
vt 0.463447 0.662609
vt 0.467360 0.657049
vt 0.467360 0.654269
vt 0.467360 0.651489
vt 0.469350 0.645929
vt 0.469350 0.648709
vt 0.469350 0.643149
vt 0.469350 0.640369
vt 0.469350 0.659829
vt 0.469350 0.662609
vt 0.469350 0.657049
vt 0.469350 0.654269
vt 0.469350 0.651489
vt 0.407985 0.716932
vt 0.466325 0.716932
vt 0.466325 0.718899
vt 0.407985 0.718899
vt 0.407985 0.714964
vt 0.466325 0.714964
vt 0.407985 0.712997
vt 0.407985 0.724802
vt 0.466325 0.724802
vt 0.466325 0.726769
vt 0.407985 0.726769
vt 0.407985 0.722834
vt 0.466325 0.722834
vt 0.407985 0.720867
vt 0.466325 0.720867
vt 0.466325 0.712997
vt 0.466325 0.728737
vt 0.407985 0.728737
s 1
usemtl 07_-_Default.003
f 1/1/1 9/2/1 10/3/1
f 10/3/1 2/4/1 1/1/1
f 3/5/2 11/6/2 9/2/2
f 9/2/2 1/1/2 3/5/2
f 4/7/3 12/8/3 11/6/3
f 11/6/3 3/5/3 4/7/3
f 5/9/4 13/10/4 12/11/4
f 12/11/4 4/12/4 5/9/4
f 6/13/5 14/14/5 13/10/5
f 13/10/5 5/9/5 6/13/5
f 7/15/6 15/16/7 14/14/7
f 14/14/7 6/13/6 7/15/6
f 8/17/8 16/18/9 15/16/9
f 15/16/9 7/15/8 8/17/8
f 2/4/10 10/3/10 16/18/10
f 16/18/10 8/17/10 2/4/10
f 16/19/11 10/20/11 9/21/11
f 9/21/11 11/22/11 12/23/11
f 12/23/11 13/24/11 14/25/11
f 9/21/11 12/23/11 14/25/11
f 16/19/11 9/21/11 14/25/11
f 16/19/11 14/25/11 15/26/11
f 20/27/12 17/28/12 18/29/12
f 18/29/12 19/30/12 20/27/12
f 22/31/13 21/32/13 17/28/13
f 17/28/13 20/27/13 22/31/13
f 24/33/14 23/34/14 21/32/14
f 21/32/14 22/31/14 24/33/14
f 28/35/15 27/36/15 25/37/15
f 25/37/15 26/38/15 28/35/15
f 30/39/16 29/40/16 27/36/16
f 27/36/16 28/35/16 30/39/16
f 32/41/17 31/42/17 29/40/17
f 29/40/17 30/39/17 32/41/17
f 19/30/18 18/29/18 31/42/18
f 31/42/18 32/41/18 19/30/18
f 17/28/11 33/43/11 34/44/11
f 34/44/11 18/29/11 17/28/11
f 21/32/11 35/45/11 33/43/11
f 33/43/11 17/28/11 21/32/11
f 23/34/11 36/46/11 35/45/11
f 35/45/11 21/32/11 23/34/11
f 27/36/11 38/47/11 37/48/11
f 37/48/11 25/37/11 27/36/11
f 29/40/11 39/49/11 38/47/11
f 38/47/11 27/36/11 29/40/11
f 31/42/11 40/50/11 39/49/11
f 39/49/11 29/40/11 31/42/11
f 18/29/11 34/44/11 40/50/11
f 40/50/11 31/42/11 18/29/11
f 33/51/19 41/52/19 42/53/19
f 42/53/19 34/54/19 33/51/19
f 35/55/20 43/56/21 41/52/20
f 41/52/20 33/51/20 35/55/20
f 36/57/22 44/58/22 43/56/22
f 43/56/22 35/55/22 36/57/22
f 38/59/23 46/60/23 45/61/23
f 45/61/23 37/62/23 38/59/23
f 39/63/24 47/64/25 46/60/24
f 46/60/24 38/59/24 39/63/24
f 40/65/26 48/66/26 47/64/26
f 47/64/26 39/63/26 40/65/26
f 34/54/27 42/53/27 48/66/27
f 48/66/27 40/65/27 34/54/27
f 41/67/11 49/68/11 50/69/11
f 50/69/11 42/70/11 41/67/11
f 43/71/11 51/72/11 49/68/11
f 49/68/11 41/67/11 43/71/11
f 44/73/11 52/74/11 51/72/11
f 51/72/11 43/71/11 44/73/11
f 46/75/11 54/76/11 53/77/11
f 53/77/11 45/78/11 46/75/11
f 47/79/11 55/80/11 54/76/11
f 54/76/11 46/75/11 47/79/11
f 48/81/11 56/82/11 55/80/11
f 55/80/11 47/79/11 48/81/11
f 42/70/11 50/69/11 56/82/11
f 56/82/11 48/81/11 42/70/11
f 49/83/12 57/84/12 58/85/12
f 58/85/12 50/86/12 49/83/12
f 51/87/28 59/88/28 57/84/28
f 57/84/28 49/83/28 51/87/28
f 52/89/29 60/90/29 59/88/29
f 59/88/29 51/87/29 52/89/29
f 54/91/15 62/92/15 61/93/15
f 61/93/15 53/94/15 54/91/15
f 55/95/30 63/96/30 62/92/30
f 62/92/30 54/91/30 55/95/30
f 56/97/31 64/98/31 63/96/31
f 63/96/31 55/95/31 56/97/31
f 50/86/18 58/85/18 64/98/18
f 64/98/18 56/97/18 50/86/18
f 57/84/32 65/99/32 66/100/32
f 66/100/32 58/85/32 57/84/32
f 59/88/33 67/101/33 65/99/33
f 65/99/33 57/84/33 59/88/33
f 60/90/34 68/102/35 67/101/34
f 67/101/34 59/88/34 60/90/34
f 61/93/36 69/103/36 68/104/36
f 68/104/36 60/105/36 61/93/36
f 62/92/37 70/106/37 69/103/37
f 69/103/37 61/93/37 62/92/37
f 63/96/38 71/107/38 70/106/38
f 70/106/38 62/92/39 63/96/38
f 64/98/40 72/108/41 71/107/40
f 71/107/40 63/96/42 64/98/40
f 58/85/43 66/100/43 72/108/43
f 72/108/43 64/98/43 58/85/43
f 65/99/11 73/109/11 74/110/11
f 74/110/11 66/100/11 65/99/11
f 67/101/11 75/111/11 73/109/11
f 73/109/11 65/99/11 67/101/11
f 68/102/11 76/112/11 75/111/11
f 75/111/11 67/101/11 68/102/11
f 69/103/11 77/113/11 76/114/11
f 76/114/11 68/104/11 69/103/11
f 70/106/11 78/115/11 77/113/11
f 77/113/11 69/103/11 70/106/11
f 71/107/11 79/116/11 78/115/11
f 78/115/11 70/106/11 71/107/11
f 72/108/11 80/117/11 79/116/11
f 79/116/11 71/107/11 72/108/11
f 66/100/11 74/110/11 80/117/11
f 80/117/11 72/108/11 66/100/11
f 73/118/44 81/119/44 82/120/44
f 82/120/44 74/121/44 73/118/44
f 75/122/28 83/123/28 81/119/28
f 81/119/28 73/118/28 75/122/28
f 83/123/29 75/122/29 76/124/29
f 78/125/45 85/126/45 84/127/45
f 84/127/45 77/128/45 78/125/45
f 79/129/30 86/130/30 85/126/30
f 85/126/30 78/125/30 79/129/30
f 80/131/31 87/132/31 86/130/31
f 86/130/31 79/129/31 80/131/31
f 74/121/18 82/120/18 87/132/18
f 87/132/18 80/131/18 74/121/18
f 88/124/29 91/133/29 90/123/29
f 89/128/46 92/127/46 91/134/46
f 91/134/46 88/135/46 89/128/46
