# Blender 5.1.2
# www.blender.org
mtllib lamp_head.mtl
o SM_Lamp_01.003
v 0.028560 2.500245 -0.028560
v 0.040389 2.500245 0.000000
v 0.000000 2.500245 -0.040388
v -0.028560 2.500245 -0.028560
v -0.040389 2.500245 0.000000
v -0.028560 2.500245 0.028559
v 0.000000 2.500245 0.040388
v 0.028560 2.500245 0.028559
v 0.100439 2.524491 0.000000
v 0.071022 2.524491 -0.071021
v 0.000000 2.524491 -0.100440
v -0.071022 2.524491 -0.071021
v -0.100439 2.524491 0.000000
v -0.071022 2.524491 0.071020
v 0.000000 2.524491 0.100439
v 0.071022 2.524491 0.071020
v 0.063845 2.527647 -0.063845
v 0.095505 2.776239 -0.095506
v 0.135065 2.776239 0.000000
v 0.090291 2.527647 0.000000
v 0.000000 2.527647 -0.090291
v 0.000000 2.776239 -0.135066
v -0.063845 2.527647 -0.063845
v -0.095505 2.776239 -0.095506
v -0.090291 2.527647 0.000000
v -0.135065 2.776239 0.000000
v -0.063845 2.527647 0.063845
v -0.095505 2.776239 0.095505
v 0.000000 2.527647 0.090290
v 0.000000 2.776239 0.135066
v 0.063845 2.527647 0.063845
v 0.095505 2.776239 0.095505
v 0.112334 2.776239 -0.112334
v 0.158864 2.776239 0.000000
v 0.000000 2.776239 -0.158865
v -0.112334 2.776239 -0.112334
v -0.158864 2.776239 0.000000
v -0.112334 2.776239 0.112334
v 0.000000 2.776239 0.158865
v 0.112334 2.776239 0.112334
v 0.113458 2.786457 -0.113460
v 0.160454 2.786457 0.000000
v 0.000000 2.786457 -0.160454
v -0.113458 2.786457 -0.113460
v -0.160454 2.786457 0.000000
v -0.113458 2.786457 0.113459
v 0.000000 2.786457 0.160454
v 0.113458 2.786457 0.113459
v 0.070936 2.527639 -0.070938
v 0.100320 2.527639 0.000000
v 0.000000 2.527639 -0.100320
v -0.070936 2.527639 -0.070938
v -0.100320 2.527639 0.000000
v -0.070936 2.527639 0.070937
v 0.000000 2.527639 0.100320
v 0.070936 2.527639 0.070937
v 0.097626 2.527342 0.004531
v 0.097661 2.527342 -0.005022
v 0.142993 2.776767 -0.005022
v 0.142958 2.776767 0.004531
v 0.087145 2.527342 -0.005022
v 0.132477 2.776767 -0.005022
v 0.087125 2.527342 0.004470
v 0.132457 2.776767 0.004470
v -0.004772 2.527342 0.097275
v 0.004781 2.527342 0.097309
v 0.004781 2.776767 0.142641
v -0.004772 2.776767 0.142607
v 0.004781 2.527342 0.086794
v 0.004781 2.776767 0.132126
v -0.004712 2.527342 0.086775
v -0.004712 2.776767 0.132107
v 0.004731 2.527342 -0.097539
v -0.004821 2.527342 -0.097573
v -0.004821 2.776767 -0.142905
v 0.004731 2.776767 -0.142871
v -0.004821 2.527342 -0.087056
v -0.004821 2.776767 -0.132390
v 0.004673 2.527342 -0.087036
v 0.004673 2.776767 -0.132371
vn 0.3700 -0.9163 -0.1532
vn 0.3700 -0.9163 -0.1533
vn 0.1532 -0.9163 -0.3700
vn 0.1533 -0.9163 -0.3700
vn -0.1532 -0.9163 -0.3700
vn -0.3700 -0.9163 -0.1532
vn -0.3700 -0.9163 0.1532
vn -0.3700 -0.9163 0.1533
vn -0.1532 -0.9163 0.3700
vn -0.1533 -0.9163 0.3700
vn 0.1532 -0.9163 0.3700
vn 0.1533 -0.9163 0.3700
vn 0.3700 -0.9163 0.1532
vn 0.9842 -0.1773 -0.0000
vn 0.6959 -0.1773 -0.6959
vn -0.0000 -0.1773 -0.9842
vn -0.6959 -0.1773 -0.6959
vn -0.9842 -0.1773 -0.0000
vn -0.6959 -0.1773 0.6959
vn -0.0000 -0.1773 0.9842
vn 0.6959 -0.1773 0.6959
vn -0.0000 -1.0000 -0.0000
vn 0.9145 -0.1423 -0.3788
vn 0.3788 -0.1422 -0.9145
vn 0.3788 -0.1424 -0.9145
vn -0.3788 -0.1424 -0.9145
vn -0.3788 -0.1422 -0.9145
vn -0.9145 -0.1423 -0.3788
vn -0.9145 -0.1423 0.3788
vn -0.3788 -0.1422 0.9145
vn -0.3788 -0.1423 0.9145
vn 0.3788 -0.1423 0.9145
vn 0.3788 -0.1424 0.9145
vn 0.3788 -0.1422 0.9145
vn 0.9145 -0.1423 0.3788
vn 0.9233 0.0349 -0.3825
vn 0.9233 0.0353 -0.3824
vn 0.3824 0.0348 -0.9233
vn 0.3825 0.0352 -0.9233
vn -0.3824 0.0352 -0.9233
vn -0.3825 0.0348 -0.9233
vn -0.9233 0.0353 -0.3824
vn -0.9233 0.0349 -0.3824
vn -0.9233 0.0349 0.3825
vn -0.9233 0.0350 0.3825
vn -0.9233 0.0353 0.3824
vn -0.3825 0.0351 0.9233
vn -0.3825 0.0349 0.9233
vn -0.3824 0.0348 0.9233
vn 0.3824 0.0349 0.9233
vn 0.3825 0.0348 0.9233
vn 0.9233 0.0353 0.3824
vn 0.9233 0.0349 0.3824
vn 0.0006 1.0000 -0.0006
vn 0.0008 1.0000 -0.0000
vn -0.0000 1.0000 -0.0008
vn -0.0006 1.0000 -0.0006
vn -0.0008 1.0000 -0.0000
vn -0.0006 1.0000 0.0006
vn -0.0000 1.0000 0.0008
vn 0.0006 1.0000 0.0006
vn 0.9839 -0.1788 0.0036
vn -0.0000 -0.0000 -1.0000
vn -0.0058 0.0011 1.0000
vn -0.0035 -0.1788 0.9839
vn 1.0000 -0.0000 -0.0000
vn -1.0000 0.0010 -0.0057
vn 0.0035 -0.1788 -0.9839
vn -1.0000 -0.0000 -0.0000
vn 1.0000 0.0010 0.0055
vt 0.458054 0.710964
vt 0.454017 0.710964
vt 0.454017 0.706842
vt 0.458054 0.706842
vt 0.462090 0.710964
vt 0.462090 0.706842
vt 0.466126 0.710964
vt 0.466126 0.706842
vt 0.437872 0.710964
vt 0.433836 0.710964
vt 0.433836 0.706842
vt 0.437872 0.706842
vt 0.441908 0.710964
vt 0.441908 0.706842
vt 0.445945 0.710964
vt 0.445945 0.706842
vt 0.449981 0.710964
vt 0.449981 0.706842
vt 0.544712 0.444424
vt 0.544712 0.438936
vt 0.560789 0.438936
vt 0.560789 0.444424
vt 0.544712 0.433447
vt 0.560789 0.433447
vt 0.544712 0.427958
vt 0.560789 0.427958
vt 0.544712 0.471869
vt 0.544712 0.466380
vt 0.560789 0.466380
vt 0.560789 0.471869
vt 0.544712 0.460891
vt 0.560789 0.460891
vt 0.544712 0.455402
vt 0.560789 0.455402
vt 0.544712 0.449913
vt 0.560789 0.449913
vt 0.469491 0.708026
vt 0.467977 0.708026
vt 0.467977 0.700648
vt 0.469491 0.700648
vt 0.469491 0.715405
vt 0.467977 0.715405
vt 0.469491 0.722783
vt 0.467977 0.722783
vt 0.469491 0.671136
vt 0.467977 0.671136
vt 0.467977 0.663758
vt 0.469491 0.663758
vt 0.469491 0.678514
vt 0.467977 0.678514
vt 0.469491 0.685892
vt 0.467977 0.685892
vt 0.469491 0.693270
vt 0.467977 0.693270
vt 0.467318 0.708026
vt 0.467318 0.700648
vt 0.467318 0.715405
vt 0.467318 0.722783
vt 0.467318 0.671136
vt 0.467318 0.663758
vt 0.467318 0.678514
vt 0.467318 0.685892
vt 0.467318 0.693270
vt 0.458054 0.711164
vt 0.454017 0.711164
vt 0.462090 0.711164
vt 0.466126 0.711164
vt 0.437872 0.711164
vt 0.433836 0.711164
vt 0.441908 0.711164
vt 0.445945 0.711164
vt 0.449981 0.711164
vt 0.458054 0.711803
vt 0.454017 0.711803
vt 0.462090 0.711803
vt 0.466126 0.711803
vt 0.437872 0.711803
vt 0.433836 0.711803
vt 0.441908 0.711803
vt 0.445945 0.711803
vt 0.449981 0.711803
vt 0.401716 0.728061
vt 0.385581 0.728061
vt 0.385581 0.727453
vt 0.401716 0.727453
vt 0.401716 0.726784
vt 0.385581 0.726784
vt 0.401716 0.728730
vt 0.385581 0.728730
vt 0.425149 0.679893
vt 0.425149 0.663758
vt 0.425756 0.663758
vt 0.425756 0.679893
vt 0.426426 0.679893
vt 0.426426 0.663758
vt 0.424480 0.679893
vt 0.424480 0.663758
vt 0.473273 0.640369
vt 0.473273 0.656504
vt 0.472666 0.656504
vt 0.472666 0.640369
vt 0.471996 0.640369
vt 0.471996 0.656504
vt 0.473942 0.640369
vt 0.473942 0.656504
s 1
usemtl 07_-_Default.003
f 10/1/1 9/2/1 2/3/1
f 2/3/1 1/4/2 10/1/1
f 11/5/3 10/1/4 1/4/3
f 1/4/3 3/6/3 11/5/3
f 12/7/5 11/5/5 3/6/5
f 3/6/5 4/8/5 12/7/5
f 13/9/6 12/10/6 4/11/6
f 4/11/6 5/12/6 13/9/6
f 14/13/7 13/9/7 5/12/7
f 5/12/7 6/14/8 14/13/7
f 15/15/9 14/13/10 6/14/9
f 6/14/9 7/16/9 15/15/9
f 16/17/11 15/15/12 7/16/11
f 7/16/11 8/18/11 16/17/11
f 9/2/13 16/17/13 8/18/13
f 8/18/13 2/3/13 9/2/13
f 20/19/14 17/20/15 18/21/15
f 18/21/15 19/22/14 20/19/14
f 17/20/15 21/23/16 22/24/16
f 22/24/16 18/21/15 17/20/15
f 21/23/16 23/25/17 24/26/17
f 24/26/17 22/24/16 21/23/16
f 23/27/17 25/28/18 26/29/18
f 26/29/18 24/30/17 23/27/17
f 25/28/18 27/31/19 28/32/19
f 28/32/19 26/29/18 25/28/18
f 27/31/19 29/33/20 30/34/20
f 30/34/20 28/32/19 27/31/19
f 29/33/20 31/35/21 32/36/21
f 32/36/21 30/34/20 29/33/20
f 31/35/21 20/19/14 19/22/14
f 19/22/14 32/36/21 31/35/21
f 18/37/22 33/38/22 34/39/22
f 34/39/22 19/40/22 18/37/22
f 22/41/22 35/42/22 33/38/22
f 33/38/22 18/37/22 22/41/22
f 24/43/22 36/44/22 35/42/22
f 35/42/22 22/41/22 24/43/22
f 26/45/22 37/46/22 36/47/22
f 36/47/22 24/48/22 26/45/22
f 28/49/22 38/50/22 37/46/22
f 37/46/22 26/45/22 28/49/22
f 30/51/22 39/52/22 38/50/22
f 38/50/22 28/49/22 30/51/22
f 32/53/22 40/54/22 39/52/22
f 39/52/22 30/51/22 32/53/22
f 19/40/22 34/39/22 40/54/22
f 40/54/22 32/53/22 19/40/22
f 33/38/23 41/55/23 42/56/23
f 42/56/23 34/39/23 33/38/23
f 35/42/24 43/57/24 41/55/25
f 41/55/25 33/38/25 35/42/24
f 36/44/26 44/58/26 43/57/27
f 43/57/27 35/42/27 36/44/26
f 37/46/28 45/59/28 44/60/28
f 44/60/28 36/47/28 37/46/28
f 38/50/29 46/61/29 45/59/29
f 45/59/29 37/46/29 38/50/29
f 39/52/30 47/62/30 46/61/31
f 46/61/31 38/50/31 39/52/30
f 40/54/32 48/63/33 47/62/34
f 47/62/34 39/52/34 40/54/32
f 34/39/35 42/56/35 48/63/35
f 48/63/35 40/54/35 34/39/35
f 9/2/36 10/1/37 49/64/37
f 49/64/37 50/65/36 9/2/36
f 10/1/38 11/5/39 51/66/39
f 51/66/39 49/64/38 10/1/38
f 11/5/40 12/7/41 52/67/41
f 52/67/41 51/66/40 11/5/40
f 12/10/42 13/9/43 53/68/43
f 53/68/43 52/69/42 12/10/42
f 13/9/44 14/13/45 54/70/46
f 54/70/46 53/68/44 13/9/44
f 14/13/47 15/15/48 55/71/48
f 55/71/48 54/70/49 14/13/47
f 15/15/50 16/17/51 56/72/51
f 56/72/51 55/71/50 15/15/50
f 16/17/52 9/2/53 50/65/53
f 50/65/53 56/72/52 16/17/52
f 17/73/54 20/74/55 50/65/55
f 50/65/55 49/64/54 17/73/54
f 21/75/56 17/73/54 49/64/54
f 49/64/54 51/66/56 21/75/56
f 23/76/57 21/75/56 51/66/56
f 51/66/56 52/67/57 23/76/57
f 25/77/58 23/78/57 52/69/57
f 52/69/57 53/68/58 25/77/58
f 27/79/59 25/77/58 53/68/58
f 53/68/58 54/70/59 27/79/59
f 29/80/60 27/79/59 54/70/59
f 54/70/59 55/71/60 29/80/60
f 31/81/61 29/80/60 55/71/60
f 55/71/60 56/72/61 31/81/61
f 20/74/55 31/81/61 56/72/61
f 56/72/61 50/65/55 20/74/55
f 60/82/62 57/83/62 58/84/62
f 58/84/62 59/85/62 60/82/62
f 62/86/63 59/85/63 58/84/63
f 58/84/63 61/87/63 62/86/63
f 64/88/64 63/89/64 57/83/64
f 57/83/64 60/82/64 64/88/64
f 68/90/65 65/91/65 66/92/65
f 66/92/65 67/93/65 68/90/65
f 70/94/66 67/93/66 66/92/66
f 66/92/66 69/95/66 70/94/66
f 72/96/67 71/97/67 65/91/67
f 65/91/67 68/90/67 72/96/67
f 76/98/68 73/99/68 74/100/68
f 74/100/68 75/101/68 76/98/68
f 78/102/69 75/101/69 74/100/69
f 74/100/69 77/103/69 78/102/69
f 80/104/70 79/105/70 73/99/70
f 73/99/70 76/98/70 80/104/70
