# Blender 5.1.2
# www.blender.org
mtllib SeeSaw_body02.mtl
o seeSaw_Child
v 0.710053 0.581447 0.236376
v 0.342188 0.581450 0.235978
v 0.342684 0.601601 0.220988
v 0.710052 0.601601 0.221511
v 0.710055 0.589145 0.260429
v 0.341386 0.589146 0.260261
v 0.710055 0.614058 0.260429
v 0.341388 0.614057 0.260261
v 0.710053 0.621756 0.236374
v 0.342190 0.621753 0.235978
v 0.706229 0.281627 0.496052
v 0.706242 0.474849 0.407116
v 0.742898 0.474849 0.407116
v 0.742912 0.281627 0.496052
v 0.695328 0.281621 0.522075
v 0.695591 0.483006 0.431940
v 0.724570 0.281619 0.540371
v 0.724570 0.488876 0.448482
v 0.753812 0.281621 0.522078
v 0.753550 0.483006 0.431940
v 0.695522 0.551878 0.391665
v 0.706241 0.536176 0.370493
v 0.724570 0.563259 0.405500
v 0.753619 0.551878 0.391667
v 0.742899 0.536175 0.370493
v 0.695519 0.594368 0.337197
v 0.706286 0.569680 0.325935
v 0.724570 0.611391 0.344660
v 0.753622 0.594368 0.337197
v 0.742855 0.569680 0.325935
v 0.695577 0.608298 0.267850
v 0.706234 0.580714 0.266191
v 0.724570 0.626902 0.269145
v 0.753563 0.608298 0.267850
v 0.742906 0.580714 0.266191
v 0.742911 0.281627 -0.016143
v 0.742896 0.474849 0.072795
v 0.706242 0.474849 0.072795
v 0.706228 0.281627 -0.016143
v 0.753812 0.281621 -0.042166
v 0.753550 0.483006 0.047971
v 0.724570 0.281619 -0.060462
v 0.724570 0.488876 0.031430
v 0.695327 0.281621 -0.042166
v 0.695591 0.483006 0.047968
v 0.753618 0.551879 0.088244
v 0.742899 0.536176 0.109418
v 0.724570 0.563260 0.074411
v 0.695521 0.551879 0.088244
v 0.706241 0.536176 0.109418
v 0.753620 0.594368 0.142713
v 0.742854 0.569680 0.153977
v 0.724570 0.611391 0.135251
v 0.695519 0.594368 0.142713
v 0.706285 0.569680 0.153977
v 0.753563 0.608298 0.212061
v 0.742906 0.580714 0.213721
v 0.724570 0.626902 0.210764
v 0.695577 0.608298 0.212061
v 0.706233 0.580714 0.213721
v 0.310465 0.281627 0.496052
v 0.310480 0.474849 0.407116
v 0.347134 0.474848 0.407116
v 0.347148 0.281627 0.496052
v 0.299563 0.281621 0.522075
v 0.299825 0.483006 0.431940
v 0.328807 0.281619 0.540371
v 0.328807 0.488876 0.448482
v 0.358049 0.281621 0.522078
v 0.357787 0.483006 0.431940
v 0.299757 0.551878 0.391665
v 0.310477 0.536176 0.370493
v 0.328807 0.563259 0.405500
v 0.357855 0.551878 0.391667
v 0.347136 0.536175 0.370493
v 0.299755 0.594368 0.337197
v 0.310522 0.569680 0.325935
v 0.328807 0.611391 0.344660
v 0.357857 0.594368 0.337197
v 0.347091 0.569680 0.325935
v 0.299814 0.608298 0.267850
v 0.310470 0.580714 0.266191
v 0.328806 0.626902 0.269145
v 0.357799 0.608298 0.267850
v 0.347143 0.580714 0.266191
v 0.347148 0.281627 -0.016143
v 0.347134 0.474849 0.072795
v 0.310480 0.474849 0.072795
v 0.310465 0.281627 -0.016143
v 0.358049 0.281621 -0.042166
v 0.357787 0.483006 0.047971
v 0.328807 0.281619 -0.060462
v 0.328807 0.488876 0.031430
v 0.299563 0.281621 -0.042166
v 0.299825 0.483006 0.047968
v 0.357855 0.551879 0.088244
v 0.347136 0.536176 0.109418
v 0.328807 0.563260 0.074411
v 0.299757 0.551879 0.088244
v 0.310477 0.536176 0.109418
v 0.357857 0.594368 0.142713
v 0.347091 0.569680 0.153977
v 0.328807 0.611391 0.135251
v 0.299755 0.594368 0.142713
v 0.310522 0.569680 0.153977
v 0.357799 0.608298 0.212061
v 0.347143 0.580714 0.213721
v 0.328806 0.626902 0.210764
v 0.299814 0.608298 0.212061
v 0.310470 0.580714 0.213721
vn 0.0011 -0.5960 -0.8030
vn 0.0009 -0.5936 -0.8048
vn 0.0009 -0.5945 -0.8041
vn 0.0011 -0.5969 -0.8023
vn -0.0003 -0.9531 0.3028
vn -0.0001 -0.9524 0.3048
vn -0.0002 -0.9527 0.3040
vn -0.0003 -0.9533 0.3021
vn -0.0005 -0.0000 1.0000
vn -0.0002 0.9530 0.3030
vn -0.0003 0.9524 0.3048
vn -0.0003 0.9527 0.3038
vn -0.0001 0.9533 0.3021
vn 0.0009 0.5959 -0.8031
vn 0.0011 0.5935 -0.8048
vn 0.0011 0.5944 -0.8041
vn 0.0009 0.5969 -0.8024
vn -0.0000 -0.4181 -0.9084
vn -0.0000 -0.4661 -0.8847
vn -0.9237 -0.1756 -0.3405
vn -0.9244 -0.1785 -0.3370
vn -0.9102 -0.1686 -0.3784
vn -0.9090 -0.1693 -0.3808
vn -0.5148 0.3898 0.7636
vn -0.5145 0.3941 0.7616
vn -0.4982 0.3517 0.7925
vn -0.4965 0.3518 0.7935
vn 0.5139 0.3888 0.7647
vn 0.4964 0.3518 0.7936
vn 0.4982 0.3517 0.7925
vn 0.5157 0.3923 0.7617
vn 0.5138 0.3888 0.7647
vn 0.9237 -0.1756 -0.3406
vn 0.9090 -0.1692 -0.3808
vn 0.9102 -0.1685 -0.3784
vn 0.9244 -0.1785 -0.3370
vn 0.9237 -0.1756 -0.3404
vn -0.9256 -0.2480 -0.2859
vn -0.9264 -0.2530 -0.2790
vn -0.5237 0.5609 0.6412
vn -0.5263 0.5565 0.6429
vn 0.5252 0.5580 0.6425
vn 0.5247 0.5617 0.6397
vn 0.9256 -0.2480 -0.2859
vn 0.9264 -0.2530 -0.2790
vn -0.0000 -0.6685 -0.7437
vn -0.9288 -0.3373 -0.1533
vn -0.9303 -0.3349 -0.1497
vn -0.5384 0.7637 0.3563
vn -0.5389 0.7642 0.3545
vn 0.5384 0.7637 0.3563
vn 0.5388 0.7642 0.3545
vn 0.9288 -0.3373 -0.1533
vn 0.9303 -0.3349 -0.1497
vn -0.0000 -0.9156 -0.4020
vn -0.9322 -0.3605 -0.0331
vn -0.9330 -0.3585 -0.0331
vn -0.5398 0.8377 0.0829
vn -0.5408 0.8370 0.0839
vn 0.5398 0.8377 0.0829
vn 0.5408 0.8370 0.0839
vn 0.9322 -0.3605 -0.0331
vn 0.9330 -0.3585 -0.0331
vn -0.0000 -0.9958 -0.0912
vn -0.0000 -0.4181 0.9084
vn -0.0000 -0.4661 0.8847
vn 0.9237 -0.1756 0.3406
vn 0.9244 -0.1785 0.3371
vn 0.9102 -0.1686 0.3784
vn 0.9090 -0.1693 0.3808
vn 0.5148 0.3898 -0.7636
vn 0.5145 0.3941 -0.7616
vn 0.4982 0.3517 -0.7925
vn 0.4965 0.3518 -0.7935
vn -0.5138 0.3888 -0.7647
vn -0.4965 0.3518 -0.7936
vn -0.4981 0.3517 -0.7926
vn -0.4982 0.3517 -0.7925
vn -0.5156 0.3923 -0.7617
vn -0.9237 -0.1756 0.3405
vn -0.9090 -0.1693 0.3808
vn -0.9102 -0.1685 0.3784
vn -0.9244 -0.1785 0.3370
vn -0.9237 -0.1756 0.3404
vn 0.9256 -0.2480 0.2859
vn 0.9264 -0.2529 0.2790
vn 0.5237 0.5609 -0.6412
vn 0.5263 0.5565 -0.6429
vn -0.5252 0.5580 -0.6425
vn -0.5247 0.5617 -0.6397
vn -0.9256 -0.2480 0.2859
vn -0.9264 -0.2530 0.2790
vn -0.0000 -0.6685 0.7437
vn 0.9288 -0.3373 0.1533
vn 0.9303 -0.3349 0.1497
vn 0.5384 0.7637 -0.3563
vn 0.5388 0.7642 -0.3545
vn -0.5384 0.7637 -0.3563
vn -0.5388 0.7642 -0.3545
vn -0.9288 -0.3373 0.1533
vn -0.9303 -0.3349 0.1497
vn -0.0000 -0.9157 0.4020
vn 0.9322 -0.3605 0.0331
vn 0.9330 -0.3585 0.0331
vn 0.5398 0.8377 -0.0829
vn 0.5408 0.8370 -0.0839
vn -0.5398 0.8377 -0.0829
vn -0.5408 0.8370 -0.0839
vn -0.9322 -0.3604 0.0331
vn -0.9330 -0.3584 0.0331
vn -0.0000 -0.9958 0.0912
vn -0.9237 -0.1756 -0.3406
vn -0.9244 -0.1785 -0.3371
vn -0.4965 0.3518 0.7936
vn 0.9090 -0.1693 -0.3808
vn 0.9102 -0.1686 -0.3784
vn 0.9244 -0.1785 -0.3371
vn 0.9264 -0.2529 -0.2790
vn -0.5388 0.7642 0.3545
vn 0.5389 0.7642 0.3545
vn -0.9322 -0.3604 -0.0331
vn -0.9330 -0.3584 -0.0331
vn -0.5408 0.8369 0.0839
vn 0.9322 -0.3604 -0.0331
vn 0.9330 -0.3584 -0.0331
vn -0.5138 0.3888 -0.7648
vn -0.9237 -0.1756 0.3406
vn -0.9101 -0.1686 0.3784
vn -0.9102 -0.1686 0.3784
vn -0.9244 -0.1785 0.3371
vn 0.9289 -0.3373 0.1533
vn 0.5389 0.7642 -0.3545
vn 0.9322 -0.3604 0.0331
vn 0.9330 -0.3584 0.0331
vn -0.5408 0.8369 -0.0839
vt 0.052881 0.643006
vt 0.052881 0.643858
vt 0.040377 0.643858
vt 0.040377 0.643006
vt 0.052881 0.644720
vt 0.040377 0.644720
vt 0.052881 0.645566
vt 0.040377 0.645566
vt 0.052881 0.646428
vt 0.040377 0.646428
vt 0.052881 0.642154
vt 0.040377 0.642154
vt 0.105585 0.731579
vt 0.104340 0.731579
vt 0.104340 0.724138
vt 0.105585 0.724138
vt 0.103364 0.724138
vt 0.103364 0.731579
vt 0.102199 0.724138
vt 0.102199 0.731579
vt 0.101034 0.731579
vt 0.101034 0.724138
vt 0.106562 0.724138
vt 0.106562 0.731579
vt 0.103364 0.721488
vt 0.104340 0.721488
vt 0.102199 0.721488
vt 0.101034 0.721488
vt 0.106562 0.721488
vt 0.105585 0.721488
vt 0.103364 0.719244
vt 0.104340 0.719244
vt 0.102199 0.719244
vt 0.101034 0.719244
vt 0.106562 0.719244
vt 0.105585 0.719244
vt 0.103364 0.716918
vt 0.104340 0.716918
vt 0.102199 0.716918
vt 0.101034 0.716918
vt 0.106562 0.716918
vt 0.105585 0.716918
vt 0.104340 0.700384
vt 0.105585 0.700384
vt 0.105585 0.707825
vt 0.104340 0.707825
vt 0.106562 0.707825
vt 0.106562 0.700384
vt 0.102199 0.707825
vt 0.101034 0.707825
vt 0.101034 0.700384
vt 0.102199 0.700384
vt 0.103364 0.700384
vt 0.103364 0.707825
vt 0.106562 0.710475
vt 0.105585 0.710475
vt 0.101034 0.710475
vt 0.102199 0.710475
vt 0.103364 0.710475
vt 0.104340 0.710475
vt 0.106562 0.712719
vt 0.105585 0.712719
vt 0.101034 0.712719
vt 0.102199 0.712719
vt 0.103364 0.712719
vt 0.104340 0.712719
vt 0.106562 0.715045
vt 0.105585 0.715045
vt 0.102199 0.715045
vt 0.101034 0.715045
vt 0.103364 0.715045
vt 0.104340 0.715045
vt 0.104420 0.671513
vt 0.103175 0.671513
vt 0.103175 0.664038
vt 0.104420 0.664038
vt 0.102199 0.664038
vt 0.102199 0.671513
vt 0.101034 0.664038
vt 0.101034 0.671513
vt 0.106562 0.664038
vt 0.106562 0.671513
vt 0.105397 0.671513
vt 0.105397 0.664038
vt 0.102199 0.661353
vt 0.103175 0.661353
vt 0.101034 0.661353
vt 0.106562 0.661353
vt 0.105397 0.661353
vt 0.104420 0.661353
vt 0.102199 0.659061
vt 0.103175 0.659061
vt 0.101034 0.659061
vt 0.105397 0.659061
vt 0.106562 0.659061
vt 0.104420 0.659061
vt 0.102199 0.656699
vt 0.103175 0.656699
vt 0.101034 0.656699
vt 0.106562 0.656699
vt 0.105397 0.656699
vt 0.104420 0.656699
vt 0.103175 0.639997
vt 0.104420 0.639997
vt 0.104420 0.647472
vt 0.103175 0.647472
vt 0.105397 0.647472
vt 0.105397 0.639997
vt 0.106562 0.647472
vt 0.106562 0.639997
vt 0.101034 0.647472
vt 0.101034 0.639997
vt 0.102199 0.639997
vt 0.102199 0.647472
vt 0.105397 0.650157
vt 0.104420 0.650157
vt 0.106562 0.650157
vt 0.101034 0.650157
vt 0.102199 0.650157
vt 0.103175 0.650157
vt 0.105397 0.652449
vt 0.104420 0.652449
vt 0.106562 0.652449
vt 0.102199 0.652449
vt 0.101034 0.652449
vt 0.103175 0.652449
vt 0.105397 0.654812
vt 0.104420 0.654812
vt 0.106562 0.654812
vt 0.101034 0.654812
vt 0.102199 0.654812
vt 0.103175 0.654812
s 1
usemtl 07_-_Default.001
f 4/1/1 1/2/2 2/3/3
f 2/3/3 3/4/4 4/1/1
f 1/2/5 5/5/6 6/6/7
f 6/6/7 2/3/8 1/2/5
f 5/5/9 7/7/9 8/8/9
f 8/8/9 6/6/9 5/5/9
f 7/7/10 9/9/11 10/10/12
f 10/10/12 8/8/13 7/7/10
f 9/11/14 4/1/15 3/4/16
f 3/4/16 10/12/17 9/11/14
f 14/13/18 11/14/18 12/15/19
f 12/15/19 13/16/19 14/13/18
f 16/17/20 12/15/21 11/14/22
f 11/14/22 15/18/23 16/17/20
f 18/19/24 16/17/25 15/18/26
f 15/18/26 17/20/27 18/19/24
f 18/19/28 17/20/29 19/21/30
f 19/21/30 20/22/31 18/19/32
f 20/23/33 19/24/34 14/13/35
f 14/13/35 13/16/36 20/23/37
f 21/25/38 22/26/39 12/15/21
f 12/15/21 16/17/20 21/25/38
f 21/25/40 16/17/25 18/19/24
f 18/19/24 23/27/41 21/25/40
f 23/27/42 18/19/32 20/22/31
f 20/22/31 24/28/43 23/27/42
f 24/29/44 20/23/37 13/16/36
f 13/16/36 25/30/45 24/29/44
f 25/30/46 13/16/19 12/15/19
f 12/15/19 22/26/46 25/30/46
f 26/31/47 27/32/48 22/26/39
f 22/26/39 21/25/38 26/31/47
f 26/31/49 21/25/40 23/27/41
f 23/27/41 28/33/50 26/31/49
f 29/34/51 28/33/52 23/27/42
f 23/27/42 24/28/43 29/34/51
f 29/35/53 24/29/44 25/30/45
f 25/30/45 30/36/54 29/35/53
f 30/36/55 25/30/46 22/26/46
f 22/26/46 27/32/55 30/36/55
f 31/37/56 32/38/57 27/32/48
f 27/32/48 26/31/47 31/37/56
f 33/39/58 31/37/59 26/31/49
f 26/31/49 28/33/50 33/39/58
f 33/39/60 28/33/52 29/34/51
f 29/34/51 34/40/61 33/39/60
f 34/41/62 29/35/53 30/36/54
f 30/36/54 35/42/63 34/41/62
f 35/42/64 30/36/55 27/32/55
f 27/32/55 32/38/64 35/42/64
f 39/43/65 36/44/65 37/45/66
f 37/45/66 38/46/66 39/43/65
f 41/47/67 37/45/68 36/44/69
f 36/44/69 40/48/70 41/47/67
f 43/49/71 41/50/72 40/51/73
f 40/51/73 42/52/74 43/49/71
f 43/49/75 42/52/76 44/53/77
f 44/53/78 45/54/79 43/49/75
f 45/54/80 44/53/81 39/43/82
f 39/43/82 38/46/83 45/54/84
f 46/55/85 47/56/86 37/45/68
f 37/45/68 41/47/67 46/55/85
f 46/57/87 41/50/72 43/49/71
f 43/49/71 48/58/88 46/57/87
f 48/58/89 43/49/75 45/54/79
f 45/54/79 49/59/90 48/58/89
f 49/59/91 45/54/84 38/46/83
f 38/46/83 50/60/92 49/59/91
f 50/60/93 38/46/66 37/45/66
f 37/45/66 47/56/93 50/60/93
f 51/61/94 52/62/95 47/56/86
f 47/56/86 46/55/85 51/61/94
f 51/63/96 46/57/87 48/58/88
f 48/58/88 53/64/97 51/63/96
f 54/65/98 53/64/99 48/58/89
f 48/58/89 49/59/90 54/65/98
f 54/65/100 49/59/91 50/60/92
f 50/60/92 55/66/101 54/65/100
f 55/66/102 50/60/93 47/56/93
f 47/56/93 52/62/102 55/66/102
f 56/67/103 57/68/104 52/62/95
f 52/62/95 51/61/94 56/67/103
f 58/69/105 56/70/106 51/63/96
f 51/63/96 53/64/97 58/69/105
f 58/69/107 53/64/99 54/65/98
f 54/65/98 59/71/108 58/69/107
f 59/71/109 54/65/100 55/66/101
f 55/66/101 60/72/110 59/71/109
f 60/72/111 55/66/102 52/62/102
f 52/62/102 57/68/111 60/72/111
f 57/68/104 56/67/103 34/41/62
f 34/41/62 35/42/63 57/68/104
f 56/70/106 58/69/105 33/39/60
f 33/39/60 34/40/61 56/70/106
f 58/69/107 59/71/108 31/37/59
f 31/37/59 33/39/58 58/69/107
f 59/71/109 60/72/110 32/38/57
f 32/38/57 31/37/56 59/71/109
f 32/38/64 60/72/111 57/68/111
f 57/68/111 35/42/64 32/38/64
f 64/73/18 61/74/18 62/75/19
f 62/75/19 63/76/19 64/73/18
f 66/77/112 62/75/113 61/74/22
f 61/74/22 65/78/23 66/77/112
f 68/79/24 66/77/25 65/78/26
f 65/78/26 67/80/114 68/79/24
f 68/81/28 67/82/29 69/83/30
f 69/83/30 70/84/31 68/81/28
f 70/84/33 69/83/115 64/73/116
f 64/73/35 63/76/117 70/84/37
f 71/85/38 72/86/39 62/75/113
f 62/75/113 66/77/112 71/85/38
f 71/85/40 66/77/25 68/79/24
f 68/79/24 73/87/41 71/85/40
f 73/88/42 68/81/28 70/84/31
f 70/84/31 74/89/43 73/88/42
f 74/89/44 70/84/37 63/76/117
f 63/76/117 75/90/118 74/89/44
f 75/90/46 63/76/19 62/75/19
f 62/75/19 72/86/46 75/90/46
f 76/91/47 77/92/48 72/86/39
f 72/86/39 71/85/38 76/91/47
f 76/91/49 71/85/40 73/87/41
f 73/87/41 78/93/119 76/91/49
f 79/94/51 78/95/120 73/88/42
f 73/88/42 74/89/43 79/94/51
f 79/94/53 74/89/44 75/90/118
f 75/90/118 80/96/54 79/94/53
f 80/96/55 75/90/46 72/86/46
f 72/86/46 77/92/55 80/96/55
f 81/97/121 82/98/122 77/92/48
f 77/92/48 76/91/47 81/97/121
f 83/99/58 81/97/123 76/91/49
f 76/91/49 78/93/119 83/99/58
f 83/100/60 78/95/120 79/94/51
f 79/94/51 84/101/61 83/100/60
f 84/101/124 79/94/53 80/96/54
f 80/96/54 85/102/125 84/101/124
f 85/102/64 80/96/55 77/92/55
f 77/92/55 82/98/64 85/102/64
f 89/103/65 86/104/65 87/105/66
f 87/105/66 88/106/66 89/103/65
f 91/107/67 87/105/68 86/104/69
f 86/104/69 90/108/70 91/107/67
f 93/109/71 91/107/72 90/108/73
f 90/108/73 92/110/74 93/109/71
f 93/111/75 92/112/76 94/113/77
f 94/113/78 95/114/79 93/111/126
f 95/114/127 94/113/81 89/103/128
f 89/103/129 88/106/130 95/114/84
f 96/115/85 97/116/86 87/105/68
f 87/105/68 91/107/67 96/115/85
f 96/115/87 91/107/72 93/109/71
f 93/109/71 98/117/88 96/115/87
f 98/118/89 93/111/126 95/114/79
f 95/114/79 99/119/90 98/118/89
f 99/119/91 95/114/84 88/106/130
f 88/106/130 100/120/92 99/119/91
f 100/120/93 88/106/66 87/105/66
f 87/105/66 97/116/93 100/120/93
f 101/121/131 102/122/95 97/116/86
f 97/116/86 96/115/85 101/121/131
f 101/121/96 96/115/87 98/117/88
f 98/117/88 103/123/132 101/121/96
f 104/124/98 103/125/99 98/118/89
f 98/118/89 99/119/90 104/124/98
f 104/124/100 99/119/91 100/120/92
f 100/120/92 105/126/101 104/124/100
f 105/126/102 100/120/93 97/116/93
f 97/116/93 102/122/102 105/126/102
f 106/127/133 107/128/134 102/122/95
f 102/122/95 101/121/131 106/127/133
f 108/129/105 106/127/106 101/121/96
f 101/121/96 103/123/132 108/129/105
f 108/130/107 103/125/99 104/124/98
f 104/124/98 109/131/135 108/130/107
f 109/131/109 104/124/100 105/126/101
f 105/126/101 110/132/110 109/131/109
f 110/132/111 105/126/102 102/122/102
f 102/122/102 107/128/111 110/132/111
f 107/128/134 106/127/133 84/101/124
f 84/101/124 85/102/125 107/128/134
f 106/127/106 108/129/105 83/100/60
f 83/100/60 84/101/61 106/127/106
f 108/130/107 109/131/135 81/97/123
f 81/97/123 83/99/58 108/130/107
f 109/131/109 110/132/110 82/98/122
f 82/98/122 81/97/121 109/131/109
f 82/98/64 110/132/111 107/128/111
f 107/128/111 85/102/64 82/98/64
