# Blender 5.1.2
# www.blender.org
mtllib SeeSaw_head.mtl
o seeSaw_Parent
v 0.999999 0.647966 0.254056
v 1.000000 0.626902 0.269145
v 0.682636 0.626901 0.268771
v 0.683056 0.647966 0.253544
v 1.000000 0.634948 0.293564
v 0.681955 0.634953 0.293408
v 1.000000 0.660985 0.293564
v 0.681955 0.660980 0.293408
v 1.000000 0.669031 0.269145
v 0.682637 0.669032 0.268771
v 0.688284 0.983067 1.553054
v 0.688284 0.356328 -1.007652
v 0.995599 0.356328 -1.007652
v 0.995599 0.983067 1.553054
v 0.688284 1.012970 1.545873
v 0.995599 1.012970 1.545873
v 0.995599 0.386231 -1.014837
v 0.688284 0.386231 -1.014837
v 0.836955 0.363778 -0.977647
v 0.837925 0.327376 -0.952679
v 0.852350 0.327376 -0.952679
v 0.853322 0.363778 -0.977647
v 0.831840 0.360894 -0.990894
v 0.833447 0.320577 -0.962588
v 0.845138 0.359052 -0.999134
v 0.845138 0.316367 -0.968704
v 0.858437 0.360894 -0.990894
v 0.856829 0.320577 -0.962588
v 0.833442 0.296846 -0.929756
v 0.837925 0.309227 -0.927566
v 0.845138 0.289167 -0.931092
v 0.856834 0.296846 -0.929756
v 0.852350 0.309227 -0.927566
v 0.852903 0.399810 -0.830486
v 0.852350 0.355606 -0.837337
v 0.837925 0.355606 -0.837337
v 0.837374 0.399810 -0.830486
v 0.857757 0.403187 -0.818074
v 0.856829 0.354151 -0.825413
v 0.845138 0.405246 -0.810333
v 0.845138 0.353241 -0.818043
v 0.832520 0.403187 -0.818074
v 0.833447 0.354151 -0.825411
v 0.856834 0.317940 -0.843575
v 0.852350 0.327911 -0.851231
v 0.845138 0.311745 -0.838843
v 0.833442 0.317940 -0.843575
v 0.837925 0.327911 -0.851231
v 0.856836 0.303008 -0.861981
v 0.856836 0.292103 -0.906534
v 0.852350 0.304486 -0.904346
v 0.852350 0.312981 -0.869637
v 0.845138 0.296811 -0.857244
v 0.845138 0.284419 -0.907874
v 0.833439 0.303008 -0.861981
v 0.833439 0.292103 -0.906534
v 0.837925 0.312981 -0.869637
v 0.837925 0.304486 -0.904346
v 0.787145 1.350332 1.566191
v 0.900440 1.350812 1.566217
v 0.973197 1.314159 1.560890
v 0.997450 1.203376 1.544863
v 0.997450 1.007110 1.517966
v 0.690136 1.007110 1.517966
v 0.690136 1.202082 1.544750
v 0.714389 1.313064 1.560820
v 0.900440 1.349069 1.594118
v 0.787145 1.349549 1.594142
v 0.714389 1.312893 1.588825
v 0.690136 1.202104 1.572831
v 0.690136 1.004545 1.545827
v 0.997450 1.004545 1.545827
v 0.997450 1.200810 1.572721
v 0.973197 1.311799 1.588757
v 0.899197 0.677326 -1.183553
v 0.785903 0.677740 -1.183797
v 0.713146 0.647691 -1.162142
v 0.688893 0.556832 -1.096763
v 0.688893 0.395173 -0.982266
v 0.996208 0.395173 -0.982266
v 0.996208 0.555737 -1.096065
v 0.971955 0.646752 -1.161575
v 0.785903 0.663308 -1.207740
v 0.899197 0.663722 -1.207984
v 0.971955 0.633665 -1.186338
v 0.996208 0.542787 -1.120984
v 0.996208 0.380031 -1.005792
v 0.688893 0.380031 -1.005792
v 0.688893 0.541690 -1.120289
v 0.713146 0.632728 -1.185770
v 0.836955 0.939505 1.374636
v 0.837925 0.903102 1.399604
v 0.852350 0.903102 1.399604
v 0.853322 0.939505 1.374636
v 0.831840 0.936621 1.361388
v 0.833447 0.896303 1.389694
v 0.845138 0.934778 1.353149
v 0.845138 0.892093 1.383578
v 0.858437 0.936621 1.361388
v 0.856829 0.896303 1.389694
v 0.833442 0.872573 1.422529
v 0.837925 0.884954 1.424716
v 0.845138 0.864894 1.421191
v 0.856834 0.872573 1.422529
v 0.852350 0.884954 1.424716
v 0.852903 0.975537 1.521796
v 0.852350 0.931332 1.514946
v 0.837925 0.931332 1.514946
v 0.837374 0.975536 1.521796
v 0.857757 0.978914 1.534208
v 0.856829 0.929878 1.526869
v 0.845138 0.980972 1.541950
v 0.845138 0.928968 1.534240
v 0.832520 0.978914 1.534208
v 0.833447 0.929878 1.526869
v 0.856834 0.893666 1.508710
v 0.852350 0.903637 1.501052
v 0.845138 0.887471 1.513439
v 0.833442 0.893666 1.508710
v 0.837925 0.903637 1.501052
v 0.856836 0.878735 1.490302
v 0.856836 0.867829 1.445749
v 0.852350 0.880212 1.447939
v 0.852350 0.888707 1.482646
v 0.845138 0.872538 1.495041
v 0.845138 0.860146 1.444411
v 0.833439 0.878735 1.490305
v 0.833439 0.867829 1.445749
v 0.837925 0.888707 1.482646
v 0.837925 0.880212 1.447939
v 0.726891 0.918408 1.173769
v 0.750939 0.980608 1.160087
v 0.750939 0.985896 1.181690
v 0.726893 0.924407 1.198282
v 0.705998 0.916012 1.166237
v 0.733610 0.985329 1.151824
v 0.692984 0.920634 1.186215
v 0.722911 0.993560 1.168366
v 0.705998 0.925761 1.206066
v 0.733610 0.993900 1.186839
v 0.774084 1.031537 1.140507
v 0.781899 1.015948 1.151441
v 0.769269 1.046519 1.155406
v 0.774085 1.040111 1.175539
v 0.781899 1.021236 1.173039
v 0.960486 0.924236 1.197659
v 0.934024 0.985896 1.181690
v 0.934024 0.980608 1.160087
v 0.960486 0.918543 1.174402
v 0.980314 0.925519 1.205051
v 0.951353 0.993900 1.186839
v 0.992662 0.920655 1.186208
v 0.962054 0.993560 1.168366
v 0.980314 0.916270 1.167250
v 0.951354 0.985329 1.151824
v 0.910878 1.040111 1.175539
v 0.903064 1.021236 1.173039
v 0.915694 1.046519 1.155406
v 0.910879 1.031537 1.140507
v 0.903064 1.015948 1.151441
v 0.877841 1.055279 1.171829
v 0.807120 1.055279 1.171829
v 0.814935 1.036402 1.169328
v 0.870029 1.036402 1.169328
v 0.882662 1.061690 1.151691
v 0.802300 1.061691 1.151691
v 0.877843 1.046703 1.136790
v 0.807120 1.046703 1.136790
v 0.870029 1.031114 1.147729
v 0.814936 1.031115 1.147729
v 0.726891 0.469871 -0.658848
v 0.750939 0.532071 -0.672530
v 0.750939 0.537358 -0.650931
v 0.726893 0.475871 -0.634337
v 0.705998 0.467475 -0.666380
v 0.733610 0.536792 -0.680795
v 0.692984 0.472097 -0.646402
v 0.722911 0.545023 -0.664250
v 0.705998 0.477224 -0.626550
v 0.733610 0.545363 -0.645779
v 0.774084 0.582999 -0.692111
v 0.781899 0.567412 -0.681180
v 0.769269 0.597982 -0.677212
v 0.774085 0.591574 -0.657081
v 0.781899 0.572698 -0.659581
v 0.960486 0.475699 -0.634959
v 0.934024 0.537358 -0.650931
v 0.934024 0.532071 -0.672530
v 0.960486 0.470006 -0.658216
v 0.980314 0.476982 -0.627567
v 0.951353 0.545363 -0.645779
v 0.992662 0.472118 -0.646408
v 0.962054 0.545023 -0.664250
v 0.980314 0.467733 -0.665367
v 0.951354 0.536792 -0.680794
v 0.910878 0.591574 -0.657081
v 0.903064 0.572699 -0.659581
v 0.915694 0.597982 -0.677212
v 0.910879 0.582999 -0.692111
v 0.903064 0.567411 -0.681180
v 0.877841 0.606742 -0.660792
v 0.807120 0.606742 -0.660792
v 0.814935 0.587864 -0.663292
v 0.870029 0.587864 -0.663292
v 0.882662 0.613153 -0.680926
v 0.802300 0.613154 -0.680926
v 0.877843 0.598166 -0.695828
v 0.807120 0.598166 -0.695828
v 0.870029 0.582577 -0.684891
v 0.814936 0.582578 -0.684891
vn 0.0012 -0.5834 -0.8122
vn 0.0013 -0.5824 -0.8129
vn 0.0011 -0.5849 -0.8111
vn 0.0010 -0.5858 -0.8104
vn -0.0003 -0.9500 0.3122
vn -0.0004 -0.9498 0.3129
vn -0.0002 -0.9503 0.3113
vn -0.0002 -0.9505 0.3107
vn -0.0005 -0.0000 1.0000
vn -0.0002 0.9500 0.3123
vn -0.0002 0.9498 0.3129
vn -0.0003 0.9503 0.3114
vn -0.0004 0.9505 0.3106
vn 0.0011 0.5834 -0.8122
vn 0.0010 0.5824 -0.8129
vn 0.0012 0.5849 -0.8111
vn 0.0013 0.5858 -0.8104
vn 1.0000 -0.0000 -0.0000
vn -0.9996 -0.0000 -0.0276
vn -0.9996 -0.0000 -0.0277
vn -0.0000 -0.9713 0.2377
vn -0.0000 0.9713 -0.2377
vn -0.0000 0.2335 0.9724
vn -0.0000 -0.2336 -0.9723
vn -1.0000 -0.0000 -0.0000
vn -0.0000 0.5656 0.8247
vn -0.9369 0.1805 0.2995
vn -0.9295 0.1864 0.3183
vn -0.5359 -0.4993 -0.6808
vn -0.5049 -0.5011 -0.7028
vn 0.5049 -0.5011 -0.7029
vn 0.5359 -0.4993 -0.6808
vn 0.9295 0.1864 0.3183
vn 0.9368 0.1805 0.2996
vn -0.9297 0.2985 0.2156
vn -0.9298 0.2983 0.2156
vn -0.5138 -0.6952 -0.5027
vn -0.5134 -0.6954 -0.5027
vn -0.5135 -0.6954 -0.5027
vn 0.5138 -0.6952 -0.5027
vn 0.5135 -0.6954 -0.5027
vn 0.5134 -0.6954 -0.5027
vn 0.9297 0.2985 0.2156
vn 0.9297 0.2986 0.2157
vn 0.9298 0.2984 0.2156
vn 0.9298 0.2983 0.2156
vn -0.0000 0.8105 0.5857
vn -0.0000 0.1532 -0.9882
vn 0.9370 0.0420 -0.3468
vn 0.9271 0.0383 -0.3730
vn 0.5359 -0.1349 0.8334
vn 0.5036 -0.1267 0.8546
vn -0.5036 -0.1267 0.8546
vn -0.5358 -0.1348 0.8335
vn -0.9271 0.0383 -0.3730
vn -0.9370 0.0421 -0.3467
vn 0.9297 0.1652 -0.3292
vn 0.9298 0.1651 -0.3291
vn 0.9297 0.1651 -0.3291
vn 0.9297 0.1653 -0.3292
vn 0.5138 -0.3845 0.7669
vn 0.5135 -0.3847 0.7671
vn 0.5136 -0.3846 0.7670
vn 0.5139 -0.3844 0.7669
vn -0.5135 -0.3846 0.7671
vn -0.5139 -0.3844 0.7669
vn -0.5134 -0.3847 0.7671
vn -0.9297 0.1652 -0.3291
vn -0.9297 0.1652 -0.3292
vn -0.9298 0.1651 -0.3290
vn -0.0000 0.4484 -0.8938
vn 0.9317 0.3528 -0.0863
vn 0.9317 0.3528 -0.0864
vn 0.5213 -0.8289 0.2029
vn 0.5212 -0.8289 0.2029
vn -0.5212 -0.8289 0.2029
vn -0.5212 -0.8290 0.2029
vn -0.9317 0.3528 -0.0864
vn -0.9317 0.3528 -0.0863
vn 0.0336 0.1360 -0.9901
vn -0.0005 0.1430 -0.9897
vn -0.0004 0.1434 -0.9897
vn -0.0003 0.1431 -0.9897
vn -0.0004 0.1431 -0.9897
vn -0.0004 0.1430 -0.9897
vn -0.0020 0.1389 -0.9903
vn -0.0000 0.1358 -0.9907
vn 0.0338 -0.1357 0.9902
vn -0.0005 -0.1427 0.9898
vn -0.0004 -0.1431 0.9897
vn -0.0003 -0.1429 0.9897
vn -0.0004 -0.1428 0.9898
vn -0.0004 -0.1427 0.9898
vn -0.0020 -0.1385 0.9904
vn -0.0000 -0.1354 0.9908
vn 0.9946 0.1030 0.0095
vn 0.9940 0.1094 0.0100
vn -0.9931 0.1169 -0.0000
vn -0.9952 0.0978 -0.0001
vn -0.9952 0.0977 -0.0001
vn -0.2350 0.9716 0.0278
vn -0.2259 0.9738 0.0273
vn 0.2316 0.9711 0.0579
vn 0.2360 0.9697 0.0627
vn 0.9773 0.2110 0.0181
vn 0.9773 0.2110 0.0179
vn -0.9769 0.2137 0.0013
vn -0.9769 0.2136 0.0011
vn 0.4542 0.8881 0.0711
vn 0.4530 0.8883 0.0752
vn -0.4552 0.8903 0.0094
vn -0.4562 0.8899 0.0054
vn -0.0337 0.5779 0.8154
vn 0.0005 0.5838 0.8119
vn 0.0004 0.5843 0.8115
vn 0.0003 0.5841 0.8117
vn 0.0004 0.5840 0.8118
vn 0.0020 0.5805 0.8142
vn -0.0000 0.5780 0.8161
vn -0.0337 -0.5776 -0.8156
vn 0.0005 -0.5836 -0.8120
vn 0.0004 -0.5841 -0.8117
vn 0.0003 -0.5838 -0.8119
vn 0.0004 -0.5838 -0.8119
vn 0.0004 -0.5837 -0.8119
vn 0.0020 -0.5803 -0.8144
vn -0.0000 -0.5777 -0.8162
vn -0.9946 0.0869 -0.0560
vn -0.9940 0.0924 -0.0593
vn 0.9931 0.1036 -0.0540
vn 0.9952 0.0868 -0.0451
vn 0.9952 0.0867 -0.0451
vn -0.9773 0.1788 -0.1135
vn -0.9773 0.1789 -0.1133
vn 0.9769 0.1889 -0.0998
vn 0.9769 0.1890 -0.0996
vn -0.2360 0.8312 -0.5035
vn -0.2316 0.8346 -0.4998
vn -0.4542 0.7549 -0.4732
vn -0.4530 0.7532 -0.4770
vn 0.4552 0.7853 -0.4196
vn 0.2259 0.8511 -0.4739
vn 0.2350 0.8489 -0.4734
vn 0.4562 0.7868 -0.4158
vn -0.0000 0.9798 0.2000
vn -0.0000 0.9798 0.2001
vn -0.9418 0.3293 0.0672
vn -0.9419 0.3292 0.0672
vn -0.9418 0.3293 0.0671
vn -0.5545 -0.8153 -0.1667
vn -0.5544 -0.8154 -0.1666
vn -0.5545 -0.8154 -0.1667
vn -0.5546 -0.8153 -0.1667
vn 0.5545 -0.8154 -0.1666
vn 0.5544 -0.8154 -0.1666
vn 0.5545 -0.8153 -0.1667
vn 0.5546 -0.8152 -0.1667
vn 0.9418 0.3292 0.0672
vn 0.9419 0.3292 0.0672
vn 0.9418 0.3293 0.0672
vn 0.9418 0.2611 -0.2117
vn 0.9418 0.2610 -0.2117
vn 0.5546 -0.6462 0.5244
vn 0.5544 -0.6463 0.5243
vn 0.5545 -0.6462 0.5244
vn 0.5546 -0.6461 0.5244
vn -0.5545 -0.6462 0.5244
vn -0.5544 -0.6463 0.5244
vn -0.5546 -0.6461 0.5244
vn -0.9418 0.2610 -0.2117
vn -0.9419 0.2609 -0.2117
vn -0.9418 0.2611 -0.2117
vn -0.0000 0.7766 -0.6300
vn -0.5049 -0.5011 -0.7029
vn -0.9298 0.2983 0.2155
vn -0.9297 0.2986 0.2156
vn -0.5134 -0.6955 -0.5027
vn -0.5139 -0.6951 -0.5027
vn 0.5139 -0.6951 -0.5027
vn 0.5134 -0.6955 -0.5027
vn 0.9297 0.2986 0.2156
vn -0.0000 0.1531 -0.9882
vn 0.9370 0.0420 -0.3469
vn -0.5037 -0.1267 0.8546
vn -0.5359 -0.1349 0.8334
vn -0.9370 0.0421 -0.3468
vn 0.9297 0.1651 -0.3292
vn 0.5137 -0.3845 0.7670
vn 0.5135 -0.3846 0.7671
vn -0.5137 -0.3845 0.7670
vn -0.5136 -0.3846 0.7670
vn -0.9297 0.1651 -0.3291
vn -0.9298 0.1651 -0.3291
vn -0.5544 -0.8154 -0.1667
vn 0.5544 -0.8154 -0.1667
vn 0.9419 0.2610 -0.2117
vn 0.5544 -0.6464 0.5243
vn 0.5545 -0.6462 0.5243
vn 0.5547 -0.6460 0.5244
vn -0.5544 -0.6462 0.5244
vn -0.5545 -0.6461 0.5244
vn -0.9419 0.2610 -0.2117
vn 0.9355 -0.3432 0.0839
vn 0.8619 -0.4926 0.1206
vn 0.3133 -0.3815 -0.8697
vn 0.3054 -0.3954 -0.8662
vn 0.3507 -0.3234 -0.8789
vn 0.3535 -0.3234 -0.8778
vn -0.7297 0.2980 -0.6154
vn -0.7203 0.3105 -0.6203
vn -0.7985 0.1898 -0.5713
vn -0.8018 0.1904 -0.5664
vn -0.7298 0.5484 0.4083
vn -0.8018 0.4305 0.4145
vn -0.7985 0.4322 0.4190
vn -0.7985 0.4322 0.4191
vn -0.7202 0.5619 0.4068
vn -0.7297 0.5485 0.4083
vn 0.3132 0.0633 0.9476
vn 0.3534 0.1186 0.9279
vn 0.3507 0.1191 0.9289
vn 0.3506 0.1191 0.9289
vn 0.3054 0.0493 0.9510
vn 0.2213 -0.4831 -0.8471
vn 0.2014 -0.4928 -0.8465
vn -0.5247 0.5096 -0.6819
vn -0.4993 0.5249 -0.6893
vn -0.5247 0.7669 0.3695
vn -0.4993 0.7839 0.3690
vn 0.2213 -0.0374 0.9745
vn 0.2014 -0.0462 0.9784
vn 0.6081 -0.7711 0.1888
vn -0.9235 -0.3727 0.0912
vn -0.8531 -0.5067 0.1240
vn -0.3096 0.0528 0.9494
vn -0.3017 0.0404 0.9525
vn -0.3495 0.0989 0.9317
vn -0.3532 0.0982 0.9304
vn 0.7281 0.5513 0.4074
vn 0.7183 0.5652 0.4057
vn 0.7966 0.4382 0.4163
vn 0.8000 0.4366 0.4116
vn 0.7282 0.3008 -0.6159
vn 0.8000 0.1972 -0.5667
vn 0.7966 0.1965 -0.5716
vn 0.7966 0.1965 -0.5717
vn 0.7183 0.3139 -0.6208
vn 0.7281 0.3009 -0.6159
vn -0.3097 -0.3915 -0.8665
vn -0.3532 -0.3426 -0.8705
vn -0.3495 -0.3426 -0.8721
vn -0.3017 -0.4041 -0.8635
vn -0.3096 -0.3916 -0.8665
vn -0.2213 -0.0374 0.9745
vn -0.2014 -0.0462 0.9784
vn 0.5247 0.7669 0.3695
vn 0.4993 0.7840 0.3690
vn 0.5247 0.5096 -0.6819
vn 0.4993 0.5249 -0.6893
vn -0.2213 -0.4831 -0.8471
vn -0.2014 -0.4928 -0.8465
vn -0.6081 -0.7711 0.1888
vn -0.0646 -0.1047 0.9924
vn -0.0816 -0.0976 0.9919
vn 0.0816 -0.0976 0.9919
vn 0.0646 -0.1047 0.9924
vn 0.1698 0.9266 0.3356
vn 0.1940 0.9204 0.3395
vn -0.1940 0.9204 0.3395
vn -0.1699 0.9265 0.3357
vn 0.1940 0.6596 -0.7261
vn 0.1699 0.6669 -0.7256
vn -0.1699 0.6668 -0.7256
vn -0.1940 0.6596 -0.7261
vn -0.0816 -0.5448 -0.8346
vn -0.0646 -0.5513 -0.8318
vn 0.0646 -0.5513 -0.8318
vn 0.0816 -0.5448 -0.8346
vn 0.2190 -0.9477 0.2320
vn -0.2190 -0.9477 0.2320
vn 0.9355 -0.3432 0.0840
vn 0.3133 -0.3815 -0.8696
vn 0.3054 -0.3955 -0.8662
vn -0.7203 0.3106 -0.6203
vn -0.7985 0.1898 -0.5712
vn -0.7297 0.5484 0.4083
vn 0.3133 0.0633 0.9475
vn 0.3055 0.0493 0.9509
vn 0.3133 0.0632 0.9475
vn -0.4993 0.5250 -0.6893
vn -0.5247 0.7669 0.3696
vn 0.2214 -0.0374 0.9745
vn 0.2015 -0.0462 0.9784
vn 0.6081 -0.7711 0.1887
vn -0.8532 -0.5067 0.1240
vn -0.3097 0.0528 0.9494
vn -0.3018 0.0403 0.9525
vn 0.7281 0.3008 -0.6159
vn -0.2214 -0.0374 0.9745
vn -0.2015 -0.0462 0.9784
vn 0.5246 0.7669 0.3696
vn 0.4993 0.7839 0.3690
vn 0.4993 0.5250 -0.6893
vn 0.1698 0.9265 0.3357
vn -0.1698 0.9265 0.3357
vn -0.1940 0.6596 -0.7262
vn -0.0816 -0.5447 -0.8347
vn -0.0646 -0.5512 -0.8319
vn 0.0646 -0.5512 -0.8319
vn 0.0816 -0.5447 -0.8347
vn 0.2190 -0.9478 0.2320
vn -0.2190 -0.9478 0.2320
vt 0.578265 0.569123
vt 0.578265 0.558338
vt 0.579146 0.558338
vt 0.579146 0.569123
vt 0.580023 0.558338
vt 0.580023 0.569123
vt 0.580908 0.558338
vt 0.580908 0.569123
vt 0.581785 0.558338
vt 0.581785 0.569123
vt 0.582667 0.558338
vt 0.582667 0.569123
vt 0.581132 0.557135
vt 0.580859 0.556306
vt 0.581574 0.555793
vt 0.582290 0.556306
vt 0.582017 0.557135
vt 0.578222 0.555115
vt 0.578938 0.555633
vt 0.578664 0.556470
vt 0.577780 0.556470
vt 0.577506 0.555633
vt 0.025477 0.730606
vt 0.015036 0.730606
vt 0.015036 0.641042
vt 0.025477 0.641042
vt 0.038114 0.641884
vt 0.038114 0.731448
vt 0.027673 0.731448
vt 0.027673 0.641884
vt 0.015036 0.731651
vt 0.025477 0.731651
vt 0.026629 0.731448
vt 0.026629 0.641884
vt 0.025477 0.639997
vt 0.015036 0.639997
vt 0.039159 0.641884
vt 0.039159 0.731448
vt 0.551888 0.588754
vt 0.551888 0.588251
vt 0.553540 0.588251
vt 0.553540 0.588754
vt 0.553540 0.587795
vt 0.551888 0.587795
vt 0.553540 0.587309
vt 0.551888 0.587309
vt 0.553540 0.589696
vt 0.551888 0.589696
vt 0.551888 0.589209
vt 0.553540 0.589209
vt 0.554875 0.588251
vt 0.554875 0.587795
vt 0.554875 0.587309
vt 0.554875 0.589209
vt 0.554875 0.589696
vt 0.554875 0.588754
vt 0.560999 0.588251
vt 0.560999 0.588754
vt 0.559335 0.588754
vt 0.559335 0.588251
vt 0.559335 0.589209
vt 0.560999 0.589209
vt 0.559335 0.589696
vt 0.560999 0.589696
vt 0.559335 0.587309
vt 0.560999 0.587309
vt 0.560999 0.587795
vt 0.559335 0.587795
vt 0.558000 0.588754
vt 0.558000 0.589209
vt 0.558000 0.589696
vt 0.558000 0.587795
vt 0.558000 0.587309
vt 0.558000 0.588251
vt 0.557195 0.588754
vt 0.557195 0.589209
vt 0.555680 0.589209
vt 0.555680 0.588754
vt 0.557195 0.589696
vt 0.555680 0.589696
vt 0.557195 0.587309
vt 0.557195 0.587795
vt 0.555680 0.587795
vt 0.555680 0.587309
vt 0.557195 0.588251
vt 0.555680 0.588251
vt 0.287486 0.648704
vt 0.287483 0.655390
vt 0.286658 0.659200
vt 0.284186 0.660478
vt 0.280337 0.660493
vt 0.277865 0.659233
vt 0.277043 0.655430
vt 0.277046 0.648700
vt 0.095032 0.640001
vt 0.095030 0.646731
vt 0.094204 0.650541
vt 0.091732 0.651819
vt 0.087883 0.651834
vt 0.085412 0.650575
vt 0.084589 0.646771
vt 0.084592 0.639997
vt 0.039299 0.640948
vt 0.039299 0.639997
vt 0.046029 0.639997
vt 0.046029 0.640948
vt 0.069954 0.640948
vt 0.063224 0.640948
vt 0.063224 0.639997
vt 0.069954 0.639997
vt 0.056551 0.639997
vt 0.056551 0.640948
vt 0.052702 0.640948
vt 0.052702 0.639997
vt 0.049924 0.639997
vt 0.049924 0.640948
vt 0.059330 0.640948
vt 0.059330 0.639997
vt 0.321255 0.732737
vt 0.321257 0.726051
vt 0.322083 0.722242
vt 0.324555 0.720963
vt 0.328404 0.720949
vt 0.330875 0.722208
vt 0.331698 0.726011
vt 0.331695 0.732741
vt 0.040377 0.729470
vt 0.040380 0.722740
vt 0.041205 0.718930
vt 0.043678 0.717652
vt 0.047527 0.717637
vt 0.049998 0.718897
vt 0.050820 0.722700
vt 0.050818 0.729474
vt 0.071032 0.730577
vt 0.071032 0.731528
vt 0.064302 0.731528
vt 0.064302 0.730577
vt 0.040377 0.730577
vt 0.047108 0.730577
vt 0.047108 0.731528
vt 0.040377 0.731528
vt 0.060408 0.731528
vt 0.060408 0.730577
vt 0.051002 0.730577
vt 0.051002 0.731528
vt 0.057629 0.731528
vt 0.057629 0.730577
vt 0.053780 0.730577
vt 0.053780 0.731528
vt 0.551888 0.530254
vt 0.551888 0.529751
vt 0.553540 0.529751
vt 0.553540 0.530254
vt 0.553540 0.529296
vt 0.551888 0.529296
vt 0.553540 0.528809
vt 0.551888 0.528809
vt 0.553540 0.531197
vt 0.551888 0.531197
vt 0.551888 0.530710
vt 0.553540 0.530710
vt 0.554875 0.529751
vt 0.554875 0.529296
vt 0.554875 0.528809
vt 0.554875 0.530710
vt 0.554875 0.531197
vt 0.554875 0.530254
vt 0.560999 0.529751
vt 0.560999 0.530254
vt 0.559335 0.530254
vt 0.559335 0.529751
vt 0.559335 0.530710
vt 0.560999 0.530710
vt 0.559335 0.531197
vt 0.560999 0.531197
vt 0.559335 0.528809
vt 0.560999 0.528809
vt 0.560999 0.529296
vt 0.559335 0.529296
vt 0.558000 0.530254
vt 0.558000 0.530710
vt 0.558000 0.531197
vt 0.558000 0.529296
vt 0.558000 0.528809
vt 0.558000 0.529751
vt 0.557195 0.530254
vt 0.557195 0.530710
vt 0.555680 0.530710
vt 0.555680 0.530254
vt 0.557195 0.531197
vt 0.555680 0.531197
vt 0.557195 0.528809
vt 0.557195 0.529296
vt 0.555680 0.529296
vt 0.555680 0.528809
vt 0.557195 0.529751
vt 0.555680 0.529751
vt 0.330258 0.636766
vt 0.331034 0.636766
vt 0.331034 0.639313
vt 0.330258 0.639313
vt 0.331736 0.639313
vt 0.331736 0.636766
vt 0.332487 0.639313
vt 0.332487 0.636766
vt 0.328805 0.639313
vt 0.328805 0.636766
vt 0.329556 0.636766
vt 0.329556 0.639313
vt 0.331034 0.641372
vt 0.331736 0.641372
vt 0.332487 0.641372
vt 0.329556 0.641372
vt 0.328805 0.641372
vt 0.330258 0.641372
vt 0.331034 0.650813
vt 0.330258 0.650813
vt 0.330258 0.648248
vt 0.331034 0.648248
vt 0.329556 0.648248
vt 0.329556 0.650813
vt 0.328805 0.648248
vt 0.328805 0.650813
vt 0.332487 0.648248
vt 0.332487 0.650813
vt 0.331736 0.650813
vt 0.331736 0.648248
vt 0.330258 0.646189
vt 0.329556 0.646189
vt 0.328805 0.646189
vt 0.331736 0.646189
vt 0.332487 0.646189
vt 0.331034 0.646189
vt 0.330258 0.644948
vt 0.329556 0.644948
vt 0.329556 0.642613
vt 0.330258 0.642613
vt 0.328805 0.644948
vt 0.328805 0.642613
vt 0.332487 0.644948
vt 0.331736 0.644948
vt 0.331736 0.642613
vt 0.332487 0.642613
vt 0.331034 0.644948
vt 0.331034 0.642613
vt 0.330258 0.714137
vt 0.331034 0.714137
vt 0.331034 0.716683
vt 0.330258 0.716683
vt 0.331736 0.716683
vt 0.331736 0.714137
vt 0.332487 0.716683
vt 0.332487 0.714137
vt 0.328805 0.716683
vt 0.328805 0.714137
vt 0.329556 0.714137
vt 0.329556 0.716683
vt 0.331034 0.718742
vt 0.331736 0.718742
vt 0.332487 0.718742
vt 0.329556 0.718742
vt 0.328805 0.718742
vt 0.330258 0.718742
vt 0.331034 0.728183
vt 0.330258 0.728183
vt 0.330258 0.725619
vt 0.331034 0.725619
vt 0.329556 0.725619
vt 0.329556 0.728183
vt 0.328805 0.725619
vt 0.328805 0.728183
vt 0.332487 0.725619
vt 0.332487 0.728183
vt 0.331736 0.728183
vt 0.331736 0.725619
vt 0.330258 0.723560
vt 0.329556 0.723560
vt 0.328805 0.723560
vt 0.331736 0.723560
vt 0.332487 0.723560
vt 0.331034 0.723560
vt 0.330258 0.722318
vt 0.329556 0.722318
vt 0.329556 0.719983
vt 0.330258 0.719983
vt 0.328805 0.722318
vt 0.328805 0.719983
vt 0.332487 0.722318
vt 0.331736 0.722318
vt 0.331736 0.719983
vt 0.332487 0.719983
vt 0.331034 0.722318
vt 0.331034 0.719983
s 1
usemtl 07_-_Default.001
f 4/1/1 1/2/2 2/3/3
f 2/3/3 3/4/4 4/1/1
f 3/4/5 2/3/6 5/5/7
f 5/5/7 6/6/8 3/4/5
f 6/6/9 5/5/9 7/7/9
f 7/7/9 8/8/9 6/6/9
f 8/8/10 7/7/11 9/9/12
f 9/9/12 10/10/13 8/8/10
f 10/10/14 9/9/15 1/11/16
f 1/11/16 4/12/17 10/10/14
f 5/13/18 2/14/18 1/15/18
f 5/13/18 1/15/18 9/16/18
f 5/13/18 9/16/18 7/17/18
f 4/18/19 3/19/19 6/20/19
f 6/20/19 8/21/20 10/22/19
f 4/18/19 6/20/19 10/22/19
f 14/23/21 11/24/21 12/25/21
f 12/25/21 13/26/21 14/23/21
f 18/27/22 15/28/22 16/29/22
f 16/29/22 17/30/22 18/27/22
f 15/31/23 11/24/23 14/23/23
f 14/23/23 16/32/23 15/31/23
f 16/29/18 14/33/18 13/34/18
f 13/34/18 17/30/18 16/29/18
f 17/35/24 13/26/24 12/25/24
f 12/25/24 18/36/24 17/35/24
f 18/27/25 12/37/25 11/38/25
f 11/38/25 15/28/25 18/27/25
f 22/39/26 19/40/26 20/41/26
f 20/41/26 21/42/26 22/39/26
f 24/43/27 20/41/27 19/40/27
f 19/40/28 23/44/28 24/43/28
f 26/45/29 24/43/29 23/44/29
f 23/44/30 25/46/30 26/45/30
f 26/47/31 25/48/31 27/49/31
f 27/49/32 28/50/32 26/47/32
f 28/50/33 27/49/33 22/39/33
f 22/39/34 21/42/34 28/50/34
f 30/51/35 20/41/36 24/43/36
f 24/43/36 29/52/35 30/51/35
f 29/52/37 24/43/38 26/45/39
f 26/45/39 31/53/37 29/52/37
f 32/54/40 31/55/40 26/47/41
f 26/47/41 28/50/42 32/54/40
f 33/56/43 32/54/44 28/50/45
f 28/50/45 21/42/46 33/56/43
f 33/56/47 21/42/47 20/41/47
f 20/41/47 30/51/47 33/56/47
f 37/57/48 34/58/48 35/59/48
f 35/59/48 36/60/48 37/57/48
f 39/61/49 35/59/49 34/58/49
f 34/58/50 38/62/50 39/61/50
f 41/63/51 39/61/51 38/62/51
f 38/62/52 40/64/52 41/63/52
f 41/65/53 40/66/53 42/67/53
f 42/67/54 43/68/54 41/65/54
f 43/68/55 42/67/55 37/57/55
f 37/57/56 36/60/56 43/68/56
f 45/69/57 35/59/58 39/61/59
f 39/61/59 44/70/60 45/69/57
f 44/70/61 39/61/62 41/63/63
f 41/63/63 46/71/64 44/70/61
f 47/72/65 46/73/66 41/65/65
f 41/65/65 43/68/67 47/72/65
f 48/74/68 47/72/69 43/68/70
f 43/68/70 36/60/70 48/74/68
f 48/74/71 36/60/71 35/59/71
f 35/59/71 45/69/71 48/74/71
f 52/75/72 49/76/73 50/77/72
f 50/77/72 51/78/72 52/75/72
f 49/76/74 53/79/74 54/80/74
f 54/80/74 50/77/75 49/76/74
f 53/81/76 55/82/76 56/83/76
f 56/83/76 54/84/77 53/81/76
f 55/82/78 57/85/79 58/86/78
f 58/86/78 56/83/78 55/82/78
f 58/86/22 57/85/22 52/75/22
f 52/75/22 51/78/22 58/86/22
f 64/87/80 65/88/80 66/89/80
f 66/89/81 59/90/82 60/91/83
f 60/91/83 61/92/84 62/93/85
f 66/89/81 60/91/83 62/93/85
f 64/87/86 66/89/81 62/93/85
f 64/87/87 62/93/87 63/94/87
f 72/95/88 73/96/88 74/97/88
f 74/97/89 67/98/90 68/99/91
f 68/99/91 69/100/92 70/101/93
f 74/97/89 68/99/91 70/101/93
f 72/95/94 74/97/89 70/101/93
f 72/95/95 70/101/95 71/102/95
f 72/103/18 63/104/18 62/105/96
f 62/105/96 73/106/97 72/103/18
f 71/107/25 70/108/98 65/109/99
f 65/109/100 64/110/25 71/107/25
f 59/111/101 68/112/102 67/113/103
f 67/113/103 60/114/104 59/111/101
f 61/115/105 74/116/106 73/106/97
f 73/106/97 62/105/96 61/115/105
f 70/108/98 69/117/107 66/118/108
f 66/118/108 65/109/99 70/108/98
f 60/114/104 67/113/103 74/116/109
f 74/116/109 61/115/110 60/114/104
f 69/117/111 68/112/102 59/111/101
f 59/111/101 66/118/112 69/117/111
f 80/119/113 81/120/113 82/121/113
f 82/121/114 75/122/115 76/123/116
f 76/123/116 77/124/117 78/125/117
f 82/121/114 76/123/116 78/125/117
f 80/119/118 82/121/114 78/125/117
f 80/119/119 78/125/119 79/126/119
f 88/127/120 89/128/120 90/129/120
f 90/129/121 83/130/122 84/131/123
f 84/131/123 85/132/124 86/133/125
f 90/129/121 84/131/123 86/133/125
f 88/127/126 90/129/121 86/133/125
f 88/127/127 86/133/127 87/134/127
f 88/135/25 79/136/25 78/137/128
f 78/137/128 89/138/129 88/135/25
f 87/139/18 86/140/130 81/141/131
f 81/141/132 80/142/18 87/139/18
f 77/143/133 90/144/134 89/138/129
f 89/138/129 78/137/128 77/143/133
f 86/140/130 85/145/135 82/146/136
f 82/146/136 81/141/131 86/140/130
f 76/147/137 83/148/138 90/144/139
f 90/144/139 77/143/140 76/147/137
f 85/145/141 84/149/142 75/150/143
f 75/150/143 82/146/144 85/145/141
f 33/56/145 30/51/145 58/86/146
f 58/86/146 51/78/146 33/56/145
f 58/86/147 30/51/148 29/52/148
f 29/52/148 56/83/149 58/86/147
f 56/83/150 29/52/151 31/53/152
f 31/53/152 54/84/153 56/83/150
f 31/55/154 32/54/155 50/77/156
f 50/77/156 54/80/157 31/55/154
f 32/54/158 33/56/159 51/78/160
f 51/78/160 50/77/160 32/54/158
f 52/75/161 45/69/162 44/70/162
f 44/70/162 49/76/161 52/75/161
f 49/76/163 44/70/164 46/71/165
f 46/71/165 53/79/166 49/76/163
f 46/73/167 47/72/168 55/82/167
f 55/82/167 53/81/169 46/73/167
f 47/72/170 48/74/171 57/85/172
f 57/85/172 55/82/172 47/72/170
f 48/74/173 45/69/173 52/75/173
f 52/75/173 57/85/173 48/74/173
f 94/151/26 91/152/26 92/153/26
f 92/153/26 93/154/26 94/151/26
f 96/155/27 92/153/27 91/152/27
f 91/152/28 95/156/28 96/155/28
f 98/157/29 96/155/29 95/156/29
f 95/156/174 97/158/174 98/157/174
f 98/159/31 97/160/31 99/161/31
f 99/161/32 100/162/32 98/159/32
f 100/162/33 99/161/33 94/151/33
f 94/151/34 93/154/34 100/162/34
f 102/163/35 92/153/175 96/155/36
f 96/155/36 101/164/176 102/163/35
f 101/164/37 96/155/177 98/157/39
f 98/157/39 103/165/178 101/164/37
f 104/166/40 103/167/179 98/159/41
f 98/159/41 100/162/180 104/166/40
f 105/168/181 104/166/44 100/162/45
f 100/162/45 93/154/46 105/168/181
f 105/168/47 93/154/47 92/153/47
f 92/153/47 102/163/47 105/168/47
f 109/169/182 106/170/182 107/171/182
f 107/171/182 108/172/182 109/169/182
f 111/173/183 107/171/183 106/170/183
f 106/170/50 110/174/50 111/173/50
f 113/175/51 111/173/51 110/174/51
f 110/174/52 112/176/52 113/175/52
f 113/177/184 112/178/184 114/179/184
f 114/179/185 115/180/185 113/177/185
f 115/180/55 114/179/55 109/169/55
f 109/169/186 108/172/186 115/180/186
f 117/181/57 107/171/59 111/173/187
f 111/173/187 116/182/57 117/181/57
f 116/182/188 111/173/189 113/175/63
f 113/175/63 118/183/188 116/182/188
f 119/184/190 118/185/190 113/177/191
f 113/177/191 115/180/65 119/184/190
f 120/186/69 119/184/69 115/180/192
f 115/180/192 108/172/193 120/186/69
f 120/186/71 108/172/71 107/171/71
f 107/171/71 117/181/71 120/186/71
f 124/187/73 121/188/73 122/189/73
f 122/189/73 123/190/73 124/187/73
f 121/188/74 125/191/74 126/192/75
f 126/192/75 122/189/75 121/188/74
f 125/193/77 127/194/76 128/195/77
f 128/195/77 126/196/77 125/193/77
f 127/194/78 129/197/78 130/198/78
f 130/198/78 128/195/78 127/194/78
f 130/198/22 129/197/22 124/187/22
f 124/187/22 123/190/22 130/198/22
f 105/168/146 102/163/146 130/198/146
f 130/198/146 123/190/146 105/168/146
f 130/198/147 102/163/148 101/164/148
f 101/164/148 128/195/147 130/198/147
f 128/195/150 101/164/194 103/165/194
f 103/165/194 126/196/150 128/195/150
f 103/167/195 104/166/155 122/189/156
f 122/189/156 126/192/156 103/167/195
f 104/166/160 105/168/159 123/190/160
f 123/190/160 122/189/160 104/166/160
f 124/187/161 117/181/196 116/182/162
f 116/182/162 121/188/161 124/187/161
f 121/188/166 116/182/197 118/183/198
f 118/183/198 125/191/199 121/188/166
f 118/185/200 119/184/168 127/194/167
f 127/194/167 125/193/201 118/185/200
f 119/184/202 120/186/171 129/197/172
f 129/197/172 127/194/172 119/184/202
f 120/186/173 117/181/173 124/187/173
f 124/187/173 129/197/173 120/186/173
f 134/199/203 131/200/203 132/201/204
f 132/201/204 133/202/204 134/199/203
f 136/203/205 132/201/206 131/200/207
f 131/200/207 135/204/208 136/203/205
f 138/205/209 136/203/210 135/204/211
f 135/204/211 137/206/212 138/205/209
f 138/207/213 137/208/214 139/209/215
f 139/209/216 140/210/217 138/207/218
f 140/210/219 139/209/220 134/199/221
f 134/199/222 133/202/223 140/210/219
f 142/211/224 132/201/206 136/203/205
f 136/203/205 141/212/225 142/211/224
f 141/212/226 136/203/210 138/205/209
f 138/205/209 143/213/227 141/212/226
f 144/214/228 143/215/229 138/207/218
f 138/207/218 140/210/217 144/214/228
f 145/216/230 144/214/231 140/210/219
f 140/210/219 133/202/223 145/216/230
f 145/216/232 133/202/204 132/201/204
f 132/201/204 142/211/232 145/216/232
f 149/217/233 146/218/233 147/219/234
f 147/219/234 148/220/234 149/217/233
f 151/221/235 147/219/236 146/218/237
f 146/218/237 150/222/238 151/221/235
f 153/223/239 151/221/240 150/222/241
f 150/222/241 152/224/242 153/223/239
f 153/225/243 152/226/244 154/227/245
f 154/227/246 155/228/247 153/225/248
f 155/228/249 154/227/250 149/217/251
f 149/217/251 148/220/252 155/228/253
f 157/229/254 147/219/236 151/221/235
f 151/221/235 156/230/255 157/229/254
f 156/230/256 151/221/240 153/223/239
f 153/223/239 158/231/257 156/230/256
f 159/232/258 158/233/259 153/225/248
f 153/225/248 155/228/247 159/232/258
f 160/234/260 159/232/261 155/228/253
f 155/228/253 148/220/252 160/234/260
f 160/234/262 148/220/234 147/219/234
f 147/219/234 157/229/262 160/234/262
f 164/235/263 161/236/264 162/237/265
f 162/237/265 163/238/266 164/235/263
f 161/236/267 165/239/268 166/240/269
f 166/240/269 162/237/270 161/236/267
f 165/241/271 167/242/272 168/243/273
f 168/243/273 166/244/274 165/241/271
f 167/242/275 169/245/276 170/246/277
f 170/246/277 168/243/278 167/242/275
f 170/246/279 169/245/280 164/235/280
f 164/235/280 163/238/279 170/246/279
f 145/216/232 142/211/232 170/246/279
f 170/246/279 163/238/279 145/216/232
f 170/246/277 142/211/224 141/212/225
f 141/212/225 168/243/278 170/246/277
f 168/243/273 141/212/226 143/213/227
f 143/213/227 166/244/274 168/243/273
f 143/215/229 144/214/228 162/237/270
f 162/237/270 166/240/269 143/215/229
f 144/214/231 145/216/230 163/238/266
f 163/238/266 162/237/265 144/214/231
f 164/235/263 157/229/254 156/230/255
f 156/230/255 161/236/264 164/235/263
f 161/236/267 156/230/256 158/231/257
f 158/231/257 165/239/268 161/236/267
f 158/233/259 159/232/258 167/242/272
f 167/242/272 165/241/271 158/233/259
f 159/232/261 160/234/260 169/245/276
f 169/245/276 167/242/275 159/232/261
f 160/234/262 157/229/262 164/235/280
f 164/235/280 169/245/280 160/234/262
f 174/247/281 171/248/203 172/249/204
f 172/249/204 173/250/204 174/247/281
f 176/251/282 172/249/283 171/248/207
f 171/248/207 175/252/208 176/251/282
f 178/253/209 176/251/284 175/252/285
f 175/252/285 177/254/212 178/253/209
f 178/255/286 177/256/214 179/257/215
f 179/257/216 180/258/217 178/255/218
f 180/258/287 179/257/220 174/247/221
f 174/247/222 173/250/288 180/258/289
f 182/259/224 172/249/283 176/251/282
f 176/251/282 181/260/225 182/259/224
f 181/260/226 176/251/284 178/253/209
f 178/253/209 183/261/290 181/260/226
f 184/262/291 183/263/229 178/255/218
f 178/255/218 180/258/217 184/262/291
f 185/264/292 184/262/293 180/258/289
f 180/258/289 173/250/288 185/264/292
f 185/264/294 173/250/204 172/249/204
f 172/249/204 182/259/294 185/264/294
f 189/265/233 186/266/233 187/267/295
f 187/267/295 188/268/295 189/265/233
f 191/269/296 187/267/297 186/266/237
f 186/266/237 190/270/238 191/269/296
f 193/271/239 191/269/240 190/270/241
f 190/270/241 192/272/242 193/271/239
f 193/273/298 192/274/244 194/275/245
f 194/275/246 195/276/247 193/273/248
f 195/276/253 194/275/250 189/265/251
f 189/265/251 188/268/252 195/276/253
f 197/277/299 187/267/297 191/269/296
f 191/269/296 196/278/300 197/277/299
f 196/278/301 191/269/240 193/271/239
f 193/271/239 198/279/302 196/278/301
f 199/280/258 198/281/303 193/273/248
f 193/273/248 195/276/247 199/280/258
f 200/282/260 199/280/261 195/276/253
f 195/276/253 188/268/252 200/282/260
f 200/282/262 188/268/295 187/267/295
f 187/267/295 197/277/262 200/282/262
f 204/283/263 201/284/264 202/285/265
f 202/285/265 203/286/266 204/283/263
f 201/284/304 205/287/268 206/288/269
f 206/288/269 202/285/305 201/284/304
f 205/289/271 207/290/272 208/291/273
f 208/291/273 206/292/306 205/289/271
f 207/290/307 209/293/308 210/294/309
f 210/294/309 208/291/310 207/290/307
f 210/294/311 209/293/280 204/283/312
f 204/283/312 203/286/311 210/294/311
f 185/264/294 182/259/294 210/294/311
f 210/294/311 203/286/311 185/264/294
f 210/294/309 182/259/224 181/260/225
f 181/260/225 208/291/310 210/294/309
f 208/291/273 181/260/226 183/261/290
f 183/261/290 206/292/306 208/291/273
f 183/263/229 184/262/291 202/285/305
f 202/285/305 206/288/269 183/263/229
f 184/262/293 185/264/292 203/286/266
f 203/286/266 202/285/265 184/262/293
f 204/283/263 197/277/299 196/278/300
f 196/278/300 201/284/264 204/283/263
f 201/284/304 196/278/301 198/279/302
f 198/279/302 205/287/268 201/284/304
f 198/281/303 199/280/258 207/290/272
f 207/290/272 205/289/271 198/281/303
f 199/280/261 200/282/260 209/293/308
f 209/293/308 207/290/307 199/280/261
f 200/282/262 197/277/262 204/283/312
f 204/283/312 209/293/280 200/282/262
f 75/150/143 84/149/142 83/148/138
f 83/148/138 76/147/137 75/150/143
