# Blender v3.0.0 OBJ File: 'w_m_bench_1.blend'
# www.blender.org
mtllib street_bench_01_wood_metal.mtl
o street_bench_01_wood_metal_Cube.008
v -0.750000 0.005352 0.158298
v -0.750000 0.005352 0.200000
v -0.688725 0.005352 0.158298
v -0.688725 0.005352 0.200000
v -0.750000 0.000000 0.158298
v -0.750000 0.000000 0.200000
v -0.688725 0.000000 0.158298
v -0.688725 0.000000 0.200000
v 0.750000 0.005352 0.158298
v 0.750000 0.005352 0.200000
v 0.688725 0.005352 0.158298
v 0.688725 0.005352 0.200000
v 0.750000 0.000000 0.158298
v 0.750000 0.000000 0.200000
v 0.688725 0.000000 0.158298
v 0.688725 0.000000 0.200000
v -0.750000 0.005352 -0.158298
v -0.750000 0.005352 -0.200000
v -0.688725 0.005352 -0.158298
v -0.688725 0.005352 -0.200000
v -0.750000 0.000000 -0.158298
v -0.750000 0.000000 -0.200000
v -0.688725 0.000000 -0.158298
v -0.688725 0.000000 -0.200000
v 0.750000 0.005352 -0.158298
v 0.750000 0.005352 -0.200000
v 0.688725 0.005352 -0.158298
v 0.688725 0.005352 -0.200000
v 0.750000 0.000000 -0.158298
v 0.750000 0.000000 -0.200000
v 0.688725 0.000000 -0.158298
v 0.688725 0.000000 -0.200000
v -0.750000 0.444000 0.148604
v -0.750000 0.450000 0.142604
v -0.750000 0.447038 0.147589
v -0.750000 0.448985 0.145642
v 0.750000 0.450000 0.142604
v 0.750000 0.444000 0.148604
v 0.750000 0.448985 0.145642
v 0.750000 0.447038 0.147589
v -0.750000 0.444000 0.081573
v -0.750000 0.450000 0.087573
v -0.750000 0.447038 0.082588
v -0.750000 0.448985 0.084535
v 0.750000 0.450000 0.087573
v 0.750000 0.444000 0.081573
v 0.750000 0.448985 0.084535
v 0.750000 0.447038 0.082588
v -0.750000 0.423056 0.148604
v -0.750000 0.417056 0.142604
v -0.750000 0.420018 0.147589
v -0.750000 0.418072 0.145642
v 0.750000 0.417056 0.142604
v 0.750000 0.423056 0.148604
v 0.750000 0.418072 0.145642
v 0.750000 0.420018 0.147589
v -0.750000 0.423056 0.081573
v -0.750000 0.417056 0.087573
v -0.750000 0.420018 0.082588
v -0.750000 0.418072 0.084535
v 0.750000 0.417056 0.087573
v 0.750000 0.423056 0.081573
v 0.750000 0.418072 0.084535
v 0.750000 0.420018 0.082588
v -0.750000 0.444000 0.071879
v -0.750000 0.450000 0.065879
v -0.750000 0.447038 0.070863
v -0.750000 0.448985 0.068916
v 0.750000 0.450000 0.065879
v 0.750000 0.444000 0.071879
v 0.750000 0.448985 0.068916
v 0.750000 0.447038 0.070863
v -0.750000 0.444000 0.004847
v -0.750000 0.450000 0.010847
v -0.750000 0.447038 0.005862
v -0.750000 0.448985 0.007809
v 0.750000 0.450000 0.010847
v 0.750000 0.444000 0.004847
v 0.750000 0.448985 0.007809
v 0.750000 0.447038 0.005862
v -0.750000 0.423056 0.071879
v -0.750000 0.417056 0.065879
v -0.750000 0.420018 0.070863
v -0.750000 0.418072 0.068916
v 0.750000 0.417056 0.065879
v 0.750000 0.423056 0.071879
v 0.750000 0.418072 0.068916
v 0.750000 0.420018 0.070863
v -0.750000 0.423056 0.004847
v -0.750000 0.417056 0.010847
v -0.750000 0.420018 0.005862
v -0.750000 0.418072 0.007809
v 0.750000 0.417056 0.010847
v 0.750000 0.423056 0.004847
v 0.750000 0.418072 0.007809
v 0.750000 0.420018 0.005862
v -0.750000 0.444000 -0.004847
v -0.750000 0.450000 -0.010847
v -0.750000 0.447038 -0.005862
v -0.750000 0.448985 -0.007809
v 0.750000 0.450000 -0.010847
v 0.750000 0.444000 -0.004847
v 0.750000 0.448985 -0.007809
v 0.750000 0.447038 -0.005862
v -0.750000 0.444000 -0.071879
v -0.750000 0.450000 -0.065879
v -0.750000 0.447038 -0.070863
v -0.750000 0.448985 -0.068916
v 0.750000 0.450000 -0.065879
v 0.750000 0.444000 -0.071879
v 0.750000 0.448985 -0.068916
v 0.750000 0.447038 -0.070863
v -0.750000 0.423056 -0.004847
v -0.750000 0.417056 -0.010847
v -0.750000 0.420018 -0.005862
v -0.750000 0.418072 -0.007809
v 0.750000 0.417056 -0.010847
v 0.750000 0.423056 -0.004847
v 0.750000 0.418072 -0.007809
v 0.750000 0.420018 -0.005862
v -0.750000 0.423056 -0.071879
v -0.750000 0.417056 -0.065879
v -0.750000 0.420018 -0.070863
v -0.750000 0.418072 -0.068916
v 0.750000 0.417056 -0.065879
v 0.750000 0.423056 -0.071879
v 0.750000 0.418072 -0.068916
v 0.750000 0.420018 -0.070863
v -0.750000 0.444000 -0.081572
v -0.750000 0.450000 -0.087572
v -0.750000 0.447038 -0.082588
v -0.750000 0.448985 -0.084535
v 0.750000 0.450000 -0.087572
v 0.750000 0.444000 -0.081572
v 0.750000 0.448985 -0.084535
v 0.750000 0.447038 -0.082588
v -0.750000 0.444000 -0.148604
v -0.750000 0.450000 -0.142604
v -0.750000 0.447038 -0.147589
v -0.750000 0.448985 -0.145642
v 0.750000 0.450000 -0.142604
v 0.750000 0.444000 -0.148604
v 0.750000 0.448985 -0.145642
v 0.750000 0.447038 -0.147589
v -0.750000 0.423056 -0.081572
v -0.750000 0.417056 -0.087572
v -0.750000 0.420018 -0.082588
v -0.750000 0.418072 -0.084535
v 0.750000 0.417056 -0.087572
v 0.750000 0.423056 -0.081572
v 0.750000 0.418072 -0.084535
v 0.750000 0.420018 -0.082588
v -0.750000 0.423056 -0.148604
v -0.750000 0.417056 -0.142604
v -0.750000 0.420018 -0.147589
v -0.750000 0.418072 -0.145642
v 0.750000 0.417056 -0.142604
v 0.750000 0.423056 -0.148604
v 0.750000 0.418072 -0.145642
v 0.750000 0.420018 -0.147589
v -0.750000 0.450000 0.158298
v -0.750000 0.388724 0.158298
v -0.688725 0.388724 0.200000
v -0.688725 0.388724 0.158298
v -0.750000 0.005352 0.200000
v -0.688725 0.005352 0.200000
v -0.750000 0.047054 0.158298
v -0.688725 0.047054 0.158298
v -0.750000 0.417056 0.158298
v -0.750000 0.450000 0.200000
v -0.688725 0.417056 0.158298
v 0.750000 0.450000 0.158298
v 0.750000 0.388724 0.158298
v 0.688725 0.388724 0.200000
v 0.688725 0.388724 0.158298
v 0.750000 0.005352 0.200000
v 0.688725 0.005352 0.200000
v 0.750000 0.047054 0.158298
v 0.688725 0.047054 0.158298
v 0.750000 0.417056 0.158298
v 0.750000 0.450000 0.200000
v 0.688725 0.417056 0.158298
v -0.750000 0.450000 -0.158298
v -0.750000 0.388724 -0.158298
v -0.688725 0.388724 -0.200000
v -0.688725 0.388724 -0.158298
v -0.750000 0.005352 -0.200000
v -0.688725 0.005352 -0.200000
v -0.750000 0.047054 -0.158298
v -0.688725 0.047054 -0.158298
v -0.750000 0.417056 -0.158298
v -0.750000 0.450000 -0.200000
v -0.688725 0.417056 -0.158298
v 0.750000 0.450000 -0.158298
v 0.750000 0.388724 -0.158298
v 0.688725 0.388724 -0.200000
v 0.688725 0.388724 -0.158298
v 0.750000 0.005352 -0.200000
v 0.688725 0.005352 -0.200000
v 0.750000 0.047054 -0.158298
v 0.688725 0.047054 -0.158298
v 0.750000 0.417056 -0.158298
v 0.750000 0.450000 -0.200000
v 0.688725 0.417056 -0.158298
vt 0.756627 0.179160
vt 0.733937 0.145820
vt 0.756627 0.145820
vt 0.733937 0.179160
vt 0.515734 0.169674
vt 0.493044 0.203014
vt 0.493044 0.169674
vt 0.515734 0.203014
vt 0.260112 0.195278
vt 0.226771 0.198190
vt 0.226771 0.195278
vt 0.260112 0.198190
vt 0.134560 0.198338
vt 0.157250 0.195426
vt 0.157250 0.198338
vt 0.134560 0.195426
vt 0.103939 0.195435
vt 0.081249 0.198347
vt 0.081249 0.195435
vt 0.103939 0.198347
vt 0.297717 0.195286
vt 0.264376 0.198198
vt 0.264376 0.195286
vt 0.297717 0.198198
vt 0.733987 0.121289
vt 0.756677 0.087948
vt 0.756677 0.121289
vt 0.733987 0.087948
vt 0.448760 0.203115
vt 0.426070 0.169775
vt 0.448760 0.169775
vt 0.426070 0.203115
vt 0.077279 0.198350
vt 0.043938 0.195438
vt 0.077279 0.195438
vt 0.043938 0.198350
vt 0.918830 0.710048
vt 0.921742 0.687357
vt 0.921742 0.710048
vt 0.918830 0.687357
vt 0.952363 0.687357
vt 0.949451 0.710047
vt 0.949451 0.687357
vt 0.952363 0.710047
vt 0.905751 0.682963
vt 0.902839 0.716303
vt 0.902839 0.682963
vt 0.905751 0.716303
vt 0.585226 0.783750
vt 0.551886 0.761060
vt 0.585226 0.761060
vt 0.551886 0.783750
vt 0.395242 0.169673
vt 0.417932 0.203014
vt 0.395242 0.203014
vt 0.417932 0.169673
vt 0.335320 0.198191
vt 0.301981 0.195279
vt 0.335320 0.195279
vt 0.301981 0.198191
vt 0.340276 0.195136
vt 0.362966 0.198048
vt 0.340276 0.198048
vt 0.362966 0.195136
vt 0.130591 0.198341
vt 0.107901 0.195429
vt 0.130591 0.195429
vt 0.107901 0.198341
vt 0.541597 0.203021
vt 0.544509 0.169680
vt 0.544509 0.203021
vt 0.541597 0.169680
vt 0.734151 0.031509
vt 0.756841 0.064849
vt 0.734151 0.064849
vt 0.756841 0.031509
vt 0.482974 0.169775
vt 0.460284 0.203115
vt 0.460284 0.169775
vt 0.482974 0.203115
vt 0.222508 0.195286
vt 0.189167 0.198198
vt 0.189167 0.195286
vt 0.222508 0.198198
vt 0.183906 0.195428
vt 0.161217 0.198340
vt 0.161217 0.195428
vt 0.183906 0.198340
vt 0.935011 0.687355
vt 0.937923 0.710046
vt 0.935011 0.710046
vt 0.937923 0.687355
vt 0.551393 0.203020
vt 0.548481 0.169680
vt 0.551393 0.169680
vt 0.548481 0.203020
vt 0.039733 0.083543
vt 0.553094 0.074581
vt 0.553171 0.083541
vt 0.039579 0.065621
vt 0.552940 0.056659
vt 0.553017 0.065620
vt 0.039656 0.074582
vt 0.553034 0.111337
vt 0.039733 0.102378
vt 0.553171 0.102378
vt 0.552757 0.129254
vt 0.039456 0.120295
vt 0.552894 0.120295
vt 0.039947 0.001986
vt 0.553386 0.020822
vt 0.039947 0.020823
vt 0.039596 0.111337
vt 0.553248 0.029780
vt 0.552971 0.047698
vt 0.039670 0.038740
vt 0.553108 0.038739
vt 0.039533 0.047699
vt 0.039502 0.056660
vt 0.039810 0.029782
vt 0.039519 0.165098
vt 0.552880 0.156137
vt 0.552957 0.165098
vt 0.039365 0.147176
vt 0.552726 0.138215
vt 0.552803 0.147176
vt 0.039319 0.129254
vt 0.039442 0.156137
vt 0.553385 0.001986
vt 0.039288 0.138215
vt 0.928979 0.629004
vt 0.944740 0.627944
vt 0.945799 0.629004
vt 0.931691 0.663864
vt 0.944740 0.663312
vt 0.943087 0.663864
vt 0.928426 0.630656
vt 0.946351 0.630656
vt 0.931691 0.627392
vt 0.943087 0.627392
vt 0.928426 0.660600
vt 0.928979 0.662252
vt 0.945799 0.662252
vt 0.946352 0.660600
vt 0.930038 0.627944
vt 0.930038 0.663312
vt 0.778567 0.089618
vt 0.760642 0.119562
vt 0.760642 0.089618
vt 0.761195 0.087966
vt 0.776955 0.086906
vt 0.778015 0.087966
vt 0.763907 0.122826
vt 0.776955 0.122274
vt 0.775303 0.122826
vt 0.761195 0.121214
vt 0.778567 0.119562
vt 0.778015 0.121214
vt 0.762254 0.086906
vt 0.775303 0.086354
vt 0.762254 0.122274
vt 0.763907 0.086354
vt 0.552527 0.544553
vt 0.039166 0.553515
vt 0.039089 0.544554
vt 0.552682 0.562474
vt 0.039321 0.571436
vt 0.039244 0.562476
vt 0.552604 0.553514
vt 0.039226 0.516759
vt 0.552527 0.525717
vt 0.039089 0.525717
vt 0.039504 0.498841
vt 0.552804 0.507800
vt 0.039366 0.507800
vt 0.552314 0.626109
vt 0.038875 0.607274
vt 0.552314 0.607273
vt 0.552664 0.516759
vt 0.039012 0.598315
vt 0.039289 0.580398
vt 0.552591 0.589355
vt 0.039152 0.589357
vt 0.552728 0.580397
vt 0.552759 0.571435
vt 0.552451 0.598314
vt 0.552741 0.462998
vt 0.039381 0.471959
vt 0.039303 0.462998
vt 0.552896 0.480919
vt 0.039535 0.489880
vt 0.039458 0.480919
vt 0.552941 0.498842
vt 0.552818 0.471959
vt 0.038875 0.626109
vt 0.552973 0.489880
vt 0.761366 0.031886
vt 0.777127 0.030827
vt 0.778186 0.031886
vt 0.764078 0.066747
vt 0.777127 0.066194
vt 0.775474 0.066747
vt 0.760814 0.033539
vt 0.778739 0.033539
vt 0.764078 0.030275
vt 0.775474 0.030275
vt 0.760814 0.063482
vt 0.761366 0.065135
vt 0.778186 0.065135
vt 0.778739 0.063482
vt 0.762425 0.030827
vt 0.762425 0.066194
vt 0.924700 0.570808
vt 0.906775 0.600751
vt 0.906775 0.570808
vt 0.907327 0.569155
vt 0.923088 0.568095
vt 0.924147 0.569155
vt 0.910039 0.604015
vt 0.923088 0.603463
vt 0.921435 0.604015
vt 0.907327 0.602403
vt 0.924700 0.600751
vt 0.924147 0.602403
vt 0.908387 0.568095
vt 0.921435 0.567543
vt 0.908387 0.603463
vt 0.910039 0.567543
vt 0.552947 0.372952
vt 0.039585 0.381914
vt 0.039508 0.372954
vt 0.553101 0.390874
vt 0.039740 0.399836
vt 0.039663 0.390875
vt 0.553024 0.381913
vt 0.039645 0.345158
vt 0.552947 0.354117
vt 0.039508 0.354117
vt 0.039923 0.327241
vt 0.553224 0.336199
vt 0.039785 0.336199
vt 0.552733 0.454509
vt 0.039294 0.435673
vt 0.552733 0.435672
vt 0.553084 0.345158
vt 0.039431 0.426714
vt 0.039708 0.408797
vt 0.553010 0.417754
vt 0.039571 0.417756
vt 0.553147 0.408796
vt 0.553178 0.399834
vt 0.552870 0.426713
vt 0.553160 0.291397
vt 0.039799 0.300358
vt 0.039722 0.291397
vt 0.553315 0.309318
vt 0.039954 0.318279
vt 0.039877 0.309318
vt 0.553360 0.327241
vt 0.553237 0.300358
vt 0.039294 0.454509
vt 0.553392 0.318279
vt 0.761147 0.145875
vt 0.776908 0.144815
vt 0.777967 0.145875
vt 0.763859 0.180735
vt 0.776908 0.180183
vt 0.775255 0.180735
vt 0.760595 0.147527
vt 0.778520 0.147527
vt 0.763859 0.144263
vt 0.775255 0.144263
vt 0.760595 0.177470
vt 0.761147 0.179123
vt 0.777967 0.179123
vt 0.778520 0.177470
vt 0.762207 0.144815
vt 0.762207 0.180183
vt 0.906539 0.660598
vt 0.924464 0.630655
vt 0.924464 0.660598
vt 0.923911 0.662251
vt 0.908151 0.663310
vt 0.907091 0.662251
vt 0.921199 0.627391
vt 0.908151 0.627943
vt 0.909803 0.627391
vt 0.923911 0.629003
vt 0.906539 0.630655
vt 0.907091 0.629003
vt 0.922852 0.663310
vt 0.909803 0.663863
vt 0.922852 0.627943
vt 0.921199 0.663863
vt 0.534712 0.714199
vt 0.021351 0.723161
vt 0.021274 0.714200
vt 0.534866 0.732121
vt 0.021505 0.741083
vt 0.021428 0.732122
vt 0.534789 0.723160
vt 0.021411 0.686405
vt 0.534712 0.695363
vt 0.021274 0.695363
vt 0.021688 0.668488
vt 0.534989 0.677446
vt 0.021551 0.677446
vt 0.534498 0.795755
vt 0.021060 0.776920
vt 0.534499 0.776918
vt 0.534849 0.686405
vt 0.021197 0.767961
vt 0.021474 0.750044
vt 0.534775 0.759001
vt 0.021337 0.759003
vt 0.534912 0.750043
vt 0.534944 0.741081
vt 0.534635 0.767960
vt 0.534926 0.632644
vt 0.021565 0.641604
vt 0.021488 0.632644
vt 0.535080 0.650565
vt 0.021720 0.659526
vt 0.021643 0.650565
vt 0.535126 0.668488
vt 0.535003 0.641604
vt 0.021060 0.795755
vt 0.535158 0.659526
vt 0.520249 0.171295
vt 0.536010 0.170236
vt 0.537069 0.171295
vt 0.522962 0.206156
vt 0.536010 0.205603
vt 0.534357 0.206156
vt 0.519697 0.172948
vt 0.537622 0.172948
vt 0.522961 0.169684
vt 0.534357 0.169684
vt 0.519697 0.202891
vt 0.520249 0.204544
vt 0.537069 0.204544
vt 0.537622 0.202891
vt 0.521309 0.170236
vt 0.521309 0.205603
vt 0.946594 0.570798
vt 0.928669 0.600742
vt 0.928669 0.570798
vt 0.929221 0.569146
vt 0.944982 0.568086
vt 0.946041 0.569146
vt 0.931934 0.604006
vt 0.944982 0.603454
vt 0.943329 0.604006
vt 0.929221 0.602394
vt 0.946594 0.600742
vt 0.946041 0.602394
vt 0.930281 0.568086
vt 0.943329 0.567534
vt 0.930281 0.603454
vt 0.931934 0.567534
vt 0.880915 0.820498
vt 0.131444 0.835915
vt 0.131444 0.820499
vt 0.098102 0.802574
vt 0.098102 0.820499
vt 0.914255 0.802574
vt 0.914255 0.820499
vt 0.880915 0.835914
vt 0.556729 0.740094
vt 0.579420 0.554188
vt 0.579420 0.740094
vt 0.751681 0.554188
vt 0.556729 0.531498
vt 0.774371 0.531497
vt 0.774371 0.740092
vt 0.751681 0.740092
vt 0.035321 0.281273
vt 0.818145 0.247932
vt 0.784805 0.281272
vt 0.818145 0.489865
vt 0.784805 0.489865
vt 0.001980 0.489871
vt 0.001980 0.247932
vt 0.035321 0.489871
vt 0.387788 0.169674
vt 0.215526 0.185089
vt 0.215526 0.169674
vt 0.973923 0.702487
vt 0.996614 0.493892
vt 0.996614 0.735828
vt 0.778971 0.493892
vt 0.973923 0.516583
vt 0.801662 0.516583
vt 0.973924 0.717903
vt 0.973924 0.735828
vt 0.801662 0.702487
vt 0.801662 0.717903
vt 0.801662 0.735828
vt 0.778971 0.735828
vt 0.387788 0.185089
vt 0.872931 0.474840
vt 0.839591 0.302577
vt 0.872931 0.302577
vt 0.839591 0.474840
vt 0.730175 0.031507
vt 0.557913 0.064847
vt 0.557913 0.031507
vt 0.730175 0.064847
vt 0.881752 0.960114
vt 0.132273 0.982804
vt 0.132273 0.960114
vt 0.881752 0.982805
vt 0.965828 0.033400
vt 0.932487 0.251042
vt 0.932488 0.033399
vt 0.965828 0.251042
vt 0.979119 0.289745
vt 0.945779 0.475651
vt 0.945779 0.289745
vt 0.979119 0.475651
vt 0.927341 0.300711
vt 0.894000 0.472974
vt 0.894000 0.300711
vt 0.927341 0.472974
vt 0.730014 0.087945
vt 0.557752 0.121285
vt 0.557752 0.087945
vt 0.730014 0.121285
vt 0.721467 0.563700
vt 0.736883 0.735963
vt 0.721467 0.735963
vt 0.736883 0.563700
vt 0.683971 0.564512
vt 0.650631 0.736775
vt 0.650631 0.564512
vt 0.683971 0.736775
vt 0.610678 0.573080
vt 0.633368 0.758985
vt 0.610678 0.781676
vt 0.805631 0.758985
vt 0.828321 0.781676
vt 0.828321 0.573080
vt 0.805631 0.573080
vt 0.633368 0.573080
vt 0.039294 0.169682
vt 0.211555 0.185097
vt 0.039294 0.185097
vt 0.752310 0.318885
vt 0.775001 0.527480
vt 0.752310 0.504789
vt 0.557359 0.527480
vt 0.580049 0.504789
vt 0.752310 0.303470
vt 0.752310 0.285545
vt 0.775001 0.285545
vt 0.580049 0.318884
vt 0.557359 0.285543
vt 0.580049 0.303469
vt 0.580049 0.285543
vt 0.211555 0.169682
vt 0.867761 0.037794
vt 0.901102 0.255436
vt 0.867761 0.255436
vt 0.901102 0.037794
vt 0.851200 0.529002
vt 0.884541 0.714908
vt 0.851200 0.714908
vt 0.884541 0.529002
vt 0.914250 0.905234
vt 0.098092 0.927924
vt 0.098092 0.905234
vt 0.914250 0.927924
vt 0.557708 0.145816
vt 0.729971 0.179157
vt 0.557708 0.179157
vt 0.729971 0.145816
vt 0.709685 0.563701
vt 0.694269 0.735961
vt 0.694269 0.563701
vt 0.709685 0.735961
vt 0.001981 0.243921
vt 0.784805 0.210581
vt 0.818145 0.243921
vt 0.818145 0.001988
vt 0.035322 0.210580
vt 0.001981 0.001981
vt 0.035322 0.001981
vt 0.784805 0.001988
vt 0.880916 0.840178
vt 0.131444 0.855593
vt 0.131444 0.840177
vt 0.880916 0.855594
vt 0.098102 0.873518
vt 0.098102 0.855593
vt 0.914256 0.873519
vt 0.914256 0.855594
vt 0.881753 0.932673
vt 0.132271 0.955363
vt 0.132271 0.932673
vt 0.881753 0.955363
vt 0.719460 0.487094
vt 0.686120 0.301189
vt 0.719460 0.301189
vt 0.686120 0.487094
vt 0.623278 0.486850
vt 0.656618 0.300946
vt 0.656618 0.486850
vt 0.623278 0.300946
vt 0.098102 0.900481
vt 0.914256 0.877790
vt 0.914257 0.900481
vt 0.098102 0.877790
vn 0.0000 1.0000 0.0000
vn 0.0000 -1.0000 0.0000
vn 0.0000 0.0000 1.0000
vn -1.0000 0.0000 0.0000
vn 1.0000 0.0000 0.0000
vn 0.0000 0.0000 -1.0000
vn 0.0000 0.9870 0.1606
vn 0.0000 0.8504 0.5261
vn 0.0000 0.5261 0.8504
vn 0.0000 0.1606 0.9870
vn 0.0000 0.8504 -0.5261
vn 0.0000 0.9870 -0.1606
vn 0.0000 0.1606 -0.9870
vn 0.0000 0.5261 -0.8504
vn 0.0000 -0.9870 -0.1606
vn 0.0000 -0.9870 0.1606
vn 0.0000 -0.8504 0.5261
vn 0.0000 -0.1606 0.9870
vn 0.0000 -0.5261 0.8504
vn 0.0000 -0.8504 -0.5261
vn 0.0000 -0.5261 -0.8504
vn 0.0000 -0.1606 -0.9870
usemtl None
s 1
f 1/1/1 4/2/1 3/3/1
f 1/1/1 2/4/1 4/2/1
s 2
f 8/5/2 5/6/2 7/7/2
f 8/5/2 6/8/2 5/6/2
s 3
f 2/9/3 8/10/3 4/11/3
f 2/9/3 6/12/3 8/10/3
s 4
f 1/13/4 6/14/4 2/15/4
f 1/13/4 5/16/4 6/14/4
s 5
f 4/17/5 7/18/5 3/19/5
f 4/17/5 8/20/5 7/18/5
s 6
f 3/21/6 5/22/6 1/23/6
f 3/21/6 7/24/6 5/22/6
s 7
f 12/25/1 9/26/1 11/27/1
f 12/25/1 10/28/1 9/26/1
s 8
f 13/29/2 16/30/2 15/31/2
f 13/29/2 14/32/2 16/30/2
s 9
f 16/33/3 10/34/3 12/35/3
f 16/33/3 14/36/3 10/34/3
s 10
f 14/37/5 9/38/5 10/39/5
f 14/37/5 13/40/5 9/38/5
s 11
f 15/41/4 12/42/4 11/43/4
f 15/41/4 16/44/4 12/42/4
s 12
f 13/45/6 11/46/6 9/47/6
f 13/45/6 15/48/6 11/46/6
s 13
f 20/49/1 17/50/1 19/51/1
f 20/49/1 18/52/1 17/50/1
s 14
f 21/53/2 24/54/2 23/55/2
f 21/53/2 22/56/2 24/54/2
s 15
f 24/57/6 18/58/6 20/59/6
f 24/57/6 22/60/6 18/58/6
s 16
f 22/61/4 17/62/4 18/63/4
f 22/61/4 21/64/4 17/62/4
s 17
f 23/65/5 20/66/5 19/67/5
f 23/65/5 24/68/5 20/66/5
s 18
f 21/69/3 19/70/3 17/71/3
f 21/69/3 23/72/3 19/70/3
s 19
f 25/73/1 28/74/1 27/75/1
f 25/73/1 26/76/1 28/74/1
s 20
f 32/77/2 29/78/2 31/79/2
f 32/77/2 30/80/2 29/78/2
s 21
f 26/81/6 32/82/6 28/83/6
f 26/81/6 30/84/6 32/82/6
s 22
f 25/85/5 30/86/5 26/87/5
f 25/85/5 29/88/5 30/86/5
s 23
f 28/89/4 31/90/4 27/91/4
f 28/89/4 32/92/4 31/90/4
s 24
f 27/93/3 29/94/3 25/95/3
f 27/93/3 31/96/3 29/94/3
s 25
f 34/97/7 39/98/8 37/99/7
f 35/100/9 38/101/10 40/102/9
f 40/102/9 36/103/8 35/100/9
f 47/104/11 42/105/12 45/106/12
f 46/107/13 43/108/14 48/109/14
f 58/110/15 53/111/16 50/112/16
f 44/113/11 48/109/14 43/108/14
f 55/114/17 50/112/16 53/111/16
f 54/115/18 51/116/19 56/117/19
f 49/118/18 38/101/10 33/119/10
f 52/120/17 56/117/19 51/116/19
f 58/121/15 63/122/20 61/123/15
f 59/124/21 62/125/22 64/126/21
f 62/125/22 41/127/13 46/107/13
f 64/126/21 60/128/20 59/124/21
f 45/106/12 34/97/7 37/99/7
f 34/97/7 36/103/8 39/98/8
f 35/100/9 33/119/10 38/101/10
f 40/102/9 39/98/8 36/103/8
f 47/104/11 44/113/11 42/105/12
f 46/107/13 41/127/13 43/108/14
f 58/110/15 61/129/15 53/111/16
f 44/113/11 47/104/11 48/109/14
f 55/114/17 52/120/17 50/112/16
f 54/115/18 49/118/18 51/116/19
f 49/118/18 54/115/18 38/101/10
f 52/120/17 55/114/17 56/117/19
f 58/121/15 60/128/20 63/122/20
f 59/124/21 57/130/22 62/125/22
f 62/125/22 57/130/22 41/127/13
f 64/126/21 63/122/20 60/128/20
f 45/106/12 42/105/12 34/97/7
s 26
f 39/131/5 56/132/5 55/133/5
f 46/134/5 64/135/5 62/136/5
f 37/137/5 55/133/5 53/138/5
f 56/132/5 38/139/5 54/140/5
f 53/138/5 45/141/5 37/137/5
f 64/135/5 47/142/5 63/143/5
f 47/142/5 61/144/5 63/143/5
f 39/131/5 40/145/5 56/132/5
f 46/134/5 48/146/5 64/135/5
f 37/137/5 39/131/5 55/133/5
f 56/132/5 40/145/5 38/139/5
f 53/138/5 61/144/5 45/141/5
f 64/135/5 48/146/5 47/142/5
f 47/142/5 45/141/5 61/144/5
s 27
f 58/147/4 34/148/4 42/149/4
f 44/150/4 59/151/4 60/152/4
f 33/153/4 51/154/4 49/155/4
f 36/156/4 50/157/4 52/158/4
f 43/159/4 57/160/4 59/151/4
f 42/149/4 60/152/4 58/147/4
f 35/161/4 52/158/4 51/154/4
f 58/147/4 50/157/4 34/148/4
f 44/150/4 43/159/4 59/151/4
f 33/153/4 35/161/4 51/154/4
f 36/156/4 34/148/4 50/157/4
f 43/159/4 41/162/4 57/160/4
f 42/149/4 44/150/4 60/152/4
f 35/161/4 36/156/4 52/158/4
s 28
f 66/163/7 71/164/8 69/165/7
f 67/166/9 70/167/10 72/168/9
f 72/168/9 68/169/8 67/166/9
f 79/170/11 74/171/12 77/172/12
f 78/173/13 75/174/14 80/175/14
f 90/176/15 85/177/16 82/178/16
f 76/179/11 80/175/14 75/174/14
f 87/180/17 82/178/16 85/177/16
f 86/181/18 83/182/19 88/183/19
f 81/184/18 70/167/10 65/185/10
f 84/186/17 88/183/19 83/182/19
f 90/187/15 95/188/20 93/189/15
f 91/190/21 94/191/22 96/192/21
f 94/191/22 73/193/13 78/173/13
f 96/192/21 92/194/20 91/190/21
f 77/172/12 66/163/7 69/165/7
f 66/163/7 68/169/8 71/164/8
f 67/166/9 65/185/10 70/167/10
f 72/168/9 71/164/8 68/169/8
f 79/170/11 76/179/11 74/171/12
f 78/173/13 73/193/13 75/174/14
f 90/176/15 93/195/15 85/177/16
f 76/179/11 79/170/11 80/175/14
f 87/180/17 84/186/17 82/178/16
f 86/181/18 81/184/18 83/182/19
f 81/184/18 86/181/18 70/167/10
f 84/186/17 87/180/17 88/183/19
f 90/187/15 92/194/20 95/188/20
f 91/190/21 89/196/22 94/191/22
f 94/191/22 89/196/22 73/193/13
f 96/192/21 95/188/20 92/194/20
f 77/172/12 74/171/12 66/163/7
s 29
f 71/197/5 88/198/5 87/199/5
f 78/200/5 96/201/5 94/202/5
f 69/203/5 87/199/5 85/204/5
f 88/198/5 70/205/5 86/206/5
f 85/204/5 77/207/5 69/203/5
f 96/201/5 79/208/5 95/209/5
f 79/208/5 93/210/5 95/209/5
f 71/197/5 72/211/5 88/198/5
f 78/200/5 80/212/5 96/201/5
f 69/203/5 71/197/5 87/199/5
f 88/198/5 72/211/5 70/205/5
f 85/204/5 93/210/5 77/207/5
f 96/201/5 80/212/5 79/208/5
f 79/208/5 77/207/5 93/210/5
s 30
f 90/213/4 66/214/4 74/215/4
f 76/216/4 91/217/4 92/218/4
f 65/219/4 83/220/4 81/221/4
f 68/222/4 82/223/4 84/224/4
f 75/225/4 89/226/4 91/217/4
f 74/215/4 92/218/4 90/213/4
f 67/227/4 84/224/4 83/220/4
f 90/213/4 82/223/4 66/214/4
f 76/216/4 75/225/4 91/217/4
f 65/219/4 67/227/4 83/220/4
f 68/222/4 66/214/4 82/223/4
f 75/225/4 73/228/4 89/226/4
f 74/215/4 76/216/4 92/218/4
f 67/227/4 68/222/4 84/224/4
s 31
f 98/229/7 103/230/8 101/231/7
f 99/232/9 102/233/10 104/234/9
f 104/234/9 100/235/8 99/232/9
f 111/236/11 106/237/12 109/238/12
f 110/239/13 107/240/14 112/241/14
f 122/242/15 117/243/16 114/244/16
f 108/245/11 112/241/14 107/240/14
f 119/246/17 114/244/16 117/243/16
f 118/247/18 115/248/19 120/249/19
f 113/250/18 102/233/10 97/251/10
f 116/252/17 120/249/19 115/248/19
f 122/253/15 127/254/20 125/255/15
f 123/256/21 126/257/22 128/258/21
f 126/257/22 105/259/13 110/239/13
f 128/258/21 124/260/20 123/256/21
f 109/238/12 98/229/7 101/231/7
f 98/229/7 100/235/8 103/230/8
f 99/232/9 97/251/10 102/233/10
f 104/234/9 103/230/8 100/235/8
f 111/236/11 108/245/11 106/237/12
f 110/239/13 105/259/13 107/240/14
f 122/242/15 125/261/15 117/243/16
f 108/245/11 111/236/11 112/241/14
f 119/246/17 116/252/17 114/244/16
f 118/247/18 113/250/18 115/248/19
f 113/250/18 118/247/18 102/233/10
f 116/252/17 119/246/17 120/249/19
f 122/253/15 124/260/20 127/254/20
f 123/256/21 121/262/22 126/257/22
f 126/257/22 121/262/22 105/259/13
f 128/258/21 127/254/20 124/260/20
f 109/238/12 106/237/12 98/229/7
s 32
f 103/263/5 120/264/5 119/265/5
f 110/266/5 128/267/5 126/268/5
f 101/269/5 119/265/5 117/270/5
f 120/264/5 102/271/5 118/272/5
f 117/270/5 109/273/5 101/269/5
f 128/267/5 111/274/5 127/275/5
f 111/274/5 125/276/5 127/275/5
f 103/263/5 104/277/5 120/264/5
f 110/266/5 112/278/5 128/267/5
f 101/269/5 103/263/5 119/265/5
f 120/264/5 104/277/5 102/271/5
f 117/270/5 125/276/5 109/273/5
f 128/267/5 112/278/5 111/274/5
f 111/274/5 109/273/5 125/276/5
s 33
f 122/279/4 98/280/4 106/281/4
f 108/282/4 123/283/4 124/284/4
f 97/285/4 115/286/4 113/287/4
f 100/288/4 114/289/4 116/290/4
f 107/291/4 121/292/4 123/283/4
f 106/281/4 124/284/4 122/279/4
f 99/293/4 116/290/4 115/286/4
f 122/279/4 114/289/4 98/280/4
f 108/282/4 107/291/4 123/283/4
f 97/285/4 99/293/4 115/286/4
f 100/288/4 98/280/4 114/289/4
f 107/291/4 105/294/4 121/292/4
f 106/281/4 108/282/4 124/284/4
f 99/293/4 100/288/4 116/290/4
s 34
f 130/295/7 135/296/8 133/297/7
f 131/298/9 134/299/10 136/300/9
f 136/300/9 132/301/8 131/298/9
f 143/302/11 138/303/12 141/304/12
f 142/305/13 139/306/14 144/307/14
f 154/308/15 149/309/16 146/310/16
f 140/311/11 144/307/14 139/306/14
f 151/312/17 146/310/16 149/309/16
f 150/313/18 147/314/19 152/315/19
f 145/316/18 134/299/10 129/317/10
f 148/318/17 152/315/19 147/314/19
f 154/319/15 159/320/20 157/321/15
f 155/322/21 158/323/22 160/324/21
f 158/323/22 137/325/13 142/305/13
f 160/324/21 156/326/20 155/322/21
f 141/304/12 130/295/7 133/297/7
f 130/295/7 132/301/8 135/296/8
f 131/298/9 129/317/10 134/299/10
f 136/300/9 135/296/8 132/301/8
f 143/302/11 140/311/11 138/303/12
f 142/305/13 137/325/13 139/306/14
f 154/308/15 157/327/15 149/309/16
f 140/311/11 143/302/11 144/307/14
f 151/312/17 148/318/17 146/310/16
f 150/313/18 145/316/18 147/314/19
f 145/316/18 150/313/18 134/299/10
f 148/318/17 151/312/17 152/315/19
f 154/319/15 156/326/20 159/320/20
f 155/322/21 153/328/22 158/323/22
f 158/323/22 153/328/22 137/325/13
f 160/324/21 159/320/20 156/326/20
f 141/304/12 138/303/12 130/295/7
s 35
f 135/329/5 152/330/5 151/331/5
f 142/332/5 160/333/5 158/334/5
f 133/335/5 151/331/5 149/336/5
f 152/330/5 134/337/5 150/338/5
f 149/336/5 141/339/5 133/335/5
f 160/333/5 143/340/5 159/341/5
f 143/340/5 157/342/5 159/341/5
f 135/329/5 136/343/5 152/330/5
f 142/332/5 144/344/5 160/333/5
f 133/335/5 135/329/5 151/331/5
f 152/330/5 136/343/5 134/337/5
f 149/336/5 157/342/5 141/339/5
f 160/333/5 144/344/5 143/340/5
f 143/340/5 141/339/5 157/342/5
s 36
f 154/345/4 130/346/4 138/347/4
f 140/348/4 155/349/4 156/350/4
f 129/351/4 147/352/4 145/353/4
f 132/354/4 146/355/4 148/356/4
f 139/357/4 153/358/4 155/349/4
f 138/347/4 156/350/4 154/345/4
f 131/359/4 148/356/4 147/352/4
f 154/345/4 146/355/4 130/346/4
f 140/348/4 139/357/4 155/349/4
f 129/351/4 131/359/4 147/352/4
f 132/354/4 130/346/4 146/355/4
f 139/357/4 137/360/4 153/358/4
f 138/347/4 140/348/4 156/350/4
f 131/359/4 132/354/4 148/356/4
s 37
f 182/361/6 164/362/6 171/363/6
f 161/364/6 171/363/6 169/365/6
f 172/366/6 180/367/6 182/361/6
f 172/366/6 171/363/6 161/364/6
f 182/361/6 175/368/6 164/362/6
f 172/366/6 182/361/6 171/363/6
s 38
f 163/369/5 168/370/5 164/371/5
f 190/372/5 166/373/5 188/374/5
f 185/375/5 190/372/5 188/374/5
f 163/369/5 166/373/5 168/370/5
f 190/372/5 168/370/5 166/373/5
f 185/375/5 186/376/5 190/372/5
s 39
f 174/377/3 170/378/3 163/379/3
f 163/379/3 165/380/3 166/381/3
f 174/377/3 176/382/3 181/383/3
f 174/377/3 181/383/3 170/378/3
f 163/379/3 170/378/3 165/380/3
f 174/377/3 177/384/3 176/382/3
s 40
f 162/385/4 191/386/4 184/387/4
f 162/388/4 165/389/4 170/390/4
f 187/391/4 167/392/4 189/393/4
f 169/394/4 170/390/4 161/395/4
f 170/390/4 169/394/4 162/388/4
f 184/396/4 187/391/4 189/393/4
f 191/397/4 183/398/4 192/399/4
f 192/399/4 184/396/4 191/397/4
f 162/385/4 169/400/4 191/386/4
f 162/388/4 167/392/4 165/389/4
f 187/391/4 165/389/4 167/392/4
f 184/396/4 192/399/4 187/391/4
s 41
f 164/401/2 184/402/2 186/403/2
f 164/401/2 162/404/2 184/402/2
s 42
f 167/405/1 190/406/1 189/407/1
f 167/405/1 168/408/1 190/406/1
s 43
f 175/409/2 163/410/2 164/411/2
f 175/409/2 174/412/2 163/410/2
s 44
f 188/413/2 165/414/2 187/415/2
f 188/413/2 166/416/2 165/414/2
s 45
f 164/417/6 167/418/6 162/419/6
f 164/417/6 168/420/6 167/418/6
s 46
f 201/421/1 178/422/1 200/423/1
f 201/421/1 179/424/1 178/422/1
s 47
f 169/425/1 193/426/1 191/427/1
f 169/425/1 171/428/1 193/426/1
s 48
f 171/429/5 186/430/5 193/431/5
f 171/429/5 164/432/5 186/430/5
s 49
f 195/433/2 175/434/2 197/435/2
f 195/433/2 173/436/2 175/434/2
s 50
f 174/437/4 179/438/4 177/439/4
f 177/439/4 201/440/4 199/441/4
f 196/442/4 201/440/4 197/443/4
f 174/437/4 175/444/4 179/438/4
f 177/439/4 179/438/4 201/440/4
f 196/442/4 199/441/4 201/440/4
s 51
f 202/445/5 173/446/5 195/447/5
f 173/448/5 176/449/5 178/450/5
f 178/450/5 198/451/5 200/452/5
f 180/453/5 172/454/5 181/455/5
f 181/455/5 173/448/5 180/453/5
f 195/456/5 198/451/5 203/457/5
f 202/458/5 203/457/5 194/459/5
f 203/457/5 202/458/5 195/456/5
f 202/445/5 180/460/5 173/446/5
f 173/448/5 181/455/5 176/449/5
f 178/450/5 176/449/5 198/451/5
f 195/456/5 200/452/5 198/451/5
s 52
f 176/461/2 199/462/2 198/463/2
f 176/461/2 177/464/2 199/462/2
s 53
f 178/465/6 175/466/6 173/467/6
f 178/465/6 179/468/6 175/466/6
s 54
f 194/469/1 192/470/1 183/471/1
f 194/469/1 203/472/1 192/470/1
s 55
f 204/473/1 180/474/1 202/475/1
f 204/473/1 182/476/1 180/474/1
s 56
f 197/477/4 182/478/4 204/479/4
f 197/477/4 175/480/4 182/478/4
s 57
f 203/481/6 185/482/6 192/483/6
f 185/482/6 187/484/6 192/483/6
f 196/485/6 198/486/6 199/487/6
f 203/481/6 196/485/6 185/482/6
f 185/482/6 188/488/6 187/484/6
f 196/485/6 203/481/6 198/486/6
s 58
f 197/489/3 193/490/3 186/491/3
f 204/492/3 183/493/3 193/490/3
f 183/493/3 191/494/3 193/490/3
f 194/495/3 204/492/3 202/496/3
f 197/489/3 204/492/3 193/490/3
f 204/492/3 194/495/3 183/493/3
s 59
f 196/497/2 186/498/2 185/499/2
f 196/497/2 197/500/2 186/498/2
s 60
f 189/501/3 186/502/3 184/503/3
f 189/501/3 190/504/3 186/502/3
s 61
f 197/505/3 200/506/3 195/507/3
f 197/505/3 201/508/3 200/506/3
s 62
f 181/509/1 161/510/1 170/511/1
f 181/509/1 172/512/1 161/510/1
