# Blender 5.1.2
# www.blender.org
mtllib Lamp.mtl
o SM_Lamp_01
v 0.124878 0.030700 -0.124878
v 0.176605 0.030700 -0.000000
v 0.176605 -0.000005 0.000000
v 0.124878 -0.000005 -0.124878
v 0.000000 0.030700 -0.176604
v 0.000000 -0.000005 -0.176604
v -0.124878 0.030700 -0.124878
v -0.124878 -0.000005 -0.124878
v -0.176605 0.030700 -0.000000
v -0.176605 -0.000005 0.000000
v -0.124878 0.030700 0.124878
v -0.124878 -0.000005 0.124878
v 0.000000 0.030700 0.176604
v 0.000000 -0.000005 0.176604
v 0.124878 0.030700 0.124878
v 0.124878 -0.000005 0.124878
v 0.109858 0.030700 -0.109858
v 0.155363 0.030700 -0.000000
v 0.000000 0.030700 -0.155364
v -0.109858 0.030700 -0.109858
v -0.155364 0.030700 -0.000000
v -0.109858 0.030700 0.109858
v 0.000000 0.030700 0.155364
v 0.109858 0.030700 0.109858
v 0.059033 0.300239 -0.059033
v 0.083485 0.300239 -0.000000
v 0.000000 0.300239 -0.083484
v -0.059033 0.300239 -0.059033
v -0.083485 0.300239 -0.000000
v -0.059033 0.300239 0.059033
v 0.000000 0.300239 0.083484
v 0.059033 0.300239 0.059033
v 0.041097 0.300239 -0.041099
v 0.058121 0.300239 -0.000000
v 0.000000 0.300239 -0.058120
v -0.041097 0.300239 -0.041099
v -0.058121 0.300239 -0.000000
v -0.041097 0.300239 0.041099
v 0.000000 0.300239 0.058120
v 0.041097 0.300239 0.041099
v 0.041097 1.523646 -0.041099
v 0.058121 1.523646 -0.000000
v 0.000000 1.523646 -0.058120
v -0.041097 1.523646 -0.041099
v -0.058121 1.523646 -0.000000
v -0.041097 1.523646 0.041099
v 0.000000 1.523646 0.058120
v 0.041097 1.523646 0.041099
v 0.050665 1.583620 -0.050667
v 0.071653 1.583620 -0.000000
v 0.000000 1.583620 -0.071653
v -0.050665 1.583620 -0.050667
v -0.071653 1.583620 -0.000000
v -0.050665 1.583620 0.050666
v 0.000000 1.583620 0.071653
v 0.050665 1.583620 0.050666
v 0.028560 1.583620 -0.028560
v 0.040389 1.583620 -0.000000
v 0.000000 1.583620 -0.040388
v -0.028560 1.583620 -0.028560
v -0.040389 1.583620 -0.000000
v -0.028560 1.583620 0.028559
v 0.000000 1.583620 0.040388
v 0.028560 1.583620 0.028559
v 0.028560 2.500245 -0.028560
v 0.040389 2.500245 -0.000000
v 0.000000 2.500245 -0.040388
v -0.028560 2.500245 -0.028560
v -0.040389 2.500245 -0.000000
v -0.028560 2.500245 0.028559
v 0.000000 2.500245 0.040388
v 0.028560 2.500245 0.028559
v 0.100439 2.524491 -0.000000
v 0.071022 2.524491 -0.071021
v 0.000000 2.524491 -0.100440
v -0.071022 2.524491 -0.071021
v -0.100439 2.524491 -0.000000
v -0.071022 2.524491 0.071020
v 0.000000 2.524491 0.100439
v 0.071022 2.524491 0.071020
v 0.063845 2.527647 -0.063845
v 0.095505 2.776239 -0.095506
v 0.135065 2.776239 -0.000000
v 0.090291 2.527647 -0.000000
v 0.000000 2.527647 -0.090291
v 0.000000 2.776239 -0.135066
v -0.063845 2.527647 -0.063845
v -0.095505 2.776239 -0.095506
v -0.090291 2.527647 -0.000000
v -0.135065 2.776239 -0.000000
v -0.063845 2.527647 0.063845
v -0.095505 2.776239 0.095505
v 0.000000 2.527647 0.090290
v 0.000000 2.776239 0.135066
v 0.063845 2.527647 0.063845
v 0.095505 2.776239 0.095505
v 0.112334 2.776239 -0.112334
v 0.158864 2.776239 -0.000000
v 0.000000 2.776239 -0.158865
v -0.112334 2.776239 -0.112334
v -0.158864 2.776239 -0.000000
v -0.112334 2.776239 0.112334
v 0.000000 2.776239 0.158865
v 0.112334 2.776239 0.112334
v 0.113458 2.786457 -0.113460
v 0.160454 2.786457 -0.000000
v 0.000000 2.786457 -0.160454
v -0.113458 2.786457 -0.113460
v -0.160454 2.786457 -0.000000
v -0.113458 2.786457 0.113459
v 0.000000 2.786457 0.160454
v 0.113458 2.786457 0.113459
v 0.011381 2.938432 -0.011380
v 0.016094 2.938432 -0.000000
v 0.000000 2.938432 -0.016094
v -0.011381 2.938432 -0.011380
v -0.016094 2.938432 -0.000000
v -0.011381 2.938432 0.011379
v 0.000000 2.938432 0.016094
v 0.011381 2.938432 0.011379
v 0.070936 2.527639 -0.070938
v 0.100320 2.527639 -0.000000
v 0.000000 2.527639 -0.100320
v -0.070936 2.527639 -0.070938
v -0.100320 2.527639 -0.000000
v -0.070936 2.527639 0.070937
v 0.000000 2.527639 0.100320
v 0.070936 2.527639 0.070937
v 0.097626 2.527342 0.004531
v 0.097661 2.527342 -0.005022
v 0.142993 2.776767 -0.005022
v 0.142958 2.776767 0.004531
v 0.087145 2.527342 -0.005022
v 0.132477 2.776767 -0.005022
v 0.087125 2.527342 0.004470
v 0.132457 2.776767 0.004470
v -0.004772 2.527342 0.097275
v 0.004781 2.527342 0.097309
v 0.004781 2.776767 0.142641
v -0.004772 2.776767 0.142607
v 0.004781 2.527342 0.086794
v 0.004781 2.776767 0.132126
v -0.004712 2.527342 0.086775
v -0.004712 2.776767 0.132107
v -0.096967 2.527342 -0.004907
v -0.097001 2.527342 0.004646
v -0.142333 2.776767 0.004646
v -0.142299 2.776767 -0.004907
v -0.086486 2.527342 0.004646
v -0.131818 2.776767 0.004646
v -0.086466 2.527342 -0.004846
v -0.131798 2.776767 -0.004846
v 0.004731 2.527342 -0.097539
v -0.004821 2.527342 -0.097573
v -0.004821 2.776767 -0.142905
v 0.004731 2.776767 -0.142871
v -0.004821 2.527342 -0.087056
v -0.004821 2.776767 -0.132390
v 0.004673 2.527342 -0.087036
v 0.004673 2.776767 -0.132371
vn 0.9239 -0.0000 -0.3827
vn 0.3827 -0.0000 -0.9239
vn -0.3827 -0.0000 -0.9239
vn -0.9239 -0.0000 -0.3827
vn -0.9239 -0.0000 0.3827
vn -0.3827 -0.0000 0.9239
vn 0.3827 -0.0000 0.9239
vn 0.9239 -0.0000 0.3827
vn -0.0000 1.0000 -0.0000
vn 0.8971 0.2392 -0.3716
vn 0.3716 0.2392 -0.8971
vn -0.3716 0.2392 -0.8971
vn -0.8971 0.2392 -0.3716
vn -0.8971 0.2392 0.3716
vn -0.3716 0.2392 0.8971
vn 0.3716 0.2392 0.8971
vn 0.8971 0.2392 0.3716
vn 0.9044 -0.2041 -0.3746
vn 0.3746 -0.2041 -0.9044
vn 0.3746 -0.2041 -0.9045
vn -0.3746 -0.2041 -0.9044
vn -0.9044 -0.2041 -0.3746
vn -0.9044 -0.2041 0.3746
vn -0.3746 -0.2041 0.9044
vn -0.3746 -0.2041 0.9045
vn 0.3746 -0.2041 0.9044
vn 0.9044 -0.2041 0.3746
vn 0.3700 -0.9163 -0.1532
vn 0.1532 -0.9163 -0.3700
vn 0.1533 -0.9163 -0.3700
vn -0.1532 -0.9163 -0.3700
vn -0.3700 -0.9163 -0.1532
vn -0.3700 -0.9163 0.1532
vn -0.1532 -0.9163 0.3700
vn 0.1532 -0.9163 0.3700
vn 0.3700 -0.9163 0.1532
vn 0.9842 -0.1773 -0.0000
vn 0.6959 -0.1773 -0.6959
vn -0.0000 -0.1773 -0.9842
vn -0.6959 -0.1773 -0.6959
vn -0.9842 -0.1773 -0.0000
vn -0.6959 -0.1773 0.6959
vn -0.0000 -0.1773 0.9842
vn 0.6959 -0.1773 0.6959
vn -0.0000 -1.0000 -0.0000
vn 0.9145 -0.1423 -0.3788
vn 0.9145 -0.1424 -0.3788
vn 0.3788 -0.1423 -0.9145
vn 0.3788 -0.1424 -0.9145
vn -0.3788 -0.1424 -0.9145
vn -0.3788 -0.1423 -0.9145
vn -0.3788 -0.1422 -0.9145
vn -0.9145 -0.1424 -0.3788
vn -0.9145 -0.1423 -0.3788
vn -0.9145 -0.1423 0.3788
vn -0.9145 -0.1424 0.3788
vn -0.3788 -0.1423 0.9145
vn -0.3788 -0.1424 0.9145
vn 0.3788 -0.1424 0.9145
vn 0.3788 -0.1423 0.9145
vn 0.9145 -0.1424 0.3788
vn 0.9145 -0.1423 0.3788
vn 0.6944 0.6596 -0.2876
vn 0.2876 0.6596 -0.6944
vn -0.2876 0.6596 -0.6944
vn -0.6944 0.6596 -0.2876
vn -0.6944 0.6596 0.2876
vn -0.2876 0.6596 0.6944
vn 0.2876 0.6596 0.6944
vn 0.6944 0.6596 0.2876
vn 0.9233 0.0351 -0.3824
vn 0.9233 0.0351 -0.3825
vn 0.3825 0.0351 -0.9233
vn 0.3824 0.0347 -0.9233
vn -0.3824 0.0351 -0.9233
vn -0.3825 0.0347 -0.9233
vn -0.9233 0.0351 -0.3824
vn -0.9233 0.0351 0.3824
vn -0.9233 0.0351 0.3825
vn -0.3825 0.0351 0.9233
vn -0.3824 0.0347 0.9233
vn 0.3824 0.0351 0.9233
vn 0.3825 0.0347 0.9233
vn 0.9233 0.0351 0.3824
vn 0.9233 0.0351 0.3825
vn 0.0005 1.0000 -0.0006
vn 0.0008 1.0000 -0.0000
vn -0.0000 1.0000 -0.0008
vn -0.0006 1.0000 -0.0006
vn -0.0008 1.0000 -0.0000
vn -0.0005 1.0000 0.0006
vn -0.0000 1.0000 0.0008
vn 0.0006 1.0000 0.0006
vn 0.9839 -0.1788 0.0036
vn -0.0000 -0.0000 -1.0000
vn -0.0058 0.0011 1.0000
vn -0.0035 -0.1788 0.9839
vn 1.0000 -0.0000 -0.0000
vn -1.0000 0.0010 -0.0057
vn -0.9839 -0.1788 -0.0035
vn -0.0000 -0.0000 1.0000
vn 0.0058 0.0011 -1.0000
vn 0.0035 -0.1788 -0.9839
vn -1.0000 -0.0000 -0.0000
vn 1.0000 0.0010 0.0056
vt 0.470519 0.679043
vt 0.472473 0.679043
vt 0.472473 0.687301
vt 0.470519 0.687301
vt 0.470519 0.670785
vt 0.472473 0.670785
vt 0.470519 0.662526
vt 0.472473 0.662526
vt 0.470519 0.720333
vt 0.472473 0.720333
vt 0.472473 0.728591
vt 0.470519 0.728591
vt 0.470519 0.712075
vt 0.472473 0.712075
vt 0.470519 0.703817
vt 0.472473 0.703817
vt 0.470519 0.695559
vt 0.472473 0.695559
vt 0.473825 0.679043
vt 0.473825 0.687301
vt 0.473825 0.670785
vt 0.473825 0.662526
vt 0.473825 0.720333
vt 0.473825 0.728591
vt 0.473825 0.712075
vt 0.473825 0.703817
vt 0.473825 0.695559
vt 0.385581 0.675393
vt 0.403336 0.675393
vt 0.403336 0.681210
vt 0.385581 0.681210
vt 0.385581 0.669575
vt 0.403336 0.669575
vt 0.385581 0.663758
vt 0.403336 0.663758
vt 0.385581 0.704480
vt 0.403336 0.704480
vt 0.403336 0.710298
vt 0.385581 0.710298
vt 0.385581 0.698663
vt 0.403336 0.698663
vt 0.385581 0.692845
vt 0.403336 0.692845
vt 0.385581 0.687028
vt 0.403336 0.687028
vt 0.421772 0.670655
vt 0.423386 0.670655
vt 0.423386 0.674105
vt 0.421772 0.674105
vt 0.421772 0.667206
vt 0.423386 0.667206
vt 0.421772 0.663758
vt 0.423386 0.663758
vt 0.421772 0.687901
vt 0.423386 0.687901
vt 0.423386 0.691350
vt 0.421772 0.691350
vt 0.421772 0.684452
vt 0.423386 0.684452
vt 0.421772 0.681002
vt 0.423386 0.681002
vt 0.421772 0.677554
vt 0.423386 0.677554
vt 0.385581 0.645929
vt 0.463447 0.645929
vt 0.463447 0.648709
vt 0.385581 0.648709
vt 0.385581 0.643149
vt 0.463447 0.643149
vt 0.385581 0.640369
vt 0.463447 0.640369
vt 0.385581 0.659829
vt 0.463447 0.659829
vt 0.463447 0.662609
vt 0.385581 0.662609
vt 0.385581 0.657049
vt 0.463447 0.657049
vt 0.385581 0.654269
vt 0.463447 0.654269
vt 0.385581 0.651489
vt 0.463447 0.651489
vt 0.467360 0.645929
vt 0.467360 0.648709
vt 0.467360 0.643149
vt 0.467360 0.640369
vt 0.467360 0.659829
vt 0.467360 0.662609
vt 0.467360 0.657049
vt 0.467360 0.654269
vt 0.467360 0.651489
vt 0.469350 0.645929
vt 0.469350 0.648709
vt 0.469350 0.643149
vt 0.469350 0.640369
vt 0.469350 0.659829
vt 0.469350 0.662609
vt 0.469350 0.657049
vt 0.469350 0.654269
vt 0.469350 0.651489
vt 0.407985 0.716932
vt 0.466325 0.716932
vt 0.466325 0.718899
vt 0.407985 0.718899
vt 0.407985 0.714964
vt 0.466325 0.714964
vt 0.407985 0.712997
vt 0.466325 0.712997
vt 0.407985 0.726769
vt 0.466325 0.726769
vt 0.466325 0.728737
vt 0.407985 0.728737
vt 0.407985 0.724802
vt 0.466325 0.724802
vt 0.407985 0.722834
vt 0.466325 0.722834
vt 0.407985 0.720867
vt 0.466325 0.720867
vt 0.458054 0.710964
vt 0.454017 0.710964
vt 0.454017 0.706842
vt 0.458054 0.706842
vt 0.462090 0.710964
vt 0.462090 0.706842
vt 0.466126 0.710964
vt 0.466126 0.706842
vt 0.437872 0.710964
vt 0.433836 0.710964
vt 0.433836 0.706842
vt 0.437872 0.706842
vt 0.441908 0.710964
vt 0.441908 0.706842
vt 0.445945 0.710964
vt 0.445945 0.706842
vt 0.449981 0.710964
vt 0.449981 0.706842
vt 0.544712 0.444424
vt 0.544712 0.438936
vt 0.560789 0.438936
vt 0.560789 0.444424
vt 0.544712 0.433447
vt 0.560789 0.433447
vt 0.544712 0.427958
vt 0.560789 0.427958
vt 0.544712 0.471869
vt 0.544712 0.466380
vt 0.560789 0.466380
vt 0.560789 0.471869
vt 0.544712 0.460891
vt 0.560789 0.460891
vt 0.544712 0.455402
vt 0.560789 0.455402
vt 0.544712 0.449913
vt 0.560789 0.449913
vt 0.469491 0.708026
vt 0.467977 0.708026
vt 0.467977 0.700648
vt 0.469491 0.700648
vt 0.469491 0.715405
vt 0.467977 0.715405
vt 0.469491 0.722783
vt 0.467977 0.722783
vt 0.469491 0.671136
vt 0.467977 0.671136
vt 0.467977 0.663758
vt 0.469491 0.663758
vt 0.469491 0.678514
vt 0.467977 0.678514
vt 0.469491 0.685892
vt 0.467977 0.685892
vt 0.469491 0.693270
vt 0.467977 0.693270
vt 0.467318 0.708026
vt 0.467318 0.700648
vt 0.467318 0.715405
vt 0.467318 0.722783
vt 0.467318 0.671136
vt 0.467318 0.663758
vt 0.467318 0.678514
vt 0.467318 0.685892
vt 0.467318 0.693270
vt 0.457667 0.663758
vt 0.457667 0.677098
vt 0.453367 0.677098
vt 0.453367 0.663758
vt 0.461967 0.663758
vt 0.461967 0.677098
vt 0.466267 0.663758
vt 0.466267 0.677098
vt 0.436166 0.663758
vt 0.436166 0.677098
vt 0.431866 0.677098
vt 0.431866 0.663758
vt 0.440466 0.663758
vt 0.440466 0.677098
vt 0.444766 0.663758
vt 0.444766 0.677098
vt 0.449067 0.663758
vt 0.449067 0.677098
vt 0.458054 0.711164
vt 0.454017 0.711164
vt 0.462090 0.711164
vt 0.466126 0.711164
vt 0.437872 0.711164
vt 0.433836 0.711164
vt 0.441908 0.711164
vt 0.445945 0.711164
vt 0.449981 0.711164
vt 0.458054 0.711803
vt 0.454017 0.711803
vt 0.462090 0.711803
vt 0.466126 0.711803
vt 0.437872 0.711803
vt 0.433836 0.711803
vt 0.441908 0.711803
vt 0.445945 0.711803
vt 0.449981 0.711803
vt 0.401716 0.728061
vt 0.385581 0.728061
vt 0.385581 0.727453
vt 0.401716 0.727453
vt 0.401716 0.726784
vt 0.385581 0.726784
vt 0.401716 0.728730
vt 0.385581 0.728730
vt 0.425149 0.679893
vt 0.425149 0.663758
vt 0.425756 0.663758
vt 0.425756 0.679893
vt 0.426426 0.679893
vt 0.426426 0.663758
vt 0.424480 0.679893
vt 0.424480 0.663758
vt 0.450085 0.704556
vt 0.466220 0.704556
vt 0.466220 0.705164
vt 0.450085 0.705164
vt 0.450085 0.705833
vt 0.466220 0.705833
vt 0.450085 0.703888
vt 0.466220 0.703888
vt 0.473273 0.640369
vt 0.473273 0.656504
vt 0.472666 0.656504
vt 0.472666 0.640369
vt 0.471996 0.640369
vt 0.471996 0.656504
vt 0.473942 0.640369
vt 0.473942 0.656504
vt 0.385881 0.725332
vt 0.385581 0.724608
vt 0.385881 0.723883
vt 0.386605 0.723584
vt 0.387330 0.723884
vt 0.387630 0.724608
vt 0.387329 0.725332
vt 0.386605 0.725632
s 1
usemtl 07_-_Default
f 4/1/1 1/2/1 2/3/1
f 2/3/1 3/4/1 4/1/1
f 6/5/2 5/6/2 1/2/2
f 1/2/2 4/1/2 6/5/2
f 8/7/3 7/8/3 5/6/3
f 5/6/3 6/5/3 8/7/3
f 10/9/4 9/10/4 7/11/4
f 7/11/4 8/12/4 10/9/4
f 12/13/5 11/14/5 9/10/5
f 9/10/5 10/9/5 12/13/5
f 14/15/6 13/16/6 11/14/6
f 11/14/6 12/13/6 14/15/6
f 16/17/7 15/18/7 13/16/7
f 13/16/7 14/15/7 16/17/7
f 3/4/8 2/3/8 15/18/8
f 15/18/8 16/17/8 3/4/8
f 1/2/9 17/19/9 18/20/9
f 18/20/9 2/3/9 1/2/9
f 5/6/9 19/21/9 17/19/9
f 17/19/9 1/2/9 5/6/9
f 7/8/9 20/22/9 19/21/9
f 19/21/9 5/6/9 7/8/9
f 9/10/9 21/23/9 20/24/9
f 20/24/9 7/11/9 9/10/9
f 11/14/9 22/25/9 21/23/9
f 21/23/9 9/10/9 11/14/9
f 13/16/9 23/26/9 22/25/9
f 22/25/9 11/14/9 13/16/9
f 15/18/9 24/27/9 23/26/9
f 23/26/9 13/16/9 15/18/9
f 2/3/9 18/20/9 24/27/9
f 24/27/9 15/18/9 2/3/9
f 17/28/10 25/29/10 26/30/10
f 26/30/10 18/31/10 17/28/10
f 19/32/11 27/33/11 25/29/11
f 25/29/11 17/28/11 19/32/11
f 20/34/12 28/35/12 27/33/12
f 27/33/12 19/32/12 20/34/12
f 21/36/13 29/37/13 28/38/13
f 28/38/13 20/39/13 21/36/13
f 22/40/14 30/41/14 29/37/14
f 29/37/14 21/36/14 22/40/14
f 23/42/15 31/43/15 30/41/15
f 30/41/15 22/40/15 23/42/15
f 24/44/16 32/45/16 31/43/16
f 31/43/16 23/42/16 24/44/16
f 18/31/17 26/30/17 32/45/17
f 32/45/17 24/44/17 18/31/17
f 25/46/9 33/47/9 34/48/9
f 34/48/9 26/49/9 25/46/9
f 27/50/9 35/51/9 33/47/9
f 33/47/9 25/46/9 27/50/9
f 28/52/9 36/53/9 35/51/9
f 35/51/9 27/50/9 28/52/9
f 29/54/9 37/55/9 36/56/9
f 36/56/9 28/57/9 29/54/9
f 30/58/9 38/59/9 37/55/9
f 37/55/9 29/54/9 30/58/9
f 31/60/9 39/61/9 38/59/9
f 38/59/9 30/58/9 31/60/9
f 32/62/9 40/63/9 39/61/9
f 39/61/9 31/60/9 32/62/9
f 26/49/9 34/48/9 40/63/9
f 40/63/9 32/62/9 26/49/9
f 33/64/1 41/65/1 42/66/1
f 42/66/1 34/67/1 33/64/1
f 35/68/2 43/69/2 41/65/2
f 41/65/2 33/64/2 35/68/2
f 36/70/3 44/71/3 43/69/3
f 43/69/3 35/68/3 36/70/3
f 37/72/4 45/73/4 44/74/4
f 44/74/4 36/75/4 37/72/4
f 38/76/5 46/77/5 45/73/5
f 45/73/5 37/72/5 38/76/5
f 39/78/6 47/79/6 46/77/6
f 46/77/6 38/76/6 39/78/6
f 40/80/7 48/81/7 47/79/7
f 47/79/7 39/78/7 40/80/7
f 34/67/8 42/66/8 48/81/8
f 48/81/8 40/80/8 34/67/8
f 41/65/18 49/82/18 50/83/18
f 50/83/18 42/66/18 41/65/18
f 43/69/19 51/84/19 49/82/19
f 49/82/19 41/65/20 43/69/19
f 44/71/21 52/85/21 51/84/21
f 51/84/21 43/69/21 44/71/21
f 45/73/22 53/86/22 52/87/22
f 52/87/22 44/74/22 45/73/22
f 46/77/23 54/88/23 53/86/23
f 53/86/23 45/73/23 46/77/23
f 47/79/24 55/89/24 54/88/24
f 54/88/24 46/77/25 47/79/24
f 48/81/26 56/90/26 55/89/26
f 55/89/26 47/79/26 48/81/26
f 42/66/27 50/83/27 56/90/27
f 56/90/27 48/81/27 42/66/27
f 49/82/9 57/91/9 58/92/9
f 58/92/9 50/83/9 49/82/9
f 51/84/9 59/93/9 57/91/9
f 57/91/9 49/82/9 51/84/9
f 52/85/9 60/94/9 59/93/9
f 59/93/9 51/84/9 52/85/9
f 53/86/9 61/95/9 60/96/9
f 60/96/9 52/87/9 53/86/9
f 54/88/9 62/97/9 61/95/9
f 61/95/9 53/86/9 54/88/9
f 55/89/9 63/98/9 62/97/9
f 62/97/9 54/88/9 55/89/9
f 56/90/9 64/99/9 63/98/9
f 63/98/9 55/89/9 56/90/9
f 50/83/9 58/92/9 64/99/9
f 64/99/9 56/90/9 50/83/9
f 57/100/1 65/101/1 66/102/1
f 66/102/1 58/103/1 57/100/1
f 59/104/2 67/105/2 65/101/2
f 65/101/2 57/100/2 59/104/2
f 60/106/3 68/107/3 67/105/3
f 67/105/3 59/104/3 60/106/3
f 61/108/4 69/109/4 68/110/4
f 68/110/4 60/111/4 61/108/4
f 62/112/5 70/113/5 69/109/5
f 69/109/5 61/108/5 62/112/5
f 63/114/6 71/115/6 70/113/6
f 70/113/6 62/112/6 63/114/6
f 64/116/7 72/117/7 71/115/7
f 71/115/7 63/114/7 64/116/7
f 58/103/8 66/102/8 72/117/8
f 72/117/8 64/116/8 58/103/8
f 74/118/28 73/119/28 66/120/28
f 66/120/28 65/121/28 74/118/28
f 75/122/29 74/118/30 65/121/29
f 65/121/29 67/123/29 75/122/29
f 76/124/31 75/122/31 67/123/31
f 67/123/31 68/125/31 76/124/31
f 77/126/32 76/127/32 68/128/32
f 68/128/32 69/129/32 77/126/32
f 78/130/33 77/126/33 69/129/33
f 69/129/33 70/131/33 78/130/33
f 79/132/34 78/130/34 70/131/34
f 70/131/34 71/133/34 79/132/34
f 80/134/35 79/132/35 71/133/35
f 71/133/35 72/135/35 80/134/35
f 73/119/36 80/134/36 72/135/36
f 72/135/36 66/120/36 73/119/36
f 84/136/37 81/137/38 82/138/38
f 82/138/38 83/139/37 84/136/37
f 81/137/38 85/140/39 86/141/39
f 86/141/39 82/138/38 81/137/38
f 85/140/39 87/142/40 88/143/40
f 88/143/40 86/141/39 85/140/39
f 87/144/40 89/145/41 90/146/41
f 90/146/41 88/147/40 87/144/40
f 89/145/41 91/148/42 92/149/42
f 92/149/42 90/146/41 89/145/41
f 91/148/42 93/150/43 94/151/43
f 94/151/43 92/149/42 91/148/42
f 93/150/43 95/152/44 96/153/44
f 96/153/44 94/151/43 93/150/43
f 95/152/44 84/136/37 83/139/37
f 83/139/37 96/153/44 95/152/44
f 82/154/45 97/155/45 98/156/45
f 98/156/45 83/157/45 82/154/45
f 86/158/45 99/159/45 97/155/45
f 97/155/45 82/154/45 86/158/45
f 88/160/45 100/161/45 99/159/45
f 99/159/45 86/158/45 88/160/45
f 90/162/45 101/163/45 100/164/45
f 100/164/45 88/165/45 90/162/45
f 92/166/45 102/167/45 101/163/45
f 101/163/45 90/162/45 92/166/45
f 94/168/45 103/169/45 102/167/45
f 102/167/45 92/166/45 94/168/45
f 96/170/45 104/171/45 103/169/45
f 103/169/45 94/168/45 96/170/45
f 83/157/45 98/156/45 104/171/45
f 104/171/45 96/170/45 83/157/45
f 97/155/46 105/172/46 106/173/47
f 106/173/47 98/156/47 97/155/46
f 99/159/48 107/174/48 105/172/49
f 105/172/49 97/155/49 99/159/48
f 100/161/50 108/175/50 107/174/51
f 107/174/51 99/159/52 100/161/50
f 101/163/53 109/176/53 108/177/54
f 108/177/54 100/164/54 101/163/53
f 102/167/55 110/178/55 109/176/56
f 109/176/56 101/163/56 102/167/55
f 103/169/57 111/179/57 110/178/58
f 110/178/58 102/167/58 103/169/57
f 104/171/59 112/180/59 111/179/60
f 111/179/60 103/169/60 104/171/59
f 98/156/61 106/173/61 112/180/62
f 112/180/62 104/171/62 98/156/61
f 105/181/63 113/182/63 114/183/63
f 114/183/63 106/184/63 105/181/63
f 107/185/64 115/186/64 113/182/64
f 113/182/64 105/181/64 107/185/64
f 108/187/65 116/188/65 115/186/65
f 115/186/65 107/185/65 108/187/65
f 109/189/66 117/190/66 116/191/66
f 116/191/66 108/192/66 109/189/66
f 110/193/67 118/194/67 117/190/67
f 117/190/67 109/189/67 110/193/67
f 111/195/68 119/196/68 118/194/68
f 118/194/68 110/193/68 111/195/68
f 112/197/69 120/198/69 119/196/69
f 119/196/69 111/195/69 112/197/69
f 106/184/70 114/183/70 120/198/70
f 120/198/70 112/197/70 106/184/70
f 73/119/71 74/118/72 121/199/72
f 121/199/72 122/200/71 73/119/71
f 74/118/73 75/122/73 123/201/73
f 123/201/73 121/199/74 74/118/73
f 75/122/75 76/124/76 124/202/76
f 124/202/76 123/201/75 75/122/75
f 76/127/77 77/126/77 125/203/77
f 125/203/77 124/204/77 76/127/77
f 77/126/78 78/130/79 126/205/79
f 126/205/79 125/203/78 77/126/78
f 78/130/80 79/132/80 127/206/80
f 127/206/80 126/205/81 78/130/80
f 79/132/82 80/134/83 128/207/83
f 128/207/83 127/206/82 79/132/82
f 80/134/84 73/119/85 122/200/85
f 122/200/85 128/207/84 80/134/84
f 81/208/86 84/209/87 122/200/87
f 122/200/87 121/199/86 81/208/86
f 85/210/88 81/208/86 121/199/86
f 121/199/86 123/201/88 85/210/88
f 87/211/89 85/210/88 123/201/88
f 123/201/88 124/202/89 87/211/89
f 89/212/90 87/213/89 124/204/89
f 124/204/89 125/203/90 89/212/90
f 91/214/91 89/212/90 125/203/90
f 125/203/90 126/205/91 91/214/91
f 93/215/92 91/214/91 126/205/91
f 126/205/91 127/206/92 93/215/92
f 95/216/93 93/215/92 127/206/92
f 127/206/92 128/207/93 95/216/93
f 84/209/87 95/216/93 128/207/93
f 128/207/93 122/200/87 84/209/87
f 132/217/94 129/218/94 130/219/94
f 130/219/94 131/220/94 132/217/94
f 134/221/95 131/220/95 130/219/95
f 130/219/95 133/222/95 134/221/95
f 136/223/96 135/224/96 129/218/96
f 129/218/96 132/217/96 136/223/96
f 140/225/97 137/226/97 138/227/97
f 138/227/97 139/228/97 140/225/97
f 142/229/98 139/228/98 138/227/98
f 138/227/98 141/230/98 142/229/98
f 144/231/99 143/232/99 137/226/99
f 137/226/99 140/225/99 144/231/99
f 148/233/100 145/234/100 146/235/100
f 146/235/100 147/236/100 148/233/100
f 150/237/101 147/236/101 146/235/101
f 146/235/101 149/238/101 150/237/101
f 152/239/102 151/240/102 145/234/102
f 145/234/102 148/233/102 152/239/102
f 156/241/103 153/242/103 154/243/103
f 154/243/103 155/244/103 156/241/103
f 158/245/104 155/244/104 154/243/104
f 154/243/104 157/246/104 158/245/104
f 160/247/105 159/248/105 153/242/105
f 153/242/105 156/241/105 160/247/105
f 120/249/9 114/250/9 113/251/9
f 113/251/9 115/252/9 116/253/9
f 116/253/9 117/254/9 118/255/9
f 113/251/9 116/253/9 118/255/9
f 120/249/9 113/251/9 118/255/9
f 120/249/9 118/255/9 119/256/9
