# Blender 5.1.2
# www.blender.org
mtllib Lamp.mtl
o SM_Swings_01
v 0.159448 0.361413 -0.017253
v 0.159449 0.340349 -0.002163
v -0.157915 0.340348 -0.002537
v -0.157495 0.361413 -0.017764
v 0.159449 0.348395 0.022256
v -0.158596 0.348400 0.022100
v 0.159449 0.374432 0.022256
v -0.158596 0.374427 0.022100
v 0.159449 0.382478 -0.002163
v -0.157914 0.382479 -0.002537
v 0.183365 0.299820 -0.002061
v -0.184500 0.299823 -0.002459
v -0.184004 0.319974 -0.017449
v 0.183364 0.319974 -0.016926
v 0.183367 0.307518 0.021992
v -0.185302 0.307519 0.021824
v 0.183367 0.332431 0.021992
v -0.185300 0.332430 0.021824
v 0.183365 0.340129 -0.002063
v -0.184498 0.340126 -0.002459
v 0.179541 0.000000 0.257615
v 0.179554 0.193222 0.168679
v 0.216210 0.193222 0.168679
v 0.216224 0.000000 0.257615
v 0.168640 -0.000006 0.283638
v 0.168903 0.201379 0.193503
v 0.197882 -0.000008 0.301934
v 0.197882 0.207249 0.210044
v 0.227124 -0.000006 0.283640
v 0.226862 0.201379 0.193503
v 0.168834 0.270251 0.153228
v 0.179553 0.254549 0.132056
v 0.197882 0.281632 0.167063
v 0.226931 0.270251 0.153230
v 0.216211 0.254548 0.132056
v 0.168831 0.312741 0.098760
v 0.179598 0.288053 0.087498
v 0.197882 0.329764 0.106223
v 0.226934 0.312741 0.098760
v 0.216167 0.288053 0.087498
v 0.168889 0.326671 0.029412
v 0.179546 0.299087 0.027754
v 0.197882 0.345275 0.030708
v 0.226875 0.326671 0.029412
v 0.216218 0.299087 0.027754
v 0.216223 -0.000000 -0.254580
v 0.216208 0.193222 -0.165642
v 0.179554 0.193222 -0.165642
v 0.179540 -0.000000 -0.254580
v 0.227124 -0.000006 -0.280603
v 0.226862 0.201379 -0.190466
v 0.197882 -0.000008 -0.298899
v 0.197882 0.207249 -0.207007
v 0.168639 -0.000006 -0.280603
v 0.168903 0.201379 -0.190469
v 0.226930 0.270252 -0.150193
v 0.216211 0.254549 -0.129019
v 0.197882 0.281633 -0.164026
v 0.168833 0.270252 -0.150193
v 0.179553 0.254549 -0.129019
v 0.226932 0.312741 -0.095725
v 0.216166 0.288053 -0.084460
v 0.197882 0.329764 -0.103186
v 0.168831 0.312741 -0.095725
v 0.179597 0.288053 -0.084460
v 0.226875 0.326671 -0.026377
v 0.216218 0.299087 -0.024717
v 0.197882 0.345275 -0.027673
v 0.168889 0.326671 -0.026377
v 0.179545 0.299087 -0.024717
v -0.216223 0.000000 0.257615
v -0.216208 0.193222 0.168679
v -0.179554 0.193221 0.168679
v -0.179540 0.000000 0.257615
v -0.227124 -0.000006 0.283638
v -0.226862 0.201379 0.193503
v -0.197881 -0.000008 0.301934
v -0.197881 0.207249 0.210044
v -0.168639 -0.000006 0.283640
v -0.168901 0.201379 0.193503
v -0.226930 0.270251 0.153228
v -0.216211 0.254549 0.132056
v -0.197881 0.281632 0.167063
v -0.168833 0.270251 0.153230
v -0.179552 0.254548 0.132056
v -0.226932 0.312741 0.098760
v -0.216166 0.288053 0.087498
v -0.197881 0.329764 0.106223
v -0.168831 0.312741 0.098760
v -0.179597 0.288053 0.087498
v -0.226874 0.326671 0.029412
v -0.216218 0.299087 0.027754
v -0.197882 0.345275 0.030708
v -0.168889 0.326671 0.029412
v -0.179545 0.299087 0.027754
v -0.179540 -0.000000 -0.254580
v -0.179554 0.193222 -0.165642
v -0.216208 0.193222 -0.165642
v -0.216223 -0.000000 -0.254580
v -0.168639 -0.000006 -0.280603
v -0.168901 0.201379 -0.190466
v -0.197881 -0.000008 -0.298899
v -0.197881 0.207249 -0.207007
v -0.227124 -0.000006 -0.280603
v -0.226862 0.201379 -0.190469
v -0.168833 0.270252 -0.150193
v -0.179552 0.254549 -0.129019
v -0.197881 0.281633 -0.164026
v -0.226930 0.270252 -0.150193
v -0.216211 0.254549 -0.129019
v -0.168831 0.312741 -0.095725
v -0.179597 0.288053 -0.084460
v -0.197881 0.329764 -0.103186
v -0.226932 0.312741 -0.095725
v -0.216166 0.288053 -0.084460
v -0.168889 0.326671 -0.026377
v -0.179545 0.299087 -0.024717
v -0.197882 0.345275 -0.027673
v -0.226874 0.326671 -0.026377
v -0.216218 0.299087 -0.024717
v -0.152267 0.696514 1.281746
v -0.152267 0.069775 -1.278960
v 0.155048 0.069775 -1.278960
v 0.155048 0.696514 1.281746
v -0.152267 0.726417 1.274565
v 0.155048 0.726417 1.274565
v 0.155048 0.099678 -1.286145
v -0.152267 0.099678 -1.286145
v -0.003596 0.077225 -1.248955
v -0.002626 0.040823 -1.223987
v 0.011799 0.040823 -1.223987
v 0.012771 0.077225 -1.248955
v -0.008711 0.074341 -1.262202
v -0.007104 0.034024 -1.233896
v 0.004587 0.072499 -1.270442
v 0.004587 0.029814 -1.240012
v 0.017886 0.074341 -1.262202
v 0.016278 0.034024 -1.233896
v -0.007109 0.010293 -1.201064
v -0.002626 0.022674 -1.198874
v 0.004587 0.002614 -1.202400
v 0.016283 0.010293 -1.201064
v 0.011799 0.022674 -1.198874
v 0.012352 0.113257 -1.101794
v 0.011799 0.069053 -1.108645
v -0.002626 0.069053 -1.108645
v -0.003177 0.113257 -1.101794
v 0.017206 0.116634 -1.089382
v 0.016278 0.067598 -1.096721
v 0.004587 0.118693 -1.081641
v 0.004587 0.066688 -1.089351
v -0.008031 0.116634 -1.089382
v -0.007104 0.067598 -1.096719
v 0.016283 0.031387 -1.114883
v 0.011799 0.041358 -1.122539
v 0.004587 0.025192 -1.110151
v -0.007109 0.031387 -1.114883
v -0.002626 0.041358 -1.122539
v 0.016285 0.016455 -1.133289
v 0.016285 0.005550 -1.177842
v 0.011799 0.017933 -1.175654
v 0.011799 0.026428 -1.140945
v 0.004587 0.010258 -1.128552
v 0.004587 -0.002134 -1.179182
v -0.007112 0.016455 -1.133289
v -0.007112 0.005550 -1.177842
v -0.002626 0.026428 -1.140945
v -0.002626 0.017933 -1.175654
v -0.053406 1.063779 1.294883
v 0.059889 1.064259 1.294909
v 0.132646 1.027606 1.289582
v 0.156899 0.916823 1.273555
v 0.156899 0.720557 1.246658
v -0.150415 0.720557 1.246658
v -0.150415 0.915529 1.273442
v -0.126162 1.026511 1.289512
v 0.059889 1.062516 1.322810
v -0.053406 1.062996 1.322834
v -0.126162 1.026340 1.317517
v -0.150415 0.915551 1.301523
v -0.150415 0.717992 1.274519
v 0.156899 0.717992 1.274519
v 0.156899 0.914257 1.301413
v 0.132646 1.025246 1.317449
v 0.058646 0.390773 -1.454861
v -0.054648 0.391187 -1.455105
v -0.127405 0.361138 -1.433450
v -0.151658 0.270279 -1.368071
v -0.151658 0.108620 -1.253574
v 0.155657 0.108620 -1.253574
v 0.155657 0.269184 -1.367373
v 0.131404 0.360199 -1.432883
v -0.054648 0.376755 -1.479048
v 0.058646 0.377169 -1.479292
v 0.131404 0.347112 -1.457646
v 0.155657 0.256234 -1.392292
v 0.155657 0.093478 -1.277100
v -0.151658 0.093478 -1.277100
v -0.151658 0.255137 -1.391597
v -0.127405 0.346175 -1.457078
v -0.003596 0.652952 1.103328
v -0.002626 0.616549 1.128296
v 0.011799 0.616549 1.128296
v 0.012771 0.652952 1.103328
v -0.008711 0.650068 1.090080
v -0.007104 0.609750 1.118386
v 0.004587 0.648225 1.081841
v 0.004587 0.605540 1.112270
v 0.017886 0.650068 1.090080
v 0.016278 0.609750 1.118386
v -0.007109 0.586020 1.151221
v -0.002626 0.598401 1.153408
v 0.004587 0.578341 1.149883
v 0.016283 0.586020 1.151221
v 0.011799 0.598401 1.153408
v 0.012352 0.688984 1.250488
v 0.011799 0.644779 1.243638
v -0.002626 0.644779 1.243638
v -0.003177 0.688983 1.250488
v 0.017206 0.692361 1.262900
v 0.016278 0.643325 1.255561
v 0.004587 0.694419 1.270642
v 0.004587 0.642415 1.262932
v -0.008031 0.692361 1.262900
v -0.007104 0.643325 1.255561
v 0.016283 0.607113 1.237402
v 0.011799 0.617084 1.229744
v 0.004587 0.600918 1.242131
v -0.007109 0.607113 1.237402
v -0.002626 0.617084 1.229744
v 0.016285 0.592182 1.218994
v 0.016285 0.581276 1.174441
v 0.011799 0.593659 1.176631
v 0.011799 0.602154 1.211338
v 0.004587 0.585985 1.223733
v 0.004587 0.573593 1.173103
v -0.007112 0.592182 1.218997
v -0.007112 0.581276 1.174441
v -0.002626 0.602154 1.211338
v -0.002626 0.593659 1.176631
v -0.113660 0.631855 0.902461
v -0.089612 0.694055 0.888779
v -0.089612 0.699343 0.910381
v -0.113658 0.637854 0.926973
v -0.134553 0.629459 0.894929
v -0.106941 0.698776 0.880515
v -0.147567 0.634081 0.914907
v -0.117640 0.707007 0.897058
v -0.134553 0.639208 0.934758
v -0.106941 0.707347 0.915530
v -0.066467 0.744984 0.869199
v -0.058652 0.729395 0.880132
v -0.071282 0.759966 0.884097
v -0.066466 0.753558 0.904231
v -0.058652 0.734683 0.901731
v 0.119935 0.637683 0.926350
v 0.093473 0.699343 0.910381
v 0.093473 0.694055 0.888779
v 0.119935 0.631990 0.903093
v 0.139763 0.638966 0.933743
v 0.110802 0.707347 0.915530
v 0.152111 0.634102 0.914900
v 0.121503 0.707007 0.897058
v 0.139763 0.629717 0.895942
v 0.110803 0.698776 0.880515
v 0.070327 0.753558 0.904231
v 0.062513 0.734683 0.901731
v 0.075143 0.759966 0.884097
v 0.070328 0.744984 0.869199
v 0.062513 0.729395 0.880132
v 0.037290 0.768726 0.900520
v -0.033431 0.768726 0.900520
v -0.025616 0.749849 0.898020
v 0.029478 0.749849 0.898020
v 0.042111 0.775137 0.880383
v -0.038251 0.775138 0.880383
v 0.037292 0.760150 0.865481
v -0.033431 0.760150 0.865481
v 0.029478 0.744561 0.876421
v -0.025615 0.744562 0.876421
v -0.113660 0.183318 -0.930156
v -0.089612 0.245518 -0.943838
v -0.089612 0.250805 -0.922239
v -0.113658 0.189318 -0.905645
v -0.134553 0.180922 -0.937688
v -0.106941 0.250239 -0.952104
v -0.147567 0.185544 -0.917710
v -0.117640 0.258470 -0.935559
v -0.134553 0.190671 -0.897859
v -0.106941 0.258810 -0.917087
v -0.066467 0.296446 -0.963420
v -0.058652 0.280859 -0.952488
v -0.071282 0.311429 -0.948520
v -0.066466 0.305021 -0.928389
v -0.058652 0.286145 -0.930889
v 0.119935 0.189146 -0.906267
v 0.093473 0.250805 -0.922239
v 0.093473 0.245518 -0.943838
v 0.119935 0.183453 -0.929524
v 0.139763 0.190429 -0.898875
v 0.110802 0.258810 -0.917087
v 0.152111 0.185565 -0.917717
v 0.121503 0.258470 -0.935559
v 0.139763 0.181180 -0.936675
v 0.110803 0.250239 -0.952102
v 0.070327 0.305021 -0.928389
v 0.062513 0.286146 -0.930889
v 0.075143 0.311429 -0.948520
v 0.070328 0.296446 -0.963420
v 0.062513 0.280858 -0.952488
v 0.037290 0.320189 -0.932100
v -0.033431 0.320189 -0.932100
v -0.025616 0.301311 -0.934600
v 0.029478 0.301311 -0.934600
v 0.042111 0.326600 -0.952234
v -0.038251 0.326601 -0.952234
v 0.037292 0.311613 -0.967136
v -0.033431 0.311613 -0.967136
v 0.029478 0.296024 -0.956199
v -0.025615 0.296025 -0.956199
vn 0.0012 -0.5834 -0.8122
vn 0.0013 -0.5824 -0.8129
vn 0.0011 -0.5849 -0.8111
vn 0.0010 -0.5858 -0.8104
vn -0.0003 -0.9500 0.3123
vn -0.0004 -0.9498 0.3129
vn -0.0002 -0.9503 0.3114
vn -0.0002 -0.9505 0.3107
vn -0.0005 -0.0000 1.0000
vn -0.0002 0.9500 0.3123
vn -0.0002 0.9498 0.3129
vn -0.0003 0.9503 0.3113
vn -0.0004 0.9505 0.3107
vn 0.0011 0.5833 -0.8122
vn 0.0010 0.5824 -0.8129
vn 0.0012 0.5848 -0.8112
vn 0.0013 0.5858 -0.8104
vn 1.0000 -0.0000 -0.0000
vn -0.9996 -0.0000 -0.0276
vn -0.9996 -0.0000 -0.0277
vn 0.0011 -0.5960 -0.8030
vn 0.0009 -0.5936 -0.8048
vn 0.0009 -0.5945 -0.8041
vn 0.0011 -0.5969 -0.8023
vn -0.0003 -0.9530 0.3028
vn -0.0001 -0.9524 0.3048
vn -0.0002 -0.9527 0.3041
vn -0.0003 -0.9533 0.3021
vn -0.0002 0.9530 0.3029
vn -0.0003 0.9524 0.3048
vn -0.0003 0.9527 0.3040
vn -0.0001 0.9533 0.3021
vn 0.0009 0.5959 -0.8031
vn 0.0011 0.5935 -0.8048
vn 0.0011 0.5944 -0.8041
vn 0.0009 0.5969 -0.8023
vn -0.0000 -0.4181 -0.9084
vn -0.0000 -0.4661 -0.8847
vn -0.9237 -0.1756 -0.3405
vn -0.9244 -0.1785 -0.3370
vn -0.9102 -0.1686 -0.3784
vn -0.9090 -0.1693 -0.3808
vn -0.5148 0.3898 0.7636
vn -0.5145 0.3941 0.7616
vn -0.4982 0.3517 0.7925
vn -0.4965 0.3518 0.7936
vn 0.5139 0.3888 0.7647
vn 0.4964 0.3518 0.7936
vn 0.4982 0.3517 0.7925
vn 0.5157 0.3923 0.7617
vn 0.5138 0.3888 0.7647
vn 0.9237 -0.1756 -0.3406
vn 0.9091 -0.1692 -0.3808
vn 0.9102 -0.1685 -0.3783
vn 0.9102 -0.1685 -0.3784
vn 0.9244 -0.1785 -0.3370
vn 0.9237 -0.1756 -0.3405
vn -0.9256 -0.2480 -0.2859
vn -0.9264 -0.2530 -0.2790
vn -0.5237 0.5609 0.6412
vn -0.5263 0.5565 0.6429
vn 0.5252 0.5580 0.6425
vn 0.5247 0.5617 0.6397
vn 0.9256 -0.2480 -0.2859
vn 0.9264 -0.2530 -0.2790
vn -0.0000 -0.6685 -0.7437
vn -0.9288 -0.3373 -0.1533
vn -0.9303 -0.3349 -0.1497
vn -0.5384 0.7637 0.3563
vn -0.5389 0.7642 0.3545
vn 0.5384 0.7637 0.3563
vn 0.5388 0.7642 0.3545
vn 0.9288 -0.3373 -0.1533
vn 0.9303 -0.3349 -0.1497
vn -0.0000 -0.9156 -0.4020
vn -0.9322 -0.3605 -0.0331
vn -0.9330 -0.3584 -0.0331
vn -0.5398 0.8377 0.0829
vn -0.5408 0.8370 0.0839
vn 0.5398 0.8377 0.0829
vn 0.5408 0.8370 0.0839
vn 0.9322 -0.3605 -0.0331
vn 0.9330 -0.3585 -0.0331
vn -0.0000 -0.9958 -0.0912
vn -0.0000 -0.4181 0.9084
vn -0.0000 -0.4661 0.8847
vn 0.9237 -0.1756 0.3406
vn 0.9244 -0.1785 0.3371
vn 0.9102 -0.1686 0.3784
vn 0.9090 -0.1693 0.3808
vn 0.5148 0.3898 -0.7636
vn 0.5145 0.3941 -0.7616
vn 0.4982 0.3517 -0.7925
vn 0.4965 0.3518 -0.7935
vn -0.5138 0.3888 -0.7647
vn -0.4965 0.3518 -0.7936
vn -0.4982 0.3517 -0.7925
vn -0.5156 0.3923 -0.7617
vn -0.9237 -0.1756 0.3405
vn -0.9090 -0.1693 0.3808
vn -0.9102 -0.1685 0.3784
vn -0.9244 -0.1785 0.3370
vn 0.9256 -0.2480 0.2858
vn 0.9264 -0.2529 0.2790
vn 0.5237 0.5609 -0.6412
vn 0.5263 0.5565 -0.6429
vn -0.5252 0.5580 -0.6425
vn -0.5247 0.5617 -0.6397
vn -0.9256 -0.2480 0.2859
vn -0.9264 -0.2530 0.2790
vn -0.0000 -0.6685 0.7437
vn 0.9288 -0.3373 0.1533
vn 0.9303 -0.3349 0.1497
vn 0.5384 0.7637 -0.3563
vn 0.5388 0.7642 -0.3545
vn -0.5384 0.7637 -0.3563
vn -0.5388 0.7642 -0.3545
vn -0.9288 -0.3373 0.1533
vn -0.9303 -0.3349 0.1497
vn -0.0000 -0.9156 0.4020
vn 0.9322 -0.3605 0.0331
vn 0.9330 -0.3584 0.0331
vn 0.5398 0.8377 -0.0829
vn 0.5408 0.8370 -0.0839
vn -0.5398 0.8377 -0.0829
vn -0.5408 0.8370 -0.0839
vn -0.9322 -0.3604 0.0331
vn -0.9330 -0.3584 0.0331
vn -0.0000 -0.9958 0.0912
vn -0.9237 -0.1756 -0.3406
vn -0.9244 -0.1785 -0.3371
vn 0.9090 -0.1693 -0.3808
vn 0.9102 -0.1686 -0.3784
vn 0.9244 -0.1785 -0.3371
vn 0.9256 -0.2480 -0.2858
vn 0.9264 -0.2529 -0.2790
vn 0.5389 0.7642 0.3545
vn -0.9322 -0.3604 -0.0331
vn -0.5408 0.8369 0.0839
vn 0.9322 -0.3604 -0.0331
vn 0.9330 -0.3584 -0.0331
vn -0.4981 0.3517 -0.7926
vn -0.9237 -0.1756 0.3406
vn -0.9102 -0.1686 0.3784
vn -0.9256 -0.2480 0.2858
vn -0.9264 -0.2529 0.2790
vn 0.9322 -0.3604 0.0331
vn -0.5408 0.8369 -0.0839
vn -0.0000 -0.9713 0.2377
vn -0.0000 0.9713 -0.2377
vn -0.0000 0.2335 0.9724
vn -0.0000 -0.2336 -0.9723
vn -1.0000 -0.0000 -0.0000
vn -0.0000 0.5656 0.8247
vn -0.9368 0.1805 0.2996
vn -0.9295 0.1864 0.3183
vn -0.5359 -0.4993 -0.6808
vn -0.5049 -0.5011 -0.7029
vn 0.5049 -0.5011 -0.7029
vn 0.5359 -0.4993 -0.6808
vn 0.9295 0.1864 0.3183
vn 0.9368 0.1805 0.2996
vn -0.9297 0.2985 0.2156
vn -0.9298 0.2983 0.2156
vn -0.9298 0.2984 0.2156
vn -0.5137 -0.6952 -0.5027
vn -0.5134 -0.6955 -0.5027
vn -0.5138 -0.6952 -0.5027
vn 0.5138 -0.6952 -0.5027
vn 0.5135 -0.6954 -0.5027
vn 0.5134 -0.6954 -0.5027
vn 0.9297 0.2985 0.2156
vn 0.9298 0.2984 0.2156
vn 0.9298 0.2983 0.2156
vn -0.0000 0.8105 0.5857
vn -0.0000 0.1531 -0.9882
vn -0.0000 0.1532 -0.9882
vn 0.9370 0.0420 -0.3468
vn 0.9271 0.0383 -0.3729
vn 0.5359 -0.1349 0.8334
vn 0.5036 -0.1267 0.8546
vn -0.5036 -0.1267 0.8546
vn -0.5358 -0.1348 0.8335
vn -0.9271 0.0383 -0.3729
vn -0.9370 0.0420 -0.3468
vn 0.9297 0.1652 -0.3292
vn 0.9298 0.1651 -0.3291
vn 0.9297 0.1651 -0.3291
vn 0.5138 -0.3845 0.7669
vn 0.5135 -0.3846 0.7670
vn 0.5136 -0.3846 0.7670
vn 0.5139 -0.3844 0.7669
vn -0.5135 -0.3846 0.7671
vn -0.5138 -0.3844 0.7669
vn -0.5137 -0.3845 0.7670
vn -0.5134 -0.3847 0.7671
vn -0.9297 0.1652 -0.3292
vn -0.9297 0.1653 -0.3292
vn -0.9298 0.1651 -0.3291
vn -0.9298 0.1651 -0.3290
vn -0.0000 0.4484 -0.8938
vn 0.9317 0.3528 -0.0864
vn 0.9317 0.3528 -0.0863
vn 0.5213 -0.8289 0.2029
vn 0.5212 -0.8289 0.2029
vn -0.5212 -0.8290 0.2029
vn -0.5212 -0.8289 0.2029
vn -0.9317 0.3528 -0.0864
vn 0.0336 0.1360 -0.9901
vn -0.0005 0.1430 -0.9897
vn -0.0004 0.1434 -0.9897
vn -0.0003 0.1431 -0.9897
vn -0.0004 0.1431 -0.9897
vn -0.0020 0.1389 -0.9903
vn -0.0000 0.1358 -0.9907
vn 0.0337 -0.1357 0.9902
vn -0.0005 -0.1427 0.9898
vn -0.0004 -0.1431 0.9897
vn -0.0003 -0.1429 0.9897
vn -0.0004 -0.1428 0.9898
vn -0.0004 -0.1428 0.9897
vn -0.0020 -0.1385 0.9904
vn -0.0000 -0.1354 0.9908
vn 0.9946 0.1030 0.0095
vn 0.9940 0.1094 0.0099
vn -0.9931 0.1169 -0.0000
vn -0.9952 0.0978 -0.0001
vn -0.2350 0.9716 0.0278
vn -0.2259 0.9738 0.0273
vn 0.2316 0.9711 0.0579
vn 0.2360 0.9697 0.0627
vn 0.9773 0.2110 0.0181
vn 0.9773 0.2110 0.0179
vn -0.9769 0.2137 0.0013
vn -0.9769 0.2136 0.0011
vn 0.4542 0.8881 0.0711
vn 0.4530 0.8883 0.0752
vn -0.4552 0.8903 0.0094
vn -0.4562 0.8899 0.0054
vn -0.0338 0.5779 0.8154
vn 0.0005 0.5839 0.8118
vn 0.0004 0.5843 0.8115
vn 0.0003 0.5841 0.8117
vn 0.0004 0.5840 0.8118
vn 0.0004 0.5840 0.8117
vn 0.0020 0.5805 0.8142
vn -0.0000 0.5780 0.8161
vn -0.0337 -0.5777 -0.8156
vn 0.0005 -0.5837 -0.8120
vn 0.0004 -0.5841 -0.8117
vn 0.0003 -0.5838 -0.8119
vn 0.0004 -0.5838 -0.8119
vn 0.0020 -0.5803 -0.8144
vn -0.0000 -0.5777 -0.8162
vn -0.9946 0.0869 -0.0560
vn -0.9940 0.0924 -0.0593
vn 0.9931 0.1036 -0.0540
vn 0.9952 0.0868 -0.0451
vn -0.9773 0.1788 -0.1135
vn -0.9773 0.1789 -0.1133
vn 0.9769 0.1889 -0.0998
vn 0.9769 0.1890 -0.0996
vn -0.2360 0.8312 -0.5035
vn -0.2316 0.8346 -0.4998
vn -0.4542 0.7549 -0.4732
vn -0.4530 0.7532 -0.4770
vn 0.4552 0.7853 -0.4196
vn 0.2259 0.8511 -0.4739
vn 0.2350 0.8489 -0.4734
vn 0.4562 0.7868 -0.4158
vn -0.0000 0.9798 0.2001
vn -0.9418 0.3293 0.0672
vn -0.9419 0.3292 0.0672
vn -0.5545 -0.8153 -0.1667
vn -0.5544 -0.8154 -0.1666
vn -0.5544 -0.8154 -0.1667
vn 0.5545 -0.8153 -0.1666
vn 0.5544 -0.8154 -0.1666
vn 0.5545 -0.8153 -0.1667
vn 0.5546 -0.8153 -0.1667
vn 0.9419 0.3292 0.0672
vn 0.9418 0.3293 0.0672
vn 0.9418 0.2611 -0.2117
vn 0.9419 0.2610 -0.2117
vn 0.9418 0.2610 -0.2117
vn 0.5545 -0.6462 0.5244
vn 0.5544 -0.6463 0.5244
vn 0.5546 -0.6461 0.5244
vn -0.5545 -0.6462 0.5244
vn -0.5544 -0.6463 0.5244
vn -0.5545 -0.6461 0.5244
vn -0.9418 0.2610 -0.2117
vn -0.9419 0.2610 -0.2117
vn -0.9418 0.2611 -0.2117
vn -0.0000 0.7766 -0.6300
vn -0.5049 -0.5011 -0.7028
vn 0.5049 -0.5011 -0.7028
vn -0.9297 0.2986 0.2157
vn -0.5139 -0.6951 -0.5027
vn 0.5134 -0.6955 -0.5027
vn 0.5139 -0.6951 -0.5027
vn 0.9297 0.2986 0.2157
vn -0.5359 -0.1349 0.8334
vn -0.9370 0.0421 -0.3468
vn 0.5137 -0.3845 0.7670
vn 0.5138 -0.3845 0.7670
vn -0.9297 0.1651 -0.3291
vn -0.5213 -0.8289 0.2029
vn -0.9418 0.3292 0.0672
vn 0.9418 0.3292 0.0672
vn 0.9419 0.2609 -0.2117
vn 0.5544 -0.6463 0.5243
vn 0.5547 -0.6460 0.5244
vn -0.5544 -0.6462 0.5244
vn -0.5543 -0.6463 0.5244
vn -0.5546 -0.6461 0.5244
vn -0.9419 0.2609 -0.2117
vn 0.9355 -0.3432 0.0840
vn 0.9355 -0.3432 0.0839
vn 0.8619 -0.4926 0.1206
vn 0.3133 -0.3815 -0.8697
vn 0.3054 -0.3954 -0.8663
vn 0.3507 -0.3234 -0.8789
vn 0.3535 -0.3233 -0.8778
vn -0.7297 0.2980 -0.6154
vn -0.7202 0.3105 -0.6203
vn -0.7985 0.1898 -0.5712
vn -0.8018 0.1904 -0.5664
vn -0.7297 0.5484 0.4083
vn -0.8018 0.4305 0.4145
vn -0.7985 0.4322 0.4190
vn -0.7985 0.4322 0.4191
vn -0.7202 0.5619 0.4069
vn -0.7297 0.5485 0.4083
vn 0.3132 0.0633 0.9476
vn 0.3534 0.1186 0.9279
vn 0.3506 0.1191 0.9289
vn 0.3053 0.0493 0.9510
vn 0.2213 -0.4831 -0.8471
vn 0.2014 -0.4928 -0.8465
vn -0.5247 0.5096 -0.6819
vn -0.4993 0.5249 -0.6893
vn -0.5247 0.7669 0.3695
vn -0.4993 0.7839 0.3689
vn 0.2213 -0.0374 0.9745
vn 0.2014 -0.0462 0.9784
vn 0.6081 -0.7711 0.1888
vn -0.9235 -0.3727 0.0912
vn -0.8531 -0.5067 0.1240
vn -0.8532 -0.5067 0.1240
vn -0.3096 0.0528 0.9494
vn -0.3017 0.0404 0.9525
vn -0.3495 0.0989 0.9317
vn -0.3532 0.0982 0.9304
vn 0.7281 0.5513 0.4074
vn 0.7183 0.5652 0.4057
vn 0.7966 0.4382 0.4163
vn 0.8000 0.4366 0.4115
vn 0.7281 0.3008 -0.6159
vn 0.8000 0.1972 -0.5667
vn 0.7966 0.1965 -0.5716
vn 0.7966 0.1965 -0.5717
vn 0.7184 0.3139 -0.6208
vn 0.7281 0.3009 -0.6159
vn -0.3097 -0.3915 -0.8665
vn -0.3532 -0.3426 -0.8705
vn -0.3495 -0.3426 -0.8721
vn -0.3017 -0.4041 -0.8635
vn -0.3096 -0.3916 -0.8665
vn -0.2213 -0.0374 0.9745
vn -0.2014 -0.0462 0.9784
vn 0.5247 0.7669 0.3695
vn 0.4993 0.7840 0.3689
vn 0.5247 0.5096 -0.6819
vn 0.4993 0.5249 -0.6893
vn -0.2213 -0.4831 -0.8471
vn -0.2014 -0.4928 -0.8465
vn -0.6081 -0.7711 0.1888
vn -0.0646 -0.1047 0.9924
vn -0.0816 -0.0976 0.9919
vn 0.0816 -0.0976 0.9919
vn 0.0646 -0.1047 0.9924
vn 0.1698 0.9266 0.3356
vn 0.1940 0.9204 0.3395
vn -0.1940 0.9204 0.3395
vn -0.1699 0.9265 0.3356
vn 0.1940 0.6596 -0.7261
vn 0.1699 0.6668 -0.7256
vn -0.1699 0.6668 -0.7256
vn -0.1940 0.6596 -0.7261
vn -0.0816 -0.5448 -0.8346
vn -0.0646 -0.5513 -0.8318
vn 0.0646 -0.5513 -0.8318
vn 0.0816 -0.5448 -0.8346
vn 0.2190 -0.9478 0.2320
vn -0.2190 -0.9477 0.2320
vn 0.3133 -0.3815 -0.8696
vn 0.3055 -0.3955 -0.8662
vn 0.3507 -0.3235 -0.8789
vn 0.3535 -0.3234 -0.8778
vn -0.7203 0.3105 -0.6203
vn 0.3133 0.0633 0.9475
vn 0.3055 0.0493 0.9509
vn 0.3133 0.0632 0.9475
vn -0.4993 0.5250 -0.6893
vn -0.5247 0.7669 0.3696
vn -0.4993 0.7839 0.3690
vn 0.2015 -0.0462 0.9784
vn 0.6081 -0.7711 0.1887
vn -0.3097 0.0528 0.9494
vn -0.3018 0.0403 0.9525
vn -0.2015 -0.0462 0.9784
vn 0.5246 0.7669 0.3696
vn 0.4993 0.7839 0.3690
vn 0.4993 0.5250 -0.6893
vn 0.1698 0.9265 0.3357
vn -0.1699 0.9265 0.3357
vn 0.1699 0.6669 -0.7256
vn -0.1699 0.6669 -0.7256
vn -0.0816 -0.5447 -0.8347
vn -0.0646 -0.5512 -0.8319
vn 0.0646 -0.5512 -0.8318
vn 0.0816 -0.5447 -0.8346
vn -0.2190 -0.9478 0.2320
vn 0.2190 -0.9478 0.2319
vt 0.578265 0.569123
vt 0.578265 0.558338
vt 0.579146 0.558338
vt 0.579146 0.569123
vt 0.580023 0.558338
vt 0.580023 0.569123
vt 0.580908 0.558338
vt 0.580908 0.569123
vt 0.581785 0.558338
vt 0.581785 0.569123
vt 0.582667 0.558338
vt 0.582667 0.569123
vt 0.581132 0.557135
vt 0.580859 0.556306
vt 0.581574 0.555793
vt 0.582290 0.556306
vt 0.582017 0.557135
vt 0.578222 0.555115
vt 0.578938 0.555633
vt 0.578664 0.556470
vt 0.577780 0.556470
vt 0.577506 0.555633
vt 0.052881 0.643006
vt 0.052881 0.643858
vt 0.040377 0.643858
vt 0.040377 0.643006
vt 0.052881 0.644720
vt 0.040377 0.644720
vt 0.052881 0.645566
vt 0.040377 0.645566
vt 0.052881 0.646428
vt 0.040377 0.646428
vt 0.052881 0.642154
vt 0.040377 0.642154
vt 0.105585 0.731579
vt 0.104340 0.731579
vt 0.104340 0.724138
vt 0.105585 0.724138
vt 0.103364 0.724138
vt 0.103364 0.731579
vt 0.102199 0.724138
vt 0.102199 0.731579
vt 0.101034 0.731579
vt 0.101034 0.724138
vt 0.106562 0.724138
vt 0.106562 0.731579
vt 0.103364 0.721488
vt 0.104340 0.721488
vt 0.102199 0.721488
vt 0.101034 0.721488
vt 0.106562 0.721488
vt 0.105585 0.721488
vt 0.103364 0.719244
vt 0.104340 0.719244
vt 0.102199 0.719244
vt 0.101034 0.719244
vt 0.106562 0.719244
vt 0.105585 0.719244
vt 0.103364 0.716918
vt 0.104340 0.716918
vt 0.102199 0.716918
vt 0.101034 0.716918
vt 0.106562 0.716918
vt 0.105585 0.716918
vt 0.104340 0.700384
vt 0.105585 0.700384
vt 0.105585 0.707825
vt 0.104340 0.707825
vt 0.106562 0.707825
vt 0.106562 0.700384
vt 0.102199 0.707825
vt 0.101034 0.707825
vt 0.101034 0.700384
vt 0.102199 0.700384
vt 0.103364 0.700384
vt 0.103364 0.707825
vt 0.106562 0.710475
vt 0.105585 0.710475
vt 0.101034 0.710475
vt 0.102199 0.710475
vt 0.103364 0.710475
vt 0.104340 0.710475
vt 0.106562 0.712719
vt 0.105585 0.712719
vt 0.101034 0.712719
vt 0.102199 0.712719
vt 0.103364 0.712719
vt 0.104340 0.712719
vt 0.106562 0.715045
vt 0.105585 0.715045
vt 0.102199 0.715045
vt 0.101034 0.715045
vt 0.103364 0.715045
vt 0.104340 0.715045
vt 0.104420 0.671513
vt 0.103175 0.671513
vt 0.103175 0.664038
vt 0.104420 0.664038
vt 0.102199 0.664038
vt 0.102199 0.671513
vt 0.101034 0.664038
vt 0.101034 0.671513
vt 0.106562 0.664038
vt 0.106562 0.671513
vt 0.105397 0.671513
vt 0.105397 0.664038
vt 0.102199 0.661353
vt 0.103175 0.661353
vt 0.101034 0.661353
vt 0.106562 0.661353
vt 0.105397 0.661353
vt 0.104420 0.661353
vt 0.102199 0.659061
vt 0.103175 0.659061
vt 0.101034 0.659061
vt 0.105397 0.659061
vt 0.106562 0.659061
vt 0.104420 0.659061
vt 0.102199 0.656699
vt 0.103175 0.656699
vt 0.101034 0.656699
vt 0.106562 0.656699
vt 0.105397 0.656699
vt 0.104420 0.656699
vt 0.103175 0.639997
vt 0.104420 0.639997
vt 0.104420 0.647472
vt 0.103175 0.647472
vt 0.105397 0.647472
vt 0.105397 0.639997
vt 0.106562 0.647472
vt 0.106562 0.639997
vt 0.101034 0.647472
vt 0.101034 0.639997
vt 0.102199 0.639997
vt 0.102199 0.647472
vt 0.105397 0.650157
vt 0.104420 0.650157
vt 0.106562 0.650157
vt 0.101034 0.650157
vt 0.102199 0.650157
vt 0.103175 0.650157
vt 0.105397 0.652449
vt 0.104420 0.652449
vt 0.106562 0.652449
vt 0.102199 0.652449
vt 0.101034 0.652449
vt 0.103175 0.652449
vt 0.105397 0.654812
vt 0.104420 0.654812
vt 0.106562 0.654812
vt 0.101034 0.654812
vt 0.102199 0.654812
vt 0.103175 0.654812
vt 0.025477 0.730606
vt 0.015036 0.730606
vt 0.015036 0.641042
vt 0.025477 0.641042
vt 0.038114 0.641884
vt 0.038114 0.731448
vt 0.027673 0.731448
vt 0.027673 0.641884
vt 0.015036 0.731651
vt 0.025477 0.731651
vt 0.026629 0.731448
vt 0.026629 0.641884
vt 0.025477 0.639997
vt 0.015036 0.639997
vt 0.039159 0.641884
vt 0.039159 0.731448
vt 0.551888 0.588754
vt 0.551888 0.588251
vt 0.553540 0.588251
vt 0.553540 0.588754
vt 0.553540 0.587795
vt 0.551888 0.587795
vt 0.553540 0.587309
vt 0.551888 0.587309
vt 0.553540 0.589696
vt 0.551888 0.589696
vt 0.551888 0.589209
vt 0.553540 0.589209
vt 0.554875 0.588251
vt 0.554875 0.587795
vt 0.554875 0.587309
vt 0.554875 0.589209
vt 0.554875 0.589696
vt 0.554875 0.588754
vt 0.560999 0.588251
vt 0.560999 0.588754
vt 0.559335 0.588754
vt 0.559335 0.588251
vt 0.559335 0.589209
vt 0.560999 0.589209
vt 0.559335 0.589696
vt 0.560999 0.589696
vt 0.559335 0.587309
vt 0.560999 0.587309
vt 0.560999 0.587795
vt 0.559335 0.587795
vt 0.558000 0.588754
vt 0.558000 0.589209
vt 0.558000 0.589696
vt 0.558000 0.587795
vt 0.558000 0.587309
vt 0.558000 0.588251
vt 0.557195 0.588754
vt 0.557195 0.589209
vt 0.555680 0.589209
vt 0.555680 0.588754
vt 0.557195 0.589696
vt 0.555680 0.589696
vt 0.557195 0.587309
vt 0.557195 0.587795
vt 0.555680 0.587795
vt 0.555680 0.587309
vt 0.557195 0.588251
vt 0.555680 0.588251
vt 0.287486 0.648704
vt 0.287483 0.655390
vt 0.286658 0.659200
vt 0.284186 0.660478
vt 0.280337 0.660493
vt 0.277865 0.659233
vt 0.277043 0.655430
vt 0.277046 0.648700
vt 0.095032 0.640001
vt 0.095030 0.646731
vt 0.094204 0.650541
vt 0.091732 0.651819
vt 0.087883 0.651834
vt 0.085412 0.650575
vt 0.084589 0.646771
vt 0.084592 0.639997
vt 0.039299 0.640948
vt 0.039299 0.639997
vt 0.046029 0.639997
vt 0.046029 0.640948
vt 0.069954 0.640948
vt 0.063224 0.640948
vt 0.063224 0.639997
vt 0.069954 0.639997
vt 0.056551 0.639997
vt 0.056551 0.640948
vt 0.052702 0.640948
vt 0.052702 0.639997
vt 0.049924 0.639997
vt 0.049924 0.640948
vt 0.059330 0.640948
vt 0.059330 0.639997
vt 0.321255 0.732737
vt 0.321257 0.726051
vt 0.322083 0.722242
vt 0.324555 0.720963
vt 0.328404 0.720949
vt 0.330875 0.722208
vt 0.331698 0.726011
vt 0.331695 0.732741
vt 0.040377 0.729470
vt 0.040380 0.722740
vt 0.041205 0.718930
vt 0.043678 0.717652
vt 0.047527 0.717637
vt 0.049998 0.718897
vt 0.050820 0.722700
vt 0.050818 0.729474
vt 0.071032 0.730577
vt 0.071032 0.731528
vt 0.064302 0.731528
vt 0.064302 0.730577
vt 0.040377 0.730577
vt 0.047108 0.730577
vt 0.047108 0.731528
vt 0.040377 0.731528
vt 0.060408 0.731528
vt 0.060408 0.730577
vt 0.051002 0.730577
vt 0.051002 0.731528
vt 0.057629 0.731528
vt 0.057629 0.730577
vt 0.053780 0.730577
vt 0.053780 0.731528
vt 0.551888 0.530254
vt 0.551888 0.529751
vt 0.553540 0.529751
vt 0.553540 0.530254
vt 0.553540 0.529296
vt 0.551888 0.529296
vt 0.553540 0.528809
vt 0.551888 0.528809
vt 0.553540 0.531197
vt 0.551888 0.531197
vt 0.551888 0.530710
vt 0.553540 0.530710
vt 0.554875 0.529751
vt 0.554875 0.529296
vt 0.554875 0.528809
vt 0.554875 0.530710
vt 0.554875 0.531197
vt 0.554875 0.530254
vt 0.560999 0.529751
vt 0.560999 0.530254
vt 0.559335 0.530254
vt 0.559335 0.529751
vt 0.559335 0.530710
vt 0.560999 0.530710
vt 0.559335 0.531197
vt 0.560999 0.531197
vt 0.559335 0.528809
vt 0.560999 0.528809
vt 0.560999 0.529296
vt 0.559335 0.529296
vt 0.558000 0.530254
vt 0.558000 0.530710
vt 0.558000 0.531197
vt 0.558000 0.529296
vt 0.558000 0.528809
vt 0.558000 0.529751
vt 0.557195 0.530254
vt 0.557195 0.530710
vt 0.555680 0.530710
vt 0.555680 0.530254
vt 0.557195 0.531197
vt 0.555680 0.531197
vt 0.557195 0.528809
vt 0.557195 0.529296
vt 0.555680 0.529296
vt 0.555680 0.528809
vt 0.557195 0.529751
vt 0.555680 0.529751
vt 0.330258 0.636766
vt 0.331034 0.636766
vt 0.331034 0.639313
vt 0.330258 0.639313
vt 0.331736 0.639313
vt 0.331736 0.636766
vt 0.332487 0.639313
vt 0.332487 0.636766
vt 0.328805 0.639313
vt 0.328805 0.636766
vt 0.329556 0.636766
vt 0.329556 0.639313
vt 0.331034 0.641372
vt 0.331736 0.641372
vt 0.332487 0.641372
vt 0.329556 0.641372
vt 0.328805 0.641372
vt 0.330258 0.641372
vt 0.331034 0.650813
vt 0.330258 0.650813
vt 0.330258 0.648248
vt 0.331034 0.648248
vt 0.329556 0.648248
vt 0.329556 0.650813
vt 0.328805 0.648248
vt 0.328805 0.650813
vt 0.332487 0.648248
vt 0.332487 0.650813
vt 0.331736 0.650813
vt 0.331736 0.648248
vt 0.330258 0.646189
vt 0.329556 0.646189
vt 0.328805 0.646189
vt 0.331736 0.646189
vt 0.332487 0.646189
vt 0.331034 0.646189
vt 0.330258 0.644948
vt 0.329556 0.644948
vt 0.329556 0.642613
vt 0.330258 0.642613
vt 0.328805 0.644948
vt 0.328805 0.642613
vt 0.332487 0.644948
vt 0.331736 0.644948
vt 0.331736 0.642613
vt 0.332487 0.642613
vt 0.331034 0.644948
vt 0.331034 0.642613
vt 0.330258 0.714137
vt 0.331034 0.714137
vt 0.331034 0.716683
vt 0.330258 0.716683
vt 0.331736 0.716683
vt 0.331736 0.714137
vt 0.332487 0.716683
vt 0.332487 0.714137
vt 0.328805 0.716683
vt 0.328805 0.714137
vt 0.329556 0.714137
vt 0.329556 0.716683
vt 0.331034 0.718742
vt 0.331736 0.718742
vt 0.332487 0.718742
vt 0.329556 0.718742
vt 0.328805 0.718742
vt 0.330258 0.718742
vt 0.331034 0.728183
vt 0.330258 0.728183
vt 0.330258 0.725619
vt 0.331034 0.725619
vt 0.329556 0.725619
vt 0.329556 0.728183
vt 0.328805 0.725619
vt 0.328805 0.728183
vt 0.332487 0.725619
vt 0.332487 0.728183
vt 0.331736 0.728183
vt 0.331736 0.725619
vt 0.330258 0.723560
vt 0.329556 0.723560
vt 0.328805 0.723560
vt 0.331736 0.723560
vt 0.332487 0.723560
vt 0.331034 0.723560
vt 0.330258 0.722318
vt 0.329556 0.722318
vt 0.329556 0.719983
vt 0.330258 0.719983
vt 0.328805 0.722318
vt 0.328805 0.719983
vt 0.332487 0.722318
vt 0.331736 0.722318
vt 0.331736 0.719983
vt 0.332487 0.719983
vt 0.331034 0.722318
vt 0.331034 0.719983
s 1
usemtl 07_-_Default.001
f 4/1/1 1/2/2 2/3/3
f 2/3/3 3/4/4 4/1/1
f 3/4/5 2/3/6 5/5/7
f 5/5/7 6/6/8 3/4/5
f 6/6/9 5/5/9 7/7/9
f 7/7/9 8/8/9 6/6/9
f 8/8/10 7/7/11 9/9/12
f 9/9/12 10/10/13 8/8/10
f 10/10/14 9/9/15 1/11/16
f 1/11/16 4/12/17 10/10/14
f 5/13/18 2/14/18 1/15/18
f 5/13/18 1/15/18 9/16/18
f 5/13/18 9/16/18 7/17/18
f 4/18/19 3/19/19 6/20/19
f 6/20/19 8/21/20 10/22/19
f 4/18/19 6/20/19 10/22/19
f 14/23/21 11/24/22 12/25/23
f 12/25/23 13/26/24 14/23/21
f 11/24/25 15/27/26 16/28/27
f 16/28/27 12/25/28 11/24/25
f 15/27/9 17/29/9 18/30/9
f 18/30/9 16/28/9 15/27/9
f 17/29/29 19/31/30 20/32/31
f 20/32/31 18/30/32 17/29/29
f 19/33/33 14/23/34 13/26/35
f 13/26/35 20/34/36 19/33/33
f 24/35/37 21/36/37 22/37/38
f 22/37/38 23/38/38 24/35/37
f 26/39/39 22/37/40 21/36/41
f 21/36/41 25/40/42 26/39/39
f 28/41/43 26/39/44 25/40/45
f 25/40/45 27/42/46 28/41/43
f 28/41/47 27/42/48 29/43/49
f 29/43/49 30/44/50 28/41/51
f 30/45/52 29/46/53 24/35/54
f 24/35/55 23/38/56 30/45/57
f 31/47/58 32/48/59 22/37/40
f 22/37/40 26/39/39 31/47/58
f 31/47/60 26/39/44 28/41/43
f 28/41/43 33/49/61 31/47/60
f 33/49/62 28/41/51 30/44/50
f 30/44/50 34/50/63 33/49/62
f 34/51/64 30/45/57 23/38/56
f 23/38/56 35/52/65 34/51/64
f 35/52/66 23/38/38 22/37/38
f 22/37/38 32/48/66 35/52/66
f 36/53/67 37/54/68 32/48/59
f 32/48/59 31/47/58 36/53/67
f 36/53/69 31/47/60 33/49/61
f 33/49/61 38/55/70 36/53/69
f 39/56/71 38/55/72 33/49/62
f 33/49/62 34/50/63 39/56/71
f 39/57/73 34/51/64 35/52/65
f 35/52/65 40/58/74 39/57/73
f 40/58/75 35/52/66 32/48/66
f 32/48/66 37/54/75 40/58/75
f 41/59/76 42/60/77 37/54/68
f 37/54/68 36/53/67 41/59/76
f 43/61/78 41/59/79 36/53/69
f 36/53/69 38/55/70 43/61/78
f 43/61/80 38/55/72 39/56/71
f 39/56/71 44/62/81 43/61/80
f 44/63/82 39/57/73 40/58/74
f 40/58/74 45/64/83 44/63/82
f 45/64/84 40/58/75 37/54/75
f 37/54/75 42/60/84 45/64/84
f 49/65/85 46/66/85 47/67/86
f 47/67/86 48/68/86 49/65/85
f 51/69/87 47/67/88 46/66/89
f 46/66/89 50/70/90 51/69/87
f 53/71/91 51/72/92 50/73/93
f 50/73/93 52/74/94 53/71/91
f 53/71/95 52/74/96 54/75/97
f 54/75/97 55/76/98 53/71/95
f 55/76/99 54/75/100 49/65/101
f 49/65/101 48/68/102 55/76/99
f 56/77/103 57/78/104 47/67/88
f 47/67/88 51/69/87 56/77/103
f 56/79/105 51/72/92 53/71/91
f 53/71/91 58/80/106 56/79/105
f 58/80/107 53/71/95 55/76/98
f 55/76/98 59/81/108 58/80/107
f 59/81/109 55/76/99 48/68/102
f 48/68/102 60/82/110 59/81/109
f 60/82/111 48/68/86 47/67/86
f 47/67/86 57/78/111 60/82/111
f 61/83/112 62/84/113 57/78/104
f 57/78/104 56/77/103 61/83/112
f 61/85/114 56/79/105 58/80/106
f 58/80/106 63/86/115 61/85/114
f 64/87/116 63/86/117 58/80/107
f 58/80/107 59/81/108 64/87/116
f 64/87/118 59/81/109 60/82/110
f 60/82/110 65/88/119 64/87/118
f 65/88/120 60/82/111 57/78/111
f 57/78/111 62/84/120 65/88/120
f 66/89/121 67/90/122 62/84/113
f 62/84/113 61/83/112 66/89/121
f 68/91/123 66/92/124 61/85/114
f 61/85/114 63/86/115 68/91/123
f 68/91/125 63/86/117 64/87/116
f 64/87/116 69/93/126 68/91/125
f 69/93/127 64/87/118 65/88/119
f 65/88/119 70/94/128 69/93/127
f 70/94/129 65/88/120 62/84/120
f 62/84/120 67/90/129 70/94/129
f 67/90/122 66/89/121 44/63/82
f 44/63/82 45/64/83 67/90/122
f 66/92/124 68/91/123 43/61/80
f 43/61/80 44/62/81 66/92/124
f 68/91/125 69/93/126 41/59/79
f 41/59/79 43/61/78 68/91/125
f 69/93/127 70/94/128 42/60/77
f 42/60/77 41/59/76 69/93/127
f 42/60/84 70/94/129 67/90/129
f 67/90/129 45/64/84 42/60/84
f 74/95/37 71/96/37 72/97/38
f 72/97/38 73/98/38 74/95/37
f 76/99/130 72/97/131 71/96/41
f 71/96/41 75/100/42 76/99/130
f 78/101/43 76/99/44 75/100/45
f 75/100/45 77/102/46 78/101/43
f 78/103/47 77/104/48 79/105/49
f 79/105/49 80/106/50 78/103/47
f 80/106/52 79/105/132 74/95/133
f 74/95/55 73/98/134 80/106/57
f 81/107/58 82/108/59 72/97/131
f 72/97/131 76/99/130 81/107/58
f 81/107/60 76/99/44 78/101/43
f 78/101/43 83/109/61 81/107/60
f 83/110/62 78/103/47 80/106/50
f 80/106/50 84/111/63 83/110/62
f 84/111/135 80/106/57 73/98/134
f 73/98/134 85/112/136 84/111/135
f 85/112/66 73/98/38 72/97/38
f 72/97/38 82/108/66 85/112/66
f 86/113/67 87/114/68 82/108/59
f 82/108/59 81/107/58 86/113/67
f 86/113/69 81/107/60 83/109/61
f 83/109/61 88/115/70 86/113/69
f 89/116/71 88/117/137 83/110/62
f 83/110/62 84/111/63 89/116/71
f 89/116/73 84/111/135 85/112/136
f 85/112/136 90/118/74 89/116/73
f 90/118/75 85/112/66 82/108/66
f 82/108/66 87/114/75 90/118/75
f 91/119/138 92/120/77 87/114/68
f 87/114/68 86/113/67 91/119/138
f 93/121/78 91/119/139 86/113/69
f 86/113/69 88/115/70 93/121/78
f 93/122/80 88/117/137 89/116/71
f 89/116/71 94/123/81 93/122/80
f 94/123/140 89/116/73 90/118/74
f 90/118/74 95/124/141 94/123/140
f 95/124/84 90/118/75 87/114/75
f 87/114/75 92/120/84 95/124/84
f 99/125/85 96/126/85 97/127/86
f 97/127/86 98/128/86 99/125/85
f 101/129/87 97/127/88 96/126/89
f 96/126/89 100/130/90 101/129/87
f 103/131/91 101/129/92 100/130/93
f 100/130/93 102/132/94 103/131/91
f 103/133/95 102/134/96 104/135/142
f 104/135/97 105/136/98 103/133/95
f 105/136/143 104/135/100 99/125/144
f 99/125/144 98/128/102 105/136/99
f 106/137/103 107/138/104 97/127/88
f 97/127/88 101/129/87 106/137/103
f 106/137/105 101/129/92 103/131/91
f 103/131/91 108/139/106 106/137/105
f 108/140/107 103/133/95 105/136/98
f 105/136/98 109/141/108 108/140/107
f 109/141/145 105/136/99 98/128/102
f 98/128/102 110/142/146 109/141/145
f 110/142/111 98/128/86 97/127/86
f 97/127/86 107/138/111 110/142/111
f 111/143/112 112/144/113 107/138/104
f 107/138/104 106/137/103 111/143/112
f 111/143/114 106/137/105 108/139/106
f 108/139/106 113/145/115 111/143/114
f 114/146/116 113/147/117 108/140/107
f 108/140/107 109/141/108 114/146/116
f 114/146/118 109/141/145 110/142/146
f 110/142/146 115/148/119 114/146/118
f 115/148/120 110/142/111 107/138/111
f 107/138/111 112/144/120 115/148/120
f 116/149/147 117/150/122 112/144/113
f 112/144/113 111/143/112 116/149/147
f 118/151/123 116/149/124 111/143/114
f 111/143/114 113/145/115 118/151/123
f 118/152/125 113/147/117 114/146/116
f 114/146/116 119/153/148 118/152/125
f 119/153/127 114/146/118 115/148/119
f 115/148/119 120/154/128 119/153/127
f 120/154/129 115/148/120 112/144/120
f 112/144/120 117/150/129 120/154/129
f 117/150/122 116/149/147 94/123/140
f 94/123/140 95/124/141 117/150/122
f 116/149/124 118/151/123 93/122/80
f 93/122/80 94/123/81 116/149/124
f 118/152/125 119/153/148 91/119/139
f 91/119/139 93/121/78 118/152/125
f 119/153/127 120/154/128 92/120/77
f 92/120/77 91/119/138 119/153/127
f 92/120/84 120/154/129 117/150/129
f 117/150/129 95/124/84 92/120/84
f 124/155/149 121/156/149 122/157/149
f 122/157/149 123/158/149 124/155/149
f 128/159/150 125/160/150 126/161/150
f 126/161/150 127/162/150 128/159/150
f 125/163/151 121/156/151 124/155/151
f 124/155/151 126/164/151 125/163/151
f 126/161/18 124/165/18 123/166/18
f 123/166/18 127/162/18 126/161/18
f 127/167/152 123/158/152 122/157/152
f 122/157/152 128/168/152 127/167/152
f 128/159/153 122/169/153 121/170/153
f 121/170/153 125/160/153 128/159/153
f 132/171/154 129/172/154 130/173/154
f 130/173/154 131/174/154 132/171/154
f 134/175/155 130/173/155 129/172/155
f 129/172/156 133/176/156 134/175/156
f 136/177/157 134/175/157 133/176/157
f 133/176/158 135/178/158 136/177/158
f 136/179/159 135/180/159 137/181/159
f 137/181/160 138/182/160 136/179/160
f 138/182/161 137/181/161 132/171/161
f 132/171/162 131/174/162 138/182/162
f 140/183/163 130/173/164 134/175/165
f 134/175/165 139/184/163 140/183/163
f 139/184/166 134/175/167 136/177/168
f 136/177/168 141/185/168 139/184/166
f 142/186/169 141/187/169 136/179/170
f 136/179/170 138/182/171 142/186/169
f 143/188/172 142/186/172 138/182/173
f 138/182/173 131/174/174 143/188/172
f 143/188/175 131/174/175 130/173/175
f 130/173/175 140/183/175 143/188/175
f 147/189/176 144/190/176 145/191/177
f 145/191/177 146/192/177 147/189/176
f 149/193/178 145/191/178 144/190/178
f 144/190/179 148/194/179 149/193/179
f 151/195/180 149/193/180 148/194/180
f 148/194/181 150/196/181 151/195/181
f 151/197/182 150/198/182 152/199/182
f 152/199/183 153/200/183 151/197/183
f 153/200/184 152/199/184 147/189/184
f 147/189/185 146/192/185 153/200/185
f 155/201/186 145/191/187 149/193/188
f 149/193/188 154/202/186 155/201/186
f 154/202/189 149/193/190 151/195/191
f 151/195/191 156/203/192 154/202/189
f 157/204/193 156/205/194 151/197/195
f 151/197/195 153/200/196 157/204/193
f 158/206/197 157/204/198 153/200/199
f 153/200/199 146/192/200 158/206/197
f 158/206/201 146/192/201 145/191/201
f 145/191/201 155/201/201 158/206/201
f 162/207/202 159/208/202 160/209/203
f 160/209/203 161/210/203 162/207/202
f 159/208/204 163/211/204 164/212/205
f 164/212/205 160/209/205 159/208/204
f 163/213/206 165/214/207 166/215/206
f 166/215/206 164/216/206 163/213/206
f 165/214/208 167/217/208 168/218/208
f 168/218/208 166/215/208 165/214/208
f 168/218/150 167/217/150 162/207/150
f 162/207/150 161/210/150 168/218/150
f 174/219/209 175/220/209 176/221/209
f 176/221/210 169/222/211 170/223/212
f 170/223/212 171/224/213 172/225/213
f 176/221/210 170/223/212 172/225/213
f 174/219/214 176/221/210 172/225/213
f 174/219/215 172/225/215 173/226/215
f 182/227/216 183/228/216 184/229/216
f 184/229/217 177/230/218 178/231/219
f 178/231/219 179/232/220 180/233/221
f 184/229/217 178/231/219 180/233/221
f 182/227/222 184/229/217 180/233/221
f 182/227/223 180/233/223 181/234/223
f 182/235/18 173/236/18 172/237/224
f 172/237/224 183/238/225 182/235/18
f 181/239/153 180/240/226 175/241/227
f 175/241/227 174/242/153 181/239/153
f 169/243/228 178/244/229 177/245/230
f 177/245/230 170/246/231 169/243/228
f 171/247/232 184/248/233 183/238/225
f 183/238/225 172/237/224 171/247/232
f 180/240/226 179/249/234 176/250/235
f 176/250/235 175/241/227 180/240/226
f 170/246/231 177/245/230 184/248/236
f 184/248/236 171/247/237 170/246/231
f 179/249/238 178/244/229 169/243/228
f 169/243/228 176/250/239 179/249/238
f 190/251/240 191/252/240 192/253/240
f 192/253/241 185/254/242 186/255/243
f 186/255/243 187/256/244 188/257/245
f 192/253/241 186/255/243 188/257/245
f 190/251/246 192/253/241 188/257/245
f 190/251/247 188/257/247 189/258/247
f 198/259/248 199/260/248 200/261/248
f 200/261/249 193/262/250 194/263/251
f 194/263/251 195/264/252 196/265/252
f 200/261/249 194/263/251 196/265/252
f 198/259/253 200/261/249 196/265/252
f 198/259/254 196/265/254 197/266/254
f 198/267/153 189/268/153 188/269/255
f 188/269/255 199/270/256 198/267/153
f 197/271/18 196/272/257 191/273/258
f 191/273/258 190/274/18 197/271/18
f 187/275/259 200/276/260 199/270/256
f 199/270/256 188/269/255 187/275/259
f 196/272/257 195/277/261 192/278/262
f 192/278/262 191/273/258 196/272/257
f 186/279/263 193/280/264 200/276/265
f 200/276/265 187/275/266 186/279/263
f 195/277/267 194/281/268 185/282/269
f 185/282/269 192/278/270 195/277/267
f 143/188/271 140/183/271 168/218/271
f 168/218/271 161/210/271 143/188/271
f 168/218/272 140/183/273 139/184/273
f 139/184/273 166/215/272 168/218/272
f 166/215/274 139/184/275 141/185/276
f 141/185/276 164/216/274 166/215/274
f 141/187/277 142/186/278 160/209/279
f 160/209/279 164/212/280 141/187/277
f 142/186/281 143/188/281 161/210/282
f 161/210/282 160/209/282 142/186/281
f 162/207/283 155/201/284 154/202/285
f 154/202/285 159/208/283 162/207/283
f 159/208/286 154/202/287 156/203/286
f 156/203/286 163/211/288 159/208/286
f 156/205/289 157/204/290 165/214/289
f 165/214/289 163/213/291 156/205/289
f 157/204/292 158/206/293 167/217/294
f 167/217/294 165/214/294 157/204/292
f 158/206/295 155/201/295 162/207/295
f 162/207/295 167/217/295 158/206/295
f 204/283/154 201/284/154 202/285/154
f 202/285/154 203/286/154 204/283/154
f 206/287/155 202/285/155 201/284/155
f 201/284/156 205/288/156 206/287/156
f 208/289/157 206/287/157 205/288/157
f 205/288/296 207/290/296 208/289/296
f 208/291/297 207/292/297 209/293/297
f 209/293/160 210/294/160 208/291/160
f 210/294/161 209/293/161 204/283/161
f 204/283/162 203/286/162 210/294/162
f 212/295/163 202/285/164 206/287/165
f 206/287/165 211/296/298 212/295/163
f 211/296/168 206/287/167 208/289/299
f 208/289/299 213/297/299 211/296/168
f 214/298/300 213/299/301 208/291/170
f 208/291/170 210/294/300 214/298/300
f 215/300/172 214/298/302 210/294/173
f 210/294/173 203/286/174 215/300/172
f 215/300/175 203/286/175 202/285/175
f 202/285/175 212/295/175 215/300/175
f 219/301/177 216/302/177 217/303/176
f 217/303/176 218/304/176 219/301/177
f 221/305/178 217/303/178 216/302/178
f 216/302/179 220/306/179 221/305/179
f 223/307/180 221/305/180 220/306/180
f 220/306/181 222/308/181 223/307/181
f 223/309/182 222/310/182 224/311/182
f 224/311/303 225/312/303 223/309/303
f 225/312/184 224/311/184 219/301/184
f 219/301/304 218/304/304 225/312/304
f 227/313/186 217/303/187 221/305/188
f 221/305/188 226/314/186 227/313/186
f 226/314/305 221/305/190 223/307/191
f 223/307/191 228/315/306 226/314/305
f 229/316/195 228/317/195 223/309/193
f 223/309/193 225/312/193 229/316/195
f 230/318/197 229/316/197 225/312/307
f 225/312/307 218/304/199 230/318/197
f 230/318/201 218/304/201 217/303/201
f 217/303/201 227/313/201 230/318/201
f 234/319/202 231/320/202 232/321/202
f 232/321/202 233/322/202 234/319/202
f 231/320/204 235/323/204 236/324/204
f 236/324/204 232/321/204 231/320/204
f 235/325/207 237/326/308 238/327/207
f 238/327/207 236/328/207 235/325/207
f 237/326/208 239/329/208 240/330/208
f 240/330/208 238/327/208 237/326/208
f 240/330/150 239/329/150 234/319/150
f 234/319/150 233/322/150 240/330/150
f 215/300/271 212/295/271 240/330/271
f 240/330/271 233/322/271 215/300/271
f 240/330/272 212/295/273 211/296/309
f 211/296/309 238/327/272 240/330/272
f 238/327/274 211/296/275 213/297/276
f 213/297/276 236/328/274 238/327/274
f 213/299/279 214/298/278 232/321/279
f 232/321/279 236/324/280 213/299/279
f 214/298/310 215/300/281 233/322/282
f 233/322/282 232/321/282 214/298/310
f 234/319/283 227/313/311 226/314/285
f 226/314/285 231/320/283 234/319/283
f 231/320/288 226/314/312 228/315/286
f 228/315/286 235/323/313 231/320/288
f 228/317/314 229/316/315 237/326/289
f 237/326/289 235/325/316 228/317/314
f 229/316/292 230/318/317 239/329/292
f 239/329/292 237/326/294 229/316/292
f 230/318/295 227/313/295 234/319/295
f 234/319/295 239/329/295 230/318/295
f 244/331/318 241/332/319 242/333/320
f 242/333/320 243/334/320 244/331/318
f 246/335/321 242/333/322 241/332/323
f 241/332/323 245/336/324 246/335/321
f 248/337/325 246/335/326 245/336/327
f 245/336/327 247/338/328 248/337/325
f 248/339/329 247/340/330 249/341/331
f 249/341/332 250/342/333 248/339/334
f 250/342/335 249/341/336 244/331/337
f 244/331/337 243/334/338 250/342/335
f 252/343/339 242/333/322 246/335/321
f 246/335/321 251/344/340 252/343/339
f 251/344/341 246/335/326 248/337/325
f 248/337/325 253/345/342 251/344/341
f 254/346/343 253/347/344 248/339/334
f 248/339/334 250/342/333 254/346/343
f 255/348/345 254/346/346 250/342/335
f 250/342/335 243/334/338 255/348/345
f 255/348/347 243/334/320 242/333/320
f 242/333/320 252/343/347 255/348/347
f 259/349/348 256/350/348 257/351/349
f 257/351/349 258/352/350 259/349/348
f 261/353/351 257/351/352 256/350/353
f 256/350/353 260/354/354 261/353/351
f 263/355/355 261/353/356 260/354/357
f 260/354/357 262/356/358 263/355/355
f 263/357/359 262/358/360 264/359/361
f 264/359/362 265/360/363 263/357/364
f 265/360/365 264/359/366 259/349/367
f 259/349/367 258/352/368 265/360/369
f 267/361/370 257/351/352 261/353/351
f 261/353/351 266/362/371 267/361/370
f 266/362/372 261/353/356 263/355/355
f 263/355/355 268/363/373 266/362/372
f 269/364/374 268/365/375 263/357/364
f 263/357/364 265/360/363 269/364/374
f 270/366/376 269/364/377 265/360/369
f 265/360/369 258/352/368 270/366/376
f 270/366/378 258/352/350 257/351/349
f 257/351/349 267/361/378 270/366/378
f 274/367/379 271/368/380 272/369/381
f 272/369/381 273/370/382 274/367/379
f 271/368/383 275/371/384 276/372/385
f 276/372/385 272/369/386 271/368/383
f 275/373/387 277/374/388 278/375/389
f 278/375/389 276/376/390 275/373/387
f 277/374/391 279/377/392 280/378/393
f 280/378/393 278/375/394 277/374/391
f 280/378/395 279/377/396 274/367/396
f 274/367/396 273/370/395 280/378/395
f 255/348/347 252/343/347 280/378/395
f 280/378/395 273/370/395 255/348/347
f 280/378/393 252/343/339 251/344/340
f 251/344/340 278/375/394 280/378/393
f 278/375/389 251/344/341 253/345/342
f 253/345/342 276/376/390 278/375/389
f 253/347/344 254/346/343 272/369/386
f 272/369/386 276/372/385 253/347/344
f 254/346/346 255/348/345 273/370/382
f 273/370/382 272/369/381 254/346/346
f 274/367/379 267/361/370 266/362/371
f 266/362/371 271/368/380 274/367/379
f 271/368/383 266/362/372 268/363/373
f 268/363/373 275/371/384 271/368/383
f 268/365/375 269/364/374 277/374/388
f 277/374/388 275/373/387 268/365/375
f 269/364/377 270/366/376 279/377/392
f 279/377/392 277/374/391 269/364/377
f 270/366/378 267/361/378 274/367/396
f 274/367/396 279/377/396 270/366/378
f 284/379/318 281/380/318 282/381/320
f 282/381/320 283/382/320 284/379/318
f 286/383/397 282/381/398 281/380/399
f 281/380/399 285/384/400 286/383/397
f 288/385/325 286/383/401 285/384/327
f 285/384/327 287/386/328 288/385/325
f 288/387/334 287/388/330 289/389/331
f 289/389/332 290/390/333 288/387/334
f 290/390/402 289/389/336 284/379/337
f 284/379/337 283/382/403 290/390/404
f 292/391/339 282/381/398 286/383/397
f 286/383/397 291/392/340 292/391/339
f 291/392/341 286/383/401 288/385/325
f 288/385/325 293/393/405 291/392/341
f 294/394/406 293/395/407 288/387/334
f 288/387/334 290/390/333 294/394/406
f 295/396/345 294/394/408 290/390/404
f 290/390/404 283/382/403 295/396/345
f 295/396/409 283/382/320 282/381/320
f 282/381/320 292/391/409 295/396/409
f 299/397/348 296/398/348 297/399/350
f 297/399/350 298/400/350 299/397/348
f 301/401/410 297/399/411 296/398/353
f 296/398/353 300/402/354 301/401/410
f 303/403/355 301/401/356 300/402/357
f 300/402/357 302/404/358 303/403/355
f 303/405/364 302/406/360 304/407/361
f 304/407/362 305/408/363 303/405/364
f 305/408/369 304/407/366 299/397/367
f 299/397/367 298/400/368 305/408/369
f 307/409/370 297/399/411 301/401/410
f 301/401/410 306/410/412 307/409/370
f 306/410/413 301/401/356 303/403/355
f 303/403/355 308/411/414 306/410/413
f 309/412/374 308/413/415 303/405/364
f 303/405/364 305/408/363 309/412/374
f 310/414/376 309/412/377 305/408/369
f 305/408/369 298/400/368 310/414/376
f 310/414/378 298/400/350 297/399/350
f 297/399/350 307/409/378 310/414/378
f 314/415/379 311/416/380 312/417/381
f 312/417/381 313/418/382 314/415/379
f 311/416/416 315/419/384 316/420/385
f 316/420/385 312/417/417 311/416/416
f 315/421/387 317/422/418 318/423/419
f 318/423/419 316/424/390 315/421/387
f 317/422/420 319/425/421 320/426/422
f 320/426/422 318/423/423 317/422/420
f 320/426/395 319/425/424 314/415/424
f 314/415/424 313/418/425 320/426/395
f 295/396/409 292/391/409 320/426/395
f 320/426/395 313/418/425 295/396/409
f 320/426/422 292/391/339 291/392/340
f 291/392/340 318/423/423 320/426/422
f 318/423/419 291/392/341 293/393/405
f 293/393/405 316/424/390 318/423/419
f 293/395/407 294/394/406 312/417/417
f 312/417/417 316/420/385 293/395/407
f 294/394/408 295/396/345 313/418/382
f 313/418/382 312/417/381 294/394/408
f 314/415/379 307/409/370 306/410/412
f 306/410/412 311/416/380 314/415/379
f 311/416/416 306/410/413 308/411/414
f 308/411/414 315/419/384 311/416/416
f 308/413/415 309/412/374 317/422/418
f 317/422/418 315/421/387 308/413/415
f 309/412/377 310/414/376 319/425/421
f 319/425/421 317/422/420 309/412/377
f 310/414/378 307/409/378 314/415/424
f 314/415/424 319/425/424 310/414/378
f 185/282/269 194/281/268 193/280/264
f 193/280/264 186/279/263 185/282/269
