# Blender 5.1.2
# www.blender.org
mtllib CrossBar.mtl
o SM_Rings_Crossbar_01
v -0.047323 2.527178 0.490567
v 0.047323 2.527178 0.490567
v 0.047323 2.527179 0.383485
v -0.047323 2.527179 0.383485
v -0.047323 -0.000001 0.490565
v 0.047323 -0.000001 0.490565
v 0.047323 -0.000001 0.383485
v -0.047323 -0.000001 0.383485
v -0.047323 2.527179 -1.472686
v 0.047323 2.527179 -1.472686
v 0.047323 2.527179 -1.579768
v -0.047323 2.527179 -1.579768
v -0.047323 -0.000000 -1.472687
v 0.047323 -0.000000 -1.472687
v 0.047323 -0.000000 -1.579768
v -0.047323 -0.000000 -1.579768
v -0.047323 2.419123 -1.474571
v 0.047323 2.419123 -1.474571
v 0.047323 2.419122 0.390948
v -0.047323 2.419122 0.390948
v 0.047323 2.526204 -1.474571
v 0.047323 2.526204 0.390948
v -0.047323 2.526204 -1.474571
v -0.047323 2.526204 0.390948
v 0.008092 1.893676 -1.195401
v 0.000457 1.893676 -1.205908
v 0.000457 2.424164 -1.205908
v 0.008092 2.424164 -1.195401
v -0.011895 1.893676 -1.201895
v -0.011895 2.424164 -1.201895
v -0.011895 1.893676 -1.188907
v -0.011895 2.424164 -1.188907
v 0.000457 1.893676 -1.184893
v 0.000457 2.424164 -1.184893
v -0.002761 1.809443 -1.291947
v -0.014639 1.809443 -1.287027
v -0.014639 1.849527 -1.277878
v -0.002761 1.851662 -1.282311
v -0.019559 1.809443 -1.275149
v -0.019559 1.844374 -1.267176
v -0.014639 1.809443 -1.263271
v -0.014639 1.839220 -1.256474
v -0.002761 1.809443 -1.258351
v -0.002761 1.837085 -1.252042
v 0.009116 1.809443 -1.263271
v 0.009116 1.839220 -1.256474
v 0.014036 1.809443 -1.275149
v 0.014036 1.844374 -1.267176
v 0.009116 1.809443 -1.287027
v 0.009116 1.849527 -1.277878
v -0.014639 1.881673 -1.252242
v -0.002761 1.885519 -1.255310
v -0.019559 1.872386 -1.244837
v -0.014639 1.863100 -1.237431
v -0.002761 1.859253 -1.234364
v 0.009116 1.863100 -1.237431
v 0.014036 1.872386 -1.244837
v 0.009116 1.881673 -1.252242
v -0.014639 1.899512 -1.215199
v -0.002761 1.904309 -1.216294
v -0.019559 1.887932 -1.212556
v -0.014639 1.876352 -1.209913
v -0.002761 1.871555 -1.208818
v 0.009116 1.876352 -1.209913
v 0.014036 1.887932 -1.212556
v 0.009116 1.899512 -1.215199
v -0.014639 1.899512 -1.174083
v -0.002761 1.904309 -1.172988
v -0.019559 1.887932 -1.176726
v -0.014639 1.876352 -1.179370
v -0.002761 1.871555 -1.180464
v 0.009116 1.876352 -1.179370
v 0.014036 1.887932 -1.176726
v 0.009116 1.899512 -1.174083
v -0.014639 1.881673 -1.137040
v -0.002761 1.885519 -1.133972
v -0.019559 1.872386 -1.144446
v -0.014639 1.863100 -1.151850
v -0.002761 1.859253 -1.154918
v 0.009116 1.863100 -1.151850
v 0.014036 1.872386 -1.144446
v 0.009116 1.881673 -1.137040
v -0.014639 1.849527 -1.111405
v -0.002761 1.851662 -1.106971
v -0.019559 1.844374 -1.122105
v -0.014639 1.839220 -1.132807
v -0.002761 1.837085 -1.137240
v 0.009116 1.839220 -1.132807
v 0.014036 1.844374 -1.122105
v 0.009116 1.849527 -1.111405
v -0.014639 1.809443 -1.102256
v -0.002761 1.809443 -1.097335
v -0.019559 1.809443 -1.114133
v -0.014639 1.809443 -1.126010
v -0.002761 1.809443 -1.130931
v 0.009116 1.809443 -1.126010
v 0.014036 1.809443 -1.114133
v 0.009116 1.809443 -1.102256
v -0.014639 1.769358 -1.111405
v -0.002761 1.767223 -1.106971
v -0.019559 1.774512 -1.122105
v -0.014639 1.779665 -1.132807
v -0.002761 1.781800 -1.137240
v 0.009116 1.779665 -1.132807
v 0.014036 1.774512 -1.122105
v 0.009116 1.769358 -1.111405
v -0.014639 1.737213 -1.137040
v -0.002761 1.733366 -1.133972
v -0.019559 1.746499 -1.144446
v -0.014639 1.755785 -1.151850
v -0.002761 1.759632 -1.154918
v 0.009116 1.755785 -1.151850
v 0.014036 1.746499 -1.144446
v 0.009116 1.737213 -1.137040
v -0.014639 1.719373 -1.174083
v -0.002761 1.714577 -1.172988
v -0.019559 1.730953 -1.176726
v -0.014639 1.742533 -1.179370
v -0.002761 1.747330 -1.180464
v 0.009116 1.742533 -1.179370
v 0.014036 1.730953 -1.176726
v 0.009116 1.719373 -1.174083
v -0.014639 1.719373 -1.215199
v -0.002761 1.714577 -1.216294
v -0.019559 1.730953 -1.212556
v -0.014639 1.742533 -1.209913
v -0.002761 1.747330 -1.208818
v 0.009116 1.742533 -1.209913
v 0.014036 1.730953 -1.212556
v 0.009116 1.719373 -1.215199
v -0.014639 1.737213 -1.252242
v -0.002761 1.733366 -1.255310
v -0.019559 1.746499 -1.244837
v -0.014639 1.755785 -1.237431
v -0.002761 1.759632 -1.234364
v 0.009116 1.755785 -1.237431
v 0.014036 1.746499 -1.244837
v 0.009116 1.737213 -1.252242
v -0.014639 1.769358 -1.277878
v -0.002761 1.767223 -1.282311
v -0.019559 1.774512 -1.267176
v -0.014639 1.779665 -1.256474
v -0.002761 1.781800 -1.252042
v 0.009116 1.779665 -1.256474
v 0.014036 1.774512 -1.267176
v 0.009116 1.769358 -1.277878
v 0.008092 1.893676 -0.746707
v 0.000457 1.893676 -0.757215
v 0.000457 2.424164 -0.757215
v 0.008092 2.424164 -0.746707
v -0.011895 1.893676 -0.753202
v -0.011895 2.424164 -0.753202
v -0.011895 1.893676 -0.740213
v -0.011895 2.424164 -0.740213
v 0.000457 1.893676 -0.736200
v 0.000457 2.424164 -0.736200
v -0.002761 1.809443 -0.843253
v -0.014639 1.809443 -0.838333
v -0.014639 1.849527 -0.829184
v -0.002761 1.851662 -0.833617
v -0.019559 1.809443 -0.826456
v -0.019559 1.844374 -0.818482
v -0.014639 1.809443 -0.814577
v -0.014639 1.839220 -0.807782
v -0.002761 1.809443 -0.809658
v -0.002761 1.837085 -0.803348
v 0.009116 1.809443 -0.814577
v 0.009116 1.839220 -0.807782
v 0.014036 1.809443 -0.826456
v 0.014036 1.844374 -0.818482
v 0.009116 1.809443 -0.838333
v 0.009116 1.849527 -0.829184
v -0.014639 1.881673 -0.803549
v -0.002761 1.885519 -0.806617
v -0.019559 1.872386 -0.796143
v -0.014639 1.863100 -0.788737
v -0.002761 1.859253 -0.785670
v 0.009116 1.863100 -0.788737
v 0.014036 1.872386 -0.796143
v 0.009116 1.881673 -0.803549
v -0.014639 1.899512 -0.766505
v -0.002761 1.904309 -0.767600
v -0.019559 1.887932 -0.763862
v -0.014639 1.876352 -0.761219
v -0.002761 1.871555 -0.760124
v 0.009116 1.876352 -0.761219
v 0.014036 1.887932 -0.763862
v 0.009116 1.899512 -0.766505
v -0.014639 1.899512 -0.725389
v -0.002761 1.904309 -0.724295
v -0.019559 1.887932 -0.728033
v -0.014639 1.876352 -0.730676
v -0.002761 1.871555 -0.731771
v 0.009116 1.876352 -0.730676
v 0.014036 1.887932 -0.728033
v 0.009116 1.899512 -0.725389
v -0.014639 1.881673 -0.688346
v -0.002761 1.885519 -0.685278
v -0.019559 1.872386 -0.695752
v -0.014639 1.863100 -0.703158
v -0.002761 1.859253 -0.706224
v 0.009116 1.863100 -0.703158
v 0.014036 1.872386 -0.695752
v 0.009116 1.881673 -0.688346
v -0.014639 1.849527 -0.662711
v -0.002761 1.851662 -0.658278
v -0.019559 1.844374 -0.673413
v -0.014639 1.839220 -0.684113
v -0.002761 1.837085 -0.688546
v 0.009116 1.839220 -0.684113
v 0.014036 1.844374 -0.673413
v 0.009116 1.849527 -0.662711
v -0.014639 1.809443 -0.653562
v -0.002761 1.809443 -0.648642
v -0.019559 1.809443 -0.665439
v -0.014639 1.809443 -0.677318
v -0.002761 1.809443 -0.682237
v 0.009116 1.809443 -0.677318
v 0.014036 1.809443 -0.665439
v 0.009116 1.809443 -0.653562
v -0.014639 1.769358 -0.662711
v -0.002761 1.767223 -0.658279
v -0.019559 1.774512 -0.673413
v -0.014639 1.779665 -0.684114
v -0.002761 1.781800 -0.688546
v 0.009116 1.779665 -0.684114
v 0.014036 1.774512 -0.673413
v 0.009116 1.769358 -0.662711
v -0.014639 1.737213 -0.688346
v -0.002761 1.733366 -0.685278
v -0.019559 1.746499 -0.695752
v -0.014639 1.755785 -0.703158
v -0.002761 1.759632 -0.706224
v 0.009116 1.755785 -0.703158
v 0.014036 1.746499 -0.695752
v 0.009116 1.737213 -0.688346
v -0.014639 1.719373 -0.725389
v -0.002761 1.714577 -0.724295
v -0.019559 1.730953 -0.728033
v -0.014639 1.742533 -0.730676
v -0.002761 1.747330 -0.731771
v 0.009116 1.742533 -0.730676
v 0.014036 1.730953 -0.728033
v 0.009116 1.719373 -0.725389
v -0.014639 1.719373 -0.766505
v -0.002761 1.714577 -0.767600
v -0.019559 1.730953 -0.763862
v -0.014639 1.742533 -0.761219
v -0.002761 1.747330 -0.760124
v 0.009116 1.742533 -0.761219
v 0.014036 1.730953 -0.763862
v 0.009116 1.719373 -0.766505
v -0.014639 1.737213 -0.803548
v -0.002761 1.733366 -0.806617
v -0.019559 1.746499 -0.796144
v -0.014639 1.755785 -0.788738
v -0.002761 1.759632 -0.785670
v 0.009116 1.755785 -0.788738
v 0.014036 1.746499 -0.796144
v 0.009116 1.737213 -0.803548
v -0.014639 1.769358 -0.829184
v -0.002761 1.767223 -0.833617
v -0.019559 1.774512 -0.818482
v -0.014639 1.779665 -0.807782
v -0.002761 1.781800 -0.803348
v 0.009116 1.779665 -0.807782
v 0.014036 1.774512 -0.818482
v 0.009116 1.769358 -0.829184
v 0.008092 1.498221 -0.298453
v 0.000457 1.498221 -0.308961
v 0.000457 2.424163 -0.308961
v 0.008092 2.424163 -0.298453
v -0.011895 1.498221 -0.304947
v -0.011895 2.424163 -0.304947
v -0.011895 1.498221 -0.291959
v -0.011895 2.424163 -0.291959
v 0.000457 1.498221 -0.287945
v 0.000457 2.424163 -0.287945
v -0.002761 1.413988 -0.395000
v -0.014639 1.413988 -0.390079
v -0.014639 1.454072 -0.380930
v -0.002761 1.456207 -0.385364
v -0.019559 1.413988 -0.378202
v -0.019559 1.448919 -0.370229
v -0.014639 1.413988 -0.366324
v -0.014639 1.443765 -0.359527
v -0.002761 1.413988 -0.361404
v -0.002761 1.441630 -0.355095
v 0.009116 1.413988 -0.366324
v 0.009116 1.443765 -0.359527
v 0.014036 1.413988 -0.378202
v 0.014036 1.448919 -0.370229
v 0.009116 1.413988 -0.390079
v 0.009116 1.454072 -0.380930
v -0.014639 1.486218 -0.355295
v -0.002761 1.490064 -0.358363
v -0.019559 1.476931 -0.347889
v -0.014639 1.467644 -0.340484
v -0.002761 1.463798 -0.337417
v 0.009116 1.467644 -0.340484
v 0.014036 1.476931 -0.347889
v 0.009116 1.486218 -0.355295
v -0.014639 1.504057 -0.318252
v -0.002761 1.508854 -0.319347
v -0.019559 1.492477 -0.315609
v -0.014639 1.480897 -0.312965
v -0.002761 1.476101 -0.311871
v 0.009116 1.480897 -0.312965
v 0.014036 1.492477 -0.315609
v 0.009116 1.504057 -0.318252
v -0.014639 1.504057 -0.277136
v -0.002761 1.508854 -0.276041
v -0.019559 1.492477 -0.279779
v -0.014639 1.480897 -0.282422
v -0.002761 1.476101 -0.283517
v 0.009116 1.480897 -0.282422
v 0.014036 1.492477 -0.279779
v 0.009116 1.504057 -0.277136
v -0.014639 1.486218 -0.240093
v -0.002761 1.490064 -0.237025
v -0.019559 1.476931 -0.247497
v -0.014639 1.467644 -0.254903
v -0.002761 1.463798 -0.257971
v 0.009116 1.467644 -0.254903
v 0.014036 1.476931 -0.247497
v 0.009116 1.486218 -0.240093
v -0.014639 1.454072 -0.214457
v -0.002761 1.456206 -0.210024
v -0.019559 1.448919 -0.225158
v -0.014639 1.443765 -0.235860
v -0.002761 1.441630 -0.240293
v 0.009116 1.443765 -0.235860
v 0.014036 1.448919 -0.225158
v 0.009116 1.454072 -0.214457
v -0.014639 1.413988 -0.205309
v -0.002761 1.413988 -0.200388
v -0.019559 1.413988 -0.217186
v -0.014639 1.413988 -0.229064
v -0.002761 1.413988 -0.233983
v 0.009116 1.413988 -0.229064
v 0.014036 1.413988 -0.217186
v 0.009116 1.413988 -0.205309
v -0.014639 1.373903 -0.214457
v -0.002761 1.371767 -0.210024
v -0.019559 1.379057 -0.225158
v -0.014639 1.384210 -0.235860
v -0.002761 1.386345 -0.240293
v 0.009116 1.384210 -0.235860
v 0.014036 1.379057 -0.225158
v 0.009116 1.373903 -0.214457
v -0.014639 1.341758 -0.240093
v -0.002761 1.337911 -0.237025
v -0.019559 1.351044 -0.247497
v -0.014639 1.360331 -0.254903
v -0.002761 1.364176 -0.257971
v 0.009116 1.360331 -0.254903
v 0.014036 1.351044 -0.247497
v 0.009116 1.341758 -0.240093
v -0.014639 1.323918 -0.277136
v -0.002761 1.319121 -0.276041
v -0.019559 1.335498 -0.279779
v -0.014639 1.347078 -0.282422
v -0.002761 1.351875 -0.283517
v 0.009116 1.347078 -0.282422
v 0.014036 1.335498 -0.279779
v 0.009116 1.323918 -0.277136
v -0.014639 1.323918 -0.318252
v -0.002761 1.319121 -0.319347
v -0.019559 1.335498 -0.315609
v -0.014639 1.347078 -0.312965
v -0.002761 1.351875 -0.311871
v 0.009116 1.347078 -0.312965
v 0.014036 1.335498 -0.315609
v 0.009116 1.323918 -0.318252
v -0.014639 1.341758 -0.355295
v -0.002761 1.337911 -0.358363
v -0.019559 1.351044 -0.347889
v -0.014639 1.360331 -0.340484
v -0.002761 1.364176 -0.337417
v 0.009116 1.360331 -0.340484
v 0.014036 1.351044 -0.347889
v 0.009116 1.341758 -0.355295
v -0.014639 1.373903 -0.380930
v -0.002761 1.371768 -0.385364
v -0.019559 1.379057 -0.370229
v -0.014639 1.384210 -0.359527
v -0.002761 1.386345 -0.355095
v 0.009116 1.384210 -0.359527
v 0.014036 1.379057 -0.370229
v 0.009116 1.373903 -0.380930
v 0.008092 1.498220 0.139038
v 0.000457 1.498220 0.128530
v 0.000457 2.424163 0.128531
v 0.008092 2.424163 0.139038
v -0.011895 1.498220 0.132544
v -0.011895 2.424163 0.132544
v -0.011895 1.498220 0.145532
v -0.011895 2.424163 0.145533
v 0.000457 1.498220 0.149546
v 0.000457 2.424163 0.149546
v -0.002761 1.413988 0.042493
v -0.014639 1.413988 0.047412
v -0.014639 1.454072 0.056561
v -0.002761 1.456206 0.052129
v -0.019559 1.413988 0.059290
v -0.019559 1.448919 0.067263
v -0.014639 1.413988 0.071168
v -0.014639 1.443764 0.077964
v -0.002761 1.413988 0.076088
v -0.002761 1.441630 0.082398
v 0.009116 1.413988 0.071168
v 0.009116 1.443764 0.077964
v 0.014036 1.413988 0.059290
v 0.014036 1.448919 0.067263
v 0.009116 1.413988 0.047412
v 0.009116 1.454072 0.056561
v -0.014639 1.486217 0.082196
v -0.002761 1.490063 0.079129
v -0.019559 1.476930 0.089602
v -0.014639 1.467644 0.097008
v -0.002761 1.463798 0.100076
v 0.009116 1.467644 0.097008
v 0.014036 1.476930 0.089602
v 0.009116 1.486217 0.082196
v -0.014639 1.504057 0.119241
v -0.002761 1.508854 0.118146
v -0.019559 1.492476 0.121884
v -0.014639 1.480897 0.124527
v -0.002761 1.476101 0.125622
v 0.009116 1.480897 0.124527
v 0.014036 1.492476 0.121884
v 0.009116 1.504057 0.119241
v -0.014639 1.504057 0.160355
v -0.002761 1.508854 0.161450
v -0.019559 1.492476 0.157713
v -0.014639 1.480897 0.155070
v -0.002761 1.476101 0.153975
v 0.009116 1.480897 0.155070
v 0.014036 1.492476 0.157713
v 0.009116 1.504057 0.160355
v -0.014639 1.486217 0.197400
v -0.002761 1.490063 0.200468
v -0.019559 1.476930 0.189994
v -0.014639 1.467644 0.182588
v -0.002761 1.463798 0.179520
v 0.009116 1.467644 0.182588
v 0.014036 1.476930 0.189994
v 0.009116 1.486217 0.197400
v -0.014639 1.454071 0.223035
v -0.002761 1.456206 0.227467
v -0.019559 1.448918 0.212333
v -0.014639 1.443764 0.201632
v -0.002761 1.441630 0.197199
v 0.009116 1.443764 0.201632
v 0.014036 1.448918 0.212333
v 0.009116 1.454071 0.223035
v -0.014639 1.413987 0.232184
v -0.002761 1.413987 0.237103
v -0.019559 1.413987 0.220307
v -0.014639 1.413988 0.208428
v -0.002761 1.413988 0.203509
v 0.009116 1.413988 0.208428
v 0.014036 1.413987 0.220307
v 0.009116 1.413987 0.232184
v -0.014639 1.373902 0.223035
v -0.002761 1.371767 0.227467
v -0.019559 1.379056 0.212333
v -0.014639 1.384210 0.201632
v -0.002761 1.386345 0.197199
v 0.009116 1.384210 0.201632
v 0.014036 1.379056 0.212333
v 0.009116 1.373902 0.223035
v -0.014639 1.341758 0.197400
v -0.002761 1.337911 0.200468
v -0.019559 1.351043 0.189994
v -0.014639 1.360330 0.182588
v -0.002761 1.364176 0.179520
v 0.009116 1.360330 0.182588
v 0.014036 1.351043 0.189994
v 0.009116 1.341758 0.197400
v -0.014639 1.323918 0.160355
v -0.002761 1.319121 0.161450
v -0.019559 1.335498 0.157713
v -0.014639 1.347078 0.155070
v -0.002761 1.351874 0.153975
v 0.009116 1.347078 0.155070
v 0.014036 1.335498 0.157713
v 0.009116 1.323918 0.160355
v -0.014639 1.323918 0.119241
v -0.002761 1.319121 0.118146
v -0.019559 1.335498 0.121884
v -0.014639 1.347078 0.124527
v -0.002761 1.351874 0.125622
v 0.009116 1.347078 0.124527
v 0.014036 1.335498 0.121884
v 0.009116 1.323918 0.119241
v -0.014639 1.341758 0.082196
v -0.002761 1.337911 0.079129
v -0.019559 1.351043 0.089602
v -0.014639 1.360330 0.097008
v -0.002761 1.364176 0.100076
v 0.009116 1.360330 0.097008
v 0.014036 1.351043 0.089602
v 0.009116 1.341758 0.082196
v -0.014639 1.373903 0.056561
v -0.002761 1.371767 0.052129
v -0.019559 1.379057 0.067263
v -0.014639 1.384210 0.077964
v -0.002761 1.386345 0.082398
v 0.009116 1.384210 0.077964
v 0.014036 1.379057 0.067263
v 0.009116 1.373903 0.056561
v -0.047323 1.999998 1.579768
v 0.047323 1.999998 1.579768
v 0.047323 1.999998 1.472687
v -0.047323 1.999998 1.472687
v -0.047323 -0.000001 1.579768
v 0.047323 -0.000001 1.579768
v 0.047323 -0.000001 1.472687
v -0.047323 -0.000001 1.472687
v -0.002761 1.922899 0.475799
v -0.018088 1.916710 0.475926
v -0.018088 1.916710 1.491878
v -0.002761 1.922899 1.491890
v -0.024436 1.901768 0.476233
v -0.024436 1.901768 1.491850
v -0.018088 1.886827 0.476541
v -0.018088 1.886826 1.491820
v -0.002761 1.880638 0.476669
v -0.002761 1.880637 1.491808
v 0.012565 1.886827 0.476541
v 0.012565 1.886826 1.491820
v 0.018913 1.901768 0.476233
v 0.018913 1.901768 1.491850
v 0.012565 1.916710 0.475926
v 0.012565 1.916710 1.491878
vn -0.0000 1.0000 -0.0000
vn -0.0000 -0.0000 1.0000
vn 1.0000 -0.0000 -0.0000
vn -0.0000 -0.0000 -1.0000
vn -1.0000 -0.0000 -0.0000
vn -0.0000 -1.0000 -0.0000
vn 0.3090 -0.0000 -0.9511
vn -0.8090 -0.0000 -0.5878
vn -0.8090 -0.0000 0.5878
vn 0.3090 -0.0000 0.9511
vn -0.6809 -0.0000 -0.7324
vn -0.6809 0.3178 -0.6598
vn -0.0000 0.4339 -0.9010
vn -0.9239 -0.0000 -0.3827
vn -0.9239 0.1660 -0.3448
vn -0.7353 -0.0000 0.6777
vn -0.7353 -0.2940 0.6106
vn -0.9239 -0.1660 0.3448
vn -0.9239 -0.0000 0.3827
vn -0.0000 -0.4339 0.9010
vn 0.7353 -0.0000 0.6777
vn 0.7353 -0.2940 0.6106
vn 0.9239 -0.0000 0.3827
vn 0.9239 -0.1660 0.3448
vn 0.6809 -0.0000 -0.7324
vn 0.6809 0.3178 -0.6598
vn 0.9239 0.1660 -0.3448
vn 0.9239 -0.0000 -0.3827
vn -0.6809 0.5726 -0.4566
vn -0.0000 0.7818 -0.6235
vn -0.9239 0.2992 -0.2386
vn -0.7353 -0.5298 0.4225
vn -0.9239 -0.2992 0.2386
vn -0.0000 -0.7818 0.6235
vn 0.7353 -0.5298 0.4225
vn 0.9239 -0.2992 0.2386
vn 0.6809 0.5726 -0.4566
vn 0.9239 0.2992 -0.2386
vn -0.6809 0.7140 -0.1630
vn -0.0000 0.9749 -0.2225
vn -0.9239 0.3731 -0.0852
vn -0.7353 -0.6607 0.1508
vn -0.9239 -0.3731 0.0852
vn -0.0000 -0.9749 0.2225
vn 0.7353 -0.6607 0.1508
vn 0.9239 -0.3731 0.0852
vn 0.6809 0.7140 -0.1630
vn 0.9239 0.3731 -0.0852
vn -0.6809 0.7140 0.1630
vn -0.0000 0.9749 0.2225
vn -0.9239 0.3731 0.0852
vn -0.7353 -0.6607 -0.1508
vn -0.9239 -0.3731 -0.0852
vn -0.0000 -0.9749 -0.2225
vn 0.7353 -0.6607 -0.1508
vn 0.9239 -0.3731 -0.0852
vn 0.6809 0.7140 0.1630
vn 0.9239 0.3731 0.0852
vn -0.6809 0.5726 0.4566
vn -0.0000 0.7818 0.6235
vn -0.9239 0.2992 0.2386
vn -0.7353 -0.5299 -0.4225
vn -0.9239 -0.2992 -0.2386
vn -0.0000 -0.7818 -0.6235
vn 0.7353 -0.5298 -0.4225
vn 0.9239 -0.2992 -0.2386
vn 0.6809 0.5726 0.4566
vn 0.9239 0.2992 0.2386
vn -0.6809 0.3178 0.6598
vn -0.0000 0.4339 0.9010
vn -0.9239 0.1660 0.3448
vn -0.7353 -0.2940 -0.6106
vn -0.9239 -0.1660 -0.3448
vn -0.0000 -0.4339 -0.9010
vn 0.7353 -0.2940 -0.6106
vn 0.9239 -0.1660 -0.3448
vn 0.6809 0.3178 0.6598
vn 0.9239 0.1660 0.3448
vn -0.6809 -0.0000 0.7324
vn -0.7353 -0.0000 -0.6777
vn 0.7353 -0.0000 -0.6777
vn 0.6809 -0.0000 0.7323
vn -0.6809 -0.3178 0.6598
vn -0.7353 0.2940 -0.6106
vn 0.7353 0.2940 -0.6106
vn 0.6809 -0.3178 0.6598
vn -0.6809 -0.5726 0.4566
vn -0.7353 0.5299 -0.4225
vn 0.7353 0.5298 -0.4225
vn 0.6809 -0.5726 0.4566
vn -0.6809 -0.7140 0.1630
vn -0.7353 0.6607 -0.1508
vn 0.7353 0.6607 -0.1508
vn 0.6809 -0.7140 0.1630
vn -0.6809 -0.7140 -0.1630
vn -0.7353 0.6607 0.1508
vn 0.7353 0.6607 0.1508
vn 0.6809 -0.7140 -0.1630
vn -0.6809 -0.5726 -0.4566
vn -0.7353 0.5299 0.4225
vn 0.7353 0.5298 0.4225
vn 0.6809 -0.5726 -0.4566
vn -0.6809 -0.3178 -0.6598
vn -0.7353 0.2940 0.6106
vn 0.7353 0.2940 0.6106
vn 0.6809 -0.3178 -0.6598
vn 0.7354 -0.2940 0.6106
vn -0.7353 -0.5299 0.4225
vn 0.9239 0.3731 0.0851
vn 0.7353 -0.5299 -0.4225
vn -0.7353 -0.2941 -0.6106
vn -0.9239 -0.1661 -0.3448
vn 0.6809 -0.0000 0.7324
vn -0.7353 0.2941 -0.6106
vn 0.7353 0.5299 -0.4225
vn -0.9239 0.1661 -0.3448
vn 0.6809 -0.0000 -0.7323
vn -0.7353 -0.5299 0.4226
vn 0.7353 -0.5299 0.4225
vn -0.7353 -0.5299 -0.4226
vn -0.7353 0.5299 -0.4226
vn -0.7353 0.5299 0.4226
vn -0.7353 0.2941 0.6106
vn -0.9239 -0.1661 0.3448
vn 0.7353 0.5299 0.4225
vn -0.6982 0.7159 -0.0000
vn -0.7005 0.7137 -0.0000
vn -0.9204 0.3910 -0.0000
vn -0.7032 -0.7110 -0.0000
vn -0.7010 -0.7132 -0.0000
vn -0.9204 -0.3910 -0.0000
vn 0.7032 -0.7110 -0.0000
vn 0.7010 -0.7132 -0.0000
vn 0.9204 -0.3910 -0.0000
vn 0.6982 0.7159 -0.0000
vn 0.7005 0.7137 -0.0000
vn 0.9204 0.3910 -0.0000
vt 0.965066 0.607573
vt 0.965066 0.604399
vt 0.967871 0.604399
vt 0.967871 0.607573
vt 0.973283 0.603369
vt 0.898380 0.603369
vt 0.898380 0.600564
vt 0.973283 0.600564
vt 0.890163 0.604399
vt 0.890163 0.607573
vt 0.973283 0.597390
vt 0.898380 0.597390
vt 0.898380 0.594585
vt 0.973283 0.594585
vt 0.965066 0.527458
vt 0.965066 0.524284
vt 0.967871 0.524284
vt 0.967871 0.527458
vt 0.973283 0.537177
vt 0.898380 0.537177
vt 0.898380 0.534372
vt 0.973283 0.534372
vt 0.890163 0.524284
vt 0.890163 0.527458
vt 0.973283 0.531198
vt 0.898380 0.531198
vt 0.898380 0.528393
vt 0.973283 0.528393
vt 0.970161 0.538207
vt 0.970161 0.593499
vt 0.967356 0.593499
vt 0.967356 0.538207
vt 0.973335 0.538207
vt 0.973335 0.593499
vt 0.964182 0.538207
vt 0.964182 0.593499
vt 0.961377 0.593499
vt 0.961377 0.538207
vt 0.851068 0.800589
vt 0.835345 0.800589
vt 0.835345 0.800205
vt 0.851068 0.800205
vt 0.851068 0.800974
vt 0.835345 0.800974
vt 0.851068 0.801359
vt 0.835345 0.801359
vt 0.851068 0.801744
vt 0.835345 0.801744
vt 0.835345 0.799820
vt 0.851068 0.799820
vt 0.316355 0.691294
vt 0.316355 0.692381
vt 0.315974 0.692381
vt 0.315974 0.691294
vt 0.316736 0.691294
vt 0.316736 0.692381
vt 0.317117 0.691294
vt 0.317117 0.692381
vt 0.317498 0.691294
vt 0.317498 0.692381
vt 0.317879 0.691294
vt 0.317879 0.692381
vt 0.318260 0.691294
vt 0.318260 0.692381
vt 0.318641 0.691294
vt 0.318641 0.692381
vt 0.319022 0.691294
vt 0.319022 0.692381
vt 0.316355 0.693467
vt 0.315974 0.693467
vt 0.316736 0.693467
vt 0.317117 0.693467
vt 0.317498 0.693467
vt 0.317879 0.693467
vt 0.318260 0.693467
vt 0.318641 0.693467
vt 0.319022 0.693467
vt 0.316355 0.694554
vt 0.315974 0.694554
vt 0.316736 0.694554
vt 0.317117 0.694554
vt 0.317498 0.694554
vt 0.317879 0.694554
vt 0.318260 0.694554
vt 0.318641 0.694554
vt 0.319022 0.694554
vt 0.316355 0.695640
vt 0.315974 0.695640
vt 0.316736 0.695640
vt 0.317117 0.695640
vt 0.317498 0.695640
vt 0.317879 0.695640
vt 0.318260 0.695640
vt 0.318641 0.695640
vt 0.319022 0.695640
vt 0.316355 0.680429
vt 0.316355 0.681515
vt 0.315974 0.681515
vt 0.315974 0.680429
vt 0.316736 0.680429
vt 0.316736 0.681515
vt 0.317117 0.680429
vt 0.317117 0.681515
vt 0.317498 0.680429
vt 0.317498 0.681515
vt 0.317879 0.680429
vt 0.317879 0.681515
vt 0.318260 0.680429
vt 0.318260 0.681515
vt 0.318641 0.680429
vt 0.318641 0.681515
vt 0.319022 0.680429
vt 0.319022 0.681515
vt 0.316355 0.682602
vt 0.315974 0.682602
vt 0.316736 0.682602
vt 0.317117 0.682602
vt 0.317498 0.682602
vt 0.317879 0.682602
vt 0.318260 0.682602
vt 0.318641 0.682602
vt 0.319022 0.682602
vt 0.316355 0.683688
vt 0.315974 0.683688
vt 0.316736 0.683688
vt 0.317117 0.683688
vt 0.317498 0.683688
vt 0.317879 0.683688
vt 0.318260 0.683688
vt 0.318641 0.683688
vt 0.319022 0.683688
vt 0.316355 0.684775
vt 0.315974 0.684775
vt 0.316736 0.684775
vt 0.317117 0.684775
vt 0.317498 0.684775
vt 0.317879 0.684775
vt 0.318260 0.684775
vt 0.318641 0.684775
vt 0.319022 0.684775
vt 0.316355 0.685861
vt 0.315974 0.685861
vt 0.316736 0.685861
vt 0.317117 0.685861
vt 0.317498 0.685861
vt 0.317879 0.685861
vt 0.318260 0.685861
vt 0.318641 0.685861
vt 0.319022 0.685861
vt 0.316355 0.686948
vt 0.315974 0.686948
vt 0.316736 0.686948
vt 0.317117 0.686948
vt 0.317498 0.686948
vt 0.317879 0.686948
vt 0.318260 0.686948
vt 0.318641 0.686948
vt 0.319022 0.686948
vt 0.316355 0.688034
vt 0.315974 0.688034
vt 0.316736 0.688034
vt 0.317117 0.688034
vt 0.317498 0.688034
vt 0.317879 0.688034
vt 0.318260 0.688034
vt 0.318641 0.688034
vt 0.319022 0.688034
vt 0.316355 0.689121
vt 0.315974 0.689121
vt 0.316736 0.689121
vt 0.317117 0.689121
vt 0.317498 0.689121
vt 0.317879 0.689121
vt 0.318260 0.689121
vt 0.318641 0.689121
vt 0.319022 0.689121
vt 0.316355 0.690207
vt 0.315974 0.690207
vt 0.316736 0.690207
vt 0.317117 0.690207
vt 0.317498 0.690207
vt 0.317879 0.690207
vt 0.318260 0.690207
vt 0.318641 0.690207
vt 0.319022 0.690207
vt 0.846047 0.840077
vt 0.830324 0.840077
vt 0.830324 0.839692
vt 0.846047 0.839692
vt 0.846047 0.840461
vt 0.830324 0.840461
vt 0.846047 0.840846
vt 0.830324 0.840846
vt 0.846047 0.841231
vt 0.830324 0.841231
vt 0.830324 0.839307
vt 0.846047 0.839307
vt 0.033610 0.674921
vt 0.032523 0.674921
vt 0.032523 0.674540
vt 0.033610 0.674540
vt 0.033610 0.675302
vt 0.032523 0.675302
vt 0.033610 0.675683
vt 0.032523 0.675683
vt 0.033610 0.676064
vt 0.032523 0.676064
vt 0.033610 0.676445
vt 0.032523 0.676445
vt 0.033610 0.676826
vt 0.032523 0.676826
vt 0.033610 0.677207
vt 0.032523 0.677207
vt 0.033610 0.677588
vt 0.032523 0.677588
vt 0.031437 0.674921
vt 0.031437 0.674540
vt 0.031437 0.675302
vt 0.031437 0.675683
vt 0.031437 0.676064
vt 0.031437 0.676445
vt 0.031437 0.676826
vt 0.031437 0.677207
vt 0.031437 0.677588
vt 0.030350 0.674921
vt 0.030350 0.674540
vt 0.030350 0.675302
vt 0.030350 0.675683
vt 0.030350 0.676064
vt 0.030350 0.676445
vt 0.030350 0.676826
vt 0.030350 0.677207
vt 0.030350 0.677588
vt 0.029264 0.674921
vt 0.029264 0.674540
vt 0.029264 0.675302
vt 0.029264 0.675683
vt 0.029264 0.676064
vt 0.029264 0.676445
vt 0.029264 0.676826
vt 0.029264 0.677207
vt 0.029264 0.677588
vt 0.044475 0.674921
vt 0.043389 0.674921
vt 0.043389 0.674540
vt 0.044475 0.674540
vt 0.044475 0.675302
vt 0.043389 0.675302
vt 0.044475 0.675683
vt 0.043389 0.675683
vt 0.044475 0.676064
vt 0.043389 0.676064
vt 0.044475 0.676445
vt 0.043389 0.676445
vt 0.044475 0.676826
vt 0.043389 0.676826
vt 0.044475 0.677207
vt 0.043389 0.677207
vt 0.044475 0.677588
vt 0.043389 0.677588
vt 0.042302 0.674921
vt 0.042302 0.674540
vt 0.042302 0.675302
vt 0.042302 0.675683
vt 0.042302 0.676064
vt 0.042302 0.676445
vt 0.042302 0.676826
vt 0.042302 0.677207
vt 0.042302 0.677588
vt 0.041216 0.674921
vt 0.041216 0.674540
vt 0.041216 0.675302
vt 0.041216 0.675683
vt 0.041216 0.676064
vt 0.041216 0.676445
vt 0.041216 0.676826
vt 0.041216 0.677207
vt 0.041216 0.677588
vt 0.040129 0.674921
vt 0.040129 0.674540
vt 0.040129 0.675302
vt 0.040129 0.675683
vt 0.040129 0.676064
vt 0.040129 0.676445
vt 0.040129 0.676826
vt 0.040129 0.677207
vt 0.040129 0.677588
vt 0.039043 0.674921
vt 0.039043 0.674540
vt 0.039043 0.675302
vt 0.039043 0.675683
vt 0.039043 0.676064
vt 0.039043 0.676445
vt 0.039043 0.676826
vt 0.039043 0.677207
vt 0.039043 0.677588
vt 0.037956 0.674921
vt 0.037956 0.674540
vt 0.037956 0.675302
vt 0.037956 0.675683
vt 0.037956 0.676064
vt 0.037956 0.676445
vt 0.037956 0.676826
vt 0.037956 0.677207
vt 0.037956 0.677588
vt 0.036870 0.674921
vt 0.036870 0.674540
vt 0.036870 0.675302
vt 0.036870 0.675683
vt 0.036870 0.676064
vt 0.036870 0.676445
vt 0.036870 0.676826
vt 0.036870 0.677207
vt 0.036870 0.677588
vt 0.035783 0.674921
vt 0.035783 0.674540
vt 0.035783 0.675302
vt 0.035783 0.675683
vt 0.035783 0.676064
vt 0.035783 0.676445
vt 0.035783 0.676826
vt 0.035783 0.677207
vt 0.035783 0.677588
vt 0.034696 0.674921
vt 0.034696 0.674540
vt 0.034696 0.675302
vt 0.034696 0.675683
vt 0.034696 0.676064
vt 0.034696 0.676445
vt 0.034696 0.676826
vt 0.034696 0.677207
vt 0.034696 0.677588
vt 0.808238 0.839692
vt 0.780794 0.839692
vt 0.780794 0.839307
vt 0.808238 0.839307
vt 0.808238 0.840077
vt 0.780794 0.840077
vt 0.808238 0.840461
vt 0.780794 0.840461
vt 0.808238 0.840846
vt 0.780794 0.840846
vt 0.808238 0.841231
vt 0.780794 0.841231
vt 0.153956 0.960969
vt 0.152869 0.960969
vt 0.152869 0.960588
vt 0.153956 0.960588
vt 0.153956 0.961350
vt 0.152869 0.961350
vt 0.153956 0.961731
vt 0.152869 0.961731
vt 0.153956 0.962112
vt 0.152869 0.962112
vt 0.153956 0.962493
vt 0.152869 0.962493
vt 0.153956 0.962874
vt 0.152869 0.962874
vt 0.153956 0.963255
vt 0.152869 0.963255
vt 0.153956 0.963636
vt 0.152869 0.963636
vt 0.151783 0.960969
vt 0.151783 0.960588
vt 0.151783 0.961350
vt 0.151783 0.961731
vt 0.151783 0.962112
vt 0.151783 0.962493
vt 0.151783 0.962874
vt 0.151783 0.963255
vt 0.151783 0.963636
vt 0.150696 0.960969
vt 0.150696 0.960588
vt 0.150696 0.961350
vt 0.150696 0.961731
vt 0.150696 0.962112
vt 0.150696 0.962493
vt 0.150696 0.962874
vt 0.150696 0.963255
vt 0.150696 0.963636
vt 0.149609 0.960969
vt 0.149609 0.960588
vt 0.149609 0.961350
vt 0.149609 0.961731
vt 0.149609 0.962112
vt 0.149609 0.962493
vt 0.149609 0.962874
vt 0.149609 0.963255
vt 0.149609 0.963636
vt 0.164821 0.960969
vt 0.163735 0.960969
vt 0.163735 0.960588
vt 0.164821 0.960588
vt 0.164821 0.961350
vt 0.163735 0.961350
vt 0.164821 0.961731
vt 0.163735 0.961731
vt 0.164821 0.962112
vt 0.163735 0.962112
vt 0.164821 0.962493
vt 0.163735 0.962493
vt 0.164821 0.962874
vt 0.163735 0.962874
vt 0.164821 0.963255
vt 0.163735 0.963255
vt 0.164821 0.963636
vt 0.163735 0.963636
vt 0.162648 0.960969
vt 0.162648 0.960588
vt 0.162648 0.961350
vt 0.162648 0.961731
vt 0.162648 0.962112
vt 0.162648 0.962493
vt 0.162648 0.962874
vt 0.162648 0.963255
vt 0.162648 0.963636
vt 0.161562 0.960969
vt 0.161562 0.960588
vt 0.161562 0.961350
vt 0.161562 0.961731
vt 0.161562 0.962112
vt 0.161562 0.962493
vt 0.161562 0.962874
vt 0.161562 0.963255
vt 0.161562 0.963636
vt 0.160475 0.960969
vt 0.160475 0.960588
vt 0.160475 0.961350
vt 0.160475 0.961731
vt 0.160475 0.962112
vt 0.160475 0.962493
vt 0.160475 0.962874
vt 0.160475 0.963255
vt 0.160475 0.963636
vt 0.159388 0.960969
vt 0.159388 0.960588
vt 0.159388 0.961350
vt 0.159388 0.961731
vt 0.159388 0.962112
vt 0.159388 0.962493
vt 0.159388 0.962874
vt 0.159388 0.963255
vt 0.159388 0.963636
vt 0.158302 0.960969
vt 0.158302 0.960588
vt 0.158302 0.961350
vt 0.158302 0.961731
vt 0.158302 0.962112
vt 0.158302 0.962493
vt 0.158302 0.962874
vt 0.158302 0.963255
vt 0.158302 0.963636
vt 0.157215 0.960969
vt 0.157215 0.960588
vt 0.157215 0.961350
vt 0.157215 0.961731
vt 0.157215 0.962112
vt 0.157215 0.962493
vt 0.157215 0.962874
vt 0.157215 0.963255
vt 0.157215 0.963636
vt 0.156129 0.960969
vt 0.156129 0.960588
vt 0.156129 0.961350
vt 0.156129 0.961731
vt 0.156129 0.962112
vt 0.156129 0.962493
vt 0.156129 0.962874
vt 0.156129 0.963255
vt 0.156129 0.963636
vt 0.155042 0.960969
vt 0.155042 0.960588
vt 0.155042 0.961350
vt 0.155042 0.961731
vt 0.155042 0.962112
vt 0.155042 0.962493
vt 0.155042 0.962874
vt 0.155042 0.963255
vt 0.155042 0.963636
vt 0.808238 0.801744
vt 0.780794 0.801744
vt 0.780794 0.801359
vt 0.808238 0.801359
vt 0.808238 0.800205
vt 0.780794 0.800205
vt 0.780794 0.799820
vt 0.808238 0.799820
vt 0.808238 0.800589
vt 0.780794 0.800589
vt 0.808238 0.800974
vt 0.780794 0.800974
vt 0.934363 0.934740
vt 0.933276 0.934740
vt 0.933276 0.934359
vt 0.934363 0.934359
vt 0.934363 0.935121
vt 0.933276 0.935121
vt 0.934363 0.935502
vt 0.933276 0.935502
vt 0.934363 0.935883
vt 0.933276 0.935883
vt 0.934363 0.936264
vt 0.933276 0.936264
vt 0.934363 0.936645
vt 0.933276 0.936645
vt 0.934363 0.937026
vt 0.933276 0.937026
vt 0.934363 0.937407
vt 0.933276 0.937407
vt 0.932190 0.934740
vt 0.932190 0.934359
vt 0.932190 0.935121
vt 0.932190 0.935502
vt 0.932190 0.935883
vt 0.932190 0.936264
vt 0.932190 0.936645
vt 0.932190 0.937026
vt 0.932190 0.937407
vt 0.931103 0.934740
vt 0.931103 0.934359
vt 0.931103 0.935121
vt 0.931103 0.935502
vt 0.931103 0.935883
vt 0.931103 0.936264
vt 0.931103 0.936645
vt 0.931103 0.937026
vt 0.931103 0.937407
vt 0.930017 0.934740
vt 0.930017 0.934359
vt 0.930017 0.935121
vt 0.930017 0.935502
vt 0.930017 0.935883
vt 0.930017 0.936264
vt 0.930017 0.936645
vt 0.930017 0.937026
vt 0.930017 0.937407
vt 0.945228 0.934740
vt 0.944142 0.934740
vt 0.944142 0.934359
vt 0.945228 0.934359
vt 0.945228 0.935121
vt 0.944142 0.935121
vt 0.945228 0.935502
vt 0.944142 0.935502
vt 0.945228 0.935883
vt 0.944142 0.935883
vt 0.945228 0.936264
vt 0.944142 0.936264
vt 0.945228 0.936645
vt 0.944142 0.936645
vt 0.945228 0.937026
vt 0.944142 0.937026
vt 0.945228 0.937407
vt 0.944142 0.937407
vt 0.943055 0.934740
vt 0.943055 0.934359
vt 0.943055 0.935121
vt 0.943055 0.935502
vt 0.943055 0.935883
vt 0.943055 0.936264
vt 0.943055 0.936645
vt 0.943055 0.937026
vt 0.943055 0.937407
vt 0.941969 0.934740
vt 0.941969 0.934359
vt 0.941969 0.935121
vt 0.941969 0.935502
vt 0.941969 0.935883
vt 0.941969 0.936264
vt 0.941969 0.936645
vt 0.941969 0.937026
vt 0.941969 0.937407
vt 0.940882 0.934740
vt 0.940882 0.934359
vt 0.940882 0.935121
vt 0.940882 0.935502
vt 0.940882 0.935883
vt 0.940882 0.936264
vt 0.940882 0.936645
vt 0.940882 0.937026
vt 0.940882 0.937407
vt 0.939796 0.934740
vt 0.939796 0.934359
vt 0.939796 0.935121
vt 0.939796 0.935502
vt 0.939796 0.935883
vt 0.939796 0.936264
vt 0.939796 0.936645
vt 0.939796 0.937026
vt 0.939796 0.937407
vt 0.938709 0.934740
vt 0.938709 0.934359
vt 0.938709 0.935121
vt 0.938709 0.935502
vt 0.938709 0.935883
vt 0.938709 0.936264
vt 0.938709 0.936645
vt 0.938709 0.937026
vt 0.938709 0.937407
vt 0.937622 0.934740
vt 0.937622 0.934359
vt 0.937622 0.935121
vt 0.937622 0.935502
vt 0.937622 0.935883
vt 0.937622 0.936264
vt 0.937622 0.936645
vt 0.937622 0.937026
vt 0.937622 0.937407
vt 0.936536 0.934740
vt 0.936536 0.934359
vt 0.936536 0.935121
vt 0.936536 0.935502
vt 0.936536 0.935883
vt 0.936536 0.936264
vt 0.936536 0.936645
vt 0.936536 0.937026
vt 0.936536 0.937407
vt 0.935449 0.934740
vt 0.935449 0.934359
vt 0.935449 0.935121
vt 0.935449 0.935502
vt 0.935449 0.935883
vt 0.935449 0.936264
vt 0.935449 0.936645
vt 0.935449 0.937026
vt 0.935449 0.937407
vt 0.949441 0.541381
vt 0.949441 0.538207
vt 0.952246 0.538207
vt 0.952246 0.541381
vt 0.949441 0.593554
vt 0.890163 0.593554
vt 0.890163 0.590749
vt 0.949441 0.590749
vt 0.890163 0.538207
vt 0.890163 0.541381
vt 0.949441 0.587575
vt 0.890163 0.587575
vt 0.890163 0.584770
vt 0.949441 0.584770
vt 0.793185 0.551349
vt 0.793185 0.581452
vt 0.792695 0.581452
vt 0.792695 0.551349
vt 0.793666 0.551349
vt 0.793666 0.581452
vt 0.794147 0.551349
vt 0.794147 0.581452
vt 0.794637 0.551349
vt 0.794637 0.581452
vt 0.795127 0.551349
vt 0.795127 0.581452
vt 0.795608 0.551349
vt 0.795608 0.581452
vt 0.796089 0.551349
vt 0.796089 0.581452
vt 0.792205 0.581452
vt 0.792205 0.551349
s 1
usemtl 07_-_Default.001
f 2/1/1 3/2/1 4/3/1 1/4/1
f 6/5/2 2/6/2 1/7/2 5/8/2
f 7/9/3 3/2/3 2/1/3 6/10/3
f 8/11/4 4/12/4 3/13/4 7/14/4
f 5/8/5 1/7/5 4/12/5 8/11/5
f 10/15/1 11/16/1 12/17/1 9/18/1
f 14/19/2 10/20/2 9/21/2 13/22/2
f 15/23/3 11/16/3 10/15/3 14/24/3
f 16/25/4 12/26/4 11/27/4 15/28/4
f 13/22/5 9/21/5 12/26/5 16/25/5
f 18/29/6 19/30/6 20/31/6 17/32/6
f 21/33/3 22/34/3 19/30/3 18/29/3
f 23/35/1 24/36/1 22/37/1 21/38/1
f 17/32/5 20/31/5 24/36/5 23/35/5
f 26/39/7 27/40/7 28/41/3 25/42/3
f 29/43/8 30/44/8 27/40/7 26/39/7
f 31/45/9 32/46/9 30/44/8 29/43/8
f 33/47/10 34/48/10 32/46/9 31/45/9
f 25/42/3 28/41/3 34/49/10 33/50/10
f 36/51/11 37/52/12 38/53/13 35/54/4
f 39/55/14 40/56/15 37/52/12 36/51/11
f 41/57/16 42/58/17 40/56/18 39/55/19
f 43/59/2 44/60/20 42/58/17 41/57/16
f 45/61/21 46/62/22 44/60/20 43/59/2
f 47/63/23 48/64/24 46/62/22 45/61/21
f 49/65/25 50/66/26 48/64/27 47/63/28
f 35/67/4 38/68/13 50/66/26 49/65/25
f 37/52/12 51/69/29 52/70/30 38/53/13
f 40/56/15 53/71/31 51/69/29 37/52/12
f 42/58/17 54/72/32 53/71/33 40/56/18
f 44/60/20 55/73/34 54/72/32 42/58/17
f 46/62/22 56/74/35 55/73/34 44/60/20
f 48/64/24 57/75/36 56/74/35 46/62/22
f 50/66/26 58/76/37 57/75/38 48/64/27
f 38/68/13 52/77/30 58/76/37 50/66/26
f 51/69/29 59/78/39 60/79/40 52/70/30
f 53/71/31 61/80/41 59/78/39 51/69/29
f 54/72/32 62/81/42 61/80/43 53/71/33
f 55/73/34 63/82/44 62/81/42 54/72/32
f 56/74/35 64/83/45 63/82/44 55/73/34
f 57/75/36 65/84/46 64/83/45 56/74/35
f 58/76/37 66/85/47 65/84/48 57/75/38
f 52/77/30 60/86/40 66/85/47 58/76/37
f 59/78/39 67/87/49 68/88/50 60/79/40
f 61/80/41 69/89/51 67/87/49 59/78/39
f 62/81/42 70/90/52 69/89/53 61/80/43
f 63/82/44 71/91/54 70/90/52 62/81/42
f 64/83/45 72/92/55 71/91/54 63/82/44
f 65/84/46 73/93/56 72/92/55 64/83/45
f 66/85/47 74/94/57 73/93/58 65/84/48
f 60/86/40 68/95/50 74/94/57 66/85/47
f 67/96/49 75/97/59 76/98/60 68/99/50
f 69/100/51 77/101/61 75/97/59 67/96/49
f 70/102/52 78/103/62 77/101/63 69/100/53
f 71/104/54 79/105/64 78/103/62 70/102/52
f 72/106/55 80/107/65 79/105/64 71/104/54
f 73/108/56 81/109/66 80/107/65 72/106/55
f 74/110/57 82/111/67 81/109/68 73/108/58
f 68/112/50 76/113/60 82/111/67 74/110/57
f 75/97/59 83/114/69 84/115/70 76/98/60
f 77/101/61 85/116/71 83/114/69 75/97/59
f 78/103/62 86/117/72 85/116/73 77/101/63
f 79/105/64 87/118/74 86/117/72 78/103/62
f 80/107/65 88/119/75 87/118/74 79/105/64
f 81/109/66 89/120/76 88/119/75 80/107/65
f 82/111/67 90/121/77 89/120/78 81/109/68
f 76/113/60 84/122/70 90/121/77 82/111/67
f 83/114/69 91/123/79 92/124/2 84/115/70
f 85/116/71 93/125/19 91/123/79 83/114/69
f 86/117/72 94/126/80 93/125/14 85/116/73
f 87/118/74 95/127/4 94/126/80 86/117/72
f 88/119/75 96/128/81 95/127/4 87/118/74
f 89/120/76 97/129/28 96/128/81 88/119/75
f 90/121/77 98/130/82 97/129/23 89/120/78
f 84/122/70 92/131/2 98/130/82 90/121/77
f 91/123/79 99/132/83 100/133/20 92/124/2
f 93/125/19 101/134/18 99/132/83 91/123/79
f 94/126/80 102/135/84 101/134/15 93/125/14
f 95/127/4 103/136/13 102/135/84 94/126/80
f 96/128/81 104/137/85 103/136/13 95/127/4
f 97/129/28 105/138/27 104/137/85 96/128/81
f 98/130/82 106/139/86 105/138/24 97/129/23
f 92/131/2 100/140/20 106/139/86 98/130/82
f 99/132/83 107/141/87 108/142/34 100/133/20
f 101/134/18 109/143/33 107/141/87 99/132/83
f 102/135/84 110/144/88 109/143/31 101/134/15
f 103/136/13 111/145/30 110/144/88 102/135/84
f 104/137/85 112/146/89 111/145/30 103/136/13
f 105/138/27 113/147/38 112/146/89 104/137/85
f 106/139/86 114/148/90 113/147/36 105/138/24
f 100/140/20 108/149/34 114/148/90 106/139/86
f 107/141/87 115/150/91 116/151/44 108/142/34
f 109/143/33 117/152/43 115/150/91 107/141/87
f 110/144/88 118/153/92 117/152/41 109/143/31
f 111/145/30 119/154/40 118/153/92 110/144/88
f 112/146/89 120/155/93 119/154/40 111/145/30
f 113/147/38 121/156/48 120/155/93 112/146/89
f 114/148/90 122/157/94 121/156/46 113/147/36
f 108/149/34 116/158/44 122/157/94 114/148/90
f 115/150/91 123/159/95 124/160/54 116/151/44
f 117/152/43 125/161/53 123/159/95 115/150/91
f 118/153/92 126/162/96 125/161/51 117/152/41
f 119/154/40 127/163/50 126/162/96 118/153/92
f 120/155/93 128/164/97 127/163/50 119/154/40
f 121/156/48 129/165/58 128/164/97 120/155/93
f 122/157/94 130/166/98 129/165/56 121/156/46
f 116/158/44 124/167/54 130/166/98 122/157/94
f 123/159/95 131/168/99 132/169/64 124/160/54
f 125/161/53 133/170/63 131/168/99 123/159/95
f 126/162/96 134/171/100 133/170/61 125/161/51
f 127/163/50 135/172/60 134/171/100 126/162/96
f 128/164/97 136/173/101 135/172/60 127/163/50
f 129/165/58 137/174/68 136/173/101 128/164/97
f 130/166/98 138/175/102 137/174/66 129/165/56
f 124/167/54 132/176/64 138/175/102 130/166/98
f 131/168/99 139/177/103 140/178/74 132/169/64
f 133/170/63 141/179/73 139/177/103 131/168/99
f 134/171/100 142/180/104 141/179/71 133/170/61
f 135/172/60 143/181/70 142/180/104 134/171/100
f 136/173/101 144/182/105 143/181/70 135/172/60
f 137/174/68 145/183/78 144/182/105 136/173/101
f 138/175/102 146/184/106 145/183/76 137/174/66
f 132/176/64 140/185/74 146/184/106 138/175/102
f 139/177/103 36/51/11 35/54/4 140/178/74
f 141/179/73 39/55/14 36/51/11 139/177/103
f 142/180/104 41/57/16 39/55/19 141/179/71
f 143/181/70 43/59/2 41/57/16 142/180/104
f 144/182/105 45/61/21 43/59/2 143/181/70
f 145/183/78 47/63/23 45/61/21 144/182/105
f 146/184/106 49/65/25 47/63/28 145/183/76
f 140/185/74 35/67/4 49/65/25 146/184/106
f 148/186/7 149/187/7 150/188/3 147/189/3
f 151/190/8 152/191/8 149/187/7 148/186/7
f 153/192/9 154/193/9 152/191/8 151/190/8
f 155/194/10 156/195/10 154/193/9 153/192/9
f 147/189/3 150/188/3 156/196/10 155/197/10
f 158/198/11 159/199/12 160/200/13 157/201/4
f 161/202/14 162/203/15 159/199/12 158/198/11
f 163/204/16 164/205/17 162/203/18 161/202/19
f 165/206/2 166/207/20 164/205/17 163/204/16
f 167/208/21 168/209/107 166/207/20 165/206/2
f 169/210/23 170/211/24 168/209/107 167/208/21
f 171/212/25 172/213/26 170/211/27 169/210/28
f 157/214/4 160/215/13 172/213/26 171/212/25
f 159/199/12 173/216/29 174/217/30 160/200/13
f 162/203/15 175/218/31 173/216/29 159/199/12
f 164/205/17 176/219/108 175/218/33 162/203/18
f 166/207/20 177/220/34 176/219/108 164/205/17
f 168/209/107 178/221/35 177/220/34 166/207/20
f 170/211/24 179/222/36 178/221/35 168/209/107
f 172/213/26 180/223/37 179/222/38 170/211/27
f 160/215/13 174/224/30 180/223/37 172/213/26
f 173/216/29 181/225/39 182/226/40 174/217/30
f 175/218/31 183/227/41 181/225/39 173/216/29
f 176/219/108 184/228/42 183/227/43 175/218/33
f 177/220/34 185/229/44 184/228/42 176/219/108
f 178/221/35 186/230/45 185/229/44 177/220/34
f 179/222/36 187/231/46 186/230/45 178/221/35
f 180/223/37 188/232/47 187/231/48 179/222/38
f 174/224/30 182/233/40 188/232/47 180/223/37
f 181/225/39 189/234/49 190/235/50 182/226/40
f 183/227/41 191/236/51 189/234/49 181/225/39
f 184/228/42 192/237/52 191/236/53 183/227/43
f 185/229/44 193/238/54 192/237/52 184/228/42
f 186/230/45 194/239/55 193/238/54 185/229/44
f 187/231/46 195/240/56 194/239/55 186/230/45
f 188/232/47 196/241/57 195/240/109 187/231/48
f 182/233/40 190/242/50 196/241/57 188/232/47
f 189/243/49 197/244/59 198/245/60 190/246/50
f 191/247/51 199/248/61 197/244/59 189/243/49
f 192/249/52 200/250/62 199/248/63 191/247/53
f 193/251/54 201/252/64 200/250/62 192/249/52
f 194/253/55 202/254/110 201/252/64 193/251/54
f 195/255/56 203/256/66 202/254/110 194/253/55
f 196/257/57 204/258/67 203/256/68 195/255/109
f 190/259/50 198/260/60 204/258/67 196/257/57
f 197/244/59 205/261/69 206/262/70 198/245/60
f 199/248/61 207/263/71 205/261/69 197/244/59
f 200/250/62 208/264/111 207/263/112 199/248/63
f 201/252/64 209/265/74 208/264/111 200/250/62
f 202/254/110 210/266/75 209/265/74 201/252/64
f 203/256/66 211/267/76 210/266/75 202/254/110
f 204/258/67 212/268/77 211/267/78 203/256/68
f 198/260/60 206/269/70 212/268/77 204/258/67
f 205/261/69 213/270/79 214/271/2 206/262/70
f 207/263/71 215/272/19 213/270/79 205/261/69
f 208/264/111 216/273/80 215/272/14 207/263/112
f 209/265/74 217/274/4 216/273/80 208/264/111
f 210/266/75 218/275/81 217/274/4 209/265/74
f 211/267/76 219/276/28 218/275/81 210/266/75
f 212/268/77 220/277/113 219/276/23 211/267/78
f 206/269/70 214/278/2 220/277/113 212/268/77
f 213/270/79 221/279/83 222/280/20 214/271/2
f 215/272/19 223/281/18 221/279/83 213/270/79
f 216/273/80 224/282/114 223/281/15 215/272/14
f 217/274/4 225/283/13 224/282/114 216/273/80
f 218/275/81 226/284/85 225/283/13 217/274/4
f 219/276/28 227/285/27 226/284/85 218/275/81
f 220/277/113 228/286/86 227/285/24 219/276/23
f 214/278/2 222/287/20 228/286/86 220/277/113
f 221/279/83 229/288/87 230/289/34 222/280/20
f 223/281/18 231/290/33 229/288/87 221/279/83
f 224/282/114 232/291/88 231/290/31 223/281/15
f 225/283/13 233/292/30 232/291/88 224/282/114
f 226/284/85 234/293/115 233/292/30 225/283/13
f 227/285/27 235/294/38 234/293/115 226/284/85
f 228/286/86 236/295/90 235/294/36 227/285/24
f 222/287/20 230/296/34 236/295/90 228/286/86
f 229/288/87 237/297/91 238/298/44 230/289/34
f 231/290/33 239/299/43 237/297/91 229/288/87
f 232/291/88 240/300/92 239/299/41 231/290/31
f 233/292/30 241/301/40 240/300/92 232/291/88
f 234/293/115 242/302/93 241/301/40 233/292/30
f 235/294/38 243/303/48 242/302/93 234/293/115
f 236/295/90 244/304/94 243/303/46 235/294/36
f 230/296/34 238/305/44 244/304/94 236/295/90
f 237/297/91 245/306/95 246/307/54 238/298/44
f 239/299/43 247/308/53 245/306/95 237/297/91
f 240/300/92 248/309/96 247/308/51 239/299/41
f 241/301/40 249/310/50 248/309/96 240/300/92
f 242/302/93 250/311/97 249/310/50 241/301/40
f 243/303/48 251/312/58 250/311/97 242/302/93
f 244/304/94 252/313/98 251/312/56 243/303/46
f 238/305/44 246/314/54 252/313/98 244/304/94
f 245/306/95 253/315/99 254/316/64 246/307/54
f 247/308/53 255/317/63 253/315/99 245/306/95
f 248/309/96 256/318/100 255/317/61 247/308/51
f 249/310/50 257/319/60 256/318/100 248/309/96
f 250/311/97 258/320/101 257/319/60 249/310/50
f 251/312/58 259/321/68 258/320/101 250/311/97
f 252/313/98 260/322/102 259/321/66 251/312/56
f 246/314/54 254/323/64 260/322/102 252/313/98
f 253/315/99 261/324/103 262/325/74 254/316/64
f 255/317/63 263/326/73 261/324/103 253/315/99
f 256/318/100 264/327/104 263/326/71 255/317/61
f 257/319/60 265/328/70 264/327/104 256/318/100
f 258/320/101 266/329/105 265/328/70 257/319/60
f 259/321/68 267/330/78 266/329/105 258/320/101
f 260/322/102 268/331/106 267/330/76 259/321/66
f 254/323/64 262/332/74 268/331/106 260/322/102
f 261/324/103 158/198/11 157/201/4 262/325/74
f 263/326/73 161/202/14 158/198/11 261/324/103
f 264/327/104 163/204/16 161/202/19 263/326/71
f 265/328/70 165/206/2 163/204/16 264/327/104
f 266/329/105 167/208/21 165/206/2 265/328/70
f 267/330/78 169/210/23 167/208/21 266/329/105
f 268/331/106 171/212/25 169/210/28 267/330/76
f 262/332/74 157/214/4 171/212/25 268/331/106
f 270/333/7 271/334/7 272/335/3 269/336/3
f 273/337/8 274/338/8 271/334/7 270/333/7
f 275/339/9 276/340/9 274/338/8 273/337/8
f 277/341/10 278/342/10 276/340/9 275/339/9
f 269/343/3 272/344/3 278/342/10 277/341/10
f 280/345/11 281/346/12 282/347/13 279/348/4
f 283/349/14 284/350/116 281/346/12 280/345/11
f 285/351/16 286/352/17 284/350/18 283/349/19
f 287/353/2 288/354/20 286/352/17 285/351/16
f 289/355/21 290/356/22 288/354/20 287/353/2
f 291/357/23 292/358/24 290/356/22 289/355/21
f 293/359/117 294/360/26 292/358/27 291/357/28
f 279/361/4 282/362/13 294/360/26 293/359/117
f 281/346/12 295/363/29 296/364/30 282/347/13
f 284/350/116 297/365/31 295/363/29 281/346/12
f 286/352/17 298/366/118 297/365/33 284/350/18
f 288/354/20 299/367/34 298/366/118 286/352/17
f 290/356/22 300/368/119 299/367/34 288/354/20
f 292/358/24 301/369/36 300/368/119 290/356/22
f 294/360/26 302/370/37 301/369/38 292/358/27
f 282/362/13 296/371/30 302/370/37 294/360/26
f 295/363/29 303/372/39 304/373/40 296/364/30
f 297/365/31 305/374/41 303/372/39 295/363/29
f 298/366/118 306/375/42 305/374/43 297/365/33
f 299/367/34 307/376/44 306/375/42 298/366/118
f 300/368/119 308/377/45 307/376/44 299/367/34
f 301/369/36 309/378/46 308/377/45 300/368/119
f 302/370/37 310/379/47 309/378/48 301/369/38
f 296/371/30 304/380/40 310/379/47 302/370/37
f 303/372/39 311/381/49 312/382/50 304/373/40
f 305/374/41 313/383/51 311/381/49 303/372/39
f 306/375/42 314/384/52 313/383/53 305/374/43
f 307/376/44 315/385/54 314/384/52 306/375/42
f 308/377/45 316/386/55 315/385/54 307/376/44
f 309/378/46 317/387/56 316/386/55 308/377/45
f 310/379/47 318/388/57 317/387/58 309/378/48
f 304/380/40 312/389/50 318/388/57 310/379/47
f 311/390/49 319/391/59 320/392/60 312/393/50
f 313/394/51 321/395/61 319/391/59 311/390/49
f 314/396/52 322/397/120 321/395/63 313/394/53
f 315/398/54 323/399/64 322/397/120 314/396/52
f 316/400/55 324/401/65 323/399/64 315/398/54
f 317/402/56 325/403/66 324/401/65 316/400/55
f 318/404/57 326/405/67 325/403/68 317/402/58
f 312/406/50 320/407/60 326/405/67 318/404/57
f 319/391/59 327/408/69 328/409/70 320/392/60
f 321/395/61 329/410/71 327/408/69 319/391/59
f 322/397/120 330/411/111 329/410/73 321/395/63
f 323/399/64 331/412/74 330/411/111 322/397/120
f 324/401/65 332/413/75 331/412/74 323/399/64
f 325/403/66 333/414/76 332/413/75 324/401/65
f 326/405/67 334/415/77 333/414/78 325/403/68
f 320/407/60 328/416/70 334/415/77 326/405/67
f 327/408/69 335/417/79 336/418/2 328/409/70
f 329/410/71 337/419/19 335/417/79 327/408/69
f 330/411/111 338/420/80 337/419/14 329/410/73
f 331/412/74 339/421/4 338/420/80 330/411/111
f 332/413/75 340/422/81 339/421/4 331/412/74
f 333/414/76 341/423/28 340/422/81 332/413/75
f 334/415/77 342/424/82 341/423/23 333/414/78
f 328/416/70 336/425/2 342/424/82 334/415/77
f 335/417/79 343/426/83 344/427/20 336/418/2
f 337/419/19 345/428/18 343/426/83 335/417/79
f 338/420/80 346/429/114 345/428/15 337/419/14
f 339/421/4 347/430/13 346/429/114 338/420/80
f 340/422/81 348/431/85 347/430/13 339/421/4
f 341/423/28 349/432/27 348/431/85 340/422/81
f 342/424/82 350/433/86 349/432/24 341/423/23
f 336/425/2 344/434/20 350/433/86 342/424/82
f 343/426/83 351/435/87 352/436/34 344/427/20
f 345/428/18 353/437/33 351/435/87 343/426/83
f 346/429/114 354/438/121 353/437/31 345/428/15
f 347/430/13 355/439/30 354/438/121 346/429/114
f 348/431/85 356/440/89 355/439/30 347/430/13
f 349/432/27 357/441/38 356/440/89 348/431/85
f 350/433/86 358/442/90 357/441/36 349/432/24
f 344/434/20 352/443/34 358/442/90 350/433/86
f 351/435/87 359/444/91 360/445/44 352/436/34
f 353/437/33 361/446/43 359/444/91 351/435/87
f 354/438/121 362/447/92 361/446/41 353/437/31
f 355/439/30 363/448/40 362/447/92 354/438/121
f 356/440/89 364/449/93 363/448/40 355/439/30
f 357/441/38 365/450/48 364/449/93 356/440/89
f 358/442/90 366/451/94 365/450/46 357/441/36
f 352/443/34 360/452/44 366/451/94 358/442/90
f 359/444/91 367/453/95 368/454/54 360/445/44
f 361/446/43 369/455/53 367/453/95 359/444/91
f 362/447/92 370/456/96 369/455/51 361/446/41
f 363/448/40 371/457/50 370/456/96 362/447/92
f 364/449/93 372/458/97 371/457/50 363/448/40
f 365/450/48 373/459/58 372/458/97 364/449/93
f 366/451/94 374/460/98 373/459/56 365/450/46
f 360/452/44 368/461/54 374/460/98 366/451/94
f 367/453/95 375/462/99 376/463/64 368/454/54
f 369/455/53 377/464/63 375/462/99 367/453/95
f 370/456/96 378/465/122 377/464/61 369/455/51
f 371/457/50 379/466/60 378/465/122 370/456/96
f 372/458/97 380/467/101 379/466/60 371/457/50
f 373/459/58 381/468/68 380/467/101 372/458/97
f 374/460/98 382/469/102 381/468/66 373/459/56
f 368/461/54 376/470/64 382/469/102 374/460/98
f 375/462/99 383/471/103 384/472/74 376/463/64
f 377/464/63 385/473/73 383/471/103 375/462/99
f 378/465/122 386/474/123 385/473/71 377/464/61
f 379/466/60 387/475/70 386/474/123 378/465/122
f 380/467/101 388/476/105 387/475/70 379/466/60
f 381/468/68 389/477/78 388/476/105 380/467/101
f 382/469/102 390/478/106 389/477/76 381/468/66
f 376/470/64 384/479/74 390/478/106 382/469/102
f 383/471/103 280/345/11 279/348/4 384/472/74
f 385/473/73 283/349/14 280/345/11 383/471/103
f 386/474/123 285/351/16 283/349/19 385/473/71
f 387/475/70 287/353/2 285/351/16 386/474/123
f 388/476/105 289/355/21 287/353/2 387/475/70
f 389/477/78 291/357/23 289/355/21 388/476/105
f 390/478/106 293/359/117 291/357/28 389/477/76
f 384/479/74 279/361/4 293/359/117 390/478/106
f 392/480/7 393/481/7 394/482/3 391/483/3
f 395/484/8 396/485/8 393/486/7 392/487/7
f 397/488/9 398/489/9 396/485/8 395/484/8
f 399/490/10 400/491/10 398/489/9 397/488/9
f 391/483/3 394/482/3 400/491/10 399/490/10
f 402/492/11 403/493/12 404/494/13 401/495/4
f 405/496/14 406/497/15 403/493/12 402/492/11
f 407/498/16 408/499/17 406/497/124 405/496/19
f 409/500/2 410/501/20 408/499/17 407/498/16
f 411/502/21 412/503/22 410/501/20 409/500/2
f 413/504/23 414/505/24 412/503/22 411/502/21
f 415/506/25 416/507/26 414/505/27 413/504/28
f 401/508/4 404/509/13 416/507/26 415/506/25
f 403/493/12 417/510/29 418/511/30 404/494/13
f 406/497/15 419/512/31 417/510/29 403/493/12
f 408/499/17 420/513/108 419/512/33 406/497/124
f 410/501/20 421/514/34 420/513/108 408/499/17
f 412/503/22 422/515/119 421/514/34 410/501/20
f 414/505/24 423/516/36 422/515/119 412/503/22
f 416/507/26 424/517/37 423/516/38 414/505/27
f 404/509/13 418/518/30 424/517/37 416/507/26
f 417/510/29 425/519/39 426/520/40 418/511/30
f 419/512/31 427/521/41 425/519/39 417/510/29
f 420/513/108 428/522/42 427/521/43 419/512/33
f 421/514/34 429/523/44 428/522/42 420/513/108
f 422/515/119 430/524/45 429/523/44 421/514/34
f 423/516/36 431/525/46 430/524/45 422/515/119
f 424/517/37 432/526/47 431/525/48 423/516/38
f 418/518/30 426/527/40 432/526/47 424/517/37
f 425/519/39 433/528/49 434/529/50 426/520/40
f 427/521/41 435/530/51 433/528/49 425/519/39
f 428/522/42 436/531/52 435/530/53 427/521/43
f 429/523/44 437/532/54 436/531/52 428/522/42
f 430/524/45 438/533/55 437/532/54 429/523/44
f 431/525/46 439/534/56 438/533/55 430/524/45
f 432/526/47 440/535/57 439/534/58 431/525/48
f 426/527/40 434/536/50 440/535/57 432/526/47
f 433/537/49 441/538/59 442/539/60 434/540/50
f 435/541/51 443/542/61 441/538/59 433/537/49
f 436/543/52 444/544/62 443/542/63 435/541/53
f 437/545/54 445/546/64 444/544/62 436/543/52
f 438/547/55 446/548/65 445/546/64 437/545/54
f 439/549/56 447/550/66 446/548/65 438/547/55
f 440/551/57 448/552/67 447/550/68 439/549/58
f 434/553/50 442/554/60 448/552/67 440/551/57
f 441/538/59 449/555/69 450/556/70 442/539/60
f 443/542/61 451/557/71 449/555/69 441/538/59
f 444/544/62 452/558/72 451/557/112 443/542/63
f 445/546/64 453/559/74 452/558/72 444/544/62
f 446/548/65 454/560/75 453/559/74 445/546/64
f 447/550/66 455/561/76 454/560/75 446/548/65
f 448/552/67 456/562/77 455/561/78 447/550/68
f 442/554/60 450/563/70 456/562/77 448/552/67
f 449/555/69 457/564/79 458/565/2 450/556/70
f 451/557/71 459/566/19 457/564/79 449/555/69
f 452/558/72 460/567/80 459/566/14 451/557/112
f 453/559/74 461/568/4 460/567/80 452/558/72
f 454/560/75 462/569/81 461/568/4 453/559/74
f 455/561/76 463/570/28 462/569/81 454/560/75
f 456/562/77 464/571/113 463/570/23 455/561/78
f 450/563/70 458/572/2 464/571/113 456/562/77
f 457/564/79 465/573/83 466/574/20 458/565/2
f 459/566/19 467/575/18 465/573/83 457/564/79
f 460/567/80 468/576/84 467/575/15 459/566/14
f 461/568/4 469/577/13 468/576/84 460/567/80
f 462/569/81 470/578/85 469/577/13 461/568/4
f 463/570/28 471/579/27 470/578/85 462/569/81
f 464/571/113 472/580/86 471/579/24 463/570/23
f 458/572/2 466/581/20 472/580/86 464/571/113
f 465/573/83 473/582/87 474/583/34 466/574/20
f 467/575/18 475/584/33 473/582/87 465/573/83
f 468/576/84 476/585/88 475/584/31 467/575/15
f 469/577/13 477/586/30 476/585/88 468/576/84
f 470/578/85 478/587/89 477/586/30 469/577/13
f 471/579/27 479/588/38 478/587/89 470/578/85
f 472/580/86 480/589/90 479/588/36 471/579/24
f 466/581/20 474/590/34 480/589/90 472/580/86
f 473/582/87 481/591/91 482/592/44 474/583/34
f 475/584/33 483/593/43 481/591/91 473/582/87
f 476/585/88 484/594/92 483/593/41 475/584/31
f 477/586/30 485/595/40 484/594/92 476/585/88
f 478/587/89 486/596/93 485/595/40 477/586/30
f 479/588/38 487/597/48 486/596/93 478/587/89
f 480/589/90 488/598/94 487/597/46 479/588/36
f 474/590/34 482/599/44 488/598/94 480/589/90
f 481/591/91 489/600/95 490/601/54 482/592/44
f 483/593/43 491/602/53 489/600/95 481/591/91
f 484/594/92 492/603/96 491/602/51 483/593/41
f 485/595/40 493/604/50 492/603/96 484/594/92
f 486/596/93 494/605/97 493/604/50 485/595/40
f 487/597/48 495/606/58 494/605/97 486/596/93
f 488/598/94 496/607/98 495/606/56 487/597/46
f 482/599/44 490/608/54 496/607/98 488/598/94
f 489/600/95 497/609/99 498/610/64 490/601/54
f 491/602/53 499/611/63 497/609/99 489/600/95
f 492/603/96 500/612/122 499/611/61 491/602/51
f 493/604/50 501/613/60 500/612/122 492/603/96
f 494/605/97 502/614/125 501/613/60 493/604/50
f 495/606/58 503/615/68 502/614/125 494/605/97
f 496/607/98 504/616/102 503/615/66 495/606/56
f 490/608/54 498/617/64 504/616/102 496/607/98
f 497/609/99 505/618/103 506/619/74 498/610/64
f 499/611/63 507/620/73 505/618/103 497/609/99
f 500/612/122 508/621/104 507/620/71 499/611/61
f 501/613/60 509/622/70 508/621/104 500/612/122
f 502/614/125 510/623/105 509/622/70 501/613/60
f 503/615/68 511/624/78 510/623/105 502/614/125
f 504/616/102 512/625/106 511/624/76 503/615/66
f 498/617/64 506/626/74 512/625/106 504/616/102
f 505/618/103 402/492/11 401/495/4 506/619/74
f 507/620/73 405/496/14 402/492/11 505/618/103
f 508/621/104 407/498/16 405/496/19 507/620/71
f 509/622/70 409/500/2 407/498/16 508/621/104
f 510/623/105 411/502/21 409/500/2 509/622/70
f 511/624/78 413/504/23 411/502/21 510/623/105
f 512/625/106 415/506/25 413/504/28 511/624/76
f 506/626/74 401/508/4 415/506/25 512/625/106
f 514/627/1 515/628/1 516/629/1 513/630/1
f 518/631/2 514/632/2 513/633/2 517/634/2
f 519/635/3 515/628/3 514/627/3 518/636/3
f 520/637/4 516/638/4 515/639/4 519/640/4
f 517/634/5 513/633/5 516/638/5 520/637/5
f 522/641/126 523/642/127 524/643/1 521/644/1
f 525/645/128 526/646/128 523/642/127 522/641/126
f 527/647/129 528/648/130 526/646/131 525/645/131
f 529/649/6 530/650/6 528/648/130 527/647/129
f 531/651/132 532/652/133 530/650/6 529/649/6
f 533/653/134 534/654/134 532/652/133 531/651/132
f 535/655/135 536/656/136 534/654/137 533/653/137
f 521/644/1 524/643/1 536/657/136 535/658/135
