# Blender 5.1.2
# www.blender.org
mtllib Railings.mtl
o SM_Railings_220
v -2.180490 0.000000 0.018049
v -2.180490 -0.000000 -0.018049
v -2.180490 0.500000 -0.018049
v -2.180490 0.500000 0.018049
v -2.199997 0.500000 0.018049
v -2.199997 0.000000 0.018049
v -2.199997 -0.000000 -0.018049
v -2.199997 0.500000 -0.018049
v -2.180726 0.339215 0.016719
v -2.180726 0.339215 -0.016934
v -2.014520 0.339215 -0.016934
v -2.014520 0.339215 0.016719
v -2.180726 0.369630 0.016719
v -2.014520 0.369630 0.016719
v -2.014520 0.369630 -0.016934
v -2.180726 0.369630 -0.016934
v -0.183091 0.339215 0.016719
v -0.183091 0.339215 -0.016934
v -0.018988 0.339215 -0.016934
v -0.018988 0.339215 0.016719
v -0.183091 0.369630 0.016719
v -0.018988 0.369630 0.016719
v -0.018988 0.369630 -0.016934
v -0.183091 0.369630 -0.016934
v -1.987534 0.400000 0.025000
v -1.987534 0.400000 -0.025000
v -0.219586 0.400000 -0.025000
v -0.219586 0.400000 0.025000
v -1.987534 0.440266 0.025000
v -0.219586 0.440266 0.025000
v -0.219586 0.440266 -0.025000
v -1.987534 0.440266 -0.025000
v -1.987534 0.100000 0.025000
v -1.987534 0.100000 -0.025000
v -0.219586 0.100000 -0.025000
v -0.219586 0.100000 0.025000
v -1.987534 0.140266 0.025000
v -0.219586 0.140266 0.025000
v -0.219586 0.140266 -0.025000
v -1.987534 0.140266 -0.025000
v -2.100305 0.661697 -0.025000
v -1.865955 0.754771 -0.025000
v -1.865955 0.754771 0.025000
v -2.100305 0.661697 0.025000
v -1.875662 0.779867 0.025000
v -1.875662 0.779867 -0.025000
v -2.119066 0.682865 -0.025000
v -2.119066 0.682865 0.025000
v -0.345568 0.754145 -0.025000
v -0.335861 0.779245 -0.025000
v -0.088054 0.682865 -0.024998
v -0.106815 0.661697 -0.024998
v -0.850967 0.889787 -0.025000
v -0.850967 0.889787 0.025000
v -1.105705 0.902116 0.025000
v -1.105705 0.902116 -0.025000
v -0.847645 0.916412 0.025000
v -0.847645 0.916412 -0.025000
v -1.105705 0.928678 -0.025000
v -1.105705 0.928678 0.025000
v -1.360720 0.886208 -0.025000
v -1.364045 0.912768 -0.025000
v -1.360720 0.886208 0.025000
v -1.611509 0.836582 0.025000
v -1.611509 0.836582 -0.025000
v -1.364045 0.912768 0.025000
v -1.618025 0.862532 -0.025000
v -1.618025 0.862532 0.025000
v -0.593386 0.862532 -0.025000
v -0.599904 0.836582 -0.025000
v -0.345568 0.754145 0.025000
v -0.599904 0.836582 0.025000
v -0.335861 0.779245 0.025000
v -0.593386 0.862532 0.025000
v -0.106815 0.661697 0.025002
v -0.088054 0.682865 0.025002
v -1.981367 0.100000 0.025000
v -1.981367 0.100000 -0.025000
v -1.981367 0.709993 -0.025000
v -1.981367 0.709993 0.025000
v -2.020818 0.100000 0.025000
v -2.020818 0.695204 0.025000
v -2.020818 0.695204 -0.025000
v -2.020818 0.100000 -0.025000
v -1.453182 0.437194 -0.025000
v -1.453184 0.437194 0.025000
v -1.646698 0.826811 0.025000
v -1.646698 0.826811 -0.025000
v -1.411403 0.437194 -0.025000
v -1.612076 0.837892 -0.025000
v -1.612076 0.837892 0.025000
v -1.411403 0.437194 0.025000
v -1.084080 0.435379 0.025000
v -1.084080 0.435379 -0.025000
v -1.084080 0.903319 -0.025000
v -1.084080 0.903319 0.025000
v -1.123530 0.435379 0.025000
v -1.123530 0.903319 0.025000
v -1.123530 0.903319 -0.025000
v -1.123530 0.435379 -0.025000
v -0.758633 0.437194 0.025000
v -0.758633 0.437194 -0.025000
v -0.565117 0.826811 -0.025000
v -0.565117 0.826811 0.025000
v -0.800413 0.437194 0.025000
v -0.599740 0.837892 0.025000
v -0.599740 0.837892 -0.025000
v -0.800413 0.437194 -0.025000
v -0.181060 0.100000 0.025000
v -0.181060 0.100000 -0.025000
v -0.181060 0.690957 -0.025000
v -0.181060 0.690957 0.025002
v -0.222841 0.100000 0.025000
v -0.222841 0.708032 0.025000
v -0.222841 0.708032 -0.025000
v -0.222841 0.100000 -0.025000
v -0.758633 0.139527 0.025000
v -0.758633 0.139527 -0.025000
v -0.758633 0.401845 -0.025000
v -0.758633 0.401845 0.025000
v -0.800413 0.139527 0.025000
v -0.800413 0.401845 0.025000
v -0.800413 0.401845 -0.025000
v -0.800413 0.139527 -0.025000
v -1.410746 0.139527 0.025000
v -1.410745 0.139527 -0.025000
v -1.410745 0.401845 -0.025000
v -1.410746 0.401845 0.025000
v -1.452526 0.139527 0.025000
v -1.452526 0.401845 0.025000
v -1.452526 0.401845 -0.025000
v -1.452526 0.139527 -0.025000
v -0.019551 -0.000000 -0.018049
v -0.019551 0.000000 0.018052
v -0.019552 0.500000 0.018052
v -0.019552 0.500000 -0.018049
v 0.000001 0.500000 -0.018049
v 0.000001 -0.000000 -0.018049
v 0.000004 0.000000 0.018052
v 0.000004 0.500000 0.018052
v -0.078870 0.354650 0.015232
v -0.086525 0.367907 0.015232
v -0.086525 0.367907 0.021028
v -0.078870 0.354650 0.021028
v -0.101832 0.367907 0.015232
v -0.101832 0.367907 0.021028
v -0.109487 0.354650 0.015232
v -0.109487 0.354650 0.021028
v -0.101832 0.341392 0.015232
v -0.101832 0.341392 0.021028
v -0.086525 0.341392 0.015232
v -0.086525 0.341392 0.021028
v -0.089476 0.362794 0.025281
v -0.084774 0.354650 0.025281
v -0.098881 0.362794 0.025281
v -0.103583 0.354650 0.025281
v -0.098881 0.346506 0.025281
v -0.089476 0.346506 0.025281
v -0.110005 0.354650 -0.016016
v -0.102351 0.367907 -0.016016
v -0.102351 0.367907 -0.021812
v -0.110005 0.354650 -0.021812
v -0.087042 0.367907 -0.016016
v -0.087042 0.367907 -0.021812
v -0.079388 0.354650 -0.016016
v -0.079388 0.354650 -0.021812
v -0.087042 0.341392 -0.016016
v -0.087042 0.341392 -0.021812
v -0.102351 0.341392 -0.016016
v -0.102351 0.341392 -0.021812
v -0.099399 0.362794 -0.026064
v -0.104100 0.354650 -0.026064
v -0.089995 0.362794 -0.026064
v -0.085293 0.354650 -0.026064
v -0.089995 0.346506 -0.026064
v -0.099399 0.346506 -0.026064
v -2.086232 0.354650 0.015232
v -2.093885 0.367907 0.015232
v -2.093885 0.367907 0.021028
v -2.086232 0.354650 0.021028
v -2.109194 0.367907 0.015232
v -2.109194 0.367907 0.021028
v -2.116848 0.354650 0.015232
v -2.116848 0.354650 0.021028
v -2.109194 0.341392 0.015232
v -2.109194 0.341392 0.021028
v -2.093885 0.341392 0.015232
v -2.093885 0.341392 0.021028
v -2.096837 0.362794 0.025281
v -2.092135 0.354650 0.025281
v -2.106241 0.362794 0.025281
v -2.110944 0.354650 0.025281
v -2.106241 0.346506 0.025281
v -2.096837 0.346506 0.025281
v -2.117366 0.354650 -0.016016
v -2.109712 0.367907 -0.016016
v -2.109712 0.367907 -0.021812
v -2.117366 0.354650 -0.021812
v -2.094403 0.367907 -0.016016
v -2.094403 0.367907 -0.021812
v -2.086749 0.354650 -0.016016
v -2.086749 0.354650 -0.021812
v -2.094403 0.341392 -0.016016
v -2.094403 0.341392 -0.021812
v -2.109712 0.341392 -0.016016
v -2.109712 0.341392 -0.021812
v -2.106760 0.362794 -0.026064
v -2.111462 0.354650 -0.026064
v -2.097356 0.362794 -0.026064
v -2.092654 0.354650 -0.026064
v -2.097356 0.346506 -0.026064
v -2.106760 0.346506 -0.026064
v -1.415493 0.120424 0.024277
v -1.423147 0.133681 0.024277
v -1.423147 0.133681 0.030071
v -1.415493 0.120424 0.030071
v -1.438455 0.133681 0.024277
v -1.438455 0.133681 0.030071
v -1.446111 0.120424 0.024277
v -1.446111 0.120424 0.030071
v -1.438455 0.107166 0.024277
v -1.438455 0.107166 0.030071
v -1.423147 0.107166 0.024277
v -1.423147 0.107166 0.030071
v -1.426099 0.128568 0.034324
v -1.421396 0.120424 0.034324
v -1.435503 0.128568 0.034324
v -1.440205 0.120424 0.034324
v -1.435503 0.112280 0.034324
v -1.426099 0.112280 0.034324
v -1.446627 0.120424 -0.024124
v -1.438973 0.133681 -0.024124
v -1.438973 0.133681 -0.029919
v -1.446627 0.120424 -0.029919
v -1.423665 0.133681 -0.024124
v -1.423665 0.133681 -0.029919
v -1.416011 0.120424 -0.024124
v -1.416011 0.120424 -0.029919
v -1.423665 0.107166 -0.024124
v -1.423665 0.107166 -0.029919
v -1.438973 0.107166 -0.024124
v -1.438973 0.107166 -0.029919
v -1.436022 0.128568 -0.034172
v -1.440723 0.120424 -0.034172
v -1.426616 0.128568 -0.034172
v -1.421915 0.120424 -0.034172
v -1.426616 0.112280 -0.034172
v -1.436022 0.112280 -0.034172
v -0.762739 0.120424 0.024277
v -0.770393 0.133681 0.024277
v -0.770393 0.133681 0.030071
v -0.762739 0.120424 0.030071
v -0.785702 0.133681 0.024277
v -0.785702 0.133681 0.030071
v -0.793356 0.120424 0.024277
v -0.793356 0.120424 0.030071
v -0.785702 0.107166 0.024277
v -0.785702 0.107166 0.030071
v -0.770393 0.107166 0.024277
v -0.770393 0.107166 0.030071
v -0.773346 0.128568 0.034324
v -0.768643 0.120424 0.034324
v -0.782749 0.128568 0.034324
v -0.787451 0.120424 0.034324
v -0.782749 0.112280 0.034324
v -0.773346 0.112280 0.034324
v -0.793873 0.120424 -0.024124
v -0.786219 0.133681 -0.024124
v -0.786219 0.133681 -0.029919
v -0.793873 0.120424 -0.029919
v -0.770911 0.133681 -0.024124
v -0.770911 0.133681 -0.029919
v -0.763257 0.120424 -0.024124
v -0.763257 0.120424 -0.029919
v -0.770911 0.107166 -0.024124
v -0.770911 0.107166 -0.029919
v -0.786219 0.107166 -0.024124
v -0.786219 0.107166 -0.029919
v -0.783268 0.128568 -0.034172
v -0.787970 0.120424 -0.034172
v -0.773863 0.128568 -0.034172
v -0.769161 0.120424 -0.034172
v -0.773863 0.112280 -0.034172
v -0.783268 0.112280 -0.034172
vn 1.0000 -0.0000 -0.0000
vn -0.0000 -0.0000 1.0000
vn -0.0000 -0.0000 -1.0000
vn -0.0000 1.0000 -0.0000
vn -0.0000 -1.0000 -0.0000
vn 0.3691 -0.9294 -0.0000
vn -0.3702 0.9289 -0.0000
vn -0.0483 -0.9988 -0.0000
vn 0.0475 0.9989 -0.0000
vn 0.1941 -0.9810 -0.0000
vn -0.1940 0.9810 -0.0000
vn -0.3083 -0.9513 -0.0000
vn 0.3077 0.9515 -0.0000
vn -0.2073 -0.9783 -0.0000
vn 0.2073 0.9783 -0.0000
vn 0.0623 -0.9981 -0.0000
vn -0.0615 0.9981 -0.0000
vn -0.3611 -0.9325 -0.0000
vn 0.3625 0.9320 -0.0000
vn 0.3061 -0.9520 -0.0000
vn -0.3055 0.9522 -0.0000
vn 0.7484 -0.6633 -0.0000
vn -0.7484 -0.6633 -0.0000
vn -1.0000 -0.0000 -0.0000
vn -0.8956 -0.4448 -0.0000
vn 0.8941 0.4478 -0.0000
vn 0.8956 -0.4448 -0.0000
vn -0.8941 0.4478 -0.0000
vn -0.0001 -0.0000 1.0000
vn 0.8660 0.5001 -0.0000
vn -0.8660 0.5001 -0.0000
vn -0.8660 -0.5000 -0.0000
vn 0.8660 -0.5000 -0.0000
vn 0.3931 -0.0000 0.9195
vn 0.5845 -0.0000 0.8114
vn 0.2922 0.5062 0.8114
vn 0.1966 0.3404 0.9195
vn -0.2922 0.5062 0.8114
vn -0.1965 0.3404 0.9195
vn -0.5845 -0.0000 0.8114
vn -0.3931 -0.0000 0.9195
vn -0.2922 -0.5062 0.8114
vn -0.1965 -0.3404 0.9195
vn 0.2922 -0.5062 0.8114
vn 0.1965 -0.3404 0.9195
vn -0.8660 0.5000 -0.0000
vn 0.8660 0.5000 -0.0000
vn -0.3931 -0.0000 -0.9195
vn -0.5845 -0.0000 -0.8114
vn -0.2923 0.5062 -0.8114
vn -0.1966 0.3404 -0.9195
vn 0.2922 0.5062 -0.8114
vn 0.1965 0.3404 -0.9195
vn 0.5845 -0.0000 -0.8114
vn 0.3931 -0.0000 -0.9195
vn 0.2922 -0.5061 -0.8114
vn 0.1965 -0.3404 -0.9195
vn -0.2922 -0.5062 -0.8114
vn -0.1966 -0.3404 -0.9195
vn 0.2923 0.5062 0.8114
vn -0.2922 -0.5061 0.8114
vn 0.1966 -0.3404 0.9195
vn -0.8660 -0.5001 -0.0000
vn -0.5844 -0.0000 0.8115
vn -0.3930 -0.0000 0.9195
vn 0.1966 0.3404 -0.9195
vn 0.1966 -0.3404 -0.9195
vn 0.1965 0.3404 0.9195
vn -0.2922 -0.5061 0.8115
vn 0.2922 -0.5061 0.8115
vn 0.2922 -0.5061 -0.8115
vt 0.051244 0.724839
vt 0.032646 0.724839
vt 0.032646 0.723497
vt 0.051244 0.723497
vt 0.051244 0.725565
vt 0.032646 0.725565
vt 0.032646 0.722771
vt 0.051244 0.722771
vt 0.051969 0.723497
vt 0.051969 0.724839
vt 0.102310 0.723932
vt 0.108492 0.723932
vt 0.108492 0.725184
vt 0.102310 0.725184
vt 0.108492 0.726315
vt 0.108492 0.727567
vt 0.102310 0.727567
vt 0.102310 0.726315
vt 0.108492 0.728698
vt 0.102310 0.728698
vt 0.038750 0.669281
vt 0.032646 0.669281
vt 0.032646 0.668029
vt 0.038750 0.668029
vt 0.032646 0.666898
vt 0.032646 0.665646
vt 0.038750 0.665646
vt 0.038750 0.666898
vt 0.032646 0.670412
vt 0.038750 0.670412
vt 0.099400 0.662860
vt 0.099400 0.728620
vt 0.097540 0.728620
vt 0.097540 0.662860
vt 0.096042 0.728620
vt 0.094183 0.728620
vt 0.094183 0.662860
vt 0.096042 0.662860
vt 0.100898 0.728620
vt 0.100898 0.662860
vt 0.107063 0.651017
vt 0.107063 0.716777
vt 0.105203 0.716777
vt 0.105203 0.651017
vt 0.103705 0.716777
vt 0.101846 0.716777
vt 0.101846 0.651017
vt 0.103705 0.651017
vt 0.108561 0.716777
vt 0.108561 0.651017
vt 0.028821 0.649858
vt 0.028821 0.647998
vt 0.038201 0.647998
vt 0.038201 0.649858
vt 0.030638 0.651017
vt 0.030638 0.660579
vt 0.028778 0.660579
vt 0.028778 0.651017
vt 0.031646 0.651017
vt 0.031646 0.660579
vt 0.027769 0.728585
vt 0.027769 0.718878
vt 0.028778 0.718878
vt 0.028778 0.728585
vt 0.067155 0.647998
vt 0.076641 0.647998
vt 0.076641 0.649858
vt 0.067155 0.649858
vt 0.030638 0.689718
vt 0.030638 0.699265
vt 0.028778 0.699265
vt 0.028778 0.689718
vt 0.031646 0.689718
vt 0.031646 0.699265
vt 0.027769 0.689718
vt 0.027769 0.680152
vt 0.028778 0.680152
vt 0.048142 0.647998
vt 0.057651 0.647998
vt 0.057651 0.649858
vt 0.048142 0.649858
vt 0.030638 0.670582
vt 0.030638 0.680152
vt 0.028778 0.670582
vt 0.031646 0.670582
vt 0.031646 0.680152
vt 0.027769 0.670582
vt 0.027769 0.660579
vt 0.027769 0.708872
vt 0.027769 0.699265
vt 0.028778 0.708872
vt 0.086187 0.647998
vt 0.096132 0.647998
vt 0.096132 0.649858
vt 0.086187 0.649858
vt 0.030638 0.708872
vt 0.030638 0.718878
vt 0.031646 0.708872
vt 0.031646 0.718878
vt 0.105655 0.647998
vt 0.105655 0.649858
vt 0.030638 0.728585
vt 0.031646 0.728585
vt 0.027769 0.651017
vt 0.106707 0.647998
vt 0.106707 0.649858
vt 0.027769 0.649858
vt 0.027769 0.647998
vt 0.056802 0.652877
vt 0.034113 0.652877
vt 0.034113 0.651017
vt 0.056802 0.651017
vt 0.100806 0.652534
vt 0.100806 0.654394
vt 0.078392 0.654394
vt 0.078392 0.652534
vt 0.100806 0.655911
vt 0.078392 0.655911
vt 0.078392 0.651017
vt 0.100806 0.651017
vt 0.032646 0.651017
vt 0.032646 0.652877
vt 0.032646 0.661296
vt 0.049120 0.661296
vt 0.049120 0.663156
vt 0.032646 0.663156
vt 0.049120 0.657983
vt 0.049120 0.659843
vt 0.032646 0.659843
vt 0.032646 0.657983
vt 0.032646 0.664609
vt 0.049120 0.664609
vt 0.075838 0.657054
vt 0.093243 0.657054
vt 0.093243 0.658914
vt 0.075838 0.658914
vt 0.093243 0.660382
vt 0.093243 0.662241
vt 0.075838 0.662241
vt 0.075838 0.660382
vt 0.093243 0.663709
vt 0.075838 0.663709
vt 0.076767 0.716037
vt 0.093143 0.716037
vt 0.093143 0.717897
vt 0.076767 0.717897
vt 0.093143 0.719350
vt 0.093143 0.721209
vt 0.076767 0.721209
vt 0.076767 0.719350
vt 0.093143 0.722663
vt 0.076767 0.722663
vt 0.056181 0.728578
vt 0.034200 0.728578
vt 0.034200 0.726719
vt 0.056181 0.726719
vt 0.093028 0.725316
vt 0.093028 0.727176
vt 0.070729 0.727176
vt 0.070729 0.725316
vt 0.093028 0.728793
vt 0.070729 0.728793
vt 0.070729 0.723700
vt 0.093028 0.723700
vt 0.032646 0.726719
vt 0.032646 0.728578
vt 0.042403 0.720149
vt 0.032646 0.720149
vt 0.032646 0.718290
vt 0.042403 0.718290
vt 0.032646 0.716735
vt 0.032646 0.714876
vt 0.042403 0.714876
vt 0.042403 0.716735
vt 0.032646 0.721703
vt 0.042403 0.721703
vt 0.083268 0.664717
vt 0.093026 0.664717
vt 0.093026 0.666577
vt 0.083268 0.666577
vt 0.093026 0.668131
vt 0.093026 0.669991
vt 0.083268 0.669991
vt 0.083268 0.668131
vt 0.093026 0.671545
vt 0.083268 0.671545
vt 0.033373 0.654763
vt 0.051971 0.654763
vt 0.051971 0.656106
vt 0.033373 0.656106
vt 0.033373 0.654036
vt 0.051971 0.654036
vt 0.051971 0.656833
vt 0.033373 0.656833
vt 0.032646 0.656106
vt 0.032646 0.654763
vt 0.210529 0.547184
vt 0.207809 0.547184
vt 0.207809 0.540922
vt 0.210529 0.540922
vt 0.210529 0.578494
vt 0.207809 0.578494
vt 0.207809 0.572232
vt 0.210529 0.572232
vt 0.207809 0.565970
vt 0.210529 0.565970
vt 0.207809 0.559708
vt 0.210529 0.559708
vt 0.207809 0.553446
vt 0.210529 0.553446
vt 0.213944 0.547184
vt 0.213944 0.540922
vt 0.213944 0.578494
vt 0.213944 0.572232
vt 0.213944 0.565970
vt 0.213944 0.559708
vt 0.213944 0.553446
vt 0.186980 0.540922
vt 0.191395 0.540922
vt 0.193602 0.544745
vt 0.191395 0.548568
vt 0.186981 0.548568
vt 0.184773 0.544745
vt 0.187493 0.597468
vt 0.184773 0.597468
vt 0.184773 0.591206
vt 0.187493 0.591206
vt 0.184773 0.584944
vt 0.187493 0.584944
vt 0.184773 0.578682
vt 0.187493 0.578682
vt 0.184773 0.572420
vt 0.187493 0.572420
vt 0.184773 0.566158
vt 0.187493 0.566158
vt 0.187493 0.603730
vt 0.184773 0.603730
vt 0.190909 0.597468
vt 0.190909 0.591206
vt 0.190909 0.584944
vt 0.190909 0.578682
vt 0.190909 0.572420
vt 0.190909 0.566158
vt 0.190909 0.603730
vt 0.204893 0.556931
vt 0.200478 0.556931
vt 0.198272 0.553108
vt 0.200478 0.549285
vt 0.204893 0.549285
vt 0.207100 0.553108
vt 0.217278 0.572420
vt 0.214558 0.572420
vt 0.214558 0.566158
vt 0.217278 0.566158
vt 0.217278 0.603730
vt 0.214558 0.603730
vt 0.214558 0.597468
vt 0.217278 0.597468
vt 0.214558 0.591206
vt 0.217278 0.591206
vt 0.214558 0.584944
vt 0.217278 0.584944
vt 0.214558 0.578682
vt 0.217278 0.578682
vt 0.220694 0.572420
vt 0.220694 0.566158
vt 0.220694 0.603730
vt 0.220694 0.597468
vt 0.220694 0.591206
vt 0.220694 0.584944
vt 0.220694 0.578682
vt 0.186980 0.549285
vt 0.191395 0.549285
vt 0.193602 0.553108
vt 0.191395 0.556931
vt 0.186981 0.556931
vt 0.184773 0.553108
vt 0.174690 0.578682
vt 0.177411 0.578682
vt 0.177411 0.584944
vt 0.174690 0.584944
vt 0.177411 0.591206
vt 0.174690 0.591206
vt 0.177411 0.597468
vt 0.174690 0.597468
vt 0.177411 0.603730
vt 0.174690 0.603730
vt 0.174690 0.566158
vt 0.177411 0.566158
vt 0.177411 0.572420
vt 0.174690 0.572420
vt 0.171275 0.578682
vt 0.171275 0.584944
vt 0.171275 0.591206
vt 0.171275 0.597468
vt 0.171275 0.603730
vt 0.171275 0.566158
vt 0.171275 0.572420
vt 0.198144 0.578646
vt 0.193730 0.578646
vt 0.191523 0.574823
vt 0.193730 0.571000
vt 0.198144 0.571000
vt 0.200351 0.574823
vt 0.204475 0.591206
vt 0.207195 0.591206
vt 0.207195 0.597468
vt 0.204475 0.597468
vt 0.207195 0.603730
vt 0.204475 0.603730
vt 0.204475 0.566158
vt 0.207195 0.566158
vt 0.207195 0.572420
vt 0.204475 0.572420
vt 0.207195 0.578683
vt 0.204475 0.578683
vt 0.207195 0.584944
vt 0.204475 0.584944
vt 0.201059 0.591206
vt 0.201059 0.597468
vt 0.201059 0.603730
vt 0.201059 0.566158
vt 0.201059 0.572420
vt 0.201059 0.578683
vt 0.201059 0.584944
vt 0.200479 0.540922
vt 0.204893 0.540922
vt 0.207101 0.544745
vt 0.204894 0.548568
vt 0.200479 0.548568
vt 0.198272 0.544745
vt 0.167246 0.572232
vt 0.164526 0.572232
vt 0.164526 0.565970
vt 0.167246 0.565970
vt 0.164526 0.559708
vt 0.167246 0.559708
vt 0.164526 0.553446
vt 0.167246 0.553446
vt 0.164526 0.547184
vt 0.167246 0.547184
vt 0.164526 0.540922
vt 0.167246 0.540922
vt 0.167246 0.578494
vt 0.164526 0.578494
vt 0.170662 0.572232
vt 0.170662 0.565970
vt 0.170662 0.559708
vt 0.170662 0.553446
vt 0.170662 0.547184
vt 0.170662 0.540922
vt 0.170662 0.578494
vt 0.198144 0.595372
vt 0.193729 0.595372
vt 0.191523 0.591549
vt 0.193729 0.587726
vt 0.198144 0.587726
vt 0.200351 0.591549
vt 0.180744 0.553446
vt 0.178024 0.553446
vt 0.178024 0.547184
vt 0.180744 0.547184
vt 0.178024 0.540922
vt 0.180744 0.540922
vt 0.180744 0.578494
vt 0.178024 0.578494
vt 0.178024 0.572232
vt 0.180744 0.572232
vt 0.178024 0.565970
vt 0.180744 0.565970
vt 0.178024 0.559708
vt 0.180744 0.559708
vt 0.184160 0.553446
vt 0.184160 0.547184
vt 0.184160 0.540922
vt 0.184160 0.578494
vt 0.184160 0.572232
vt 0.184160 0.565970
vt 0.184160 0.559708
vt 0.193730 0.579363
vt 0.198144 0.579363
vt 0.200351 0.583186
vt 0.198144 0.587009
vt 0.193730 0.587009
vt 0.191523 0.583186
vt 0.224027 0.572232
vt 0.221307 0.572232
vt 0.221307 0.565970
vt 0.224027 0.565970
vt 0.221307 0.559708
vt 0.224027 0.559708
vt 0.221307 0.553446
vt 0.224027 0.553446
vt 0.221307 0.547184
vt 0.224027 0.547184
vt 0.221307 0.540922
vt 0.224027 0.540922
vt 0.224027 0.578494
vt 0.221307 0.578494
vt 0.227443 0.572232
vt 0.227443 0.565970
vt 0.227443 0.559708
vt 0.227443 0.553446
vt 0.227443 0.547184
vt 0.227443 0.540922
vt 0.227443 0.578494
vt 0.198144 0.603735
vt 0.193730 0.603735
vt 0.191523 0.599912
vt 0.193730 0.596089
vt 0.198144 0.596089
vt 0.200351 0.599912
s 1
usemtl 07_-_Default.001
f 4/1/1 1/2/1 2/3/1
f 2/3/1 3/4/1 4/1/1
f 1/2/2 4/1/2 5/5/2
f 5/5/2 6/6/2 1/2/2
f 3/4/3 2/3/3 7/7/3
f 7/7/3 8/8/3 3/4/3
f 3/4/4 8/9/4 5/10/4
f 5/10/4 4/1/4 3/4/4
f 12/11/5 9/12/5 10/13/5
f 10/13/5 11/14/5 12/11/5
f 16/15/4 13/16/4 14/17/4
f 14/17/4 15/18/4 16/15/4
f 13/16/2 9/19/2 12/20/2
f 12/20/2 14/17/2 13/16/2
f 15/18/3 11/14/3 10/13/3
f 10/13/3 16/15/3 15/18/3
f 20/21/5 17/22/5 18/23/5
f 18/23/5 19/24/5 20/21/5
f 24/25/4 21/26/4 22/27/4
f 22/27/4 23/28/4 24/25/4
f 21/29/2 17/22/2 20/21/2
f 20/21/2 22/30/2 21/29/2
f 23/28/3 19/24/3 18/23/3
f 18/23/3 24/25/3 23/28/3
f 28/31/5 25/32/5 26/33/5
f 26/33/5 27/34/5 28/31/5
f 32/35/4 29/36/4 30/37/4
f 30/37/4 31/38/4 32/35/4
f 29/39/2 25/32/2 28/31/2
f 28/31/2 30/40/2 29/39/2
f 31/38/3 27/34/3 26/33/3
f 26/33/3 32/35/3 31/38/3
f 36/41/5 33/42/5 34/43/5
f 34/43/5 35/44/5 36/41/5
f 40/45/4 37/46/4 38/47/4
f 38/47/4 39/48/4 40/45/4
f 37/49/2 33/42/2 36/41/2
f 36/41/2 38/50/2 37/49/2
f 39/48/3 35/44/3 34/43/3
f 34/43/3 40/45/3 39/48/3
f 44/51/6 41/52/6 42/53/6
f 42/53/6 43/54/6 44/51/6
f 48/55/7 45/56/7 46/57/7
f 46/57/7 47/58/7 48/55/7
f 44/59/2 43/60/2 45/56/2
f 45/56/2 48/55/2 44/59/2
f 52/61/3 49/62/3 50/63/3
f 50/63/3 51/64/3 52/61/3
f 56/65/8 53/66/8 54/67/8
f 54/67/8 55/68/8 56/65/8
f 60/69/9 57/70/9 58/71/9
f 58/71/9 59/72/9 60/69/9
f 60/69/2 55/73/2 54/74/2
f 54/74/2 57/70/2 60/69/2
f 59/72/3 56/75/3 61/76/3
f 61/76/3 62/77/3 59/72/3
f 65/78/10 61/79/10 63/80/10
f 63/80/10 64/81/10 65/78/10
f 68/82/11 66/83/11 62/77/11
f 62/77/11 67/84/11 68/82/11
f 64/85/2 63/86/2 66/83/2
f 66/83/2 68/82/2 64/85/2
f 67/84/3 65/87/3 42/88/3
f 42/88/3 46/57/3 67/84/3
f 70/89/3 53/90/3 58/71/3
f 58/71/3 69/91/3 70/89/3
f 70/92/12 49/93/12 71/94/12
f 71/94/12 72/95/12 70/92/12
f 74/96/13 73/97/13 50/63/13
f 50/63/13 69/91/13 74/96/13
f 74/96/2 72/98/2 71/99/2
f 71/99/2 73/97/2 74/96/2
f 53/66/14 70/92/14 72/95/14
f 72/95/14 54/67/14 53/66/14
f 57/70/15 74/96/15 69/91/15
f 69/91/15 58/71/15 57/70/15
f 54/74/2 72/98/2 74/96/2
f 74/96/2 57/70/2 54/74/2
f 53/90/3 56/75/3 59/72/3
f 59/72/3 58/71/3 53/90/3
f 61/76/3 65/87/3 67/84/3
f 67/84/3 62/77/3 61/76/3
f 61/79/16 56/65/16 55/68/16
f 55/68/16 63/80/16 61/79/16
f 66/83/17 60/69/17 59/72/17
f 59/72/17 62/77/17 66/83/17
f 63/86/2 55/73/2 60/69/2
f 60/69/2 66/83/2 63/86/2
f 49/62/3 70/89/3 69/91/3
f 69/91/3 50/63/3 49/62/3
f 49/93/18 52/100/18 75/101/18
f 75/101/18 71/94/18 49/93/18
f 73/97/19 76/102/19 51/64/19
f 51/64/19 50/63/19 73/97/19
f 73/97/2 71/99/2 75/103/2
f 75/103/2 76/102/2 73/97/2
f 42/53/20 65/78/20 64/81/20
f 64/81/20 43/54/20 42/53/20
f 45/56/21 68/82/21 67/84/21
f 67/84/21 46/57/21 45/56/21
f 43/60/2 64/85/2 68/82/2
f 68/82/2 45/56/2 43/60/2
f 46/57/3 42/88/3 41/104/3
f 41/104/3 47/58/3 46/57/3
f 52/100/22 51/105/22 76/106/22
f 76/106/22 75/101/22 52/100/22
f 44/51/23 48/107/23 47/108/23
f 47/108/23 41/52/23 44/51/23
f 80/109/1 77/110/1 78/111/1
f 78/111/1 79/112/1 80/109/1
f 84/113/24 81/114/24 82/115/24
f 82/115/24 83/116/24 84/113/24
f 82/115/2 81/114/2 77/117/2
f 77/117/2 80/118/2 82/115/2
f 83/116/3 79/119/3 78/120/3
f 78/120/3 84/113/3 83/116/3
f 84/121/5 78/111/5 77/110/5
f 77/110/5 81/122/5 84/121/5
f 88/123/25 85/124/25 86/125/25
f 86/125/25 87/126/25 88/123/25
f 92/127/26 89/128/26 90/129/26
f 90/129/26 91/130/26 92/127/26
f 90/129/3 89/128/3 85/124/3
f 85/124/3 88/123/3 90/129/3
f 91/131/2 87/126/2 86/125/2
f 86/125/2 92/132/2 91/131/2
f 96/133/1 93/134/1 94/135/1
f 94/135/1 95/136/1 96/133/1
f 100/137/24 97/138/24 98/139/24
f 98/139/24 99/140/24 100/137/24
f 97/138/2 93/141/2 96/142/2
f 96/142/2 98/139/2 97/138/2
f 99/140/3 95/136/3 94/135/3
f 94/135/3 100/137/3 99/140/3
f 104/143/27 101/144/27 102/145/27
f 102/145/27 103/146/27 104/143/27
f 108/147/28 105/148/28 106/149/28
f 106/149/28 107/150/28 108/147/28
f 106/149/2 105/148/2 101/151/2
f 101/151/2 104/152/2 106/149/2
f 107/150/3 103/146/3 102/145/3
f 102/145/3 108/147/3 107/150/3
f 112/153/1 109/154/1 110/155/1
f 110/155/1 111/156/1 112/153/1
f 116/157/24 113/158/24 114/159/24
f 114/159/24 115/160/24 116/157/24
f 113/158/2 109/161/2 112/162/29
f 112/162/29 114/159/29 113/158/2
f 116/157/3 115/160/3 111/163/3
f 111/163/3 110/164/3 116/157/3
f 116/165/5 110/155/5 109/154/5
f 109/154/5 113/166/5 116/165/5
f 120/167/1 117/168/1 118/169/1
f 118/169/1 119/170/1 120/167/1
f 124/171/24 121/172/24 122/173/24
f 122/173/24 123/174/24 124/171/24
f 121/175/2 117/168/2 120/167/2
f 120/167/2 122/176/2 121/175/2
f 123/174/3 119/170/3 118/169/3
f 118/169/3 124/171/3 123/174/3
f 128/177/1 125/178/1 126/179/1
f 126/179/1 127/180/1 128/177/1
f 132/181/24 129/182/24 130/183/24
f 130/183/24 131/184/24 132/181/24
f 129/182/2 125/185/2 128/186/2
f 128/186/2 130/183/2 129/182/2
f 131/184/3 127/180/3 126/179/3
f 126/179/3 132/181/3 131/184/3
f 136/187/24 133/188/24 134/189/24
f 134/189/24 135/190/24 136/187/24
f 133/188/3 136/187/3 137/191/3
f 137/191/3 138/192/3 133/188/3
f 135/190/2 134/189/2 139/193/2
f 139/193/2 140/194/2 135/190/2
f 135/190/4 140/195/4 137/196/4
f 137/196/4 136/187/4 135/190/4
f 144/197/30 141/198/30 142/199/30
f 142/199/30 143/200/30 144/197/30
f 143/201/4 142/202/4 145/203/4
f 145/203/4 146/204/4 143/201/4
f 146/204/31 145/203/31 147/205/31
f 147/205/31 148/206/31 146/204/31
f 148/206/32 147/205/32 149/207/32
f 149/207/32 150/208/32 148/206/32
f 150/208/5 149/207/5 151/209/5
f 151/209/5 152/210/5 150/208/5
f 152/210/33 151/209/33 141/198/33
f 141/198/33 144/197/33 152/210/33
f 154/211/34 144/197/35 143/200/36
f 143/200/36 153/212/37 154/211/34
f 153/213/37 143/201/36 146/204/38
f 146/204/38 155/214/39 153/213/37
f 155/214/39 146/204/38 148/206/40
f 148/206/40 156/215/41 155/214/39
f 156/215/41 148/206/40 150/208/42
f 150/208/42 157/216/43 156/215/41
f 157/216/43 150/208/42 152/210/44
f 152/210/44 158/217/45 157/216/43
f 158/217/45 152/210/44 144/197/35
f 144/197/35 154/211/34 158/217/45
f 157/218/43 158/219/45 154/220/34
f 154/220/34 153/221/37 155/222/39
f 157/218/43 154/220/34 155/222/39
f 157/218/43 155/222/39 156/223/41
f 162/224/46 159/225/46 160/226/46
f 160/226/46 161/227/46 162/224/46
f 161/227/4 160/226/4 163/228/4
f 163/228/4 164/229/4 161/227/4
f 164/229/47 163/228/47 165/230/47
f 165/230/47 166/231/47 164/229/47
f 166/231/33 165/230/33 167/232/33
f 167/232/33 168/233/33 166/231/33
f 168/233/5 167/232/5 169/234/5
f 169/234/5 170/235/5 168/233/5
f 170/236/32 169/237/32 159/225/32
f 159/225/32 162/224/32 170/236/32
f 172/238/48 162/224/49 161/227/50
f 161/227/50 171/239/51 172/238/48
f 171/239/51 161/227/50 164/229/52
f 164/229/52 173/240/53 171/239/51
f 173/240/53 164/229/52 166/231/54
f 166/231/54 174/241/55 173/240/53
f 174/241/55 166/231/54 168/233/56
f 168/233/56 175/242/57 174/241/55
f 175/242/57 168/233/56 170/235/58
f 170/235/58 176/243/59 175/242/57
f 176/244/59 170/236/58 162/224/49
f 162/224/49 172/238/48 176/244/59
f 175/245/57 176/246/59 172/247/48
f 172/247/48 171/248/51 173/249/53
f 175/245/57 172/247/48 173/249/53
f 175/245/57 173/249/53 174/250/55
f 180/251/47 177/252/47 178/253/47
f 178/253/47 179/254/47 180/251/47
f 179/255/4 178/256/4 181/257/4
f 181/257/4 182/258/4 179/255/4
f 182/258/46 181/257/46 183/259/46
f 183/259/46 184/260/46 182/258/46
f 184/260/32 183/259/32 185/261/32
f 185/261/32 186/262/32 184/260/32
f 186/262/5 185/261/5 187/263/5
f 187/263/5 188/264/5 186/262/5
f 188/264/33 187/263/33 177/252/33
f 177/252/33 180/251/33 188/264/33
f 190/265/34 180/251/35 179/254/60
f 179/254/60 189/266/37 190/265/34
f 189/267/37 179/255/60 182/258/38
f 182/258/38 191/268/39 189/267/37
f 191/268/39 182/258/38 184/260/40
f 184/260/40 192/269/41 191/268/39
f 192/269/41 184/260/40 186/262/61
f 186/262/61 193/270/43 192/269/41
f 193/270/43 186/262/61 188/264/44
f 188/264/44 194/271/62 193/270/43
f 194/271/62 188/264/44 180/251/35
f 180/251/35 190/265/34 194/271/62
f 193/272/43 194/273/62 190/274/34
f 190/274/34 189/275/37 191/276/39
f 193/272/43 190/274/34 191/276/39
f 193/272/43 191/276/39 192/277/41
f 198/278/46 195/279/46 196/280/46
f 196/280/46 197/281/46 198/278/46
f 197/281/4 196/280/4 199/282/4
f 199/282/4 200/283/4 197/281/4
f 200/283/47 199/282/47 201/284/47
f 201/284/47 202/285/47 200/283/47
f 202/285/33 201/284/33 203/286/33
f 203/286/33 204/287/33 202/285/33
f 204/288/5 203/289/5 205/290/5
f 205/290/5 206/291/5 204/288/5
f 206/291/32 205/290/32 195/279/32
f 195/279/32 198/278/32 206/291/32
f 208/292/48 198/278/49 197/281/50
f 197/281/50 207/293/51 208/292/48
f 207/293/51 197/281/50 200/283/52
f 200/283/52 209/294/53 207/293/51
f 209/294/53 200/283/52 202/285/54
f 202/285/54 210/295/55 209/294/53
f 210/295/55 202/285/54 204/287/56
f 204/287/56 211/296/57 210/295/55
f 211/297/57 204/288/56 206/291/58
f 206/291/58 212/298/59 211/297/57
f 212/298/59 206/291/58 198/278/49
f 198/278/49 208/292/48 212/298/59
f 211/299/57 212/300/59 208/301/48
f 208/301/48 207/302/51 209/303/53
f 211/299/57 208/301/48 209/303/53
f 211/299/57 209/303/53 210/304/55
f 216/305/47 213/306/47 214/307/47
f 214/307/47 215/308/47 216/305/47
f 215/308/4 214/307/4 217/309/4
f 217/309/4 218/310/4 215/308/4
f 218/311/31 217/312/31 219/313/31
f 219/313/31 220/314/31 218/311/31
f 220/314/63 219/313/63 221/315/63
f 221/315/63 222/316/63 220/314/63
f 222/316/5 221/315/5 223/317/5
f 223/317/5 224/318/5 222/316/5
f 224/318/33 223/317/33 213/306/33
f 213/306/33 216/305/33 224/318/33
f 226/319/34 216/305/35 215/308/60
f 215/308/60 225/320/37 226/319/34
f 225/320/37 215/308/60 218/310/38
f 218/310/38 227/321/39 225/320/37
f 227/322/39 218/311/38 220/314/64
f 220/314/64 228/323/65 227/322/39
f 228/323/65 220/314/64 222/316/61
f 222/316/61 229/324/43 228/323/65
f 229/324/43 222/316/61 224/318/44
f 224/318/44 230/325/62 229/324/43
f 230/325/62 224/318/44 216/305/35
f 216/305/35 226/319/34 230/325/62
f 229/326/43 230/327/62 226/328/34
f 226/328/34 225/329/37 227/330/39
f 229/326/43 226/328/34 227/330/39
f 229/326/43 227/330/39 228/331/65
f 234/332/46 231/333/46 232/334/46
f 232/334/46 233/335/46 234/332/46
f 233/335/4 232/334/4 235/336/4
f 235/336/4 236/337/4 233/335/4
f 236/337/47 235/336/47 237/338/47
f 237/338/47 238/339/47 236/337/47
f 238/339/33 237/338/33 239/340/33
f 239/340/33 240/341/33 238/339/33
f 240/341/5 239/340/5 241/342/5
f 241/342/5 242/343/5 240/341/5
f 242/344/32 241/345/32 231/333/32
f 231/333/32 234/332/32 242/344/32
f 244/346/48 234/332/49 233/335/50
f 233/335/50 243/347/51 244/346/48
f 243/347/51 233/335/50 236/337/52
f 236/337/52 245/348/66 243/347/51
f 245/348/66 236/337/52 238/339/54
f 238/339/54 246/349/55 245/348/66
f 246/349/55 238/339/54 240/341/56
f 240/341/56 247/350/67 246/349/55
f 247/350/67 240/341/56 242/343/58
f 242/343/58 248/351/59 247/350/67
f 248/352/59 242/344/58 234/332/49
f 234/332/49 244/346/48 248/352/59
f 247/353/67 248/354/59 244/355/48
f 244/355/48 243/356/51 245/357/66
f 247/353/67 244/355/48 245/357/66
f 247/353/67 245/357/66 246/358/55
f 252/359/47 249/360/47 250/361/47
f 250/361/47 251/362/47 252/359/47
f 251/362/4 250/361/4 253/363/4
f 253/363/4 254/364/4 251/362/4
f 254/365/46 253/366/46 255/367/46
f 255/367/46 256/368/46 254/365/46
f 256/368/32 255/367/32 257/369/32
f 257/369/32 258/370/32 256/368/32
f 258/370/5 257/369/5 259/371/5
f 259/371/5 260/372/5 258/370/5
f 260/372/33 259/371/33 249/360/33
f 249/360/33 252/359/33 260/372/33
f 262/373/34 252/359/35 251/362/36
f 251/362/36 261/374/68 262/373/34
f 261/374/68 251/362/36 254/364/38
f 254/364/38 263/375/39 261/374/68
f 263/376/39 254/365/38 256/368/40
f 256/368/40 264/377/41 263/376/39
f 264/377/41 256/368/40 258/370/69
f 258/370/69 265/378/43 264/377/41
f 265/378/43 258/370/69 260/372/70
f 260/372/70 266/379/45 265/378/43
f 266/379/45 260/372/70 252/359/35
f 252/359/35 262/373/34 266/379/45
f 265/380/43 266/381/45 262/382/34
f 262/382/34 261/383/68 263/384/39
f 265/380/43 262/382/34 263/384/39
f 265/380/43 263/384/39 264/385/41
f 270/386/46 267/387/46 268/388/46
f 268/388/46 269/389/46 270/386/46
f 269/389/4 268/388/4 271/390/4
f 271/390/4 272/391/4 269/389/4
f 272/391/47 271/390/47 273/392/47
f 273/392/47 274/393/47 272/391/47
f 274/393/33 273/392/33 275/394/33
f 275/394/33 276/395/33 274/393/33
f 276/395/5 275/394/5 277/396/5
f 277/396/5 278/397/5 276/395/5
f 278/398/32 277/399/32 267/387/32
f 267/387/32 270/386/32 278/398/32
f 280/400/48 270/386/49 269/389/50
f 269/389/50 279/401/51 280/400/48
f 279/401/51 269/389/50 272/391/52
f 272/391/52 281/402/53 279/401/51
f 281/402/53 272/391/52 274/393/54
f 274/393/54 282/403/55 281/402/53
f 282/403/55 274/393/54 276/395/71
f 276/395/71 283/404/57 282/403/55
f 283/404/57 276/395/71 278/397/58
f 278/397/58 284/405/59 283/404/57
f 284/406/59 278/398/58 270/386/49
f 270/386/49 280/400/48 284/406/59
f 283/407/57 284/408/59 280/409/48
f 280/409/48 279/410/51 281/411/53
f 283/407/57 280/409/48 281/411/53
f 283/407/57 281/411/53 282/412/55
