# Blender 5.1.2
# www.blender.org
mtllib Stand.mtl
o SM_Stand_01
v -0.495119 1.605660 -0.016373
v -0.495119 1.605660 0.016376
v -0.466300 1.605660 0.016376
v -0.466300 1.605660 -0.016373
v -0.495119 -0.000006 -0.016373
v -0.495119 -0.000006 0.016376
v -0.466301 -0.000006 0.016376
v -0.466301 -0.000006 -0.016373
v -0.475587 1.595330 -0.009115
v -0.475587 1.595330 0.002811
v -0.006803 1.595330 0.002811
v -0.006803 1.595330 -0.009115
v -0.475588 0.871475 0.002811
v -0.006803 0.871475 0.002811
v -0.006803 0.871475 -0.009115
v -0.475588 0.871475 -0.009115
v -0.011449 1.605660 -0.016374
v -0.011449 1.605660 0.016375
v 0.017369 1.605660 0.016375
v 0.017369 1.605660 -0.016374
v -0.011449 -0.000006 -0.016374
v -0.011449 -0.000006 0.016375
v 0.017369 -0.000006 0.016375
v 0.017369 -0.000006 -0.016374
v 0.002149 1.595330 -0.009115
v 0.002149 1.595330 0.002811
v 0.470936 1.595330 0.002811
v 0.470936 1.595330 -0.009115
v 0.002149 0.871475 0.002811
v 0.470936 0.871475 0.002811
v 0.470936 0.871475 -0.009115
v 0.002149 0.871475 -0.009115
v 0.466290 1.605660 -0.016374
v 0.466290 1.605660 0.016375
v 0.495108 1.605660 0.016375
v 0.495108 1.605660 -0.016374
v 0.466290 -0.000006 -0.016374
v 0.466290 -0.000006 0.016375
v 0.495108 -0.000006 0.016375
v 0.495108 -0.000006 -0.016374
v -0.447113 1.472559 0.005636
v -0.234589 1.472559 0.005636
v -0.234589 1.561507 0.005636
v -0.447113 1.561507 0.005636
v -0.213630 1.360334 0.005636
v -0.035290 1.360334 0.005636
v -0.035290 1.561507 0.005636
v -0.213630 1.561507 0.005636
v -0.447113 1.359607 0.005636
v -0.234589 1.359607 0.005636
v -0.234589 1.448556 0.005636
v -0.447113 1.448556 0.005636
v -0.447113 1.111986 0.005636
v -0.037485 1.111986 0.005636
v -0.037485 1.329130 0.005636
v -0.447113 1.329130 0.005636
v 0.033333 1.472559 0.005636
v 0.245858 1.472559 0.005636
v 0.245858 1.561507 0.005636
v 0.033333 1.561507 0.005636
v 0.266815 1.097144 0.005636
v 0.445155 1.097144 0.005636
v 0.445155 1.561507 0.005636
v 0.266815 1.561507 0.005636
v 0.033333 1.359607 0.005636
v 0.245858 1.359607 0.005636
v 0.245858 1.448556 0.005636
v 0.033333 1.448556 0.005636
v 0.033333 1.096319 0.005636
v 0.245858 1.096319 0.005636
v 0.245858 1.333903 0.005636
v 0.033333 1.333903 0.005636
v 0.032884 1.076249 0.005636
v 0.032884 0.897911 0.005636
v 0.445938 0.897910 0.005636
v 0.445938 1.076249 0.005636
v -0.125951 1.076249 0.005636
v -0.125951 0.897911 0.005636
v -0.034181 0.897911 0.005636
v -0.034181 1.076249 0.005636
v -0.441757 1.076249 0.005636
v -0.441757 0.897911 0.005636
v -0.157607 0.897911 0.005636
v -0.157607 1.076249 0.005636
vn -0.0000 1.0000 -0.0000
vn -1.0000 -0.0000 -0.0000
vn -0.0000 -0.0000 1.0000
vn 1.0000 -0.0000 -0.0000
vn -0.0000 -0.0000 -1.0000
vn -0.0000 -1.0000 -0.0000
vt 0.974924 0.889491
vt 0.976752 0.889491
vt 0.976752 0.891569
vt 0.974924 0.891569
vt 0.984766 0.912660
vt 0.899703 0.912660
vt 0.899703 0.910926
vt 0.984766 0.910926
vt 0.984766 0.907664
vt 0.899703 0.907664
vt 0.899703 0.906137
vt 0.984766 0.906137
vt 0.984766 0.909399
vt 0.899703 0.909399
vt 0.890770 0.931169
vt 0.909061 0.931169
vt 0.909061 0.931635
vt 0.890770 0.931635
vt 0.909061 0.902925
vt 0.890770 0.902925
vt 0.965437 0.932315
vt 0.965437 0.960559
vt 0.947145 0.960559
vt 0.947145 0.932315
vt 0.947145 0.931850
vt 0.965437 0.931850
vt 0.970539 0.940025
vt 0.972368 0.940025
vt 0.972368 0.942103
vt 0.970539 0.942103
vt 0.968507 0.904906
vt 0.883444 0.904906
vt 0.883444 0.903171
vt 0.968507 0.903171
vt 0.968507 0.899910
vt 0.883444 0.899910
vt 0.883444 0.898383
vt 0.968507 0.898383
vt 0.968507 0.901645
vt 0.883444 0.901645
vt 0.909562 0.960094
vt 0.927853 0.960094
vt 0.927853 0.960559
vt 0.909562 0.960559
vt 0.927853 0.931850
vt 0.909562 0.931850
vt 0.946645 0.903391
vt 0.946645 0.931635
vt 0.928354 0.931635
vt 0.928354 0.903391
vt 0.928354 0.902925
vt 0.946645 0.902925
vt 0.961719 0.933904
vt 0.963547 0.933904
vt 0.963547 0.935982
vt 0.961719 0.935982
vt 0.990313 0.969544
vt 0.888442 0.969544
vt 0.888442 0.967467
vt 0.990313 0.967467
vt 0.990313 0.963561
vt 0.888442 0.963561
vt 0.888442 0.961732
vt 0.990313 0.961732
vt 0.990313 0.965638
vt 0.888442 0.965638
vt 0.773304 0.787193
vt 0.773304 0.784117
vt 0.780653 0.784117
vt 0.780653 0.787193
vt 0.790284 0.802991
vt 0.790284 0.796035
vt 0.796450 0.796035
vt 0.796450 0.802991
vt 0.832080 0.782132
vt 0.832080 0.779056
vt 0.839428 0.779056
vt 0.839428 0.782132
vt 0.773304 0.840278
vt 0.773304 0.832770
vt 0.787468 0.832770
vt 0.787468 0.840278
vt 0.832080 0.845315
vt 0.832080 0.842239
vt 0.839428 0.842239
vt 0.839428 0.845315
vt 0.816406 0.840173
vt 0.816406 0.824117
vt 0.822573 0.824117
vt 0.822573 0.840173
vt 0.773304 0.832090
vt 0.773304 0.829015
vt 0.780653 0.829015
vt 0.780653 0.832090
vt 0.808243 0.840169
vt 0.808243 0.831954
vt 0.815592 0.831954
vt 0.815592 0.840169
vt 0.804566 0.795345
vt 0.790284 0.795345
vt 0.790284 0.789178
vt 0.804566 0.789178
vt 0.776478 0.828324
vt 0.773304 0.828324
vt 0.773304 0.822158
vt 0.776478 0.822158
vt 0.839456 0.795345
vt 0.829631 0.795345
vt 0.829631 0.789178
vt 0.839456 0.789178
s 1
usemtl 07_-_Default
f 2/1/1 3/2/1 4/3/1 1/4/1
f 6/5/2 2/6/2 1/7/2 5/8/2
f 7/9/3 3/10/3 2/11/3 6/12/3
f 8/13/4 4/14/4 3/10/4 7/9/4
f 5/8/5 1/7/5 4/14/5 8/13/5
f 10/15/1 11/16/1 12/17/1 9/18/1
f 14/19/3 11/16/3 10/15/3 13/20/3
f 16/21/5 9/22/5 12/23/5 15/24/5
f 14/25/6 13/26/6 16/21/6 15/24/6
f 18/27/1 19/28/1 20/29/1 17/30/1
f 22/31/2 18/32/2 17/33/2 21/34/2
f 23/35/3 19/36/3 18/37/3 22/38/3
f 24/39/4 20/40/4 19/36/4 23/35/4
f 21/34/5 17/33/5 20/40/5 24/39/5
f 26/41/1 27/42/1 28/43/1 25/44/1
f 30/45/3 27/42/3 26/41/3 29/46/3
f 32/47/5 25/48/5 28/49/5 31/50/5
f 30/51/6 29/52/6 32/47/6 31/50/6
f 34/53/1 35/54/1 36/55/1 33/56/1
f 38/57/2 34/58/2 33/59/2 37/60/2
f 39/61/3 35/62/3 34/63/3 38/64/3
f 40/65/4 36/66/4 35/62/4 39/61/4
f 37/60/5 33/59/5 36/66/5 40/65/5
f 42/67/3 43/68/3 44/69/3 41/70/3
f 46/71/3 47/72/3 48/73/3 45/74/3
f 50/75/3 51/76/3 52/77/3 49/78/3
f 54/79/3 55/80/3 56/81/3 53/82/3
f 58/83/3 59/84/3 60/85/3 57/86/3
f 62/87/3 63/88/3 64/89/3 61/90/3
f 66/91/3 67/92/3 68/93/3 65/94/3
f 70/95/3 71/96/3 72/97/3 69/98/3
f 74/99/3 75/100/3 76/101/3 73/102/3
f 78/103/3 79/104/3 80/105/3 77/106/3
f 82/107/3 83/108/3 84/109/3 81/110/3
